%TF.GenerationSoftware,KiCad,Pcbnew,8.0.5*%
%TF.CreationDate,2024-10-16T13:53:07-05:00*%
%TF.ProjectId,MonitoringSystem_PCB,4d6f6e69-746f-4726-996e-675379737465,rev?*%
%TF.SameCoordinates,Original*%
%TF.FileFunction,Copper,L2,Bot*%
%TF.FilePolarity,Positive*%
%FSLAX46Y46*%
G04 Gerber Fmt 4.6, Leading zero omitted, Abs format (unit mm)*
G04 Created by KiCad (PCBNEW 8.0.5) date 2024-10-16 13:53:07*
%MOMM*%
%LPD*%
G01*
G04 APERTURE LIST*
G04 Aperture macros list*
%AMRoundRect*
0 Rectangle with rounded corners*
0 $1 Rounding radius*
0 $2 $3 $4 $5 $6 $7 $8 $9 X,Y pos of 4 corners*
0 Add a 4 corners polygon primitive as box body*
4,1,4,$2,$3,$4,$5,$6,$7,$8,$9,$2,$3,0*
0 Add four circle primitives for the rounded corners*
1,1,$1+$1,$2,$3*
1,1,$1+$1,$4,$5*
1,1,$1+$1,$6,$7*
1,1,$1+$1,$8,$9*
0 Add four rect primitives between the rounded corners*
20,1,$1+$1,$2,$3,$4,$5,0*
20,1,$1+$1,$4,$5,$6,$7,0*
20,1,$1+$1,$6,$7,$8,$9,0*
20,1,$1+$1,$8,$9,$2,$3,0*%
G04 Aperture macros list end*
%TA.AperFunction,ComponentPad*%
%ADD10RoundRect,0.250000X-0.620000X-0.845000X0.620000X-0.845000X0.620000X0.845000X-0.620000X0.845000X0*%
%TD*%
%TA.AperFunction,ComponentPad*%
%ADD11O,1.740000X2.190000*%
%TD*%
%TA.AperFunction,ComponentPad*%
%ADD12RoundRect,0.250000X-0.845000X0.620000X-0.845000X-0.620000X0.845000X-0.620000X0.845000X0.620000X0*%
%TD*%
%TA.AperFunction,ComponentPad*%
%ADD13O,2.190000X1.740000*%
%TD*%
%TA.AperFunction,ComponentPad*%
%ADD14C,3.316000*%
%TD*%
%TA.AperFunction,ComponentPad*%
%ADD15C,1.428000*%
%TD*%
%TA.AperFunction,ComponentPad*%
%ADD16R,1.428000X1.428000*%
%TD*%
%TA.AperFunction,ComponentPad*%
%ADD17C,2.800000*%
%TD*%
%TA.AperFunction,ComponentPad*%
%ADD18C,1.700000*%
%TD*%
%TA.AperFunction,ComponentPad*%
%ADD19RoundRect,0.250000X-0.600000X-0.600000X0.600000X-0.600000X0.600000X0.600000X-0.600000X0.600000X0*%
%TD*%
%TA.AperFunction,ViaPad*%
%ADD20C,0.600000*%
%TD*%
%TA.AperFunction,ViaPad*%
%ADD21C,0.800000*%
%TD*%
%TA.AperFunction,Conductor*%
%ADD22C,0.254000*%
%TD*%
%TA.AperFunction,Conductor*%
%ADD23C,1.270000*%
%TD*%
%TA.AperFunction,Conductor*%
%ADD24C,0.508000*%
%TD*%
G04 APERTURE END LIST*
D10*
%TO.P,J1,1,Vcc*%
%TO.N,+3.3V*%
X124180600Y-121488200D03*
D11*
%TO.P,J1,2,Signal*%
%TO.N,/Ultrasonic Sensing Subsystem/ULTRASONIC_2_IN*%
X126720600Y-121488200D03*
%TO.P,J1,3,GND*%
%TO.N,GND*%
X129260600Y-121488200D03*
%TD*%
D12*
%TO.P,J3,1,Vcc*%
%TO.N,+3.3V*%
X125831600Y-110947200D03*
D13*
%TO.P,J3,2,Signal*%
%TO.N,/Ultrasonic Sensing Subsystem/ULTRASONIC_1_IN*%
X125831600Y-113487200D03*
%TO.P,J3,3,GND*%
%TO.N,GND*%
X125831600Y-116027200D03*
%TD*%
D14*
%TO.P,J2,SH2,SHIELD__1*%
%TO.N,GND*%
X189545800Y-91394400D03*
%TO.P,J2,SH1,SHIELD*%
X189545800Y-103434400D03*
D15*
%TO.P,J2,4,GND*%
X186835800Y-96164400D03*
%TO.P,J2,3,D+*%
%TO.N,/Power and Programming Subsystem/USB_D+*%
X186835800Y-98664400D03*
D16*
%TO.P,J2,1,VBUS*%
%TO.N,Net-(D3-A)*%
X184835800Y-96164400D03*
D15*
%TO.P,J2,2,D-*%
%TO.N,/Power and Programming Subsystem/USB_D-*%
X184835800Y-98664400D03*
%TD*%
D17*
%TO.P,TP11,1,1*%
%TO.N,/Ultrasonic Sensing Subsystem/STOP*%
X188264800Y-122555000D03*
%TD*%
%TO.P,TP10,1,1*%
%TO.N,/Ultrasonic Sensing Subsystem/START*%
X173583600Y-85750400D03*
%TD*%
%TO.P,TP9,1,1*%
%TO.N,/Ultrasonic Sensing Subsystem/TRIGGER*%
X185394600Y-86309200D03*
%TD*%
%TO.P,TP8,1,1*%
%TO.N,/Ultrasonic Sensing Subsystem/ULTRASONIC_2_IN*%
X120167400Y-122885200D03*
%TD*%
%TO.P,TP7,1,1*%
%TO.N,/Ultrasonic Sensing Subsystem/ULTRASONIC_1_IN*%
X113893600Y-114808000D03*
%TD*%
%TO.P,TP6,1,1*%
%TO.N,TDC7200_CS*%
X184150000Y-122580400D03*
%TD*%
%TO.P,TP5,1,1*%
%TO.N,TDC1000_CS*%
X189534800Y-86156800D03*
%TD*%
%TO.P,TP4,1,1*%
%TO.N,/LCD_CS*%
X122758200Y-85953600D03*
%TD*%
%TO.P,TP3,1,1*%
%TO.N,SPI_SCK*%
X120345200Y-118745000D03*
%TD*%
%TO.P,TP2,1,1*%
%TO.N,SPI_MISO*%
X167132000Y-85623400D03*
%TD*%
%TO.P,TP1,1,1*%
%TO.N,SPI_MOSI*%
X120116600Y-114630200D03*
%TD*%
D18*
%TO.P,J4,10,~{RESET}*%
%TO.N,CHIP_PU*%
X118313200Y-106807000D03*
%TO.P,J4,9,GNDDetect*%
%TO.N,GND*%
X115773200Y-106807000D03*
%TO.P,J4,8,NC/TDI*%
%TO.N,/MTDI*%
X118313200Y-104267000D03*
%TO.P,J4,7,KEY*%
%TO.N,unconnected-(J4-KEY-Pad7)*%
X115773200Y-104267000D03*
%TO.P,J4,6,SWO/TDO*%
%TO.N,/MTDO*%
X118313200Y-101727000D03*
%TO.P,J4,5,GND*%
%TO.N,GND*%
X115773200Y-101727000D03*
%TO.P,J4,4,SWDCLK/TCK*%
%TO.N,/MTCK*%
X118313200Y-99187000D03*
%TO.P,J4,3,GND*%
%TO.N,GND*%
X115773200Y-99187000D03*
%TO.P,J4,2,SWDIO/TMS*%
%TO.N,/MTMS*%
X118313200Y-96647000D03*
D19*
%TO.P,J4,1,VTref*%
%TO.N,Net-(J4-VTref)*%
X115773200Y-96647000D03*
%TD*%
D20*
%TO.N,GND*%
X185445400Y-104571800D03*
D21*
%TO.N,+3.3V*%
X125755400Y-92329000D03*
D20*
%TO.N,GND*%
X143941800Y-96799400D03*
%TO.N,+3.3V*%
X155751200Y-112725200D03*
%TO.N,GND*%
X123215400Y-102158800D03*
%TO.N,SPI_MISO*%
X157937200Y-107772200D03*
X155346400Y-103251000D03*
X155321000Y-97434400D03*
%TO.N,/LCD_CS*%
X126847600Y-98958400D03*
%TO.N,TDC1000_CS*%
X154355800Y-96012000D03*
%TO.N,/Ultrasonic Sensing Subsystem/TRIGGER*%
X189077600Y-100888800D03*
X184531000Y-101371400D03*
%TO.N,/Ultrasonic Sensing Subsystem/START*%
X180949600Y-111379000D03*
%TO.N,GND*%
X156972000Y-96215200D03*
X162560000Y-98806000D03*
X154228800Y-92964000D03*
X161747200Y-92176600D03*
X180975000Y-115417600D03*
%TO.N,TDC1000_CHANNEL_SELECT*%
X149529800Y-124139200D03*
%TO.N,GPIO0_STRAPPING*%
X165481000Y-97053400D03*
X193167000Y-95351600D03*
%TO.N,TDC1000_CHANNEL_SELECT*%
X180181444Y-109650578D03*
%TO.N,TDC1000_ERRB*%
X151180800Y-124139200D03*
%TO.N,GND*%
X134924800Y-105918000D03*
X135153400Y-101168200D03*
X135915400Y-94157800D03*
X148767800Y-122199400D03*
X151155400Y-122123200D03*
X147243800Y-124510800D03*
X140970000Y-110210600D03*
X137363200Y-109397800D03*
%TO.N,/Ultrasonic Sensing Subsystem/ULTRASONIC_2_IN*%
X165736143Y-119762143D03*
X168368600Y-119453999D03*
X168808400Y-111556800D03*
X139717400Y-120948000D03*
%TO.N,/Ultrasonic Sensing Subsystem/ULTRASONIC_1_IN*%
X138871200Y-116027200D03*
X164507800Y-114325400D03*
%TO.N,TDC1000_ERRB*%
X179381687Y-109670313D03*
D21*
%TO.N,+3.3V*%
X131978400Y-111760000D03*
X131419600Y-117119400D03*
D20*
%TO.N,CHIP_PU*%
X133705600Y-91617800D03*
D21*
%TO.N,Net-(J4-VTref)*%
X121158000Y-106781600D03*
%TO.N,/MTDI*%
X155924400Y-100150000D03*
D20*
X140258800Y-89458800D03*
D21*
%TO.N,/MTDO*%
X156651400Y-101041200D03*
D20*
X139693113Y-88831800D03*
D21*
%TO.N,/MTCK*%
X157734000Y-102717600D03*
D20*
X139161517Y-88204800D03*
D21*
%TO.N,/MTMS*%
X157734000Y-98501200D03*
D20*
X138634742Y-87577800D03*
%TO.N,SPI_MOSI*%
X126814200Y-101650800D03*
%TO.N,SPI_SCK*%
X177393600Y-120548400D03*
X126492000Y-100888800D03*
%TO.N,TDC7200_EN*%
X151638000Y-118175000D03*
X165799644Y-118248200D03*
%TO.N,/Ultrasonic Sensing Subsystem/STOP*%
X178173780Y-123163783D03*
%TO.N,/Ultrasonic Sensing Subsystem/START*%
X177393600Y-122986800D03*
%TO.N,/Ultrasonic Sensing Subsystem/STOP*%
X178816000Y-110236000D03*
%TO.N,/Ultrasonic Sensing Subsystem/START*%
X178079400Y-111302800D03*
%TO.N,TDC7200_CS*%
X171704000Y-107121200D03*
X171975400Y-120040400D03*
%TO.N,TDC7200_INT*%
X152501600Y-122021600D03*
X173888400Y-122732800D03*
%TO.N,-5V*%
X135280400Y-122631200D03*
X159715200Y-122885200D03*
%TO.N,TDC1000_EN*%
X146202400Y-116535200D03*
X165531800Y-117340000D03*
%TO.N,+5V*%
X163271200Y-111709200D03*
X139346353Y-112774047D03*
%TO.N,TDC1000_RST*%
X147929600Y-116535200D03*
X166206600Y-116888145D03*
%TO.N,SPI_MOSI*%
X165806280Y-116086000D03*
X156378200Y-115784200D03*
%TO.N,SPI_MISO*%
X172476860Y-120969000D03*
%TO.N,SPI_MOSI*%
X173380400Y-121107200D03*
%TO.N,SPI_SCK*%
X172618400Y-119532400D03*
%TO.N,TDC1000_EN*%
X176592356Y-117511956D03*
X177302637Y-106771768D03*
%TO.N,/Ultrasonic Sensing Subsystem/TRIGGER*%
X174040800Y-118719600D03*
X176675637Y-106144771D03*
%TO.N,TDC1000_RST*%
X174196493Y-117371096D03*
X175971200Y-105765600D03*
%TO.N,SPI_MISO*%
X170738800Y-108170600D03*
X171907200Y-105867200D03*
%TO.N,+3.3V*%
X165557200Y-107344306D03*
%TO.N,SPI_MOSI*%
X174091600Y-116578000D03*
X174091600Y-105765600D03*
%TO.N,CLK_OUT3 (1 MHz)*%
X167894000Y-121005600D03*
X170789600Y-105816400D03*
%TO.N,/Ultrasonic Sensing Subsystem/TRANSMIT_2_OUT*%
X139090400Y-121869200D03*
X169503000Y-105765600D03*
%TO.N,/Ultrasonic Sensing Subsystem/TRANSMIT_1_OUT*%
X135900233Y-116982167D03*
X168823270Y-106187464D03*
%TO.N,GPIO0_STRAPPING*%
X161290000Y-97637600D03*
%TO.N,CHIP_PU*%
X130122000Y-105562400D03*
D21*
%TO.N,+3.3V*%
X139293600Y-107848400D03*
X176479200Y-102514400D03*
X161622153Y-111279353D03*
D20*
%TO.N,/LCD_CS*%
X138158600Y-106172000D03*
X138125200Y-101244400D03*
D21*
%TO.N,+3.3V*%
X139293600Y-99314000D03*
D20*
X178104800Y-96215200D03*
D21*
X141300200Y-112649000D03*
X139293600Y-94894400D03*
X179120800Y-104648000D03*
%TO.N,+5V*%
X130708400Y-107645200D03*
X167335200Y-102463600D03*
X185928000Y-110185200D03*
D20*
X179269244Y-96312844D03*
%TO.N,Net-(U11-COMPIN)*%
X176403000Y-115697000D03*
X176784000Y-112903000D03*
D21*
%TO.N,Net-(D3-A)*%
X183896000Y-106553000D03*
D20*
%TO.N,CHIP_PU*%
X134899400Y-95885000D03*
%TO.N,GPIO0_STRAPPING*%
X161239200Y-108762800D03*
%TO.N,Net-(Q1-B)*%
X169164000Y-91694000D03*
X169291000Y-95796000D03*
%TO.N,Net-(Q2-B)*%
X172466000Y-94810000D03*
X172212000Y-89789000D03*
%TO.N,SPI_SCK*%
X172720000Y-107797600D03*
%TO.N,GND*%
X174777400Y-96875600D03*
%TO.N,+3.3V*%
X166696000Y-101299360D03*
%TD*%
D22*
%TO.N,TDC1000_CS*%
X165582600Y-83642200D02*
X187020200Y-83642200D01*
X154355800Y-94869000D02*
X165582600Y-83642200D01*
X187020200Y-83642200D02*
X189534800Y-86156800D01*
X154355800Y-96012000D02*
X154355800Y-94869000D01*
D23*
%TO.N,+5V*%
X167487600Y-107492800D02*
X163271200Y-111709200D01*
D22*
%TO.N,/Ultrasonic Sensing Subsystem/ULTRASONIC_2_IN*%
X126517400Y-121488200D02*
X126720600Y-121488200D01*
X121211799Y-123929599D02*
X124076001Y-123929599D01*
X120167400Y-122885200D02*
X121211799Y-123929599D01*
X124076001Y-123929599D02*
X126517400Y-121488200D01*
%TO.N,/Ultrasonic Sensing Subsystem/TRIGGER*%
X184597243Y-101437643D02*
X188528757Y-101437643D01*
X188528757Y-101437643D02*
X189077600Y-100888800D01*
X184531000Y-101371400D02*
X184597243Y-101437643D01*
D24*
%TO.N,+3.3V*%
X135263000Y-90863800D02*
X139293600Y-94894400D01*
X131995800Y-90863800D02*
X135263000Y-90863800D01*
X125755400Y-92329000D02*
X130530600Y-92329000D01*
X130530600Y-92329000D02*
X131995800Y-90863800D01*
D22*
%TO.N,GND*%
X125831600Y-116027200D02*
X124180600Y-116027200D01*
X188417200Y-96189800D02*
X191185800Y-98958400D01*
X188417200Y-96164400D02*
X188417200Y-96189800D01*
X188214000Y-96164400D02*
X188417200Y-96164400D01*
X186835800Y-96164400D02*
X188214000Y-96164400D01*
%TO.N,Net-(J4-VTref)*%
X118953130Y-98010000D02*
X120523000Y-99579870D01*
X117136200Y-98010000D02*
X118953130Y-98010000D01*
X115773200Y-96647000D02*
X117136200Y-98010000D01*
%TO.N,SPI_SCK*%
X125006214Y-118770400D02*
X127482600Y-116294014D01*
X120345200Y-118745000D02*
X120370600Y-118770400D01*
X120370600Y-118770400D02*
X125006214Y-118770400D01*
X127482600Y-116294014D02*
X127482600Y-115239800D01*
%TO.N,Net-(J4-VTref)*%
X120523000Y-106426000D02*
X120523000Y-99579870D01*
X120878600Y-106781600D02*
X120523000Y-106426000D01*
X121158000Y-106781600D02*
X120878600Y-106781600D01*
%TO.N,SPI_MISO*%
X155346400Y-105181400D02*
X157937200Y-107772200D01*
X155346400Y-103251000D02*
X155346400Y-105181400D01*
X155321000Y-96979488D02*
X155321000Y-97434400D01*
X165864288Y-86436200D02*
X155321000Y-96979488D01*
X167970200Y-86436200D02*
X165864288Y-86436200D01*
%TO.N,SPI_MOSI*%
X127119000Y-100499800D02*
X127119000Y-101346000D01*
X127119000Y-101346000D02*
X126814200Y-101650800D01*
X126881000Y-100261800D02*
X127119000Y-100499800D01*
X126232288Y-100261800D02*
X126881000Y-100261800D01*
X124739400Y-108027502D02*
X124739400Y-101754688D01*
X124739400Y-101754688D02*
X126232288Y-100261800D01*
X120116600Y-112650302D02*
X124739400Y-108027502D01*
X120116600Y-114630200D02*
X120116600Y-112650302D01*
%TO.N,/LCD_CS*%
X126847600Y-98958400D02*
X122758200Y-94869000D01*
X122758200Y-94869000D02*
X122758200Y-85953600D01*
D23*
%TO.N,+3.3V*%
X166766760Y-101228600D02*
X166696000Y-101299360D01*
X167846754Y-101228600D02*
X166766760Y-101228600D01*
X176479200Y-102514400D02*
X176987200Y-102514400D01*
X176987200Y-102514400D02*
X178130200Y-103657400D01*
X167946754Y-101328600D02*
X167846754Y-101228600D01*
X175293400Y-101328600D02*
X167946754Y-101328600D01*
X176479200Y-102514400D02*
X175293400Y-101328600D01*
D22*
%TO.N,/Ultrasonic Sensing Subsystem/START*%
X178319000Y-122061400D02*
X177393600Y-122986800D01*
X178319000Y-111542400D02*
X178319000Y-122061400D01*
X178079400Y-111302800D02*
X178319000Y-111542400D01*
X181686200Y-94208600D02*
X173583600Y-86106000D01*
X194462400Y-95760288D02*
X192910712Y-94208600D01*
X181152800Y-111175800D02*
X186309000Y-111175800D01*
X180949600Y-111379000D02*
X181152800Y-111175800D01*
X186309000Y-111175800D02*
X194462400Y-103022400D01*
X192910712Y-94208600D02*
X181686200Y-94208600D01*
X194462400Y-103022400D02*
X194462400Y-95760288D01*
%TO.N,GND*%
X160754312Y-96215200D02*
X156972000Y-96215200D01*
X162560000Y-98020888D02*
X160754312Y-96215200D01*
X162560000Y-98806000D02*
X162560000Y-98020888D01*
%TO.N,SPI_SCK*%
X126187200Y-101193600D02*
X126492000Y-100888800D01*
X127482600Y-110310272D02*
X126187200Y-109014872D01*
X127482600Y-115239800D02*
X127482600Y-110310272D01*
X134653400Y-122410600D02*
X127482600Y-115239800D01*
X135274688Y-123512200D02*
X134653400Y-122890912D01*
X159974912Y-123512200D02*
X135274688Y-123512200D01*
X160093912Y-123393200D02*
X159974912Y-123512200D01*
X175895000Y-123393200D02*
X160093912Y-123393200D01*
X177393600Y-121894600D02*
X175895000Y-123393200D01*
X177393600Y-120548400D02*
X177393600Y-121894600D01*
X126187200Y-109014872D02*
X126187200Y-101193600D01*
X134653400Y-122890912D02*
X134653400Y-122410600D01*
%TO.N,GPIO0_STRAPPING*%
X171109312Y-97053400D02*
X165481000Y-97053400D01*
X192913000Y-95097600D02*
X173065112Y-95097600D01*
X193167000Y-95351600D02*
X192913000Y-95097600D01*
X173065112Y-95097600D02*
X171109312Y-97053400D01*
%TO.N,TDC7200_INT*%
X152704800Y-122224800D02*
X173380400Y-122224800D01*
X173380400Y-122224800D02*
X173888400Y-122732800D01*
X152501600Y-122021600D02*
X152704800Y-122224800D01*
%TO.N,SPI_MOSI*%
X126641200Y-101823800D02*
X126814200Y-101650800D01*
X126641200Y-108826820D02*
X126641200Y-101823800D01*
X127936600Y-110122220D02*
X126641200Y-108826820D01*
X127936600Y-115051748D02*
X127936600Y-110122220D01*
X138338688Y-122004200D02*
X134889052Y-122004200D01*
X138830688Y-122496200D02*
X138338688Y-122004200D01*
X134889052Y-122004200D02*
X127936600Y-115051748D01*
X141650217Y-122496200D02*
X138830688Y-122496200D01*
X142751817Y-121394600D02*
X141650217Y-122496200D01*
X152826312Y-121459600D02*
X152761312Y-121394600D01*
X167332000Y-121459600D02*
X152826312Y-121459600D01*
X167634288Y-121761888D02*
X167332000Y-121459600D01*
X152761312Y-121394600D02*
X142751817Y-121394600D01*
X172725712Y-121761888D02*
X167634288Y-121761888D01*
X173380400Y-121107200D02*
X172725712Y-121761888D01*
%TO.N,GND*%
X148844000Y-122123200D02*
X148767800Y-122199400D01*
X151155400Y-122123200D02*
X148844000Y-122123200D01*
%TO.N,-5V*%
X141838270Y-122950200D02*
X135599400Y-122950200D01*
X141903270Y-122885200D02*
X141838270Y-122950200D01*
X159715200Y-122885200D02*
X141903270Y-122885200D01*
X135599400Y-122950200D02*
X135280400Y-122631200D01*
%TO.N,/Ultrasonic Sensing Subsystem/ULTRASONIC_2_IN*%
X165711886Y-119786400D02*
X140879000Y-119786400D01*
X140879000Y-119786400D02*
X139717400Y-120948000D01*
X165736143Y-119762143D02*
X165711886Y-119786400D01*
X168452800Y-119369799D02*
X168368600Y-119453999D01*
X168452800Y-111912400D02*
X168452800Y-119369799D01*
X168808400Y-111556800D02*
X168452800Y-111912400D01*
%TO.N,/Ultrasonic Sensing Subsystem/TRANSMIT_2_OUT*%
X141635164Y-121869200D02*
X139090400Y-121869200D01*
X142563764Y-120940600D02*
X141635164Y-121869200D01*
X165379400Y-121005600D02*
X153014365Y-121005600D01*
X167287600Y-119097400D02*
X165379400Y-121005600D01*
X167287600Y-110893200D02*
X167287600Y-119097400D01*
X152949365Y-120940600D02*
X142563764Y-120940600D01*
X169503000Y-108677800D02*
X167287600Y-110893200D01*
X169503000Y-105765600D02*
X169503000Y-108677800D01*
X153014365Y-121005600D02*
X152949365Y-120940600D01*
%TO.N,TDC7200_EN*%
X151700000Y-118237000D02*
X151638000Y-118175000D01*
X165363576Y-118248200D02*
X165352376Y-118237000D01*
X165799644Y-118248200D02*
X165363576Y-118248200D01*
X165352376Y-118237000D02*
X151700000Y-118237000D01*
%TO.N,TDC1000_EN*%
X146888200Y-117221000D02*
X146202400Y-116535200D01*
X165412800Y-117221000D02*
X146888200Y-117221000D01*
X165531800Y-117340000D02*
X165412800Y-117221000D01*
%TO.N,/Ultrasonic Sensing Subsystem/ULTRASONIC_1_IN*%
X164507800Y-114325400D02*
X163676000Y-115157200D01*
X139741200Y-115157200D02*
X138871200Y-116027200D01*
X163676000Y-115157200D02*
X139741200Y-115157200D01*
%TO.N,SPI_MOSI*%
X165696680Y-115976400D02*
X156570400Y-115976400D01*
X156570400Y-115976400D02*
X156378200Y-115784200D01*
X165806280Y-116086000D02*
X165696680Y-115976400D01*
%TO.N,TDC1000_RST*%
X148107400Y-116713000D02*
X147929600Y-116535200D01*
X166206600Y-116888145D02*
X166031455Y-116713000D01*
X166031455Y-116713000D02*
X148107400Y-116713000D01*
%TO.N,/Ultrasonic Sensing Subsystem/TRANSMIT_1_OUT*%
X137793266Y-118875200D02*
X135900233Y-116982167D01*
X166833600Y-118205200D02*
X166163600Y-118875200D01*
X166833600Y-109507274D02*
X166833600Y-118205200D01*
X166163600Y-118875200D02*
X137793266Y-118875200D01*
X168823270Y-107517604D02*
X166833600Y-109507274D01*
X168823270Y-106187464D02*
X168823270Y-107517604D01*
D24*
%TO.N,+3.3V*%
X131673600Y-112064800D02*
X131673600Y-116865400D01*
X131978400Y-111760000D02*
X131673600Y-112064800D01*
X131673600Y-116865400D02*
X131419600Y-117119400D01*
D22*
%TO.N,/MTMS*%
X156615439Y-98501200D02*
X157734000Y-98501200D01*
X156601639Y-98515000D02*
X156615439Y-98501200D01*
X151702600Y-98515000D02*
X156601639Y-98515000D01*
X140765400Y-87577800D02*
X151702600Y-98515000D01*
X138634742Y-87577800D02*
X140765400Y-87577800D01*
%TO.N,/MTCK*%
X157530800Y-102717600D02*
X157734000Y-102717600D01*
X157378400Y-102565200D02*
X157530800Y-102717600D01*
X157378400Y-99933813D02*
X157378400Y-102565200D01*
X156413587Y-98969000D02*
X157378400Y-99933813D01*
X151514548Y-98969000D02*
X156413587Y-98969000D01*
X139161517Y-88204800D02*
X140750348Y-88204800D01*
X140750348Y-88204800D02*
X151514548Y-98969000D01*
%TO.N,/MTDO*%
X156225534Y-99423000D02*
X156651400Y-99848866D01*
X151326496Y-99423000D02*
X156225534Y-99423000D01*
X140735296Y-88831800D02*
X151326496Y-99423000D01*
X156651400Y-99848866D02*
X156651400Y-101041200D01*
X139693113Y-88831800D02*
X140735296Y-88831800D01*
%TO.N,/MTDI*%
X151411444Y-100150000D02*
X155924400Y-100150000D01*
X140258800Y-89458800D02*
X140720244Y-89458800D01*
X140720244Y-89458800D02*
X151411444Y-100150000D01*
%TO.N,CHIP_PU*%
X134569200Y-92481400D02*
X134569200Y-95554800D01*
X133705600Y-91617800D02*
X134569200Y-92481400D01*
X134569200Y-95554800D02*
X134899400Y-95885000D01*
D23*
%TO.N,Net-(D3-A)*%
X183134000Y-105791000D02*
X183896000Y-106553000D01*
X183134000Y-97866200D02*
X183134000Y-105791000D01*
X184835800Y-96164400D02*
X183134000Y-97866200D01*
D22*
%TO.N,CHIP_PU*%
X133807200Y-96977200D02*
X134899400Y-95885000D01*
X131521200Y-105562400D02*
X133807200Y-103276400D01*
X130122000Y-105562400D02*
X131521200Y-105562400D01*
X133807200Y-103276400D02*
X133807200Y-96977200D01*
%TO.N,CLK_OUT3 (1 MHz)*%
X167741600Y-120853200D02*
X167741600Y-111506000D01*
X169957000Y-109290600D02*
X169957000Y-106649000D01*
X169957000Y-106649000D02*
X170789600Y-105816400D01*
X167894000Y-121005600D02*
X167741600Y-120853200D01*
X167741600Y-111506000D02*
X169957000Y-109290600D01*
%TO.N,/Ultrasonic Sensing Subsystem/STOP*%
X178173780Y-123163783D02*
X178816000Y-122521563D01*
X178816000Y-122521563D02*
X178816000Y-110236000D01*
%TO.N,SPI_MISO*%
X171715688Y-120667400D02*
X170738800Y-119690512D01*
X170738800Y-119690512D02*
X170738800Y-108170600D01*
X172175260Y-120667400D02*
X171715688Y-120667400D01*
X172476860Y-120969000D02*
X172175260Y-120667400D01*
%TO.N,TDC1000_EN*%
X177865000Y-116239312D02*
X176592356Y-117511956D01*
X177865000Y-112148148D02*
X177865000Y-116239312D01*
X177292000Y-111575148D02*
X177865000Y-112148148D01*
X177292000Y-106782405D02*
X177292000Y-111575148D01*
X177302637Y-106771768D02*
X177292000Y-106782405D01*
%TO.N,SPI_SCK*%
X172466000Y-119380000D02*
X172618400Y-119532400D01*
X172466000Y-108051600D02*
X172466000Y-119380000D01*
X172720000Y-107797600D02*
X172466000Y-108051600D01*
%TO.N,TDC7200_CS*%
X171907200Y-119972200D02*
X171975400Y-120040400D01*
X171907200Y-107324400D02*
X171907200Y-119972200D01*
X171704000Y-107121200D02*
X171907200Y-107324400D01*
%TO.N,SPI_MISO*%
X170738800Y-107035600D02*
X171907200Y-105867200D01*
X170738800Y-108170600D02*
X170738800Y-107035600D01*
D23*
%TO.N,+5V*%
X140767506Y-114195200D02*
X139346353Y-112774047D01*
X160785200Y-114195200D02*
X140767506Y-114195200D01*
X163271200Y-111709200D02*
X160785200Y-114195200D01*
%TO.N,+3.3V*%
X141376400Y-112725200D02*
X141300200Y-112649000D01*
X160176306Y-112725200D02*
X141376400Y-112725200D01*
X161622153Y-111279353D02*
X160176306Y-112725200D01*
%TO.N,+5V*%
X139346353Y-112774047D02*
X138484706Y-111912400D01*
X138484706Y-111912400D02*
X135026400Y-111912400D01*
X130759200Y-107645200D02*
X130708400Y-107645200D01*
X135026400Y-111912400D02*
X130759200Y-107645200D01*
D22*
%TO.N,SPI_MOSI*%
X173380400Y-117289200D02*
X174091600Y-116578000D01*
X173380400Y-121107200D02*
X173380400Y-117289200D01*
%TO.N,/Ultrasonic Sensing Subsystem/TRIGGER*%
X176675637Y-111600837D02*
X176675637Y-106144771D01*
X177411000Y-112336200D02*
X176675637Y-111600837D01*
X174040800Y-118719600D02*
X174498000Y-118719600D01*
X174498000Y-118719600D02*
X177411000Y-115806600D01*
X177411000Y-115806600D02*
X177411000Y-112336200D01*
%TO.N,TDC1000_RST*%
X175971200Y-106832400D02*
X175971200Y-105765600D01*
X175361600Y-116205989D02*
X175361600Y-107442000D01*
X174196493Y-117371096D02*
X175361600Y-116205989D01*
X175361600Y-107442000D02*
X175971200Y-106832400D01*
%TO.N,SPI_MOSI*%
X174091600Y-116578000D02*
X174091600Y-105765600D01*
%TO.N,GPIO0_STRAPPING*%
X161239200Y-108762800D02*
X161290000Y-108712000D01*
D24*
%TO.N,+5V*%
X167690800Y-104444800D02*
X168960800Y-104444800D01*
X167335200Y-102463600D02*
X167335200Y-104089200D01*
X167335200Y-104089200D02*
X167690800Y-104444800D01*
D23*
X176580800Y-104444800D02*
X168960800Y-104444800D01*
X167487600Y-105918000D02*
X167487600Y-107492800D01*
X182321200Y-110185200D02*
X176580800Y-104444800D01*
X185928000Y-110185200D02*
X182321200Y-110185200D01*
X168960800Y-104444800D02*
X167487600Y-105918000D01*
%TO.N,+3.3V*%
X139293600Y-107848400D02*
X139293600Y-102971600D01*
X139293600Y-110642400D02*
X139293600Y-107848400D01*
X163628753Y-109272753D02*
X161622153Y-111279353D01*
D22*
%TO.N,/LCD_CS*%
X138125200Y-106138600D02*
X138158600Y-106172000D01*
X138125200Y-101244400D02*
X138125200Y-106138600D01*
D23*
%TO.N,+3.3V*%
X139293600Y-99314000D02*
X139293600Y-94894400D01*
X139293600Y-102971600D02*
X139293600Y-99314000D01*
D22*
X178104800Y-103632000D02*
X178130200Y-103657400D01*
X178104800Y-96215200D02*
X178104800Y-103632000D01*
D23*
X178130200Y-103657400D02*
X179120800Y-104648000D01*
D22*
%TO.N,+5V*%
X180086000Y-97129600D02*
X180086000Y-108712000D01*
X179269244Y-96312844D02*
X180086000Y-97129600D01*
D23*
%TO.N,+3.3V*%
X165557200Y-102438160D02*
X165557200Y-107344306D01*
X166696000Y-101299360D02*
X165557200Y-102438160D01*
X165557200Y-107344306D02*
X163628753Y-109272753D01*
X141300200Y-112649000D02*
X139293600Y-110642400D01*
D24*
%TO.N,+5V*%
X163220400Y-111760000D02*
X163271200Y-111709200D01*
D22*
X163322000Y-111760000D02*
X163271200Y-111709200D01*
%TO.N,Net-(U11-COMPIN)*%
X176784000Y-115316000D02*
X176403000Y-115697000D01*
X176784000Y-112903000D02*
X176784000Y-115316000D01*
%TO.N,Net-(Q1-B)*%
X169164000Y-95669000D02*
X169164000Y-91694000D01*
X169291000Y-95796000D02*
X169164000Y-95669000D01*
%TO.N,Net-(Q2-B)*%
X172466000Y-94810000D02*
X172593000Y-94683000D01*
X172593000Y-94683000D02*
X172593000Y-90170000D01*
X172593000Y-90170000D02*
X172212000Y-89789000D01*
%TO.N,GPIO0_STRAPPING*%
X161290000Y-108712000D02*
X161290000Y-97637600D01*
%TO.N,TDC1000_ERRB*%
X151180800Y-124139200D02*
X151298400Y-124256800D01*
X151298400Y-124256800D02*
X177967475Y-124256800D01*
X179443000Y-122781275D02*
X179443000Y-109731626D01*
X177967475Y-124256800D02*
X179443000Y-122781275D01*
X179443000Y-109731626D02*
X179381687Y-109670313D01*
%TO.N,TDC1000_CHANNEL_SELECT*%
X178100128Y-124766200D02*
X150156800Y-124766200D01*
X180181444Y-109650578D02*
X180181444Y-122684884D01*
X150156800Y-124766200D02*
X149529800Y-124139200D01*
X180181444Y-122684884D02*
X178100128Y-124766200D01*
%TD*%
%TA.AperFunction,Conductor*%
%TO.N,GND*%
G36*
X117126425Y-104942669D02*
G01*
X117148680Y-104968353D01*
X117181807Y-105019058D01*
X117237475Y-105104265D01*
X117237479Y-105104270D01*
X117389962Y-105269908D01*
X117418266Y-105291938D01*
X117567624Y-105408189D01*
X117600880Y-105426186D01*
X117651271Y-105476200D01*
X117666623Y-105545516D01*
X117642062Y-105612129D01*
X117600880Y-105647813D01*
X117567626Y-105665810D01*
X117567624Y-105665811D01*
X117389962Y-105804091D01*
X117237479Y-105969729D01*
X117145068Y-106111175D01*
X117091064Y-106157263D01*
X117020716Y-106166838D01*
X116956359Y-106136860D01*
X116936371Y-106114529D01*
X116888125Y-106045626D01*
X116256162Y-106677589D01*
X116239125Y-106614007D01*
X116173299Y-106499993D01*
X116080207Y-106406901D01*
X115966193Y-106341075D01*
X115902609Y-106324037D01*
X116534572Y-105692072D01*
X116534572Y-105692071D01*
X116466050Y-105644092D01*
X116421721Y-105588635D01*
X116414412Y-105518016D01*
X116446442Y-105454655D01*
X116478350Y-105430066D01*
X116518776Y-105408189D01*
X116696440Y-105269906D01*
X116848922Y-105104268D01*
X116937718Y-104968354D01*
X116991720Y-104922268D01*
X117062068Y-104912692D01*
X117126425Y-104942669D01*
G37*
%TD.AperFunction*%
%TA.AperFunction,Conductor*%
G36*
X116888124Y-102488372D02*
G01*
X116888125Y-102488372D01*
X116936373Y-102419469D01*
X116991830Y-102375141D01*
X117062450Y-102367832D01*
X117125810Y-102399863D01*
X117145069Y-102422825D01*
X117237475Y-102564265D01*
X117237479Y-102564270D01*
X117295957Y-102627793D01*
X117378631Y-102717600D01*
X117389962Y-102729908D01*
X117416509Y-102750570D01*
X117567624Y-102868189D01*
X117600880Y-102886186D01*
X117651271Y-102936200D01*
X117666623Y-103005516D01*
X117642062Y-103072129D01*
X117600880Y-103107813D01*
X117567626Y-103125810D01*
X117567624Y-103125811D01*
X117389962Y-103264091D01*
X117237479Y-103429729D01*
X117148683Y-103565643D01*
X117094679Y-103611731D01*
X117024331Y-103621306D01*
X116959974Y-103591329D01*
X116937717Y-103565643D01*
X116848920Y-103429729D01*
X116696437Y-103264091D01*
X116589777Y-103181074D01*
X116518776Y-103125811D01*
X116516311Y-103124477D01*
X116478350Y-103103933D01*
X116427960Y-103053920D01*
X116412608Y-102984603D01*
X116437169Y-102917990D01*
X116466049Y-102889907D01*
X116534572Y-102841925D01*
X116534572Y-102841924D01*
X115902610Y-102209962D01*
X115966193Y-102192925D01*
X116080207Y-102127099D01*
X116173299Y-102034007D01*
X116239125Y-101919993D01*
X116256162Y-101856410D01*
X116888124Y-102488372D01*
G37*
%TD.AperFunction*%
%TA.AperFunction,Conductor*%
G36*
X116888124Y-99948372D02*
G01*
X116888125Y-99948372D01*
X116936373Y-99879469D01*
X116991830Y-99835141D01*
X117062450Y-99827832D01*
X117125810Y-99859863D01*
X117145069Y-99882825D01*
X117237475Y-100024265D01*
X117237479Y-100024270D01*
X117319398Y-100113256D01*
X117372893Y-100171367D01*
X117389962Y-100189908D01*
X117444531Y-100232381D01*
X117567624Y-100328189D01*
X117600880Y-100346186D01*
X117651271Y-100396200D01*
X117666623Y-100465516D01*
X117642062Y-100532129D01*
X117600880Y-100567813D01*
X117567626Y-100585810D01*
X117567624Y-100585811D01*
X117389962Y-100724091D01*
X117237479Y-100889729D01*
X117145068Y-101031175D01*
X117091064Y-101077263D01*
X117020716Y-101086838D01*
X116956359Y-101056860D01*
X116936371Y-101034529D01*
X116888125Y-100965626D01*
X116256162Y-101597589D01*
X116239125Y-101534007D01*
X116173299Y-101419993D01*
X116080207Y-101326901D01*
X115966193Y-101261075D01*
X115902609Y-101244037D01*
X116534572Y-100612072D01*
X116460508Y-100560212D01*
X116416180Y-100504755D01*
X116408871Y-100434136D01*
X116440902Y-100370775D01*
X116460508Y-100353786D01*
X116534572Y-100301925D01*
X116534572Y-100301924D01*
X115902610Y-99669962D01*
X115966193Y-99652925D01*
X116080207Y-99587099D01*
X116173299Y-99494007D01*
X116239125Y-99379993D01*
X116256162Y-99316409D01*
X116888124Y-99948372D01*
G37*
%TD.AperFunction*%
%TA.AperFunction,Conductor*%
G36*
X165089998Y-83020002D02*
G01*
X165136491Y-83073658D01*
X165146595Y-83143932D01*
X165117101Y-83208512D01*
X165110972Y-83215095D01*
X153862177Y-94463889D01*
X153862172Y-94463896D01*
X153792627Y-94567977D01*
X153744724Y-94683625D01*
X153744722Y-94683630D01*
X153720300Y-94806406D01*
X153720300Y-95467445D01*
X153700987Y-95534481D01*
X153622758Y-95658981D01*
X153622757Y-95658984D01*
X153570008Y-95809734D01*
X153562583Y-95830953D01*
X153542184Y-96012000D01*
X153562583Y-96193047D01*
X153562583Y-96193049D01*
X153562584Y-96193050D01*
X153622757Y-96365015D01*
X153622758Y-96365018D01*
X153719687Y-96519279D01*
X153719688Y-96519281D01*
X153848518Y-96648111D01*
X153848520Y-96648112D01*
X154002781Y-96745041D01*
X154002782Y-96745041D01*
X154002785Y-96745043D01*
X154174753Y-96805217D01*
X154355800Y-96825616D01*
X154518608Y-96807271D01*
X154588535Y-96819520D01*
X154640743Y-96867632D01*
X154658652Y-96936333D01*
X154639399Y-96999514D01*
X154587957Y-97081384D01*
X154532304Y-97240433D01*
X154527783Y-97253353D01*
X154507384Y-97434400D01*
X154527783Y-97615447D01*
X154527783Y-97615449D01*
X154527784Y-97615450D01*
X154561528Y-97711885D01*
X154565147Y-97782789D01*
X154529858Y-97844394D01*
X154466865Y-97877141D01*
X154442599Y-97879500D01*
X152018023Y-97879500D01*
X151949902Y-97859498D01*
X151928928Y-97842595D01*
X141170510Y-87084177D01*
X141170508Y-87084175D01*
X141066422Y-87014627D01*
X140950769Y-86966722D01*
X140827993Y-86942300D01*
X140827991Y-86942300D01*
X139179297Y-86942300D01*
X139112261Y-86922987D01*
X138987760Y-86844758D01*
X138987757Y-86844757D01*
X138815792Y-86784584D01*
X138815791Y-86784583D01*
X138815789Y-86784583D01*
X138634742Y-86764184D01*
X138453695Y-86784583D01*
X138453692Y-86784583D01*
X138453691Y-86784584D01*
X138281726Y-86844757D01*
X138281723Y-86844758D01*
X138127462Y-86941687D01*
X138127460Y-86941688D01*
X137998630Y-87070518D01*
X137998629Y-87070520D01*
X137901700Y-87224781D01*
X137901699Y-87224784D01*
X137853762Y-87361782D01*
X137841525Y-87396753D01*
X137821126Y-87577800D01*
X137841525Y-87758847D01*
X137841525Y-87758849D01*
X137841526Y-87758850D01*
X137901699Y-87930815D01*
X137901700Y-87930818D01*
X137998629Y-88085079D01*
X137998630Y-88085081D01*
X138127460Y-88213911D01*
X138127462Y-88213912D01*
X138281722Y-88310840D01*
X138281727Y-88310843D01*
X138293194Y-88314855D01*
X138350887Y-88356230D01*
X138370513Y-88392171D01*
X138428474Y-88557815D01*
X138428475Y-88557818D01*
X138525404Y-88712079D01*
X138525405Y-88712081D01*
X138654235Y-88840911D01*
X138654237Y-88840912D01*
X138808498Y-88937841D01*
X138808499Y-88937841D01*
X138808502Y-88937843D01*
X138825466Y-88943779D01*
X138883158Y-88985156D01*
X138902781Y-89021093D01*
X138960070Y-89184815D01*
X138960071Y-89184818D01*
X139057000Y-89339079D01*
X139057001Y-89339081D01*
X139185831Y-89467911D01*
X139185833Y-89467912D01*
X139340093Y-89564840D01*
X139340098Y-89564843D01*
X139395911Y-89584372D01*
X139453601Y-89625749D01*
X139473224Y-89661685D01*
X139525758Y-89811818D01*
X139622687Y-89966079D01*
X139622688Y-89966081D01*
X139751518Y-90094911D01*
X139751520Y-90094912D01*
X139905781Y-90191841D01*
X139905782Y-90191841D01*
X139905785Y-90191843D01*
X140077753Y-90252017D01*
X140258800Y-90272416D01*
X140439847Y-90252017D01*
X140494668Y-90232833D01*
X140565569Y-90229213D01*
X140625378Y-90262667D01*
X151006336Y-100643625D01*
X151110422Y-100713173D01*
X151226075Y-100761078D01*
X151348853Y-100785500D01*
X151474035Y-100785500D01*
X155218001Y-100785500D01*
X155286122Y-100805502D01*
X155311639Y-100827192D01*
X155313145Y-100828864D01*
X155313147Y-100828866D01*
X155467648Y-100941118D01*
X155642112Y-101018794D01*
X155648128Y-101020072D01*
X155710602Y-101053798D01*
X155744926Y-101115946D01*
X155747245Y-101130150D01*
X155757857Y-101231127D01*
X155775163Y-101284387D01*
X155816873Y-101412756D01*
X155816876Y-101412761D01*
X155912358Y-101578141D01*
X155912365Y-101578151D01*
X156040144Y-101720064D01*
X156040147Y-101720066D01*
X156194648Y-101832318D01*
X156369112Y-101909994D01*
X156555913Y-101949700D01*
X156616900Y-101949700D01*
X156685021Y-101969702D01*
X156731514Y-102023358D01*
X156742900Y-102075700D01*
X156742900Y-102502609D01*
X156742900Y-102627791D01*
X156767322Y-102750569D01*
X156805163Y-102841925D01*
X156815229Y-102866226D01*
X156828533Y-102886136D01*
X156843600Y-102917200D01*
X156899473Y-103089156D01*
X156899476Y-103089161D01*
X156994958Y-103254541D01*
X156994965Y-103254551D01*
X157122744Y-103396464D01*
X157168536Y-103429734D01*
X157277248Y-103508718D01*
X157451712Y-103586394D01*
X157638513Y-103626100D01*
X157829487Y-103626100D01*
X158016288Y-103586394D01*
X158190752Y-103508718D01*
X158345253Y-103396466D01*
X158355508Y-103385077D01*
X158473034Y-103254551D01*
X158473035Y-103254549D01*
X158473040Y-103254544D01*
X158568527Y-103089156D01*
X158627542Y-102907528D01*
X158647504Y-102717600D01*
X158627542Y-102527672D01*
X158568527Y-102346044D01*
X158473040Y-102180656D01*
X158473038Y-102180654D01*
X158473034Y-102180648D01*
X158345255Y-102038735D01*
X158190752Y-101926482D01*
X158088651Y-101881024D01*
X158034555Y-101835044D01*
X158013906Y-101767116D01*
X158013900Y-101765917D01*
X158013900Y-99871223D01*
X158013899Y-99871219D01*
X157989478Y-99748444D01*
X157941573Y-99632791D01*
X157900401Y-99571173D01*
X157879187Y-99503422D01*
X157897970Y-99434955D01*
X157950787Y-99387512D01*
X157978968Y-99377926D01*
X158016288Y-99369994D01*
X158190752Y-99292318D01*
X158345253Y-99180066D01*
X158350029Y-99174762D01*
X158473034Y-99038151D01*
X158473035Y-99038149D01*
X158473040Y-99038144D01*
X158568527Y-98872756D01*
X158627542Y-98691128D01*
X158647504Y-98501200D01*
X158627542Y-98311272D01*
X158568527Y-98129644D01*
X158473040Y-97964256D01*
X158473038Y-97964254D01*
X158473034Y-97964248D01*
X158345255Y-97822335D01*
X158190752Y-97710082D01*
X158016288Y-97632406D01*
X157829487Y-97592700D01*
X157638513Y-97592700D01*
X157451711Y-97632406D01*
X157277247Y-97710082D01*
X157122745Y-97822335D01*
X157121239Y-97824008D01*
X157120123Y-97824695D01*
X157117837Y-97826754D01*
X157117460Y-97826335D01*
X157060794Y-97861249D01*
X157027601Y-97865700D01*
X156552845Y-97865700D01*
X156508400Y-97874541D01*
X156495641Y-97877079D01*
X156471061Y-97879500D01*
X156199401Y-97879500D01*
X156131280Y-97859498D01*
X156084787Y-97805842D01*
X156074683Y-97735568D01*
X156080472Y-97711885D01*
X156081757Y-97708213D01*
X156114217Y-97615447D01*
X156134616Y-97434400D01*
X156114217Y-97253353D01*
X156096725Y-97203366D01*
X156093106Y-97132467D01*
X156126558Y-97072661D01*
X165945888Y-87253331D01*
X166008198Y-87219307D01*
X166079013Y-87224372D01*
X166095366Y-87231840D01*
X166097551Y-87233033D01*
X166337155Y-87363867D01*
X166592940Y-87459270D01*
X166592943Y-87459270D01*
X166592947Y-87459272D01*
X166738188Y-87490867D01*
X166859698Y-87517300D01*
X167132000Y-87536775D01*
X167404302Y-87517300D01*
X167671051Y-87459272D01*
X167671052Y-87459272D01*
X167671053Y-87459271D01*
X167671060Y-87459270D01*
X167926845Y-87363867D01*
X168166449Y-87233033D01*
X168384994Y-87069432D01*
X168578032Y-86876394D01*
X168741633Y-86657849D01*
X168872467Y-86418245D01*
X168967870Y-86162460D01*
X169025900Y-85895702D01*
X169045375Y-85623400D01*
X169025900Y-85351098D01*
X168995497Y-85211340D01*
X168967872Y-85084348D01*
X168967872Y-85084347D01*
X168967870Y-85084343D01*
X168967870Y-85084340D01*
X168872467Y-84828555D01*
X168741633Y-84588951D01*
X168741631Y-84588947D01*
X168659481Y-84479209D01*
X168634670Y-84412689D01*
X168649761Y-84343315D01*
X168699963Y-84293113D01*
X168760349Y-84277700D01*
X172053084Y-84277700D01*
X172121205Y-84297702D01*
X172167698Y-84351358D01*
X172177802Y-84421632D01*
X172148308Y-84486212D01*
X172142179Y-84492795D01*
X172137571Y-84497402D01*
X172137563Y-84497411D01*
X171973969Y-84715947D01*
X171843132Y-84955556D01*
X171747727Y-85211347D01*
X171747727Y-85211348D01*
X171689700Y-85478094D01*
X171670225Y-85750400D01*
X171689700Y-86022705D01*
X171747727Y-86289451D01*
X171747727Y-86289452D01*
X171747730Y-86289460D01*
X171843133Y-86545245D01*
X171973822Y-86784584D01*
X171973969Y-86784852D01*
X172137563Y-87003388D01*
X172137566Y-87003391D01*
X172137568Y-87003394D01*
X172330606Y-87196432D01*
X172330609Y-87196434D01*
X172330611Y-87196436D01*
X172527265Y-87343649D01*
X172549151Y-87360033D01*
X172788755Y-87490867D01*
X173044540Y-87586270D01*
X173044543Y-87586270D01*
X173044547Y-87586272D01*
X173198922Y-87619854D01*
X173311298Y-87644300D01*
X173583600Y-87663775D01*
X173855902Y-87644300D01*
X174090320Y-87593305D01*
X174161135Y-87598370D01*
X174206198Y-87627331D01*
X180825872Y-94247005D01*
X180859898Y-94309317D01*
X180854833Y-94380132D01*
X180812286Y-94436968D01*
X180745766Y-94461779D01*
X180736777Y-94462100D01*
X173354500Y-94462100D01*
X173286379Y-94442098D01*
X173239886Y-94388442D01*
X173228500Y-94336100D01*
X173228500Y-90107410D01*
X173228499Y-90107406D01*
X173204078Y-89984631D01*
X173156173Y-89868978D01*
X173086625Y-89764892D01*
X173045984Y-89724251D01*
X173011958Y-89661939D01*
X173009871Y-89649262D01*
X173008810Y-89639847D01*
X173005217Y-89607953D01*
X172945043Y-89435985D01*
X172945041Y-89435982D01*
X172945041Y-89435981D01*
X172848112Y-89281720D01*
X172848111Y-89281718D01*
X172719281Y-89152888D01*
X172719279Y-89152887D01*
X172565018Y-89055958D01*
X172565015Y-89055957D01*
X172393050Y-88995784D01*
X172393049Y-88995783D01*
X172393047Y-88995783D01*
X172212000Y-88975384D01*
X172030953Y-88995783D01*
X172030950Y-88995783D01*
X172030949Y-88995784D01*
X171858984Y-89055957D01*
X171858981Y-89055958D01*
X171704720Y-89152887D01*
X171704718Y-89152888D01*
X171575888Y-89281718D01*
X171575887Y-89281720D01*
X171478958Y-89435981D01*
X171478957Y-89435984D01*
X171418785Y-89607948D01*
X171418783Y-89607953D01*
X171398384Y-89789000D01*
X171418783Y-89970047D01*
X171418783Y-89970049D01*
X171418784Y-89970050D01*
X171478957Y-90142015D01*
X171478958Y-90142018D01*
X171575887Y-90296279D01*
X171575888Y-90296281D01*
X171704718Y-90425111D01*
X171704720Y-90425112D01*
X171858980Y-90522040D01*
X171858985Y-90522043D01*
X171873111Y-90526985D01*
X171930804Y-90568361D01*
X171956969Y-90634360D01*
X171957500Y-90645916D01*
X171957500Y-94122917D01*
X171937498Y-94191038D01*
X171920595Y-94212012D01*
X171829888Y-94302718D01*
X171829887Y-94302720D01*
X171732958Y-94456981D01*
X171732957Y-94456984D01*
X171673596Y-94626630D01*
X171672783Y-94628953D01*
X171652384Y-94810000D01*
X171672783Y-94991047D01*
X171672783Y-94991049D01*
X171672784Y-94991050D01*
X171732956Y-95163013D01*
X171821503Y-95303936D01*
X171840808Y-95372258D01*
X171820112Y-95440171D01*
X171803910Y-95460067D01*
X170882982Y-96380996D01*
X170820672Y-96415020D01*
X170793889Y-96417900D01*
X170083072Y-96417900D01*
X170014951Y-96397898D01*
X169968458Y-96344242D01*
X169958354Y-96273968D01*
X169976384Y-96224864D01*
X169989252Y-96204384D01*
X170024043Y-96149015D01*
X170084217Y-95977047D01*
X170104616Y-95796000D01*
X170084217Y-95614953D01*
X170024043Y-95442985D01*
X170024041Y-95442982D01*
X170024041Y-95442981D01*
X169927112Y-95288720D01*
X169927111Y-95288718D01*
X169836405Y-95198012D01*
X169802379Y-95135700D01*
X169799500Y-95108917D01*
X169799500Y-92238554D01*
X169818813Y-92171518D01*
X169885945Y-92064677D01*
X169897043Y-92047015D01*
X169957217Y-91875047D01*
X169977616Y-91694000D01*
X169957217Y-91512953D01*
X169897043Y-91340985D01*
X169897041Y-91340982D01*
X169897041Y-91340981D01*
X169800112Y-91186720D01*
X169800111Y-91186718D01*
X169671281Y-91057888D01*
X169671279Y-91057887D01*
X169517018Y-90960958D01*
X169517015Y-90960957D01*
X169345050Y-90900784D01*
X169345049Y-90900783D01*
X169345047Y-90900783D01*
X169164000Y-90880384D01*
X168982953Y-90900783D01*
X168982950Y-90900783D01*
X168982949Y-90900784D01*
X168810984Y-90960957D01*
X168810981Y-90960958D01*
X168656720Y-91057887D01*
X168656718Y-91057888D01*
X168527888Y-91186718D01*
X168527887Y-91186720D01*
X168430958Y-91340981D01*
X168430957Y-91340984D01*
X168380597Y-91484907D01*
X168370783Y-91512953D01*
X168350384Y-91694000D01*
X168370783Y-91875047D01*
X168370783Y-91875049D01*
X168370784Y-91875050D01*
X168430957Y-92047015D01*
X168430958Y-92047017D01*
X168509187Y-92171518D01*
X168528500Y-92238554D01*
X168528500Y-95505760D01*
X168521430Y-95547372D01*
X168497783Y-95614953D01*
X168477384Y-95796000D01*
X168497783Y-95977047D01*
X168497783Y-95977049D01*
X168497784Y-95977050D01*
X168547932Y-96120367D01*
X168557957Y-96149015D01*
X168581060Y-96185783D01*
X168605616Y-96224864D01*
X168624921Y-96293186D01*
X168604225Y-96361099D01*
X168550098Y-96407042D01*
X168498928Y-96417900D01*
X166025555Y-96417900D01*
X165958519Y-96398587D01*
X165834018Y-96320358D01*
X165834015Y-96320357D01*
X165662050Y-96260184D01*
X165662049Y-96260183D01*
X165662047Y-96260183D01*
X165481000Y-96239784D01*
X165299953Y-96260183D01*
X165299950Y-96260183D01*
X165299949Y-96260184D01*
X165127984Y-96320357D01*
X165127981Y-96320358D01*
X164973720Y-96417287D01*
X164973718Y-96417288D01*
X164844888Y-96546118D01*
X164844887Y-96546120D01*
X164747958Y-96700381D01*
X164747957Y-96700384D01*
X164688128Y-96871368D01*
X164687783Y-96872353D01*
X164667384Y-97053400D01*
X164687783Y-97234447D01*
X164687783Y-97234449D01*
X164687784Y-97234450D01*
X164747957Y-97406415D01*
X164747958Y-97406418D01*
X164844887Y-97560679D01*
X164844888Y-97560681D01*
X164973718Y-97689511D01*
X164973720Y-97689512D01*
X165127981Y-97786441D01*
X165127982Y-97786441D01*
X165127985Y-97786443D01*
X165299953Y-97846617D01*
X165481000Y-97867016D01*
X165662047Y-97846617D01*
X165834015Y-97786443D01*
X165850309Y-97776205D01*
X165958519Y-97708213D01*
X166025555Y-97688900D01*
X171171902Y-97688900D01*
X171171903Y-97688900D01*
X171294681Y-97664478D01*
X171410334Y-97616573D01*
X171514420Y-97547025D01*
X173291440Y-95770005D01*
X173353752Y-95735979D01*
X173380535Y-95733100D01*
X177239346Y-95733100D01*
X177307467Y-95753102D01*
X177353960Y-95806758D01*
X177364064Y-95877032D01*
X177358275Y-95900713D01*
X177311583Y-96034153D01*
X177291184Y-96215200D01*
X177311583Y-96396247D01*
X177311583Y-96396249D01*
X177311584Y-96396250D01*
X177371757Y-96568215D01*
X177371758Y-96568217D01*
X177449987Y-96692718D01*
X177469300Y-96759754D01*
X177469300Y-101295272D01*
X177449298Y-101363393D01*
X177395642Y-101409886D01*
X177325368Y-101419990D01*
X177304363Y-101415105D01*
X177254972Y-101399056D01*
X177166083Y-101384978D01*
X177077196Y-101370900D01*
X177077195Y-101370900D01*
X177077194Y-101370900D01*
X177005044Y-101370900D01*
X176936923Y-101350898D01*
X176915948Y-101333995D01*
X176038341Y-100456387D01*
X175892725Y-100350591D01*
X175857611Y-100332699D01*
X175857611Y-100332698D01*
X175732359Y-100268880D01*
X175732355Y-100268878D01*
X175732352Y-100268877D01*
X175674507Y-100250082D01*
X175674505Y-100250081D01*
X175561172Y-100213256D01*
X175469751Y-100198777D01*
X175383396Y-100185100D01*
X175383395Y-100185100D01*
X175383394Y-100185100D01*
X168347796Y-100185100D01*
X168290594Y-100171367D01*
X168285708Y-100168877D01*
X168243725Y-100155236D01*
X168243725Y-100155235D01*
X168114527Y-100113257D01*
X168114529Y-100113257D01*
X168114525Y-100113256D01*
X168114524Y-100113256D01*
X167936750Y-100085100D01*
X167936749Y-100085100D01*
X166856756Y-100085100D01*
X166676765Y-100085100D01*
X166498990Y-100113256D01*
X166498988Y-100113256D01*
X166498985Y-100113257D01*
X166369787Y-100155236D01*
X166369786Y-100155235D01*
X166327816Y-100168873D01*
X166327813Y-100168874D01*
X166167431Y-100250593D01*
X166021819Y-100356387D01*
X165823784Y-100554422D01*
X164684991Y-101693213D01*
X164684989Y-101693216D01*
X164603120Y-101805899D01*
X164579193Y-101838831D01*
X164497477Y-101999206D01*
X164487506Y-102029898D01*
X164487505Y-102029900D01*
X164441856Y-102170387D01*
X164425794Y-102271804D01*
X164419663Y-102310518D01*
X164414423Y-102343601D01*
X164414422Y-102343604D01*
X164413700Y-102348162D01*
X164413700Y-106818462D01*
X164393698Y-106886583D01*
X164376795Y-106907557D01*
X162756540Y-108527812D01*
X162756537Y-108527815D01*
X162466547Y-108817805D01*
X162247915Y-109036437D01*
X162185603Y-109070462D01*
X162114787Y-109065397D01*
X162057952Y-109022850D01*
X162033141Y-108956330D01*
X162033611Y-108933242D01*
X162052816Y-108762800D01*
X162032417Y-108581753D01*
X161972243Y-108409785D01*
X161944812Y-108366129D01*
X161925500Y-108299094D01*
X161925500Y-98182154D01*
X161944813Y-98115118D01*
X162013690Y-98005500D01*
X162023043Y-97990615D01*
X162083217Y-97818647D01*
X162103616Y-97637600D01*
X162083217Y-97456553D01*
X162023043Y-97284585D01*
X162023041Y-97284582D01*
X162023041Y-97284581D01*
X161926112Y-97130320D01*
X161926111Y-97130318D01*
X161797281Y-97001488D01*
X161797279Y-97001487D01*
X161643018Y-96904558D01*
X161643015Y-96904557D01*
X161471050Y-96844384D01*
X161471049Y-96844383D01*
X161471047Y-96844383D01*
X161290000Y-96823984D01*
X161108953Y-96844383D01*
X161108950Y-96844383D01*
X161108949Y-96844384D01*
X160936984Y-96904557D01*
X160936981Y-96904558D01*
X160782720Y-97001487D01*
X160782718Y-97001488D01*
X160653888Y-97130318D01*
X160653887Y-97130320D01*
X160556958Y-97284581D01*
X160556957Y-97284584D01*
X160500818Y-97445023D01*
X160496783Y-97456553D01*
X160476384Y-97637600D01*
X160496783Y-97818647D01*
X160496783Y-97818649D01*
X160496784Y-97818650D01*
X160556957Y-97990615D01*
X160556958Y-97990617D01*
X160635187Y-98115118D01*
X160654500Y-98182154D01*
X160654500Y-108151917D01*
X160634498Y-108220038D01*
X160617595Y-108241012D01*
X160603088Y-108255518D01*
X160603087Y-108255520D01*
X160506158Y-108409781D01*
X160506157Y-108409784D01*
X160451700Y-108565415D01*
X160445983Y-108581753D01*
X160425584Y-108762800D01*
X160445983Y-108943847D01*
X160445983Y-108943849D01*
X160445984Y-108943850D01*
X160506157Y-109115815D01*
X160506158Y-109115818D01*
X160603087Y-109270079D01*
X160603088Y-109270081D01*
X160731918Y-109398911D01*
X160731920Y-109398912D01*
X160886181Y-109495841D01*
X160886182Y-109495841D01*
X160886185Y-109495843D01*
X161058153Y-109556017D01*
X161239200Y-109576416D01*
X161409636Y-109557212D01*
X161479565Y-109569461D01*
X161531773Y-109617574D01*
X161549682Y-109686275D01*
X161527605Y-109753752D01*
X161512837Y-109771515D01*
X160749940Y-110534412D01*
X159739557Y-111544795D01*
X159677245Y-111578821D01*
X159650462Y-111581700D01*
X141902243Y-111581700D01*
X141834122Y-111561698D01*
X141813148Y-111544795D01*
X140474005Y-110205651D01*
X140439979Y-110143339D01*
X140437100Y-110116556D01*
X140437100Y-103251000D01*
X154532784Y-103251000D01*
X154553183Y-103432047D01*
X154553183Y-103432049D01*
X154553184Y-103432050D01*
X154613357Y-103604015D01*
X154613358Y-103604017D01*
X154691587Y-103728518D01*
X154710900Y-103795554D01*
X154710900Y-105243993D01*
X154716055Y-105269908D01*
X154735322Y-105366769D01*
X154783227Y-105482422D01*
X154852775Y-105586508D01*
X154852777Y-105586510D01*
X157103215Y-107836948D01*
X157137241Y-107899260D01*
X157139327Y-107911933D01*
X157143982Y-107953242D01*
X157143983Y-107953249D01*
X157204157Y-108125215D01*
X157204158Y-108125218D01*
X157301087Y-108279479D01*
X157301088Y-108279481D01*
X157429918Y-108408311D01*
X157429920Y-108408312D01*
X157584181Y-108505241D01*
X157584182Y-108505241D01*
X157584185Y-108505243D01*
X157756153Y-108565417D01*
X157937200Y-108585816D01*
X158118247Y-108565417D01*
X158290215Y-108505243D01*
X158444481Y-108408311D01*
X158573311Y-108279481D01*
X158670243Y-108125215D01*
X158730417Y-107953247D01*
X158750816Y-107772200D01*
X158730417Y-107591153D01*
X158670243Y-107419185D01*
X158670241Y-107419182D01*
X158670241Y-107419181D01*
X158573312Y-107264920D01*
X158573311Y-107264918D01*
X158444481Y-107136088D01*
X158444479Y-107136087D01*
X158290218Y-107039158D01*
X158290215Y-107039157D01*
X158118249Y-106978983D01*
X158118242Y-106978982D01*
X158076933Y-106974327D01*
X158011480Y-106946823D01*
X158001948Y-106938215D01*
X156018805Y-104955072D01*
X155984779Y-104892760D01*
X155981900Y-104865977D01*
X155981900Y-103795554D01*
X156001213Y-103728518D01*
X156070526Y-103618206D01*
X156079443Y-103604015D01*
X156139617Y-103432047D01*
X156160016Y-103251000D01*
X156139617Y-103069953D01*
X156079443Y-102897985D01*
X156079441Y-102897982D01*
X156079441Y-102897981D01*
X155982512Y-102743720D01*
X155982511Y-102743718D01*
X155853681Y-102614888D01*
X155853679Y-102614887D01*
X155699418Y-102517958D01*
X155699415Y-102517957D01*
X155527450Y-102457784D01*
X155527449Y-102457783D01*
X155527447Y-102457783D01*
X155346400Y-102437384D01*
X155165353Y-102457783D01*
X155165350Y-102457783D01*
X155165349Y-102457784D01*
X154993384Y-102517957D01*
X154993381Y-102517958D01*
X154839120Y-102614887D01*
X154839118Y-102614888D01*
X154710288Y-102743718D01*
X154710287Y-102743720D01*
X154613358Y-102897981D01*
X154613357Y-102897984D01*
X154557435Y-103057802D01*
X154553183Y-103069953D01*
X154532784Y-103251000D01*
X140437100Y-103251000D01*
X140437100Y-94804408D01*
X140437100Y-94804405D01*
X140408943Y-94626630D01*
X140353323Y-94455448D01*
X140271609Y-94295075D01*
X140196021Y-94191038D01*
X140165811Y-94149457D01*
X140038542Y-94022188D01*
X139892928Y-93916393D01*
X139892927Y-93916392D01*
X139892925Y-93916391D01*
X139732552Y-93834677D01*
X139732549Y-93834676D01*
X139732547Y-93834675D01*
X139561373Y-93779058D01*
X139561377Y-93779058D01*
X139528277Y-93773815D01*
X139383595Y-93750900D01*
X139383592Y-93750900D01*
X139280628Y-93750900D01*
X139212507Y-93730898D01*
X139191533Y-93713995D01*
X135749069Y-90271530D01*
X135749065Y-90271527D01*
X135624179Y-90188082D01*
X135485415Y-90130604D01*
X135485414Y-90130603D01*
X135338103Y-90101300D01*
X135338100Y-90101300D01*
X131920700Y-90101300D01*
X131920696Y-90101300D01*
X131773386Y-90130603D01*
X131773383Y-90130604D01*
X131745836Y-90142015D01*
X131634619Y-90188082D01*
X131509739Y-90271524D01*
X131509732Y-90271529D01*
X130251667Y-91529595D01*
X130189355Y-91563621D01*
X130162572Y-91566500D01*
X126292481Y-91566500D01*
X126224360Y-91546498D01*
X126218421Y-91542437D01*
X126212152Y-91537882D01*
X126037688Y-91460206D01*
X125850887Y-91420500D01*
X125659913Y-91420500D01*
X125473111Y-91460206D01*
X125298647Y-91537882D01*
X125144144Y-91650135D01*
X125016365Y-91792048D01*
X125016358Y-91792058D01*
X124920876Y-91957438D01*
X124920873Y-91957444D01*
X124911018Y-91987775D01*
X124861857Y-92139072D01*
X124841896Y-92329000D01*
X124861857Y-92518927D01*
X124870134Y-92544400D01*
X124920873Y-92700556D01*
X124920876Y-92700561D01*
X125016358Y-92865941D01*
X125016365Y-92865951D01*
X125144144Y-93007864D01*
X125144147Y-93007866D01*
X125298648Y-93120118D01*
X125473112Y-93197794D01*
X125659913Y-93237500D01*
X125850887Y-93237500D01*
X126037688Y-93197794D01*
X126212152Y-93120118D01*
X126218421Y-93115562D01*
X126285289Y-93091705D01*
X126292481Y-93091500D01*
X130605700Y-93091500D01*
X130753013Y-93062197D01*
X130891779Y-93004718D01*
X130936218Y-92975025D01*
X131016665Y-92921273D01*
X132274733Y-91663205D01*
X132337045Y-91629180D01*
X132363828Y-91626300D01*
X132780341Y-91626300D01*
X132848462Y-91646302D01*
X132894955Y-91699958D01*
X132905549Y-91738193D01*
X132912382Y-91798845D01*
X132972557Y-91970815D01*
X132972558Y-91970818D01*
X133069487Y-92125079D01*
X133069488Y-92125081D01*
X133198318Y-92253911D01*
X133198320Y-92253912D01*
X133352581Y-92350841D01*
X133352582Y-92350841D01*
X133352585Y-92350843D01*
X133524553Y-92411017D01*
X133565862Y-92415671D01*
X133631315Y-92443173D01*
X133640851Y-92451784D01*
X133896795Y-92707728D01*
X133930821Y-92770040D01*
X133933700Y-92796823D01*
X133933700Y-95617393D01*
X133958122Y-95740169D01*
X133958124Y-95740175D01*
X133980784Y-95794881D01*
X133988373Y-95865471D01*
X133956593Y-95928958D01*
X133953471Y-95932194D01*
X133402092Y-96483575D01*
X133313573Y-96572094D01*
X133313572Y-96572096D01*
X133244027Y-96676177D01*
X133196124Y-96791825D01*
X133196122Y-96791830D01*
X133171700Y-96914606D01*
X133171700Y-102960977D01*
X133151698Y-103029098D01*
X133134795Y-103050072D01*
X131294872Y-104889995D01*
X131232560Y-104924021D01*
X131205777Y-104926900D01*
X130666555Y-104926900D01*
X130599519Y-104907587D01*
X130475018Y-104829358D01*
X130475015Y-104829357D01*
X130303050Y-104769184D01*
X130303049Y-104769183D01*
X130303047Y-104769183D01*
X130122000Y-104748784D01*
X129940953Y-104769183D01*
X129940950Y-104769183D01*
X129940949Y-104769184D01*
X129768984Y-104829357D01*
X129768981Y-104829358D01*
X129614720Y-104926287D01*
X129614718Y-104926288D01*
X129485888Y-105055118D01*
X129485887Y-105055120D01*
X129388958Y-105209381D01*
X129388957Y-105209384D01*
X129338027Y-105354936D01*
X129328783Y-105381353D01*
X129308384Y-105562400D01*
X129328783Y-105743447D01*
X129328783Y-105743449D01*
X129328784Y-105743450D01*
X129388957Y-105915415D01*
X129388958Y-105915418D01*
X129485887Y-106069679D01*
X129485888Y-106069681D01*
X129614718Y-106198511D01*
X129614720Y-106198512D01*
X129768981Y-106295441D01*
X129768982Y-106295441D01*
X129768985Y-106295443D01*
X129940953Y-106355617D01*
X130122000Y-106376016D01*
X130149164Y-106372955D01*
X130219094Y-106385202D01*
X130271304Y-106433313D01*
X130289214Y-106502014D01*
X130267139Y-106569491D01*
X130220476Y-106610428D01*
X130109077Y-106667189D01*
X130109076Y-106667189D01*
X129963457Y-106772988D01*
X129836188Y-106900257D01*
X129730393Y-107045871D01*
X129648678Y-107206246D01*
X129648675Y-107206252D01*
X129593058Y-107377424D01*
X129593057Y-107377429D01*
X129593057Y-107377430D01*
X129564900Y-107555205D01*
X129564900Y-107735195D01*
X129590886Y-107899260D01*
X129593058Y-107912975D01*
X129639316Y-108055342D01*
X129648677Y-108084152D01*
X129730391Y-108244525D01*
X129730393Y-108244528D01*
X129836188Y-108390142D01*
X129963457Y-108517411D01*
X130109073Y-108623208D01*
X130109075Y-108623209D01*
X130113679Y-108625554D01*
X130145574Y-108648728D01*
X132133251Y-110636405D01*
X132167277Y-110698717D01*
X132162212Y-110769532D01*
X132119665Y-110826368D01*
X132053145Y-110851179D01*
X132044156Y-110851500D01*
X131882913Y-110851500D01*
X131696111Y-110891206D01*
X131521647Y-110968882D01*
X131367144Y-111081135D01*
X131239365Y-111223048D01*
X131239358Y-111223058D01*
X131143876Y-111388438D01*
X131143873Y-111388445D01*
X131088107Y-111560072D01*
X131073040Y-111591135D01*
X131002036Y-111697404D01*
X131002030Y-111697413D01*
X130997882Y-111703619D01*
X130940405Y-111842380D01*
X130940403Y-111842385D01*
X130911100Y-111989696D01*
X130911100Y-116301679D01*
X130891098Y-116369800D01*
X130859161Y-116403615D01*
X130808344Y-116440535D01*
X130680565Y-116582448D01*
X130680558Y-116582458D01*
X130647539Y-116639648D01*
X130596156Y-116688640D01*
X130526442Y-116702075D01*
X130460531Y-116675687D01*
X130449326Y-116665741D01*
X128609005Y-114825420D01*
X128574979Y-114763108D01*
X128572100Y-114736325D01*
X128572100Y-110059630D01*
X128572099Y-110059626D01*
X128547678Y-109936851D01*
X128499773Y-109821198D01*
X128430225Y-109717112D01*
X128341708Y-109628595D01*
X127313605Y-108600492D01*
X127279579Y-108538180D01*
X127276700Y-108511397D01*
X127276700Y-102383301D01*
X127296702Y-102315180D01*
X127317124Y-102292561D01*
X127316478Y-102291915D01*
X127450311Y-102158081D01*
X127450312Y-102158079D01*
X127457399Y-102146801D01*
X127547243Y-102003815D01*
X127607417Y-101831847D01*
X127613873Y-101774540D01*
X127634317Y-101718643D01*
X127682171Y-101647025D01*
X127682171Y-101647024D01*
X127682173Y-101647022D01*
X127730078Y-101531369D01*
X127754500Y-101408591D01*
X127754500Y-101283409D01*
X127754500Y-100437209D01*
X127730078Y-100314431D01*
X127682173Y-100198778D01*
X127612625Y-100094692D01*
X127524108Y-100006175D01*
X127317717Y-99799784D01*
X127283691Y-99737472D01*
X127288756Y-99666657D01*
X127331303Y-99609821D01*
X127339769Y-99604006D01*
X127354881Y-99594511D01*
X127483711Y-99465681D01*
X127580643Y-99311415D01*
X127640817Y-99139447D01*
X127661216Y-98958400D01*
X127640817Y-98777353D01*
X127580643Y-98605385D01*
X127580641Y-98605382D01*
X127580641Y-98605381D01*
X127483712Y-98451120D01*
X127483711Y-98451118D01*
X127354881Y-98322288D01*
X127354879Y-98322287D01*
X127200618Y-98225358D01*
X127200615Y-98225357D01*
X127028649Y-98165183D01*
X127028642Y-98165182D01*
X126987333Y-98160527D01*
X126921880Y-98133023D01*
X126912348Y-98124415D01*
X123430605Y-94642672D01*
X123396579Y-94580360D01*
X123393700Y-94553577D01*
X123393700Y-87840982D01*
X123413702Y-87772861D01*
X123467358Y-87726368D01*
X123475657Y-87722930D01*
X123553045Y-87694067D01*
X123792649Y-87563233D01*
X124011194Y-87399632D01*
X124204232Y-87206594D01*
X124367833Y-86988049D01*
X124498667Y-86748445D01*
X124594070Y-86492660D01*
X124652100Y-86225902D01*
X124671575Y-85953600D01*
X124652100Y-85681298D01*
X124607896Y-85478098D01*
X124594072Y-85414548D01*
X124594072Y-85414547D01*
X124594070Y-85414543D01*
X124594070Y-85414540D01*
X124498667Y-85158755D01*
X124367833Y-84919151D01*
X124215716Y-84715947D01*
X124204236Y-84700611D01*
X124204228Y-84700602D01*
X124011197Y-84507571D01*
X124011188Y-84507563D01*
X123792652Y-84343969D01*
X123792650Y-84343968D01*
X123792649Y-84343967D01*
X123553045Y-84213133D01*
X123553044Y-84213132D01*
X123297252Y-84117727D01*
X123030504Y-84059700D01*
X123030506Y-84059700D01*
X122758200Y-84040225D01*
X122485894Y-84059700D01*
X122219148Y-84117727D01*
X122219147Y-84117727D01*
X121963356Y-84213132D01*
X121723747Y-84343969D01*
X121505211Y-84507563D01*
X121505202Y-84507571D01*
X121312171Y-84700602D01*
X121312163Y-84700611D01*
X121148569Y-84919147D01*
X121017732Y-85158756D01*
X120922327Y-85414547D01*
X120922327Y-85414548D01*
X120864300Y-85681294D01*
X120844825Y-85953600D01*
X120864300Y-86225905D01*
X120922327Y-86492651D01*
X120922327Y-86492652D01*
X120983943Y-86657852D01*
X121017733Y-86748445D01*
X121123252Y-86941689D01*
X121148569Y-86988052D01*
X121312163Y-87206588D01*
X121312166Y-87206591D01*
X121312168Y-87206594D01*
X121505206Y-87399632D01*
X121505209Y-87399634D01*
X121505211Y-87399636D01*
X121627081Y-87490867D01*
X121723751Y-87563233D01*
X121963355Y-87694067D01*
X122040732Y-87722926D01*
X122097567Y-87765472D01*
X122122379Y-87831992D01*
X122122700Y-87840982D01*
X122122700Y-94931593D01*
X122147122Y-95054369D01*
X122147124Y-95054374D01*
X122172775Y-95116301D01*
X122195027Y-95170022D01*
X122264575Y-95274108D01*
X122264577Y-95274110D01*
X126013615Y-99023148D01*
X126047641Y-99085460D01*
X126049727Y-99098133D01*
X126054382Y-99139442D01*
X126054383Y-99139449D01*
X126114557Y-99311415D01*
X126114558Y-99311417D01*
X126199213Y-99446145D01*
X126218519Y-99514466D01*
X126197824Y-99582379D01*
X126143697Y-99628323D01*
X126117109Y-99636760D01*
X126090095Y-99642133D01*
X126046919Y-99650722D01*
X126046917Y-99650723D01*
X126046913Y-99650724D01*
X125931265Y-99698627D01*
X125827184Y-99768172D01*
X125827177Y-99768177D01*
X124245777Y-101349577D01*
X124245772Y-101349584D01*
X124176227Y-101453665D01*
X124128324Y-101569313D01*
X124128322Y-101569318D01*
X124103900Y-101692094D01*
X124103900Y-107712079D01*
X124083898Y-107780200D01*
X124066995Y-107801174D01*
X119622977Y-112245191D01*
X119622972Y-112245198D01*
X119553427Y-112349279D01*
X119505524Y-112464927D01*
X119505522Y-112464932D01*
X119481100Y-112587708D01*
X119481100Y-112742816D01*
X119461098Y-112810937D01*
X119407442Y-112857430D01*
X119399134Y-112860871D01*
X119321759Y-112889731D01*
X119321756Y-112889732D01*
X119082147Y-113020569D01*
X118863611Y-113184163D01*
X118863602Y-113184171D01*
X118670571Y-113377202D01*
X118670563Y-113377211D01*
X118506969Y-113595747D01*
X118376132Y-113835356D01*
X118280727Y-114091147D01*
X118280727Y-114091148D01*
X118222700Y-114357894D01*
X118203225Y-114630200D01*
X118222700Y-114902505D01*
X118280727Y-115169251D01*
X118280727Y-115169252D01*
X118363467Y-115391088D01*
X118376133Y-115425045D01*
X118505445Y-115661862D01*
X118506969Y-115664652D01*
X118670563Y-115883188D01*
X118670566Y-115883191D01*
X118670568Y-115883194D01*
X118863606Y-116076232D01*
X118863609Y-116076234D01*
X118863611Y-116076236D01*
X119005137Y-116182181D01*
X119082151Y-116239833D01*
X119321755Y-116370667D01*
X119577540Y-116466070D01*
X119577543Y-116466070D01*
X119577547Y-116466072D01*
X119731922Y-116499654D01*
X119844298Y-116524100D01*
X120116600Y-116543575D01*
X120388902Y-116524100D01*
X120655651Y-116466072D01*
X120655652Y-116466072D01*
X120655653Y-116466071D01*
X120655660Y-116466070D01*
X120911445Y-116370667D01*
X121151049Y-116239833D01*
X121369594Y-116076232D01*
X121562632Y-115883194D01*
X121726233Y-115664649D01*
X121857067Y-115425045D01*
X121952470Y-115169260D01*
X122010500Y-114902502D01*
X122029975Y-114630200D01*
X122010500Y-114357898D01*
X121952470Y-114091140D01*
X121857067Y-113835355D01*
X121726233Y-113595751D01*
X121562632Y-113377206D01*
X121369594Y-113184168D01*
X121369591Y-113184166D01*
X121369588Y-113184163D01*
X121151052Y-113020569D01*
X121151050Y-113020568D01*
X121151049Y-113020567D01*
X120971499Y-112922525D01*
X120921297Y-112872323D01*
X120906206Y-112802949D01*
X120931017Y-112736429D01*
X120942783Y-112722850D01*
X125233025Y-108432610D01*
X125302573Y-108328524D01*
X125309291Y-108312304D01*
X125353839Y-108257024D01*
X125421203Y-108234603D01*
X125489994Y-108252161D01*
X125538372Y-108304123D01*
X125551700Y-108360523D01*
X125551700Y-109077465D01*
X125576122Y-109200241D01*
X125576124Y-109200246D01*
X125624027Y-109315894D01*
X125624029Y-109315898D01*
X125661982Y-109372699D01*
X125683197Y-109440451D01*
X125664414Y-109508918D01*
X125611596Y-109556361D01*
X125557217Y-109568700D01*
X124936055Y-109568700D01*
X124832174Y-109579312D01*
X124663861Y-109635085D01*
X124512947Y-109728170D01*
X124512941Y-109728175D01*
X124387575Y-109853541D01*
X124387570Y-109853547D01*
X124294485Y-110004462D01*
X124238713Y-110172772D01*
X124238712Y-110172779D01*
X124228100Y-110276646D01*
X124228100Y-111617744D01*
X124238712Y-111721625D01*
X124294485Y-111889938D01*
X124387570Y-112040852D01*
X124387575Y-112040858D01*
X124512941Y-112166224D01*
X124512947Y-112166229D01*
X124512948Y-112166230D01*
X124640975Y-112245198D01*
X124665002Y-112260018D01*
X124712480Y-112312804D01*
X124723883Y-112382879D01*
X124695590Y-112447995D01*
X124687951Y-112456354D01*
X124555139Y-112589166D01*
X124427603Y-112764704D01*
X124329093Y-112958041D01*
X124262044Y-113164396D01*
X124262043Y-113164400D01*
X124228100Y-113378710D01*
X124228100Y-113595690D01*
X124262043Y-113810000D01*
X124262044Y-113810003D01*
X124328052Y-114013155D01*
X124329094Y-114016360D01*
X124427601Y-114209692D01*
X124555139Y-114385233D01*
X124555141Y-114385235D01*
X124555143Y-114385238D01*
X124708561Y-114538656D01*
X124708564Y-114538658D01*
X124708567Y-114538661D01*
X124876288Y-114660517D01*
X124919642Y-114716739D01*
X124925717Y-114787475D01*
X124892586Y-114850267D01*
X124876288Y-114864389D01*
X124714102Y-114982224D01*
X124561627Y-115134699D01*
X124561625Y-115134702D01*
X124434873Y-115309160D01*
X124336972Y-115501301D01*
X124336969Y-115501307D01*
X124270335Y-115706385D01*
X124259120Y-115777200D01*
X125288891Y-115777200D01*
X125277148Y-115797539D01*
X125236600Y-115948867D01*
X125236600Y-116105533D01*
X125277148Y-116256861D01*
X125288891Y-116277200D01*
X124259120Y-116277200D01*
X124270335Y-116348014D01*
X124336969Y-116553092D01*
X124336972Y-116553098D01*
X124434873Y-116745239D01*
X124561625Y-116919697D01*
X124561627Y-116919700D01*
X124714099Y-117072172D01*
X124714102Y-117072174D01*
X124888560Y-117198926D01*
X125080701Y-117296827D01*
X125080707Y-117296830D01*
X125262797Y-117355995D01*
X125321403Y-117396069D01*
X125349040Y-117461465D01*
X125336933Y-117531422D01*
X125312957Y-117564923D01*
X124779886Y-118097995D01*
X124717573Y-118132020D01*
X124690790Y-118134900D01*
X122242057Y-118134900D01*
X122173936Y-118114898D01*
X122127443Y-118061242D01*
X122124001Y-118052933D01*
X122085666Y-117950153D01*
X122072395Y-117925850D01*
X121954833Y-117710551D01*
X121833318Y-117548226D01*
X121791236Y-117492011D01*
X121791228Y-117492002D01*
X121598197Y-117298971D01*
X121598188Y-117298963D01*
X121379652Y-117135369D01*
X121379650Y-117135368D01*
X121379649Y-117135367D01*
X121140045Y-117004533D01*
X121140044Y-117004532D01*
X120884252Y-116909127D01*
X120617504Y-116851100D01*
X120617506Y-116851100D01*
X120345200Y-116831625D01*
X120072894Y-116851100D01*
X119806148Y-116909127D01*
X119806147Y-116909127D01*
X119550356Y-117004532D01*
X119310747Y-117135369D01*
X119092211Y-117298963D01*
X119092202Y-117298971D01*
X118899171Y-117492002D01*
X118899163Y-117492011D01*
X118735569Y-117710547D01*
X118604732Y-117950156D01*
X118509327Y-118205947D01*
X118509327Y-118205948D01*
X118451300Y-118472694D01*
X118431825Y-118745000D01*
X118451300Y-119017305D01*
X118509327Y-119284051D01*
X118509327Y-119284052D01*
X118602555Y-119534007D01*
X118604733Y-119539845D01*
X118722317Y-119755184D01*
X118735569Y-119779452D01*
X118899163Y-119997988D01*
X118899166Y-119997991D01*
X118899168Y-119997994D01*
X119092206Y-120191032D01*
X119092209Y-120191034D01*
X119092211Y-120191036D01*
X119193229Y-120266657D01*
X119310751Y-120354633D01*
X119550355Y-120485467D01*
X119806140Y-120580870D01*
X119806143Y-120580870D01*
X119806147Y-120580872D01*
X119960522Y-120614454D01*
X120072898Y-120638900D01*
X120345200Y-120658375D01*
X120617502Y-120638900D01*
X120884251Y-120580872D01*
X120884252Y-120580872D01*
X120884253Y-120580871D01*
X120884260Y-120580870D01*
X121140045Y-120485467D01*
X121379649Y-120354633D01*
X121598194Y-120191032D01*
X121791232Y-119997994D01*
X121954833Y-119779449D01*
X122085667Y-119539845D01*
X122096538Y-119510699D01*
X122105055Y-119487866D01*
X122147602Y-119431031D01*
X122214123Y-119406221D01*
X122223110Y-119405900D01*
X125068804Y-119405900D01*
X125068805Y-119405900D01*
X125191583Y-119381478D01*
X125307236Y-119333573D01*
X125411322Y-119264025D01*
X127920612Y-116754735D01*
X127982924Y-116720709D01*
X128053739Y-116725774D01*
X128098802Y-116754735D01*
X133980995Y-122636928D01*
X134015021Y-122699240D01*
X134017900Y-122726023D01*
X134017900Y-122828321D01*
X134017900Y-122953503D01*
X134042322Y-123076281D01*
X134090227Y-123191934D01*
X134159775Y-123296020D01*
X134781063Y-123917308D01*
X134869580Y-124005825D01*
X134973666Y-124075373D01*
X135089319Y-124123278D01*
X135212097Y-124147700D01*
X148604541Y-124147700D01*
X148672662Y-124167702D01*
X148719155Y-124221358D01*
X148729749Y-124259593D01*
X148736582Y-124320245D01*
X148796757Y-124492215D01*
X148796758Y-124492218D01*
X148893687Y-124646479D01*
X148893688Y-124646481D01*
X149022519Y-124775312D01*
X149022747Y-124775494D01*
X149022855Y-124775648D01*
X149027522Y-124780315D01*
X149026704Y-124781132D01*
X149063532Y-124833607D01*
X149066424Y-124904545D01*
X149030505Y-124965785D01*
X148967179Y-124997884D01*
X148944182Y-125000000D01*
X120596212Y-125000000D01*
X120528091Y-124979998D01*
X120481598Y-124926342D01*
X120471494Y-124856068D01*
X120500988Y-124791488D01*
X120560714Y-124753104D01*
X120569417Y-124750882D01*
X120706460Y-124721070D01*
X120962245Y-124625667D01*
X121053345Y-124575922D01*
X121122715Y-124560831D01*
X121138313Y-124562932D01*
X121149202Y-124565098D01*
X121149205Y-124565098D01*
X121149208Y-124565099D01*
X121149209Y-124565099D01*
X124138591Y-124565099D01*
X124138592Y-124565099D01*
X124261370Y-124540677D01*
X124377023Y-124492772D01*
X124481109Y-124423224D01*
X125942670Y-122961661D01*
X126004979Y-122927639D01*
X126075794Y-122932703D01*
X126088955Y-122938487D01*
X126191440Y-122990706D01*
X126397800Y-123057757D01*
X126612110Y-123091700D01*
X126612113Y-123091700D01*
X126829087Y-123091700D01*
X126829090Y-123091700D01*
X127043400Y-123057757D01*
X127249760Y-122990706D01*
X127443092Y-122892199D01*
X127618633Y-122764661D01*
X127772061Y-122611233D01*
X127893919Y-122443508D01*
X127950139Y-122400157D01*
X128020875Y-122394082D01*
X128083667Y-122427213D01*
X128097789Y-122443511D01*
X128215624Y-122605697D01*
X128368099Y-122758172D01*
X128368102Y-122758174D01*
X128542560Y-122884926D01*
X128734701Y-122982827D01*
X128734707Y-122982830D01*
X128939785Y-123049464D01*
X129010600Y-123060680D01*
X129010600Y-122030909D01*
X129030939Y-122042652D01*
X129182267Y-122083200D01*
X129338933Y-122083200D01*
X129490261Y-122042652D01*
X129510600Y-122030909D01*
X129510600Y-123060680D01*
X129581414Y-123049464D01*
X129786492Y-122982830D01*
X129786498Y-122982827D01*
X129978639Y-122884926D01*
X130153097Y-122758174D01*
X130153100Y-122758172D01*
X130305572Y-122605700D01*
X130305574Y-122605697D01*
X130432326Y-122431239D01*
X130530227Y-122239098D01*
X130530230Y-122239092D01*
X130596864Y-122034014D01*
X130630600Y-121821017D01*
X130630600Y-121738200D01*
X129803309Y-121738200D01*
X129815052Y-121717861D01*
X129855600Y-121566533D01*
X129855600Y-121409867D01*
X129815052Y-121258539D01*
X129803309Y-121238200D01*
X130630600Y-121238200D01*
X130630600Y-121155382D01*
X130596864Y-120942385D01*
X130530230Y-120737307D01*
X130530227Y-120737301D01*
X130432326Y-120545160D01*
X130305574Y-120370702D01*
X130305572Y-120370699D01*
X130153100Y-120218227D01*
X130153097Y-120218225D01*
X129978639Y-120091473D01*
X129786498Y-119993572D01*
X129786492Y-119993569D01*
X129581415Y-119926935D01*
X129581398Y-119926931D01*
X129510600Y-119915717D01*
X129510600Y-120945490D01*
X129490261Y-120933748D01*
X129338933Y-120893200D01*
X129182267Y-120893200D01*
X129030939Y-120933748D01*
X129010600Y-120945490D01*
X129010600Y-119915717D01*
X128939801Y-119926931D01*
X128939784Y-119926935D01*
X128734707Y-119993569D01*
X128734701Y-119993572D01*
X128542560Y-120091473D01*
X128368102Y-120218225D01*
X128368099Y-120218227D01*
X128215624Y-120370702D01*
X128097789Y-120532888D01*
X128041566Y-120576242D01*
X127970830Y-120582317D01*
X127908038Y-120549185D01*
X127893917Y-120532888D01*
X127868802Y-120498320D01*
X127772061Y-120365167D01*
X127772058Y-120365164D01*
X127772056Y-120365161D01*
X127618638Y-120211743D01*
X127618635Y-120211741D01*
X127618633Y-120211739D01*
X127453101Y-120091473D01*
X127443095Y-120084203D01*
X127443094Y-120084202D01*
X127443092Y-120084201D01*
X127249760Y-119985694D01*
X127249759Y-119985693D01*
X127249758Y-119985693D01*
X127043403Y-119918644D01*
X127043400Y-119918643D01*
X126829090Y-119884700D01*
X126612110Y-119884700D01*
X126397800Y-119918643D01*
X126397797Y-119918643D01*
X126397796Y-119918644D01*
X126191441Y-119985693D01*
X125998104Y-120084203D01*
X125822566Y-120211739D01*
X125689754Y-120344551D01*
X125627442Y-120378576D01*
X125556626Y-120373511D01*
X125499791Y-120330964D01*
X125493418Y-120321602D01*
X125460819Y-120268751D01*
X125399630Y-120169548D01*
X125399629Y-120169547D01*
X125399624Y-120169541D01*
X125274258Y-120044175D01*
X125274252Y-120044170D01*
X125199379Y-119997988D01*
X125123338Y-119951085D01*
X125025433Y-119918643D01*
X124955027Y-119895313D01*
X124955020Y-119895312D01*
X124851153Y-119884700D01*
X123510055Y-119884700D01*
X123406174Y-119895312D01*
X123237861Y-119951085D01*
X123086947Y-120044170D01*
X123086941Y-120044175D01*
X122961575Y-120169541D01*
X122961570Y-120169547D01*
X122868485Y-120320462D01*
X122812713Y-120488772D01*
X122812712Y-120488779D01*
X122802100Y-120592646D01*
X122802100Y-122383744D01*
X122812712Y-122487625D01*
X122868485Y-122655938D01*
X122961570Y-122806852D01*
X122961575Y-122806858D01*
X123086941Y-122932224D01*
X123086947Y-122932229D01*
X123086948Y-122932230D01*
X123237862Y-123025315D01*
X123307814Y-123048494D01*
X123366186Y-123088908D01*
X123393442Y-123154464D01*
X123380929Y-123224350D01*
X123332619Y-123276376D01*
X123268182Y-123294099D01*
X122186864Y-123294099D01*
X122118743Y-123274097D01*
X122072250Y-123220441D01*
X122061185Y-123159110D01*
X122066128Y-123089992D01*
X122080775Y-122885200D01*
X122061300Y-122612898D01*
X122021782Y-122431239D01*
X122003272Y-122346148D01*
X122003272Y-122346147D01*
X122003270Y-122346143D01*
X122003270Y-122346140D01*
X121907867Y-122090355D01*
X121777033Y-121850751D01*
X121677553Y-121717861D01*
X121613436Y-121632211D01*
X121613428Y-121632202D01*
X121420397Y-121439171D01*
X121420388Y-121439163D01*
X121201852Y-121275569D01*
X121201850Y-121275568D01*
X121201849Y-121275567D01*
X120962245Y-121144733D01*
X120962244Y-121144732D01*
X120706452Y-121049327D01*
X120439704Y-120991300D01*
X120439706Y-120991300D01*
X120167400Y-120971825D01*
X119895094Y-120991300D01*
X119628348Y-121049327D01*
X119628347Y-121049327D01*
X119372556Y-121144732D01*
X119132947Y-121275569D01*
X118914411Y-121439163D01*
X118914402Y-121439171D01*
X118721371Y-121632202D01*
X118721363Y-121632211D01*
X118557769Y-121850747D01*
X118426932Y-122090356D01*
X118331527Y-122346147D01*
X118331527Y-122346148D01*
X118273500Y-122612894D01*
X118254025Y-122885200D01*
X118273500Y-123157505D01*
X118331527Y-123424251D01*
X118331527Y-123424252D01*
X118393143Y-123589452D01*
X118426933Y-123680045D01*
X118496795Y-123807988D01*
X118557769Y-123919652D01*
X118721363Y-124138188D01*
X118721366Y-124138191D01*
X118721368Y-124138194D01*
X118914406Y-124331232D01*
X118914409Y-124331234D01*
X118914411Y-124331236D01*
X119028003Y-124416270D01*
X119132951Y-124494833D01*
X119372555Y-124625667D01*
X119628340Y-124721070D01*
X119765372Y-124750879D01*
X119827683Y-124784905D01*
X119861709Y-124847217D01*
X119856644Y-124918032D01*
X119814097Y-124974868D01*
X119747577Y-124999679D01*
X119738588Y-125000000D01*
X111126000Y-125000000D01*
X111057879Y-124979998D01*
X111011386Y-124926342D01*
X111000000Y-124874000D01*
X111000000Y-120878709D01*
X113149500Y-120878709D01*
X113149500Y-121121290D01*
X113181160Y-121361782D01*
X113243944Y-121596095D01*
X113243945Y-121596097D01*
X113243946Y-121596100D01*
X113336776Y-121820212D01*
X113336777Y-121820213D01*
X113336782Y-121820224D01*
X113458061Y-122030285D01*
X113458063Y-122030288D01*
X113458064Y-122030289D01*
X113605735Y-122222738D01*
X113605739Y-122222742D01*
X113605744Y-122222748D01*
X113777251Y-122394255D01*
X113777256Y-122394259D01*
X113777262Y-122394265D01*
X113898933Y-122487626D01*
X113969714Y-122541938D01*
X114179775Y-122663217D01*
X114179779Y-122663218D01*
X114179788Y-122663224D01*
X114403900Y-122756054D01*
X114638211Y-122818838D01*
X114638215Y-122818838D01*
X114638217Y-122818839D01*
X114700202Y-122826999D01*
X114878712Y-122850500D01*
X114878719Y-122850500D01*
X115121281Y-122850500D01*
X115121288Y-122850500D01*
X115338637Y-122821885D01*
X115361782Y-122818839D01*
X115361782Y-122818838D01*
X115361789Y-122818838D01*
X115596100Y-122756054D01*
X115820212Y-122663224D01*
X116030289Y-122541936D01*
X116222738Y-122394265D01*
X116394265Y-122222738D01*
X116541936Y-122030289D01*
X116663224Y-121820212D01*
X116756054Y-121596100D01*
X116818838Y-121361789D01*
X116850500Y-121121288D01*
X116850500Y-120878712D01*
X116821493Y-120658375D01*
X116818839Y-120638217D01*
X116818838Y-120638215D01*
X116818838Y-120638211D01*
X116756054Y-120403900D01*
X116663224Y-120179788D01*
X116663218Y-120179779D01*
X116663217Y-120179775D01*
X116541938Y-119969714D01*
X116541936Y-119969711D01*
X116394265Y-119777262D01*
X116394259Y-119777256D01*
X116394255Y-119777251D01*
X116222748Y-119605744D01*
X116222742Y-119605739D01*
X116222738Y-119605735D01*
X116030289Y-119458064D01*
X116030288Y-119458063D01*
X116030285Y-119458061D01*
X115820224Y-119336782D01*
X115820216Y-119336778D01*
X115820212Y-119336776D01*
X115596100Y-119243946D01*
X115596097Y-119243945D01*
X115596095Y-119243944D01*
X115361782Y-119181160D01*
X115121290Y-119149500D01*
X115121288Y-119149500D01*
X114878712Y-119149500D01*
X114878709Y-119149500D01*
X114638217Y-119181160D01*
X114403904Y-119243944D01*
X114403900Y-119243946D01*
X114187524Y-119333572D01*
X114179786Y-119336777D01*
X114179775Y-119336782D01*
X113969714Y-119458061D01*
X113777262Y-119605735D01*
X113777251Y-119605744D01*
X113605744Y-119777251D01*
X113605735Y-119777262D01*
X113458061Y-119969714D01*
X113336782Y-120179775D01*
X113336777Y-120179786D01*
X113336776Y-120179788D01*
X113282059Y-120311887D01*
X113243946Y-120403900D01*
X113243944Y-120403904D01*
X113181160Y-120638217D01*
X113149500Y-120878709D01*
X111000000Y-120878709D01*
X111000000Y-114808000D01*
X111980225Y-114808000D01*
X111999700Y-115080305D01*
X112057727Y-115347051D01*
X112057727Y-115347052D01*
X112122203Y-115519920D01*
X112153133Y-115602845D01*
X112259444Y-115797539D01*
X112283969Y-115842452D01*
X112447563Y-116060988D01*
X112447566Y-116060991D01*
X112447568Y-116060994D01*
X112640606Y-116254032D01*
X112640609Y-116254034D01*
X112640611Y-116254036D01*
X112701037Y-116299270D01*
X112859151Y-116417633D01*
X113098755Y-116548467D01*
X113354540Y-116643870D01*
X113354543Y-116643870D01*
X113354547Y-116643872D01*
X113508922Y-116677454D01*
X113621298Y-116701900D01*
X113893600Y-116721375D01*
X114165902Y-116701900D01*
X114432651Y-116643872D01*
X114432652Y-116643872D01*
X114432653Y-116643871D01*
X114432660Y-116643870D01*
X114688445Y-116548467D01*
X114928049Y-116417633D01*
X115146594Y-116254032D01*
X115339632Y-116060994D01*
X115503233Y-115842449D01*
X115634067Y-115602845D01*
X115729470Y-115347060D01*
X115787500Y-115080302D01*
X115806975Y-114808000D01*
X115787500Y-114535698D01*
X115729470Y-114268940D01*
X115634067Y-114013155D01*
X115503233Y-113773551D01*
X115440155Y-113689289D01*
X115339636Y-113555011D01*
X115339628Y-113555002D01*
X115146597Y-113361971D01*
X115146588Y-113361963D01*
X114928052Y-113198369D01*
X114928050Y-113198368D01*
X114928049Y-113198367D01*
X114688445Y-113067533D01*
X114688444Y-113067532D01*
X114432652Y-112972127D01*
X114165904Y-112914100D01*
X114165906Y-112914100D01*
X113893600Y-112894625D01*
X113621294Y-112914100D01*
X113354548Y-112972127D01*
X113354547Y-112972127D01*
X113098756Y-113067532D01*
X112859147Y-113198369D01*
X112640611Y-113361963D01*
X112640602Y-113361971D01*
X112447571Y-113555002D01*
X112447563Y-113555011D01*
X112283969Y-113773547D01*
X112153132Y-114013156D01*
X112057727Y-114268947D01*
X112057727Y-114268948D01*
X111999700Y-114535694D01*
X111980225Y-114808000D01*
X111000000Y-114808000D01*
X111000000Y-104267000D01*
X114410044Y-104267000D01*
X114427569Y-104478493D01*
X114428637Y-104491375D01*
X114483902Y-104709612D01*
X114483903Y-104709613D01*
X114483904Y-104709616D01*
X114572981Y-104912692D01*
X114574341Y-104915793D01*
X114697475Y-105104265D01*
X114697479Y-105104270D01*
X114849962Y-105269908D01*
X114878266Y-105291938D01*
X115027624Y-105408189D01*
X115068048Y-105430065D01*
X115118439Y-105480077D01*
X115133792Y-105549394D01*
X115109232Y-105616007D01*
X115080350Y-105644093D01*
X115011825Y-105692073D01*
X115643789Y-106324037D01*
X115580207Y-106341075D01*
X115466193Y-106406901D01*
X115373101Y-106499993D01*
X115307275Y-106614007D01*
X115290237Y-106677589D01*
X114658273Y-106045625D01*
X114599599Y-106129422D01*
X114499770Y-106343506D01*
X114499768Y-106343510D01*
X114438631Y-106571680D01*
X114418043Y-106807000D01*
X114438631Y-107042319D01*
X114499768Y-107270489D01*
X114499770Y-107270493D01*
X114599601Y-107484582D01*
X114658272Y-107568372D01*
X115290237Y-106936408D01*
X115307275Y-106999993D01*
X115373101Y-107114007D01*
X115466193Y-107207099D01*
X115580207Y-107272925D01*
X115643790Y-107289962D01*
X115011826Y-107921925D01*
X115011826Y-107921926D01*
X115095620Y-107980599D01*
X115309706Y-108080429D01*
X115309710Y-108080431D01*
X115537880Y-108141568D01*
X115773200Y-108162156D01*
X116008519Y-108141568D01*
X116236689Y-108080431D01*
X116236693Y-108080429D01*
X116450778Y-107980600D01*
X116534572Y-107921926D01*
X116534572Y-107921924D01*
X115902610Y-107289962D01*
X115966193Y-107272925D01*
X116080207Y-107207099D01*
X116173299Y-107114007D01*
X116239125Y-106999993D01*
X116256162Y-106936410D01*
X116888124Y-107568372D01*
X116888125Y-107568372D01*
X116936373Y-107499469D01*
X116991830Y-107455141D01*
X117062450Y-107447832D01*
X117125810Y-107479863D01*
X117145069Y-107502825D01*
X117237475Y-107644265D01*
X117237479Y-107644270D01*
X117389962Y-107809908D01*
X117424703Y-107836948D01*
X117567624Y-107948189D01*
X117765626Y-108055342D01*
X117765627Y-108055342D01*
X117765628Y-108055343D01*
X117866852Y-108090093D01*
X117978565Y-108128444D01*
X118200631Y-108165500D01*
X118200635Y-108165500D01*
X118425765Y-108165500D01*
X118425769Y-108165500D01*
X118647835Y-108128444D01*
X118860774Y-108055342D01*
X119058776Y-107948189D01*
X119236440Y-107809906D01*
X119388922Y-107644268D01*
X119512060Y-107455791D01*
X119602496Y-107249616D01*
X119657764Y-107031368D01*
X119676356Y-106807000D01*
X119663237Y-106648680D01*
X119677544Y-106579146D01*
X119681311Y-106575292D01*
X119678988Y-106574231D01*
X119640604Y-106514505D01*
X119639356Y-106509938D01*
X119602497Y-106364387D01*
X119602496Y-106364386D01*
X119602496Y-106364384D01*
X119512060Y-106158209D01*
X119486192Y-106118615D01*
X119388924Y-105969734D01*
X119388920Y-105969729D01*
X119250147Y-105818984D01*
X119236440Y-105804094D01*
X119236439Y-105804093D01*
X119236437Y-105804091D01*
X119103991Y-105701004D01*
X119058776Y-105665811D01*
X119025519Y-105647813D01*
X118975129Y-105597802D01*
X118959776Y-105528485D01*
X118984336Y-105461872D01*
X119025520Y-105426186D01*
X119058776Y-105408189D01*
X119236440Y-105269906D01*
X119388922Y-105104268D01*
X119512060Y-104915791D01*
X119602496Y-104709616D01*
X119634205Y-104584400D01*
X119639356Y-104564061D01*
X119675468Y-104502935D01*
X119738895Y-104471036D01*
X119809499Y-104478493D01*
X119864864Y-104522937D01*
X119887411Y-104590258D01*
X119887500Y-104594992D01*
X119887500Y-106479007D01*
X119868541Y-106543573D01*
X119906357Y-106592919D01*
X119910004Y-106605489D01*
X119910128Y-106605452D01*
X119911921Y-106611364D01*
X119911922Y-106611369D01*
X119959827Y-106727022D01*
X120029375Y-106831108D01*
X120029377Y-106831110D01*
X120288629Y-107090362D01*
X120319365Y-107140515D01*
X120323473Y-107153156D01*
X120323474Y-107153158D01*
X120323475Y-107153160D01*
X120418958Y-107318541D01*
X120418965Y-107318551D01*
X120546744Y-107460464D01*
X120579940Y-107484582D01*
X120701248Y-107572718D01*
X120875712Y-107650394D01*
X121062513Y-107690100D01*
X121253487Y-107690100D01*
X121440288Y-107650394D01*
X121614752Y-107572718D01*
X121769253Y-107460466D01*
X121773461Y-107455793D01*
X121897034Y-107318551D01*
X121897035Y-107318549D01*
X121897040Y-107318544D01*
X121992527Y-107153156D01*
X122051542Y-106971528D01*
X122071504Y-106781600D01*
X122051542Y-106591672D01*
X121992527Y-106410044D01*
X121897040Y-106244656D01*
X121897038Y-106244654D01*
X121897034Y-106244648D01*
X121769255Y-106102735D01*
X121614752Y-105990482D01*
X121568151Y-105969734D01*
X121440288Y-105912806D01*
X121440287Y-105912805D01*
X121440283Y-105912804D01*
X121258303Y-105874122D01*
X121195829Y-105840394D01*
X121161508Y-105778244D01*
X121158500Y-105750876D01*
X121158500Y-99517280D01*
X121158499Y-99517276D01*
X121157940Y-99514466D01*
X121134078Y-99394501D01*
X121086173Y-99278848D01*
X121016625Y-99174762D01*
X120928108Y-99086245D01*
X119436461Y-97594598D01*
X119402435Y-97532286D01*
X119407500Y-97461471D01*
X119420073Y-97436588D01*
X119450059Y-97390691D01*
X119512060Y-97295791D01*
X119602496Y-97089616D01*
X119657764Y-96871368D01*
X119676356Y-96647000D01*
X119657764Y-96422632D01*
X119651675Y-96398587D01*
X119602497Y-96204387D01*
X119602496Y-96204386D01*
X119602496Y-96204384D01*
X119512060Y-95998209D01*
X119486985Y-95959829D01*
X119388924Y-95809734D01*
X119388920Y-95809729D01*
X119250147Y-95658984D01*
X119236440Y-95644094D01*
X119236439Y-95644093D01*
X119236437Y-95644091D01*
X119147557Y-95574913D01*
X119058776Y-95505811D01*
X118860774Y-95398658D01*
X118860772Y-95398657D01*
X118860771Y-95398656D01*
X118647839Y-95325557D01*
X118647830Y-95325555D01*
X118598245Y-95317281D01*
X118425769Y-95288500D01*
X118200631Y-95288500D01*
X118052411Y-95313233D01*
X117978569Y-95325555D01*
X117978560Y-95325557D01*
X117765628Y-95398656D01*
X117765626Y-95398658D01*
X117592759Y-95492209D01*
X117567626Y-95505810D01*
X117567624Y-95505811D01*
X117389959Y-95644094D01*
X117276683Y-95767143D01*
X117215830Y-95803714D01*
X117144866Y-95801579D01*
X117086321Y-95761417D01*
X117069344Y-95730481D01*
X117068417Y-95730914D01*
X117065316Y-95724266D01*
X117065315Y-95724262D01*
X116972230Y-95573348D01*
X116972229Y-95573347D01*
X116972224Y-95573341D01*
X116846858Y-95447975D01*
X116846852Y-95447970D01*
X116834208Y-95440171D01*
X116695938Y-95354885D01*
X116607424Y-95325555D01*
X116527627Y-95299113D01*
X116527620Y-95299112D01*
X116423753Y-95288500D01*
X115122655Y-95288500D01*
X115018774Y-95299112D01*
X114850461Y-95354885D01*
X114699547Y-95447970D01*
X114699541Y-95447975D01*
X114574175Y-95573341D01*
X114574170Y-95573347D01*
X114481085Y-95724262D01*
X114425313Y-95892572D01*
X114425312Y-95892579D01*
X114414700Y-95996446D01*
X114414700Y-97297544D01*
X114425312Y-97401425D01*
X114481085Y-97569738D01*
X114574170Y-97720652D01*
X114574175Y-97720658D01*
X114699541Y-97846024D01*
X114699547Y-97846029D01*
X114699548Y-97846030D01*
X114850462Y-97939115D01*
X114924013Y-97963487D01*
X114982384Y-98003900D01*
X115009640Y-98069456D01*
X115009644Y-98069891D01*
X115643791Y-98704037D01*
X115580207Y-98721075D01*
X115466193Y-98786901D01*
X115373101Y-98879993D01*
X115307275Y-98994007D01*
X115290237Y-99057589D01*
X114658273Y-98425625D01*
X114599599Y-98509422D01*
X114499770Y-98723506D01*
X114499768Y-98723510D01*
X114438631Y-98951680D01*
X114418043Y-99187000D01*
X114438631Y-99422319D01*
X114499768Y-99650489D01*
X114499770Y-99650493D01*
X114599601Y-99864582D01*
X114658272Y-99948372D01*
X115290237Y-99316408D01*
X115307275Y-99379993D01*
X115373101Y-99494007D01*
X115466193Y-99587099D01*
X115580207Y-99652925D01*
X115643790Y-99669962D01*
X115011826Y-100301925D01*
X115011826Y-100301926D01*
X115085891Y-100353787D01*
X115130219Y-100409244D01*
X115137528Y-100479863D01*
X115105497Y-100543224D01*
X115085890Y-100560214D01*
X115011825Y-100612073D01*
X115643789Y-101244037D01*
X115580207Y-101261075D01*
X115466193Y-101326901D01*
X115373101Y-101419993D01*
X115307275Y-101534007D01*
X115290237Y-101597589D01*
X114658273Y-100965625D01*
X114599599Y-101049422D01*
X114499770Y-101263506D01*
X114499768Y-101263510D01*
X114438631Y-101491680D01*
X114418043Y-101727000D01*
X114438631Y-101962319D01*
X114499768Y-102190489D01*
X114499770Y-102190493D01*
X114599601Y-102404582D01*
X114658272Y-102488372D01*
X115290237Y-101856408D01*
X115307275Y-101919993D01*
X115373101Y-102034007D01*
X115466193Y-102127099D01*
X115580207Y-102192925D01*
X115643790Y-102209962D01*
X115011826Y-102841925D01*
X115011826Y-102841927D01*
X115080349Y-102889907D01*
X115124678Y-102945364D01*
X115131987Y-103015983D01*
X115099957Y-103079344D01*
X115068050Y-103103933D01*
X115032440Y-103123204D01*
X115027632Y-103125807D01*
X115027626Y-103125810D01*
X115027624Y-103125811D01*
X114849962Y-103264091D01*
X114697479Y-103429729D01*
X114697475Y-103429734D01*
X114574341Y-103618206D01*
X114483903Y-103824386D01*
X114483902Y-103824387D01*
X114428637Y-104042624D01*
X114428636Y-104042630D01*
X114428636Y-104042632D01*
X114410044Y-104267000D01*
X111000000Y-104267000D01*
X111000000Y-86878709D01*
X113149500Y-86878709D01*
X113149500Y-87121290D01*
X113181160Y-87361782D01*
X113243944Y-87596095D01*
X113243945Y-87596097D01*
X113243946Y-87596100D01*
X113336776Y-87820212D01*
X113336777Y-87820213D01*
X113336782Y-87820224D01*
X113458061Y-88030285D01*
X113458063Y-88030288D01*
X113458064Y-88030289D01*
X113605735Y-88222738D01*
X113605739Y-88222742D01*
X113605744Y-88222748D01*
X113777251Y-88394255D01*
X113777256Y-88394259D01*
X113777262Y-88394265D01*
X113969711Y-88541936D01*
X113969714Y-88541938D01*
X114179775Y-88663217D01*
X114179779Y-88663218D01*
X114179788Y-88663224D01*
X114403900Y-88756054D01*
X114638211Y-88818838D01*
X114638215Y-88818838D01*
X114638217Y-88818839D01*
X114700202Y-88826999D01*
X114878712Y-88850500D01*
X114878719Y-88850500D01*
X115121281Y-88850500D01*
X115121288Y-88850500D01*
X115338637Y-88821885D01*
X115361782Y-88818839D01*
X115361782Y-88818838D01*
X115361789Y-88818838D01*
X115596100Y-88756054D01*
X115820212Y-88663224D01*
X116030289Y-88541936D01*
X116222738Y-88394265D01*
X116394265Y-88222738D01*
X116541936Y-88030289D01*
X116663224Y-87820212D01*
X116756054Y-87596100D01*
X116818838Y-87361789D01*
X116850500Y-87121288D01*
X116850500Y-86878712D01*
X116818838Y-86638211D01*
X116756054Y-86403900D01*
X116663224Y-86179788D01*
X116663218Y-86179779D01*
X116663217Y-86179775D01*
X116541938Y-85969714D01*
X116541936Y-85969711D01*
X116394265Y-85777262D01*
X116394259Y-85777256D01*
X116394255Y-85777251D01*
X116222748Y-85605744D01*
X116222742Y-85605739D01*
X116222738Y-85605735D01*
X116030289Y-85458064D01*
X116030288Y-85458063D01*
X116030285Y-85458061D01*
X115820224Y-85336782D01*
X115820216Y-85336778D01*
X115820212Y-85336776D01*
X115596100Y-85243946D01*
X115596097Y-85243945D01*
X115596095Y-85243944D01*
X115361782Y-85181160D01*
X115121290Y-85149500D01*
X115121288Y-85149500D01*
X114878712Y-85149500D01*
X114878709Y-85149500D01*
X114638217Y-85181160D01*
X114403904Y-85243944D01*
X114403900Y-85243946D01*
X114189250Y-85332857D01*
X114179786Y-85336777D01*
X114179775Y-85336782D01*
X113969714Y-85458061D01*
X113777262Y-85605735D01*
X113777251Y-85605744D01*
X113605744Y-85777251D01*
X113605735Y-85777262D01*
X113458061Y-85969714D01*
X113336782Y-86179775D01*
X113336777Y-86179786D01*
X113336776Y-86179788D01*
X113283172Y-86309200D01*
X113243946Y-86403900D01*
X113243944Y-86403904D01*
X113181160Y-86638217D01*
X113149500Y-86878709D01*
X111000000Y-86878709D01*
X111000000Y-83126000D01*
X111020002Y-83057879D01*
X111073658Y-83011386D01*
X111126000Y-83000000D01*
X165021877Y-83000000D01*
X165089998Y-83020002D01*
G37*
%TD.AperFunction*%
%TA.AperFunction,Conductor*%
G36*
X199942121Y-83020002D02*
G01*
X199988614Y-83073658D01*
X200000000Y-83126000D01*
X200000000Y-124874000D01*
X199979998Y-124942121D01*
X199926342Y-124988614D01*
X199874000Y-125000000D01*
X179069251Y-125000000D01*
X179001130Y-124979998D01*
X178954637Y-124926342D01*
X178944533Y-124856068D01*
X178974027Y-124791488D01*
X178980156Y-124784905D01*
X179764033Y-124001028D01*
X180675069Y-123089992D01*
X180744617Y-122985906D01*
X180792522Y-122870253D01*
X180816944Y-122747475D01*
X180816944Y-122622293D01*
X180816944Y-122580400D01*
X182236625Y-122580400D01*
X182256100Y-122852705D01*
X182314127Y-123119451D01*
X182314127Y-123119452D01*
X182400058Y-123349843D01*
X182409533Y-123375245D01*
X182452747Y-123454386D01*
X182540369Y-123614852D01*
X182703963Y-123833388D01*
X182703966Y-123833391D01*
X182703968Y-123833394D01*
X182897006Y-124026432D01*
X182897009Y-124026434D01*
X182897011Y-124026436D01*
X183026377Y-124123278D01*
X183115551Y-124190033D01*
X183355155Y-124320867D01*
X183610940Y-124416270D01*
X183610943Y-124416270D01*
X183610947Y-124416272D01*
X183760932Y-124448899D01*
X183877698Y-124474300D01*
X184150000Y-124493775D01*
X184422302Y-124474300D01*
X184689051Y-124416272D01*
X184689052Y-124416272D01*
X184689053Y-124416271D01*
X184689060Y-124416270D01*
X184944845Y-124320867D01*
X185184449Y-124190033D01*
X185402994Y-124026432D01*
X185596032Y-123833394D01*
X185759633Y-123614849D01*
X185890467Y-123375245D01*
X185985870Y-123119460D01*
X186043900Y-122852702D01*
X186063375Y-122580400D01*
X186061558Y-122555000D01*
X186351425Y-122555000D01*
X186370900Y-122827305D01*
X186428927Y-123094051D01*
X186428927Y-123094052D01*
X186451459Y-123154464D01*
X186524333Y-123349845D01*
X186564962Y-123424252D01*
X186655169Y-123589452D01*
X186818763Y-123807988D01*
X186818766Y-123807991D01*
X186818768Y-123807994D01*
X187011806Y-124001032D01*
X187011809Y-124001034D01*
X187011811Y-124001036D01*
X187111112Y-124075372D01*
X187230351Y-124164633D01*
X187469955Y-124295467D01*
X187725740Y-124390870D01*
X187725743Y-124390870D01*
X187725747Y-124390872D01*
X187842501Y-124416270D01*
X187992498Y-124448900D01*
X188264800Y-124468375D01*
X188537102Y-124448900D01*
X188803851Y-124390872D01*
X188803852Y-124390872D01*
X188803853Y-124390871D01*
X188803860Y-124390870D01*
X189059645Y-124295467D01*
X189299249Y-124164633D01*
X189517794Y-124001032D01*
X189710832Y-123807994D01*
X189874433Y-123589449D01*
X190005267Y-123349845D01*
X190100670Y-123094060D01*
X190158700Y-122827302D01*
X190178175Y-122555000D01*
X190158700Y-122282698D01*
X190106197Y-122041347D01*
X190100672Y-122015948D01*
X190100672Y-122015947D01*
X190100670Y-122015943D01*
X190100670Y-122015940D01*
X190005267Y-121760155D01*
X189874433Y-121520551D01*
X189760759Y-121368700D01*
X189710836Y-121302011D01*
X189710828Y-121302002D01*
X189517797Y-121108971D01*
X189517788Y-121108963D01*
X189299252Y-120945369D01*
X189299250Y-120945368D01*
X189299249Y-120945367D01*
X189177174Y-120878709D01*
X194149500Y-120878709D01*
X194149500Y-121121290D01*
X194181160Y-121361782D01*
X194243944Y-121596095D01*
X194243945Y-121596097D01*
X194243946Y-121596100D01*
X194336776Y-121820212D01*
X194336777Y-121820213D01*
X194336782Y-121820224D01*
X194458061Y-122030285D01*
X194458063Y-122030288D01*
X194458064Y-122030289D01*
X194605735Y-122222738D01*
X194605739Y-122222742D01*
X194605744Y-122222748D01*
X194777251Y-122394255D01*
X194777256Y-122394259D01*
X194777262Y-122394265D01*
X194898933Y-122487626D01*
X194969714Y-122541938D01*
X195179775Y-122663217D01*
X195179779Y-122663218D01*
X195179788Y-122663224D01*
X195403900Y-122756054D01*
X195638211Y-122818838D01*
X195638215Y-122818838D01*
X195638217Y-122818839D01*
X195700202Y-122826999D01*
X195878712Y-122850500D01*
X195878719Y-122850500D01*
X196121281Y-122850500D01*
X196121288Y-122850500D01*
X196338637Y-122821885D01*
X196361782Y-122818839D01*
X196361782Y-122818838D01*
X196361789Y-122818838D01*
X196596100Y-122756054D01*
X196820212Y-122663224D01*
X197030289Y-122541936D01*
X197222738Y-122394265D01*
X197394265Y-122222738D01*
X197541936Y-122030289D01*
X197663224Y-121820212D01*
X197756054Y-121596100D01*
X197818838Y-121361789D01*
X197850500Y-121121288D01*
X197850500Y-120878712D01*
X197821493Y-120658375D01*
X197818839Y-120638217D01*
X197818838Y-120638215D01*
X197818838Y-120638211D01*
X197756054Y-120403900D01*
X197663224Y-120179788D01*
X197663218Y-120179779D01*
X197663217Y-120179775D01*
X197541938Y-119969714D01*
X197541936Y-119969711D01*
X197394265Y-119777262D01*
X197394259Y-119777256D01*
X197394255Y-119777251D01*
X197222748Y-119605744D01*
X197222742Y-119605739D01*
X197222738Y-119605735D01*
X197030289Y-119458064D01*
X197030288Y-119458063D01*
X197030285Y-119458061D01*
X196820224Y-119336782D01*
X196820216Y-119336778D01*
X196820212Y-119336776D01*
X196596100Y-119243946D01*
X196596097Y-119243945D01*
X196596095Y-119243944D01*
X196361782Y-119181160D01*
X196121290Y-119149500D01*
X196121288Y-119149500D01*
X195878712Y-119149500D01*
X195878709Y-119149500D01*
X195638217Y-119181160D01*
X195403904Y-119243944D01*
X195403900Y-119243946D01*
X195187524Y-119333572D01*
X195179786Y-119336777D01*
X195179775Y-119336782D01*
X194969714Y-119458061D01*
X194777262Y-119605735D01*
X194777251Y-119605744D01*
X194605744Y-119777251D01*
X194605735Y-119777262D01*
X194458061Y-119969714D01*
X194336782Y-120179775D01*
X194336777Y-120179786D01*
X194336776Y-120179788D01*
X194282059Y-120311887D01*
X194243946Y-120403900D01*
X194243944Y-120403904D01*
X194181160Y-120638217D01*
X194149500Y-120878709D01*
X189177174Y-120878709D01*
X189059645Y-120814533D01*
X189059644Y-120814532D01*
X188803852Y-120719127D01*
X188537104Y-120661100D01*
X188537106Y-120661100D01*
X188264800Y-120641625D01*
X187992494Y-120661100D01*
X187725748Y-120719127D01*
X187725747Y-120719127D01*
X187469956Y-120814532D01*
X187230347Y-120945369D01*
X187011811Y-121108963D01*
X187011802Y-121108971D01*
X186818771Y-121302002D01*
X186818763Y-121302011D01*
X186655169Y-121520547D01*
X186524332Y-121760156D01*
X186428927Y-122015947D01*
X186428927Y-122015948D01*
X186370900Y-122282694D01*
X186351425Y-122555000D01*
X186061558Y-122555000D01*
X186043900Y-122308098D01*
X185994976Y-122083200D01*
X185985872Y-122041348D01*
X185985872Y-122041347D01*
X185985870Y-122041343D01*
X185985870Y-122041340D01*
X185890467Y-121785555D01*
X185759633Y-121545951D01*
X185657762Y-121409867D01*
X185596036Y-121327411D01*
X185596028Y-121327402D01*
X185402997Y-121134371D01*
X185402988Y-121134363D01*
X185184452Y-120970769D01*
X185184450Y-120970768D01*
X185184449Y-120970767D01*
X184944845Y-120839933D01*
X184944844Y-120839932D01*
X184689052Y-120744527D01*
X184422304Y-120686500D01*
X184422306Y-120686500D01*
X184150000Y-120667025D01*
X183877694Y-120686500D01*
X183610948Y-120744527D01*
X183610947Y-120744527D01*
X183355156Y-120839932D01*
X183115547Y-120970769D01*
X182897011Y-121134363D01*
X182897002Y-121134371D01*
X182703971Y-121327402D01*
X182703963Y-121327411D01*
X182540369Y-121545947D01*
X182409532Y-121785556D01*
X182314127Y-122041347D01*
X182314127Y-122041348D01*
X182256100Y-122308094D01*
X182236625Y-122580400D01*
X180816944Y-122580400D01*
X180816944Y-112318616D01*
X180836946Y-112250495D01*
X180890602Y-112204002D01*
X180942944Y-112192616D01*
X180949597Y-112192616D01*
X180949598Y-112192615D01*
X180949600Y-112192616D01*
X181130647Y-112172217D01*
X181302615Y-112112043D01*
X181456881Y-112015111D01*
X181585711Y-111886281D01*
X181595775Y-111870263D01*
X181648953Y-111823227D01*
X181702462Y-111811300D01*
X186371590Y-111811300D01*
X186371591Y-111811300D01*
X186494369Y-111786878D01*
X186610022Y-111738973D01*
X186714108Y-111669425D01*
X194956025Y-103427508D01*
X195025573Y-103323422D01*
X195073478Y-103207769D01*
X195097900Y-103084991D01*
X195097900Y-102959809D01*
X195097900Y-95697697D01*
X195073478Y-95574919D01*
X195025573Y-95459266D01*
X194956025Y-95355180D01*
X194867508Y-95266663D01*
X193315820Y-93714975D01*
X193211734Y-93645427D01*
X193096081Y-93597522D01*
X192973305Y-93573100D01*
X192973303Y-93573100D01*
X190552928Y-93573100D01*
X190484807Y-93553098D01*
X190438314Y-93499442D01*
X190428210Y-93429168D01*
X190457704Y-93364588D01*
X190502730Y-93331531D01*
X190540934Y-93314936D01*
X190793190Y-93161535D01*
X190884827Y-93086982D01*
X190164333Y-92366487D01*
X190294975Y-92271571D01*
X190422971Y-92143575D01*
X190517887Y-92012932D01*
X191240549Y-92735594D01*
X191393945Y-92518282D01*
X191393945Y-92518281D01*
X191529766Y-92256159D01*
X191628630Y-91977983D01*
X191628632Y-91977975D01*
X191688696Y-91688926D01*
X191688697Y-91688920D01*
X191708843Y-91394404D01*
X191708843Y-91394395D01*
X191688697Y-91099879D01*
X191688696Y-91099873D01*
X191628632Y-90810824D01*
X191628630Y-90810816D01*
X191529766Y-90532640D01*
X191393945Y-90270518D01*
X191393944Y-90270517D01*
X191240548Y-90053203D01*
X190517886Y-90775865D01*
X190422971Y-90645225D01*
X190294975Y-90517229D01*
X190164333Y-90422313D01*
X190884828Y-89701818D01*
X190884827Y-89701816D01*
X190793186Y-89627261D01*
X190540934Y-89473863D01*
X190270162Y-89356250D01*
X189985880Y-89276598D01*
X189693424Y-89236400D01*
X189398175Y-89236400D01*
X189105719Y-89276598D01*
X188821437Y-89356250D01*
X188550665Y-89473863D01*
X188298409Y-89627263D01*
X188206771Y-89701816D01*
X188206770Y-89701817D01*
X188927266Y-90422313D01*
X188796625Y-90517229D01*
X188668629Y-90645225D01*
X188573713Y-90775866D01*
X187851050Y-90053203D01*
X187851049Y-90053203D01*
X187697659Y-90270508D01*
X187561833Y-90532640D01*
X187462969Y-90810816D01*
X187462967Y-90810824D01*
X187402903Y-91099873D01*
X187402902Y-91099879D01*
X187382757Y-91394395D01*
X187382757Y-91394404D01*
X187402902Y-91688920D01*
X187402903Y-91688926D01*
X187462967Y-91977975D01*
X187462969Y-91977983D01*
X187561833Y-92256159D01*
X187697654Y-92518281D01*
X187697655Y-92518282D01*
X187851050Y-92735595D01*
X188573712Y-92012932D01*
X188668629Y-92143575D01*
X188796625Y-92271571D01*
X188927265Y-92366486D01*
X188206771Y-93086981D01*
X188206771Y-93086982D01*
X188298408Y-93161535D01*
X188550665Y-93314936D01*
X188588870Y-93331531D01*
X188643382Y-93377016D01*
X188664650Y-93444753D01*
X188645921Y-93513234D01*
X188593140Y-93560719D01*
X188538672Y-93573100D01*
X182001623Y-93573100D01*
X181933502Y-93553098D01*
X181912528Y-93536195D01*
X175248609Y-86872276D01*
X175214583Y-86809964D01*
X175219648Y-86739149D01*
X175227117Y-86722795D01*
X175273300Y-86638217D01*
X175324067Y-86545245D01*
X175419470Y-86289460D01*
X175477500Y-86022702D01*
X175496975Y-85750400D01*
X175477500Y-85478098D01*
X175452235Y-85361956D01*
X175419472Y-85211348D01*
X175419472Y-85211347D01*
X175419470Y-85211343D01*
X175419470Y-85211340D01*
X175324067Y-84955555D01*
X175193233Y-84715951D01*
X175047860Y-84521756D01*
X175029636Y-84497411D01*
X175029628Y-84497402D01*
X175025021Y-84492795D01*
X174990995Y-84430483D01*
X174996060Y-84359668D01*
X175038607Y-84302832D01*
X175105127Y-84278021D01*
X175114116Y-84277700D01*
X184681674Y-84277700D01*
X184749795Y-84297702D01*
X184796288Y-84351358D01*
X184806392Y-84421632D01*
X184776898Y-84486212D01*
X184725707Y-84521755D01*
X184680013Y-84538797D01*
X184599756Y-84568732D01*
X184360147Y-84699569D01*
X184141611Y-84863163D01*
X184141602Y-84863171D01*
X183948571Y-85056202D01*
X183948563Y-85056211D01*
X183784969Y-85274747D01*
X183654132Y-85514356D01*
X183558727Y-85770147D01*
X183558727Y-85770148D01*
X183500700Y-86036894D01*
X183481225Y-86309200D01*
X183500700Y-86581505D01*
X183558727Y-86848251D01*
X183558727Y-86848252D01*
X183646722Y-87084177D01*
X183654133Y-87104045D01*
X183724564Y-87233030D01*
X183784969Y-87343652D01*
X183948563Y-87562188D01*
X183948566Y-87562191D01*
X183948568Y-87562194D01*
X184141606Y-87755232D01*
X184141609Y-87755234D01*
X184141611Y-87755236D01*
X184228409Y-87820212D01*
X184360151Y-87918833D01*
X184599755Y-88049667D01*
X184855540Y-88145070D01*
X184855543Y-88145070D01*
X184855547Y-88145072D01*
X185009922Y-88178654D01*
X185122298Y-88203100D01*
X185394600Y-88222575D01*
X185666902Y-88203100D01*
X185933651Y-88145072D01*
X185933652Y-88145072D01*
X185933653Y-88145071D01*
X185933660Y-88145070D01*
X186189445Y-88049667D01*
X186429049Y-87918833D01*
X186647594Y-87755232D01*
X186840632Y-87562194D01*
X187004233Y-87343649D01*
X187135067Y-87104045D01*
X187230470Y-86848260D01*
X187288500Y-86581502D01*
X187307975Y-86309200D01*
X187288500Y-86036898D01*
X187255346Y-85884494D01*
X187230472Y-85770148D01*
X187230472Y-85770147D01*
X187230470Y-85770143D01*
X187230470Y-85770140D01*
X187135067Y-85514355D01*
X187004233Y-85274751D01*
X186861693Y-85084340D01*
X186840636Y-85056211D01*
X186840628Y-85056202D01*
X186647597Y-84863171D01*
X186647588Y-84863163D01*
X186429052Y-84699569D01*
X186429050Y-84699568D01*
X186429049Y-84699567D01*
X186189445Y-84568733D01*
X186189444Y-84568732D01*
X186109186Y-84538797D01*
X186063493Y-84521755D01*
X186006658Y-84479209D01*
X185981847Y-84412689D01*
X185996938Y-84343315D01*
X186047141Y-84293113D01*
X186107526Y-84277700D01*
X186704777Y-84277700D01*
X186772898Y-84297702D01*
X186793872Y-84314605D01*
X187749812Y-85270545D01*
X187783838Y-85332857D01*
X187778773Y-85403672D01*
X187698927Y-85617747D01*
X187698927Y-85617748D01*
X187640900Y-85884494D01*
X187621425Y-86156800D01*
X187640900Y-86429105D01*
X187698927Y-86695851D01*
X187698927Y-86695852D01*
X187790619Y-86941689D01*
X187794333Y-86951645D01*
X187917274Y-87176795D01*
X187925169Y-87191252D01*
X188088763Y-87409788D01*
X188088766Y-87409791D01*
X188088768Y-87409794D01*
X188281806Y-87602832D01*
X188281809Y-87602834D01*
X188281811Y-87602836D01*
X188483073Y-87753499D01*
X188500351Y-87766433D01*
X188739955Y-87897267D01*
X188995740Y-87992670D01*
X188995743Y-87992670D01*
X188995747Y-87992672D01*
X189150122Y-88026254D01*
X189262498Y-88050700D01*
X189534800Y-88070175D01*
X189807102Y-88050700D01*
X190073851Y-87992672D01*
X190073852Y-87992672D01*
X190073853Y-87992671D01*
X190073860Y-87992670D01*
X190329645Y-87897267D01*
X190569249Y-87766433D01*
X190787794Y-87602832D01*
X190980832Y-87409794D01*
X191144433Y-87191249D01*
X191275267Y-86951645D01*
X191302471Y-86878709D01*
X194149500Y-86878709D01*
X194149500Y-87121290D01*
X194181160Y-87361782D01*
X194243944Y-87596095D01*
X194243945Y-87596097D01*
X194243946Y-87596100D01*
X194336776Y-87820212D01*
X194336777Y-87820213D01*
X194336782Y-87820224D01*
X194458061Y-88030285D01*
X194458063Y-88030288D01*
X194458064Y-88030289D01*
X194605735Y-88222738D01*
X194605739Y-88222742D01*
X194605744Y-88222748D01*
X194777251Y-88394255D01*
X194777256Y-88394259D01*
X194777262Y-88394265D01*
X194969711Y-88541936D01*
X194969714Y-88541938D01*
X195179775Y-88663217D01*
X195179779Y-88663218D01*
X195179788Y-88663224D01*
X195403900Y-88756054D01*
X195638211Y-88818838D01*
X195638215Y-88818838D01*
X195638217Y-88818839D01*
X195700202Y-88826999D01*
X195878712Y-88850500D01*
X195878719Y-88850500D01*
X196121281Y-88850500D01*
X196121288Y-88850500D01*
X196338637Y-88821885D01*
X196361782Y-88818839D01*
X196361782Y-88818838D01*
X196361789Y-88818838D01*
X196596100Y-88756054D01*
X196820212Y-88663224D01*
X197030289Y-88541936D01*
X197222738Y-88394265D01*
X197394265Y-88222738D01*
X197541936Y-88030289D01*
X197663224Y-87820212D01*
X197756054Y-87596100D01*
X197818838Y-87361789D01*
X197850500Y-87121288D01*
X197850500Y-86878712D01*
X197818838Y-86638211D01*
X197756054Y-86403900D01*
X197663224Y-86179788D01*
X197663218Y-86179779D01*
X197663217Y-86179775D01*
X197541938Y-85969714D01*
X197541936Y-85969711D01*
X197394265Y-85777262D01*
X197394259Y-85777256D01*
X197394255Y-85777251D01*
X197222748Y-85605744D01*
X197222742Y-85605739D01*
X197222738Y-85605735D01*
X197030289Y-85458064D01*
X197030288Y-85458063D01*
X197030285Y-85458061D01*
X196820224Y-85336782D01*
X196820216Y-85336778D01*
X196820212Y-85336776D01*
X196596100Y-85243946D01*
X196596097Y-85243945D01*
X196596095Y-85243944D01*
X196361782Y-85181160D01*
X196121290Y-85149500D01*
X196121288Y-85149500D01*
X195878712Y-85149500D01*
X195878709Y-85149500D01*
X195638217Y-85181160D01*
X195403904Y-85243944D01*
X195403900Y-85243946D01*
X195189250Y-85332857D01*
X195179786Y-85336777D01*
X195179775Y-85336782D01*
X194969714Y-85458061D01*
X194777262Y-85605735D01*
X194777251Y-85605744D01*
X194605744Y-85777251D01*
X194605735Y-85777262D01*
X194458061Y-85969714D01*
X194336782Y-86179775D01*
X194336777Y-86179786D01*
X194336776Y-86179788D01*
X194283172Y-86309200D01*
X194243946Y-86403900D01*
X194243944Y-86403904D01*
X194181160Y-86638217D01*
X194149500Y-86878709D01*
X191302471Y-86878709D01*
X191370670Y-86695860D01*
X191428700Y-86429102D01*
X191448175Y-86156800D01*
X191428700Y-85884498D01*
X191384496Y-85681298D01*
X191370672Y-85617748D01*
X191370672Y-85617747D01*
X191370670Y-85617743D01*
X191370670Y-85617740D01*
X191275267Y-85361955D01*
X191144433Y-85122351D01*
X191094914Y-85056202D01*
X190980836Y-84903811D01*
X190980828Y-84903802D01*
X190787797Y-84710771D01*
X190787788Y-84710763D01*
X190569252Y-84547169D01*
X190569250Y-84547168D01*
X190569249Y-84547167D01*
X190329645Y-84416333D01*
X190329644Y-84416332D01*
X190073852Y-84320927D01*
X189807104Y-84262900D01*
X189807106Y-84262900D01*
X189534800Y-84243425D01*
X189262494Y-84262900D01*
X188995748Y-84320927D01*
X188995747Y-84320927D01*
X188781672Y-84400773D01*
X188710856Y-84405837D01*
X188648545Y-84371812D01*
X187491828Y-83215095D01*
X187457802Y-83152783D01*
X187462867Y-83081968D01*
X187505414Y-83025132D01*
X187571934Y-83000321D01*
X187580923Y-83000000D01*
X199874000Y-83000000D01*
X199942121Y-83020002D01*
G37*
%TD.AperFunction*%
%TA.AperFunction,Conductor*%
G36*
X135285900Y-91965746D02*
G01*
X135294195Y-91973333D01*
X138113195Y-94792333D01*
X138147221Y-94854645D01*
X138150100Y-94881428D01*
X138150100Y-100315378D01*
X138130098Y-100383499D01*
X138076442Y-100429992D01*
X138038210Y-100440585D01*
X137944153Y-100451183D01*
X137944150Y-100451183D01*
X137944150Y-100451184D01*
X137772184Y-100511357D01*
X137772181Y-100511358D01*
X137617920Y-100608287D01*
X137617918Y-100608288D01*
X137489088Y-100737118D01*
X137489087Y-100737120D01*
X137392158Y-100891381D01*
X137392157Y-100891384D01*
X137336858Y-101049422D01*
X137331983Y-101063353D01*
X137311584Y-101244400D01*
X137331983Y-101425447D01*
X137331983Y-101425449D01*
X137331984Y-101425450D01*
X137392157Y-101597415D01*
X137392158Y-101597417D01*
X137470387Y-101721918D01*
X137489700Y-101788954D01*
X137489700Y-105680602D01*
X137470387Y-105747638D01*
X137425558Y-105818982D01*
X137425557Y-105818984D01*
X137365548Y-105990482D01*
X137365383Y-105990953D01*
X137344984Y-106172000D01*
X137365383Y-106353047D01*
X137365383Y-106353049D01*
X137365384Y-106353050D01*
X137425557Y-106525015D01*
X137425558Y-106525018D01*
X137522487Y-106679279D01*
X137522488Y-106679281D01*
X137651318Y-106808111D01*
X137651320Y-106808112D01*
X137805581Y-106905041D01*
X137805582Y-106905041D01*
X137805585Y-106905043D01*
X137977553Y-106965217D01*
X137977552Y-106965217D01*
X138038207Y-106972051D01*
X138103660Y-106999554D01*
X138143853Y-107058078D01*
X138150100Y-107097259D01*
X138150100Y-110642900D01*
X138130098Y-110711021D01*
X138076442Y-110757514D01*
X138024100Y-110768900D01*
X135552244Y-110768900D01*
X135484123Y-110748898D01*
X135463149Y-110731995D01*
X131504146Y-106772991D01*
X131504143Y-106772989D01*
X131504142Y-106772988D01*
X131504141Y-106772987D01*
X131358525Y-106667191D01*
X131358521Y-106667189D01*
X131328812Y-106652051D01*
X131328812Y-106652050D01*
X131198153Y-106585477D01*
X131198145Y-106585474D01*
X131156172Y-106571835D01*
X131156172Y-106571836D01*
X131026973Y-106529857D01*
X131026975Y-106529857D01*
X131026971Y-106529856D01*
X131026970Y-106529856D01*
X130849196Y-106501700D01*
X130849195Y-106501700D01*
X130618405Y-106501700D01*
X130618404Y-106501700D01*
X130595608Y-106505310D01*
X130525197Y-106496209D01*
X130470884Y-106450486D01*
X130449913Y-106382657D01*
X130468942Y-106314258D01*
X130508863Y-106274174D01*
X130558290Y-106243118D01*
X130599520Y-106217212D01*
X130666555Y-106197900D01*
X131583790Y-106197900D01*
X131583791Y-106197900D01*
X131706569Y-106173478D01*
X131822222Y-106125573D01*
X131926308Y-106056025D01*
X134300825Y-103681508D01*
X134370373Y-103577422D01*
X134418278Y-103461769D01*
X134442700Y-103338991D01*
X134442700Y-103213809D01*
X134442700Y-97292623D01*
X134462702Y-97224502D01*
X134479600Y-97203532D01*
X134964149Y-96718982D01*
X135026460Y-96684959D01*
X135039138Y-96682871D01*
X135080439Y-96678218D01*
X135080439Y-96678217D01*
X135080447Y-96678217D01*
X135252415Y-96618043D01*
X135406681Y-96521111D01*
X135535511Y-96392281D01*
X135632443Y-96238015D01*
X135692617Y-96066047D01*
X135713016Y-95885000D01*
X135692617Y-95703953D01*
X135632443Y-95531985D01*
X135632441Y-95531982D01*
X135632441Y-95531981D01*
X135535512Y-95377720D01*
X135535511Y-95377718D01*
X135406681Y-95248888D01*
X135406679Y-95248887D01*
X135263664Y-95159024D01*
X135216626Y-95105845D01*
X135204700Y-95052337D01*
X135204700Y-92418810D01*
X135204699Y-92418806D01*
X135180278Y-92296031D01*
X135132373Y-92180378D01*
X135100334Y-92132429D01*
X135079120Y-92064677D01*
X135097903Y-91996210D01*
X135150720Y-91948767D01*
X135220803Y-91937410D01*
X135285900Y-91965746D01*
G37*
%TD.AperFunction*%
%TA.AperFunction,Conductor*%
G36*
X183413877Y-95753102D02*
G01*
X183460370Y-95806758D01*
X183470474Y-95877032D01*
X183440980Y-95941612D01*
X183434851Y-95948195D01*
X182261791Y-97121253D01*
X182261789Y-97121256D01*
X182210252Y-97192191D01*
X182155993Y-97266871D01*
X182074277Y-97427247D01*
X182074276Y-97427248D01*
X182066161Y-97452228D01*
X182066160Y-97452231D01*
X182018656Y-97598427D01*
X181999298Y-97720658D01*
X181992259Y-97765100D01*
X181990500Y-97776205D01*
X181990500Y-105701004D01*
X181990500Y-105880996D01*
X182002011Y-105953676D01*
X182018656Y-106058772D01*
X182044029Y-106136860D01*
X182060472Y-106187464D01*
X182074277Y-106229952D01*
X182074278Y-106229955D01*
X182074280Y-106229959D01*
X182143746Y-106366295D01*
X182143747Y-106366295D01*
X182155992Y-106390327D01*
X182238080Y-106503311D01*
X182261787Y-106535941D01*
X183151060Y-107425213D01*
X183296676Y-107531009D01*
X183457049Y-107612723D01*
X183628230Y-107668344D01*
X183806005Y-107696500D01*
X183806007Y-107696500D01*
X183985994Y-107696500D01*
X183985996Y-107696500D01*
X184163770Y-107668344D01*
X184334952Y-107612723D01*
X184495325Y-107531009D01*
X184640941Y-107425213D01*
X184768213Y-107297941D01*
X184874009Y-107152325D01*
X184955723Y-106991952D01*
X185011344Y-106820770D01*
X185039500Y-106642996D01*
X185039500Y-106463005D01*
X185011344Y-106285230D01*
X184955723Y-106114049D01*
X184874009Y-105953676D01*
X184768213Y-105808060D01*
X184314404Y-105354250D01*
X184280379Y-105291938D01*
X184277500Y-105265155D01*
X184277500Y-102297447D01*
X184297502Y-102229326D01*
X184351158Y-102182833D01*
X184417604Y-102172239D01*
X184531000Y-102185016D01*
X184712047Y-102164617D01*
X184884015Y-102104443D01*
X184903092Y-102092455D01*
X184970128Y-102073143D01*
X187622043Y-102073143D01*
X187690164Y-102093145D01*
X187736657Y-102146801D01*
X187746761Y-102217075D01*
X187724981Y-102271804D01*
X187697659Y-102310510D01*
X187697654Y-102310518D01*
X187561833Y-102572640D01*
X187462969Y-102850816D01*
X187462967Y-102850824D01*
X187402903Y-103139873D01*
X187402902Y-103139879D01*
X187382757Y-103434395D01*
X187382757Y-103434404D01*
X187402902Y-103728920D01*
X187402903Y-103728926D01*
X187462967Y-104017975D01*
X187462969Y-104017983D01*
X187561833Y-104296159D01*
X187697654Y-104558281D01*
X187697655Y-104558282D01*
X187851050Y-104775595D01*
X188573712Y-104052933D01*
X188668629Y-104183575D01*
X188796625Y-104311571D01*
X188927265Y-104406486D01*
X188206771Y-105126981D01*
X188206771Y-105126982D01*
X188298408Y-105201535D01*
X188550665Y-105354936D01*
X188821437Y-105472549D01*
X189105719Y-105552201D01*
X189398175Y-105592399D01*
X189398189Y-105592400D01*
X189693411Y-105592400D01*
X189693424Y-105592399D01*
X189985880Y-105552201D01*
X190270162Y-105472549D01*
X190540934Y-105354936D01*
X190793190Y-105201535D01*
X190884827Y-105126982D01*
X190164333Y-104406487D01*
X190294975Y-104311571D01*
X190422971Y-104183575D01*
X190517887Y-104052932D01*
X191240549Y-104775594D01*
X191393945Y-104558282D01*
X191393945Y-104558281D01*
X191529766Y-104296159D01*
X191628630Y-104017983D01*
X191628632Y-104017975D01*
X191688696Y-103728926D01*
X191688697Y-103728920D01*
X191708843Y-103434404D01*
X191708843Y-103434395D01*
X191688697Y-103139879D01*
X191688696Y-103139873D01*
X191628632Y-102850824D01*
X191628630Y-102850816D01*
X191529766Y-102572640D01*
X191393945Y-102310518D01*
X191393944Y-102310517D01*
X191240548Y-102093203D01*
X190517886Y-102815865D01*
X190422971Y-102685225D01*
X190294975Y-102557229D01*
X190164333Y-102462313D01*
X190884828Y-101741818D01*
X190884827Y-101741816D01*
X190793186Y-101667261D01*
X190540934Y-101513863D01*
X190270162Y-101396250D01*
X189985880Y-101316598D01*
X189946386Y-101311170D01*
X189881623Y-101282079D01*
X189842870Y-101222592D01*
X189842429Y-101151597D01*
X189844603Y-101144762D01*
X189870817Y-101069847D01*
X189891216Y-100888800D01*
X189870817Y-100707753D01*
X189810643Y-100535785D01*
X189810641Y-100535782D01*
X189810641Y-100535781D01*
X189713712Y-100381520D01*
X189713711Y-100381518D01*
X189584881Y-100252688D01*
X189584879Y-100252687D01*
X189430618Y-100155758D01*
X189430615Y-100155757D01*
X189258650Y-100095584D01*
X189258649Y-100095583D01*
X189258647Y-100095583D01*
X189077600Y-100075184D01*
X188896553Y-100095583D01*
X188896550Y-100095583D01*
X188896549Y-100095584D01*
X188724584Y-100155757D01*
X188724581Y-100155758D01*
X188570320Y-100252687D01*
X188570318Y-100252688D01*
X188441488Y-100381518D01*
X188441487Y-100381520D01*
X188344558Y-100535781D01*
X188344557Y-100535784D01*
X188282046Y-100714432D01*
X188279886Y-100713676D01*
X188250544Y-100766139D01*
X188187889Y-100799529D01*
X188162358Y-100802143D01*
X185157326Y-100802143D01*
X185089205Y-100782141D01*
X185068231Y-100765238D01*
X185038281Y-100735288D01*
X185038279Y-100735287D01*
X184884018Y-100638358D01*
X184884015Y-100638357D01*
X184712050Y-100578184D01*
X184712049Y-100578183D01*
X184712047Y-100578183D01*
X184531000Y-100557784D01*
X184530999Y-100557784D01*
X184417607Y-100570560D01*
X184347675Y-100558310D01*
X184295467Y-100510197D01*
X184277500Y-100445352D01*
X184277500Y-99944636D01*
X184297502Y-99876515D01*
X184351158Y-99830022D01*
X184421432Y-99819918D01*
X184436099Y-99822926D01*
X184622704Y-99872927D01*
X184835800Y-99891570D01*
X185048896Y-99872927D01*
X185255517Y-99817563D01*
X185449385Y-99727160D01*
X185535793Y-99666657D01*
X185624605Y-99604471D01*
X185624607Y-99604468D01*
X185624610Y-99604467D01*
X185657902Y-99571175D01*
X185746705Y-99482373D01*
X185809017Y-99448347D01*
X185879832Y-99453412D01*
X185924895Y-99482373D01*
X186046984Y-99604462D01*
X186046994Y-99604471D01*
X186222211Y-99727158D01*
X186222210Y-99727158D01*
X186267845Y-99748438D01*
X186416083Y-99817563D01*
X186622700Y-99872926D01*
X186622701Y-99872926D01*
X186622704Y-99872927D01*
X186835800Y-99891570D01*
X187048896Y-99872927D01*
X187255517Y-99817563D01*
X187449385Y-99727160D01*
X187535793Y-99666657D01*
X187624605Y-99604471D01*
X187624607Y-99604468D01*
X187624610Y-99604467D01*
X187775867Y-99453210D01*
X187779273Y-99448347D01*
X187898558Y-99277988D01*
X187898558Y-99277987D01*
X187898560Y-99277985D01*
X187988963Y-99084117D01*
X188044327Y-98877496D01*
X188062970Y-98664400D01*
X188044327Y-98451304D01*
X188044277Y-98451119D01*
X188006805Y-98311272D01*
X187988963Y-98244683D01*
X187898560Y-98050815D01*
X187898559Y-98050814D01*
X187898558Y-98050811D01*
X187775871Y-97875594D01*
X187775862Y-97875584D01*
X187624615Y-97724337D01*
X187624605Y-97724328D01*
X187449388Y-97601641D01*
X187449389Y-97601641D01*
X187282683Y-97523905D01*
X187229398Y-97476987D01*
X187209937Y-97408710D01*
X187230479Y-97340750D01*
X187282684Y-97295515D01*
X187445114Y-97219773D01*
X187445120Y-97219770D01*
X187499522Y-97181676D01*
X187499522Y-97181674D01*
X186932550Y-96614702D01*
X187013353Y-96593051D01*
X187118246Y-96532491D01*
X187203891Y-96446846D01*
X187264451Y-96341953D01*
X187286102Y-96261150D01*
X187853074Y-96828122D01*
X187853076Y-96828122D01*
X187891170Y-96773720D01*
X187891173Y-96773714D01*
X187980940Y-96581205D01*
X187980944Y-96581196D01*
X188035922Y-96376012D01*
X188054436Y-96164400D01*
X188035922Y-95952787D01*
X188019557Y-95891711D01*
X188021247Y-95820735D01*
X188061041Y-95761939D01*
X188126305Y-95733991D01*
X188141264Y-95733100D01*
X192382218Y-95733100D01*
X192450339Y-95753102D01*
X192488904Y-95792063D01*
X192500008Y-95809734D01*
X192530889Y-95858881D01*
X192530892Y-95858885D01*
X192659718Y-95987711D01*
X192659720Y-95987712D01*
X192813981Y-96084641D01*
X192813982Y-96084641D01*
X192813985Y-96084643D01*
X192985953Y-96144817D01*
X193167000Y-96165216D01*
X193348047Y-96144817D01*
X193520015Y-96084643D01*
X193633866Y-96013104D01*
X193702184Y-95993800D01*
X193770097Y-96014495D01*
X193816041Y-96068621D01*
X193826900Y-96119793D01*
X193826900Y-102706976D01*
X193806898Y-102775097D01*
X193789995Y-102796071D01*
X187049958Y-109536107D01*
X186987646Y-109570133D01*
X186916831Y-109565068D01*
X186859995Y-109522521D01*
X186858927Y-109521073D01*
X186845765Y-109502957D01*
X186800213Y-109440260D01*
X186800210Y-109440257D01*
X186800208Y-109440254D01*
X186672942Y-109312988D01*
X186527328Y-109207193D01*
X186527327Y-109207192D01*
X186527325Y-109207191D01*
X186366952Y-109125477D01*
X186366949Y-109125476D01*
X186366947Y-109125475D01*
X186195773Y-109069858D01*
X186195777Y-109069858D01*
X186162677Y-109064615D01*
X186017995Y-109041700D01*
X186017992Y-109041700D01*
X182847043Y-109041700D01*
X182778922Y-109021698D01*
X182757948Y-109004795D01*
X180758405Y-107005251D01*
X180724379Y-106942939D01*
X180721500Y-106916156D01*
X180721500Y-97067010D01*
X180721499Y-97067006D01*
X180717535Y-97047077D01*
X180697078Y-96944231D01*
X180649173Y-96828578D01*
X180579625Y-96724492D01*
X180491108Y-96635975D01*
X180103228Y-96248095D01*
X180069202Y-96185783D01*
X180067115Y-96173106D01*
X180066134Y-96164400D01*
X180062461Y-96131797D01*
X180002287Y-95959829D01*
X180002285Y-95959826D01*
X180002285Y-95959825D01*
X179981117Y-95926136D01*
X179961811Y-95857815D01*
X179982507Y-95789901D01*
X180036634Y-95743958D01*
X180087804Y-95733100D01*
X183345756Y-95733100D01*
X183413877Y-95753102D01*
G37*
%TD.AperFunction*%
%TD*%
M02*
