%TF.GenerationSoftware,KiCad,Pcbnew,8.0.5*%
%TF.CreationDate,2024-10-16T13:53:07-05:00*%
%TF.ProjectId,MonitoringSystem_PCB,4d6f6e69-746f-4726-996e-675379737465,rev?*%
%TF.SameCoordinates,Original*%
%TF.FileFunction,Paste,Top*%
%TF.FilePolarity,Positive*%
%FSLAX46Y46*%
G04 Gerber Fmt 4.6, Leading zero omitted, Abs format (unit mm)*
G04 Created by KiCad (PCBNEW 8.0.5) date 2024-10-16 13:53:07*
%MOMM*%
%LPD*%
G01*
G04 APERTURE LIST*
G04 Aperture macros list*
%AMRoundRect*
0 Rectangle with rounded corners*
0 $1 Rounding radius*
0 $2 $3 $4 $5 $6 $7 $8 $9 X,Y pos of 4 corners*
0 Add a 4 corners polygon primitive as box body*
4,1,4,$2,$3,$4,$5,$6,$7,$8,$9,$2,$3,0*
0 Add four circle primitives for the rounded corners*
1,1,$1+$1,$2,$3*
1,1,$1+$1,$4,$5*
1,1,$1+$1,$6,$7*
1,1,$1+$1,$8,$9*
0 Add four rect primitives between the rounded corners*
20,1,$1+$1,$2,$3,$4,$5,0*
20,1,$1+$1,$4,$5,$6,$7,0*
20,1,$1+$1,$6,$7,$8,$9,0*
20,1,$1+$1,$8,$9,$2,$3,0*%
G04 Aperture macros list end*
%ADD10O,1.699999X0.349999*%
%ADD11R,1.000000X0.599999*%
%ADD12O,0.349999X1.699999*%
%ADD13RoundRect,0.250000X0.450000X-0.262500X0.450000X0.262500X-0.450000X0.262500X-0.450000X-0.262500X0*%
%ADD14RoundRect,0.250000X-0.250000X-0.475000X0.250000X-0.475000X0.250000X0.475000X-0.250000X0.475000X0*%
%ADD15RoundRect,0.250000X-0.450000X0.262500X-0.450000X-0.262500X0.450000X-0.262500X0.450000X0.262500X0*%
%ADD16R,1.300000X1.550000*%
%ADD17R,1.550000X1.300000*%
%ADD18RoundRect,0.250000X0.262500X0.450000X-0.262500X0.450000X-0.262500X-0.450000X0.262500X-0.450000X0*%
%ADD19RoundRect,0.250000X-0.262500X-0.450000X0.262500X-0.450000X0.262500X0.450000X-0.262500X0.450000X0*%
%ADD20RoundRect,0.150000X0.587500X0.150000X-0.587500X0.150000X-0.587500X-0.150000X0.587500X-0.150000X0*%
%ADD21R,1.528000X0.650000*%
%ADD22RoundRect,0.062500X-0.117500X-0.062500X0.117500X-0.062500X0.117500X0.062500X-0.117500X0.062500X0*%
%ADD23RoundRect,0.250000X0.475000X-0.250000X0.475000X0.250000X-0.475000X0.250000X-0.475000X-0.250000X0*%
%ADD24RoundRect,0.250000X-0.475000X0.250000X-0.475000X-0.250000X0.475000X-0.250000X0.475000X0.250000X0*%
%ADD25RoundRect,0.250000X0.250000X0.475000X-0.250000X0.475000X-0.250000X-0.475000X0.250000X-0.475000X0*%
%ADD26RoundRect,0.375000X0.625000X0.375000X-0.625000X0.375000X-0.625000X-0.375000X0.625000X-0.375000X0*%
%ADD27RoundRect,0.500000X0.500000X1.400000X-0.500000X1.400000X-0.500000X-1.400000X0.500000X-1.400000X0*%
%ADD28R,1.498600X0.812800*%
%ADD29R,0.812800X1.498600*%
%ADD30R,0.889000X0.889000*%
%ADD31RoundRect,0.062500X0.337500X-0.062500X0.337500X0.062500X-0.337500X0.062500X-0.337500X-0.062500X0*%
%ADD32RoundRect,0.062500X0.062500X-0.337500X0.062500X0.337500X-0.062500X0.337500X-0.062500X-0.337500X0*%
%ADD33RoundRect,0.225000X0.225000X-0.225000X0.225000X0.225000X-0.225000X0.225000X-0.225000X-0.225000X0*%
%ADD34R,0.609600X0.203200*%
%ADD35R,1.295400X0.660400*%
%ADD36RoundRect,0.225000X0.225000X0.375000X-0.225000X0.375000X-0.225000X-0.375000X0.225000X-0.375000X0*%
G04 APERTURE END LIST*
D10*
%TO.C,U3*%
X169997001Y-118826999D03*
X169997001Y-119477000D03*
X169997001Y-120126999D03*
X169997001Y-120777000D03*
X169997001Y-121426999D03*
X169997001Y-122077000D03*
X169997001Y-122726999D03*
X175696999Y-122726999D03*
X175696999Y-122077000D03*
X175696999Y-121426999D03*
X175696999Y-120777000D03*
X175696999Y-120126999D03*
X175696999Y-119477000D03*
X175696999Y-118826999D03*
%TD*%
D11*
%TO.C,U5*%
X140621198Y-114289799D03*
X140621198Y-116189798D03*
X137871198Y-116189798D03*
X137871198Y-115239800D03*
X137871198Y-114289799D03*
%TD*%
%TO.C,U10*%
X137969399Y-119953999D03*
X137969399Y-120904000D03*
X137969399Y-121853998D03*
X140719399Y-121853998D03*
X140719399Y-119953999D03*
%TD*%
D12*
%TO.C,U11*%
X168876000Y-109910999D03*
X169526001Y-109910999D03*
X170176000Y-109910999D03*
X170826001Y-109910999D03*
X171475999Y-109910999D03*
X172126001Y-109910999D03*
X172775999Y-109910999D03*
X173426001Y-109910999D03*
X174075999Y-109910999D03*
X174726001Y-109910999D03*
X175375999Y-109910999D03*
X176026000Y-109910999D03*
X176675999Y-109910999D03*
X177326000Y-109910999D03*
X177326000Y-104211001D03*
X176675999Y-104211001D03*
X176026000Y-104211001D03*
X175375999Y-104211001D03*
X174726001Y-104211001D03*
X174075999Y-104211001D03*
X173426001Y-104211001D03*
X172775999Y-104211001D03*
X172126001Y-104211001D03*
X171475999Y-104211001D03*
X170826001Y-104211001D03*
X170176000Y-104211001D03*
X169526001Y-104211001D03*
X168876000Y-104211001D03*
%TD*%
D13*
%TO.C,R17*%
X178511200Y-88694900D03*
X178511200Y-86869900D03*
%TD*%
D14*
%TO.C,C3*%
X180304400Y-91338400D03*
X182204400Y-91338400D03*
%TD*%
%TO.C,C1*%
X180355200Y-87833200D03*
X182255200Y-87833200D03*
%TD*%
%TO.C,C29*%
X180202800Y-94691200D03*
X182102800Y-94691200D03*
%TD*%
%TO.C,C2*%
X180680400Y-97688400D03*
X178780400Y-97688400D03*
%TD*%
D13*
%TO.C,R16*%
X163703000Y-90447500D03*
X163703000Y-88622500D03*
%TD*%
D15*
%TO.C,R15*%
X163830000Y-94972500D03*
X163830000Y-96797500D03*
%TD*%
D16*
%TO.C,SW2*%
X198261800Y-105245000D03*
X198261800Y-113195000D03*
X193761800Y-105245000D03*
X193761800Y-113195000D03*
%TD*%
D17*
%TO.C,SW1*%
X125857000Y-85771600D03*
X133807000Y-85771600D03*
X125857000Y-90271600D03*
X133807000Y-90271600D03*
%TD*%
D18*
%TO.C,RG4*%
X140615899Y-118084600D03*
X138790899Y-118084600D03*
%TD*%
%TO.C,RG3*%
X143003900Y-117551200D03*
X144828900Y-117551200D03*
%TD*%
%TO.C,RG2*%
X140663300Y-123723400D03*
X138838300Y-123723400D03*
%TD*%
%TO.C,RG1*%
X143054700Y-122428000D03*
X144879700Y-122428000D03*
%TD*%
%TO.C,R14*%
X152706700Y-112572800D03*
X154531700Y-112572800D03*
%TD*%
D15*
%TO.C,R13*%
X163626800Y-107135300D03*
X163626800Y-105310300D03*
%TD*%
D13*
%TO.C,R12*%
X163830000Y-100484300D03*
X163830000Y-102309300D03*
%TD*%
%TO.C,R11*%
X137566400Y-98096700D03*
X137566400Y-99921700D03*
%TD*%
D18*
%TO.C,R10*%
X130761100Y-101346000D03*
X132586100Y-101346000D03*
%TD*%
D19*
%TO.C,R9*%
X159535500Y-112395000D03*
X157710500Y-112395000D03*
%TD*%
%TO.C,R8*%
X171473500Y-115951000D03*
X169648500Y-115951000D03*
%TD*%
D13*
%TO.C,R7*%
X173253400Y-112650900D03*
X173253400Y-114475900D03*
%TD*%
D18*
%TO.C,R6*%
X143054700Y-112572800D03*
X144879700Y-112572800D03*
%TD*%
%TO.C,R5*%
X137748000Y-111125000D03*
X139573000Y-111125000D03*
%TD*%
D19*
%TO.C,R4*%
X194231900Y-115443000D03*
X192406900Y-115443000D03*
%TD*%
D13*
%TO.C,R3*%
X123799600Y-90598000D03*
X123799600Y-88773000D03*
%TD*%
D15*
%TO.C,R2*%
X170815000Y-94083500D03*
X170815000Y-95908500D03*
%TD*%
D13*
%TO.C,R1*%
X170688000Y-91463500D03*
X170688000Y-89638500D03*
%TD*%
D20*
%TO.C,Q2*%
X167767000Y-95946000D03*
X167767000Y-94046000D03*
X165892000Y-94996000D03*
%TD*%
%TO.C,Q1*%
X167688500Y-91440000D03*
X167688500Y-89540000D03*
X165813500Y-90490000D03*
%TD*%
D21*
%TO.C,IC1*%
X156089800Y-119100600D03*
X156089800Y-120370600D03*
X156089800Y-121640600D03*
X156089800Y-122910600D03*
X161511800Y-122910600D03*
X161511800Y-121640600D03*
X161511800Y-120370600D03*
X161511800Y-119100600D03*
%TD*%
D22*
%TO.C,D2*%
X182287700Y-103251000D03*
X181447700Y-103251000D03*
%TD*%
D23*
%TO.C,C28*%
X163677600Y-122641400D03*
X163677600Y-120741400D03*
%TD*%
D24*
%TO.C,C27*%
X154000200Y-122539800D03*
X154000200Y-120639800D03*
%TD*%
D14*
%TO.C,C26*%
X134279600Y-102870000D03*
X136179600Y-102870000D03*
%TD*%
%TO.C,C25*%
X132649000Y-97536000D03*
X130749000Y-97536000D03*
%TD*%
%TO.C,C24*%
X132649000Y-95377000D03*
X130749000Y-95377000D03*
%TD*%
%TO.C,C23*%
X130774400Y-103682800D03*
X132674400Y-103682800D03*
%TD*%
D23*
%TO.C,C22*%
X175260000Y-112588000D03*
X175260000Y-114488000D03*
%TD*%
D24*
%TO.C,C21*%
X177927000Y-116393000D03*
X177927000Y-114493000D03*
%TD*%
D25*
%TO.C,C20*%
X169484000Y-113538000D03*
X171384000Y-113538000D03*
%TD*%
D23*
%TO.C,C19*%
X172085000Y-99126000D03*
X172085000Y-101026000D03*
%TD*%
%TO.C,C18*%
X170053000Y-99126000D03*
X170053000Y-101026000D03*
%TD*%
%TO.C,C17*%
X168021000Y-99126000D03*
X168021000Y-101026000D03*
%TD*%
%TO.C,C16*%
X176276000Y-99126000D03*
X176276000Y-101026000D03*
%TD*%
%TO.C,C15*%
X174244000Y-99126000D03*
X174244000Y-101026000D03*
%TD*%
D14*
%TO.C,C14*%
X184668200Y-117348000D03*
X182768200Y-117348000D03*
%TD*%
%TO.C,C13*%
X181188400Y-121412000D03*
X179288400Y-121412000D03*
%TD*%
%TO.C,C12*%
X181188400Y-119329200D03*
X179288400Y-119329200D03*
%TD*%
%TO.C,C11*%
X144920599Y-120218200D03*
X143020599Y-120218200D03*
%TD*%
%TO.C,C10*%
X144917200Y-114858800D03*
X143017200Y-114858800D03*
%TD*%
D25*
%TO.C,C9*%
X133266999Y-121183400D03*
X135166999Y-121183400D03*
%TD*%
%TO.C,C8*%
X133165399Y-115546400D03*
X135065399Y-115546400D03*
%TD*%
%TO.C,C7*%
X190738800Y-117246400D03*
X188838800Y-117246400D03*
%TD*%
%TO.C,C6*%
X137480000Y-90805000D03*
X139380000Y-90805000D03*
%TD*%
%TO.C,C5*%
X137414000Y-93053000D03*
X139314000Y-93053000D03*
%TD*%
D24*
%TO.C,C4*%
X120472200Y-88331000D03*
X120472200Y-90231000D03*
%TD*%
D26*
%TO.C,U6*%
X189205000Y-114822000D03*
X189205000Y-112522000D03*
D27*
X182905000Y-112522000D03*
D26*
X189205000Y-110222000D03*
%TD*%
D28*
%TO.C,U2*%
X141872000Y-92530000D03*
X141872000Y-93800000D03*
X141872000Y-95070000D03*
X141872000Y-96340000D03*
X141872000Y-97610000D03*
X141872000Y-98880000D03*
X141872000Y-100150000D03*
X141872000Y-101420000D03*
X141872000Y-102690000D03*
X141872000Y-103960000D03*
X141872000Y-105230000D03*
X141872000Y-106500000D03*
X141872000Y-107770000D03*
X141872000Y-109040000D03*
D29*
X143637000Y-110290000D03*
X144907000Y-110290000D03*
X146177000Y-110290000D03*
X147447000Y-110290000D03*
X148717000Y-110290000D03*
X149987000Y-110290000D03*
X151257000Y-110290000D03*
X152527000Y-110290000D03*
X153797000Y-110290000D03*
X155067000Y-110290000D03*
X156337000Y-110290000D03*
X157607000Y-110290000D03*
D28*
X159372000Y-109040000D03*
X159372000Y-107770000D03*
X159372000Y-106500000D03*
X159372000Y-105230000D03*
X159372000Y-103960000D03*
X159372000Y-102690000D03*
X159372000Y-101420000D03*
X159372000Y-100150000D03*
X159372000Y-98880000D03*
X159372000Y-97610000D03*
X159372000Y-96340000D03*
X159372000Y-95070000D03*
X159372000Y-93800000D03*
X159372000Y-92530000D03*
D30*
X149122000Y-101650000D03*
X149122000Y-100250000D03*
X147722000Y-98850000D03*
X147722000Y-100250000D03*
X147722000Y-101650000D03*
X150522000Y-101650000D03*
X150522000Y-100250000D03*
X150522000Y-98850000D03*
X149122000Y-98850000D03*
%TD*%
D31*
%TO.C,U1*%
X173826000Y-94083000D03*
X173826000Y-93583000D03*
X173826000Y-93083000D03*
X173826000Y-92583000D03*
X173826000Y-92083000D03*
X173826000Y-91583000D03*
X173826000Y-91083000D03*
D32*
X174776000Y-90133000D03*
X175276000Y-90133000D03*
X175776000Y-90133000D03*
X176276000Y-90133000D03*
X176776000Y-90133000D03*
X177276000Y-90133000D03*
X177776000Y-90133000D03*
D31*
X178726000Y-91083000D03*
X178726000Y-91583000D03*
X178726000Y-92083000D03*
X178726000Y-92583000D03*
X178726000Y-93083000D03*
X178726000Y-93583000D03*
X178726000Y-94083000D03*
D32*
X177776000Y-95033000D03*
X177276000Y-95033000D03*
X176776000Y-95033000D03*
X176276000Y-95033000D03*
X175776000Y-95033000D03*
X175276000Y-95033000D03*
X174776000Y-95033000D03*
D33*
X177396000Y-91463000D03*
X176276000Y-91463000D03*
X175156000Y-91463000D03*
X177396000Y-92583000D03*
X176276000Y-92583000D03*
X175156000Y-92583000D03*
X177396000Y-93703000D03*
X176276000Y-93703000D03*
X175156000Y-93703000D03*
%TD*%
D34*
%TO.C,J5*%
X128676400Y-95605600D03*
X128676400Y-96105726D03*
X128676400Y-96605852D03*
X128676400Y-97105978D03*
X128676400Y-97606104D03*
X128676400Y-98106230D03*
X128676400Y-98606356D03*
X128676400Y-99106482D03*
X128676400Y-99606608D03*
X128676400Y-100106734D03*
X128676400Y-100606860D03*
X128676400Y-101106986D03*
X128676400Y-101607112D03*
X128676400Y-102107238D03*
X128676400Y-102607364D03*
D35*
X123026401Y-94031483D03*
X123026401Y-104181481D03*
%TD*%
D36*
%TO.C,D3*%
X189102000Y-106553000D03*
X185802000Y-106553000D03*
%TD*%
D22*
%TO.C,D1*%
X182287700Y-100634800D03*
X181447700Y-100634800D03*
%TD*%
M02*
