M48
; DRILL file {KiCad 8.0.5} date 2024-11-12T20:08:12-0600
; FORMAT={-:-/ absolute / metric / decimal}
; #@! TF.CreationDate,2024-11-12T20:08:12-06:00
; #@! TF.GenerationSoftware,Kicad,Pcbnew,8.0.5
; #@! TF.FileFunction,Plated,1,2,PTH
FMAT,2
METRIC
; #@! TA.AperFunction,Plated,PTH,ViaDrill
T1C0.300
; #@! TA.AperFunction,Plated,PTH,ViaDrill
T2C0.400
; #@! TA.AperFunction,Plated,PTH,ComponentDrill
T3C0.920
; #@! TA.AperFunction,Plated,PTH,ComponentDrill
T4C1.000
; #@! TA.AperFunction,Plated,PTH,ComponentDrill
T5C1.190
; #@! TA.AperFunction,Plated,PTH,ComponentDrill
T6C1.600
; #@! TA.AperFunction,Plated,PTH,ComponentDrill
T7C2.300
%
G90
G05
T1
X119.405Y-115.997
X121.075Y-86.05
X122.975Y-88.65
X123.215Y-102.159
X123.363Y-85.799
X123.55Y-84.725
X124.158Y-86.15
X124.946Y-86.287
X125.509Y-101.549
X125.975Y-89.314
X126.0Y-88.06
X126.086Y-97.358
X126.35Y-80.7
X126.378Y-100.575
X126.53Y-92.53
X127.253Y-116.613
X127.782Y-112.969
X128.607Y-118.872
X129.4Y-86.15
X129.525Y-82.775
X132.232Y-112.598
X132.309Y-115.214
X133.071Y-111.836
X135.15Y-86.75
X135.509Y-98.959
X135.915Y-104.47
X137.255Y-104.023
X137.338Y-101.448
X137.363Y-109.398
X137.566Y-106.02
X137.706Y-86.556
X139.294Y-98.35
X140.429Y-93.125
X140.7Y-86.225
X140.75Y-88.4
X141.175Y-81.6
X143.45Y-93.8
X143.789Y-118.542
X145.11Y-122.631
X145.618Y-114.376
X145.889Y-116.435
X146.725Y-81.6
X147.066Y-116.815
X147.239Y-114.832
X147.498Y-118.674
X148.514Y-120.447
X148.672Y-121.434
X148.908Y-114.107
X149.733Y-114.101
X149.978Y-119.036
X150.588Y-121.37
X150.673Y-122.885
X153.025Y-81.275
X153.225Y-82.45
X153.625Y-90.55
X154.178Y-114.101
X154.325Y-98.2
X154.915Y-115.011
X155.625Y-99.2
X156.481Y-114.101
X156.825Y-93.3
X157.782Y-115.062
X157.81Y-103.81
X157.825Y-95.5
X157.925Y-97.0
X158.15Y-100.825
X159.156Y-122.758
X159.791Y-121.717
X160.757Y-122.58
X160.982Y-106.993
X161.017Y-108.763
X161.29Y-88.646
X161.29Y-97.638
X161.341Y-87.478
X161.519Y-118.22
X161.973Y-115.508
X162.103Y-114.706
X164.795Y-112.878
X164.821Y-117.958
X165.849Y-112.903
X166.225Y-93.875
X167.538Y-112.243
X167.663Y-110.927
X168.732Y-107.899
X168.808Y-109.779
X169.164Y-91.694
X169.291Y-95.796
X170.713Y-110.388
X172.212Y-89.789
X172.466Y-94.81
X172.974Y-114.544
X174.133Y-113.843
X174.32Y-99.797
X174.511Y-110.35
X174.777Y-96.876
X175.184Y-114.833
X175.225Y-105.385
X175.244Y-123.909
X175.444Y-120.509
X175.527Y-110.342
X176.175Y-114.966
X176.636Y-119.223
X177.368Y-114.935
X177.634Y-119.291
X178.105Y-96.215
X179.045Y-110.363
X179.269Y-96.313
X191.7Y-108.6
X193.025Y-113.2
T2
X121.158Y-106.782
X129.38Y-91.12
X130.708Y-107.645
X133.401Y-121.818
X139.294Y-93.6
X139.294Y-107.848
X143.002Y-110.134
X151.298Y-110.134
X157.284Y-110.13
X162.287Y-111.604
X165.5Y-104.825
X165.63Y-102.11
X165.659Y-107.239
X166.68Y-103.59
X177.267Y-102.11
X177.65Y-103.62
X183.2Y-104.7
X185.928Y-110.185
T3
X184.836Y-96.164
X184.836Y-98.664
X186.836Y-96.164
X186.836Y-98.664
T4
X115.85Y-93.275
X115.85Y-95.815
X115.85Y-98.355
X115.85Y-100.895
X115.85Y-103.435
X118.39Y-93.275
X118.39Y-95.815
X118.39Y-98.355
X118.39Y-100.895
X118.39Y-103.435
X177.75Y-82.35
X180.29Y-82.35
X182.83Y-82.35
X185.37Y-82.35
X187.91Y-82.35
T5
X120.57Y-121.4
X123.11Y-121.4
X127.88Y-121.36
X130.42Y-121.36
T6
X113.29Y-111.17
X113.37Y-115.37
X183.49Y-118.72
X185.547Y-122.53
X190.881Y-86.563
T7
X189.546Y-91.394
X189.546Y-103.434
M30
