M48
; DRILL file {KiCad 8.0.5} date 2024-10-16T14:06:01-0500
; FORMAT={-:-/ absolute / metric / decimal}
; #@! TF.CreationDate,2024-10-16T14:06:01-05:00
; #@! TF.GenerationSoftware,Kicad,Pcbnew,8.0.5
; #@! TF.FileFunction,Plated,1,2,PTH
FMAT,2
METRIC
; #@! TA.AperFunction,Plated,PTH,ViaDrill
T1C0.300
; #@! TA.AperFunction,Plated,PTH,ViaDrill
T2C0.400
; #@! TA.AperFunction,Plated,PTH,ComponentDrill
T3C0.920
; #@! TA.AperFunction,Plated,PTH,ComponentDrill
T4C1.000
; #@! TA.AperFunction,Plated,PTH,ComponentDrill
T5C1.190
; #@! TA.AperFunction,Plated,PTH,ComponentDrill
T6C1.600
; #@! TA.AperFunction,Plated,PTH,ComponentDrill
T7C2.300
%
G90
G05
T1
X123.215Y-102.159
X126.492Y-100.889
X126.814Y-101.651
X126.848Y-98.958
X130.122Y-105.562
X133.706Y-91.618
X134.899Y-95.885
X134.925Y-105.918
X135.153Y-101.168
X135.28Y-122.631
X135.9Y-116.982
X135.915Y-94.158
X137.363Y-109.398
X138.125Y-101.244
X138.159Y-106.172
X138.635Y-87.578
X138.871Y-116.027
X139.09Y-121.869
X139.162Y-88.205
X139.346Y-112.774
X139.693Y-88.832
X139.717Y-120.948
X140.259Y-89.459
X140.97Y-110.211
X143.942Y-96.799
X146.202Y-116.535
X147.244Y-124.511
X147.93Y-116.535
X148.768Y-122.199
X149.53Y-124.139
X151.155Y-122.123
X151.181Y-124.139
X151.638Y-118.175
X152.502Y-122.022
X154.229Y-92.964
X154.356Y-96.012
X155.321Y-97.434
X155.346Y-103.251
X155.751Y-112.725
X156.378Y-115.784
X156.972Y-96.215
X157.937Y-107.772
X159.715Y-122.885
X161.239Y-108.763
X161.29Y-97.638
X161.747Y-92.177
X162.56Y-98.806
X163.271Y-111.709
X164.508Y-114.325
X165.481Y-97.053
X165.532Y-117.34
X165.557Y-107.344
X165.736Y-119.762
X165.8Y-118.248
X165.806Y-116.086
X166.207Y-116.888
X166.696Y-101.299
X167.894Y-121.006
X168.369Y-119.454
X168.808Y-111.557
X168.823Y-106.187
X169.164Y-91.694
X169.291Y-95.796
X169.503Y-105.766
X170.739Y-108.171
X170.79Y-105.816
X171.704Y-107.121
X171.907Y-105.867
X171.975Y-120.04
X172.212Y-89.789
X172.466Y-94.81
X172.477Y-120.969
X172.618Y-119.532
X172.72Y-107.798
X173.38Y-121.107
X173.888Y-122.733
X174.041Y-118.72
X174.092Y-105.766
X174.092Y-116.578
X174.196Y-117.371
X174.777Y-96.876
X175.971Y-105.766
X176.403Y-115.697
X176.592Y-117.512
X176.676Y-106.145
X176.784Y-112.903
X177.303Y-106.772
X177.394Y-120.548
X177.394Y-122.987
X178.079Y-111.303
X178.105Y-96.215
X178.174Y-123.164
X178.816Y-110.236
X179.269Y-96.313
X179.382Y-109.67
X180.181Y-109.651
X180.95Y-111.379
X180.975Y-115.418
X184.531Y-101.371
X185.445Y-104.572
X189.078Y-100.889
X193.167Y-95.352
T2
X121.158Y-106.782
X125.755Y-92.329
X130.708Y-107.645
X131.42Y-117.119
X131.978Y-111.76
X139.294Y-94.894
X139.294Y-99.314
X139.294Y-107.848
X141.3Y-112.649
X155.924Y-100.15
X156.651Y-101.041
X157.734Y-98.501
X157.734Y-102.718
X161.622Y-111.279
X167.335Y-102.464
X176.479Y-102.514
X179.121Y-104.648
X183.896Y-106.553
X185.928Y-110.185
T3
X184.836Y-96.164
X184.836Y-98.664
X186.836Y-96.164
X186.836Y-98.664
T4
X115.773Y-96.647
X115.773Y-99.187
X115.773Y-101.727
X115.773Y-104.267
X115.773Y-106.807
X118.313Y-96.647
X118.313Y-99.187
X118.313Y-101.727
X118.313Y-104.267
X118.313Y-106.807
T5
X124.181Y-121.488
X125.832Y-110.947
X125.832Y-113.487
X125.832Y-116.027
X126.721Y-121.488
X129.261Y-121.488
T6
X113.894Y-114.808
X120.117Y-114.63
X120.167Y-122.885
X120.345Y-118.745
X122.758Y-85.954
X167.132Y-85.623
X173.584Y-85.75
X184.15Y-122.58
X185.395Y-86.309
X188.265Y-122.555
X189.535Y-86.157
T7
X189.546Y-91.394
X189.546Y-103.434
M30
