G04 #@! TF.GenerationSoftware,KiCad,Pcbnew,8.0.5*
G04 #@! TF.CreationDate,2024-11-12T20:07:36-06:00*
G04 #@! TF.ProjectId,MonitoringSystem_PCB,4d6f6e69-746f-4726-996e-675379737465,rev?*
G04 #@! TF.SameCoordinates,Original*
G04 #@! TF.FileFunction,Copper,L2,Bot*
G04 #@! TF.FilePolarity,Positive*
%FSLAX46Y46*%
G04 Gerber Fmt 4.6, Leading zero omitted, Abs format (unit mm)*
G04 Created by KiCad (PCBNEW 8.0.5) date 2024-11-12 20:07:36*
%MOMM*%
%LPD*%
G01*
G04 APERTURE LIST*
G04 Aperture macros list*
%AMRoundRect*
0 Rectangle with rounded corners*
0 $1 Rounding radius*
0 $2 $3 $4 $5 $6 $7 $8 $9 X,Y pos of 4 corners*
0 Add a 4 corners polygon primitive as box body*
4,1,4,$2,$3,$4,$5,$6,$7,$8,$9,$2,$3,0*
0 Add four circle primitives for the rounded corners*
1,1,$1+$1,$2,$3*
1,1,$1+$1,$4,$5*
1,1,$1+$1,$6,$7*
1,1,$1+$1,$8,$9*
0 Add four rect primitives between the rounded corners*
20,1,$1+$1,$2,$3,$4,$5,0*
20,1,$1+$1,$4,$5,$6,$7,0*
20,1,$1+$1,$6,$7,$8,$9,0*
20,1,$1+$1,$8,$9,$2,$3,0*%
G04 Aperture macros list end*
G04 #@! TA.AperFunction,ComponentPad*
%ADD10RoundRect,0.250000X-0.620000X-0.845000X0.620000X-0.845000X0.620000X0.845000X-0.620000X0.845000X0*%
G04 #@! TD*
G04 #@! TA.AperFunction,ComponentPad*
%ADD11O,1.740000X2.190000*%
G04 #@! TD*
G04 #@! TA.AperFunction,ComponentPad*
%ADD12RoundRect,0.250000X-0.600000X-0.600000X0.600000X-0.600000X0.600000X0.600000X-0.600000X0.600000X0*%
G04 #@! TD*
G04 #@! TA.AperFunction,ComponentPad*
%ADD13C,1.700000*%
G04 #@! TD*
G04 #@! TA.AperFunction,ComponentPad*
%ADD14C,2.800000*%
G04 #@! TD*
G04 #@! TA.AperFunction,ComponentPad*
%ADD15R,1.700000X1.700000*%
G04 #@! TD*
G04 #@! TA.AperFunction,ComponentPad*
%ADD16O,1.700000X1.700000*%
G04 #@! TD*
G04 #@! TA.AperFunction,ComponentPad*
%ADD17R,1.428000X1.428000*%
G04 #@! TD*
G04 #@! TA.AperFunction,ComponentPad*
%ADD18C,1.428000*%
G04 #@! TD*
G04 #@! TA.AperFunction,ComponentPad*
%ADD19C,3.316000*%
G04 #@! TD*
G04 #@! TA.AperFunction,ViaPad*
%ADD20C,0.600000*%
G04 #@! TD*
G04 #@! TA.AperFunction,ViaPad*
%ADD21C,0.800000*%
G04 #@! TD*
G04 #@! TA.AperFunction,Conductor*
%ADD22C,0.254000*%
G04 #@! TD*
G04 #@! TA.AperFunction,Conductor*
%ADD23C,0.508000*%
G04 #@! TD*
G04 #@! TA.AperFunction,Conductor*
%ADD24C,1.270000*%
G04 #@! TD*
G04 APERTURE END LIST*
D10*
X127880000Y-121360000D03*
D11*
X130420000Y-121360000D03*
D10*
X120570000Y-121400000D03*
D11*
X123110000Y-121400000D03*
D12*
X115850000Y-93275000D03*
D13*
X118390000Y-93275000D03*
X115850000Y-95815000D03*
X118390000Y-95815000D03*
X115850000Y-98355000D03*
X118390000Y-98355000D03*
X115850000Y-100895000D03*
X118390000Y-100895000D03*
X115850000Y-103435000D03*
X118390000Y-103435000D03*
D14*
X185547000Y-122529600D03*
D15*
X177750000Y-82350000D03*
D16*
X180290000Y-82350000D03*
X182830000Y-82350000D03*
X185370000Y-82350000D03*
X187910000Y-82350000D03*
D14*
X183489600Y-118719600D03*
X190881000Y-86563200D03*
X113370000Y-115370000D03*
X113290000Y-111170000D03*
D17*
X184835800Y-96164400D03*
D18*
X184835800Y-98664400D03*
X186835800Y-98664400D03*
X186835800Y-96164400D03*
D19*
X189545800Y-103434400D03*
X189545800Y-91394400D03*
D20*
X137566400Y-106019600D03*
D21*
X157284208Y-110129995D03*
D20*
X126085600Y-97358200D03*
X137337800Y-101447600D03*
X179044600Y-110363000D03*
X168732200Y-107899200D03*
X168808400Y-109778800D03*
X157782500Y-115062000D03*
X154914600Y-115011200D03*
X154178000Y-114101400D03*
X156481400Y-114101400D03*
X159791400Y-121716800D03*
X160756600Y-122580400D03*
X159156400Y-122758200D03*
X143789400Y-118541800D03*
X147497800Y-118673600D03*
D21*
X162286900Y-111604400D03*
X177266600Y-102110000D03*
X165658800Y-107238800D03*
X143002000Y-110134400D03*
X151298200Y-110134400D03*
D20*
X119405400Y-115997000D03*
X149977600Y-119035600D03*
X164820600Y-117957600D03*
X150672800Y-122885200D03*
X125509400Y-101549200D03*
X126377537Y-100575000D03*
X150587801Y-121369999D03*
X145618200Y-114376200D03*
X170713400Y-110388400D03*
X145110200Y-122631200D03*
D21*
X133400800Y-121818400D03*
D20*
X133070600Y-111836200D03*
X137254650Y-104022900D03*
X148671791Y-121434243D03*
X177633883Y-119290609D03*
X148513800Y-120446800D03*
X176636166Y-119223034D03*
X149733000Y-114101400D03*
X162102800Y-114706400D03*
X148908200Y-114106855D03*
X161972609Y-115508201D03*
X147066000Y-116814600D03*
X177368200Y-114935000D03*
X145888677Y-116434513D03*
X176175030Y-114965564D03*
X147238900Y-114832257D03*
X132232400Y-112598200D03*
X167662544Y-110926944D03*
X132308600Y-115214400D03*
X167538400Y-112242600D03*
X175183800Y-114833400D03*
X175225000Y-105384600D03*
X175526857Y-110342224D03*
X174320200Y-99796600D03*
X174510869Y-110350469D03*
X165849064Y-112903330D03*
X174132800Y-113842800D03*
X157810200Y-103809800D03*
X161340800Y-87477600D03*
X161017000Y-108762800D03*
X164795200Y-112877600D03*
D21*
X165500000Y-104825000D03*
D20*
X127782059Y-112968729D03*
X161518600Y-118219600D03*
X127253000Y-116613000D03*
X128607000Y-118872000D03*
X172974000Y-114544400D03*
D21*
X166680000Y-103590000D03*
X177650000Y-103620000D03*
X165630000Y-102110000D03*
D20*
X141175000Y-81600000D03*
X153625000Y-90550000D03*
X123215400Y-102158800D03*
X126530000Y-92530000D03*
X129525000Y-82775000D03*
X153225000Y-82450000D03*
X146725000Y-81600000D03*
X174777400Y-96875600D03*
X140750000Y-88400000D03*
X179269244Y-96312844D03*
D21*
X130708400Y-107645200D03*
X185928000Y-110185200D03*
D20*
X139293600Y-98350000D03*
X178104800Y-96215200D03*
D21*
X129379800Y-91120200D03*
X139293600Y-107848400D03*
X139293600Y-93600000D03*
D20*
X140428600Y-93125000D03*
X129400000Y-86150000D03*
X122975000Y-88650000D03*
X121075000Y-86050000D03*
X161290000Y-97637600D03*
X160981644Y-106993356D03*
X161290000Y-88646000D03*
X175243999Y-123909001D03*
X175443999Y-120509001D03*
X193025000Y-113200000D03*
X191700000Y-108600000D03*
X135150000Y-86750000D03*
X140700000Y-86225000D03*
X143450000Y-93800000D03*
X137705856Y-86555856D03*
D21*
X121158000Y-106781600D03*
D20*
X123363166Y-85798546D03*
X158150000Y-100825000D03*
X123550000Y-84725000D03*
X157925000Y-97000000D03*
X155625000Y-99200000D03*
X124157887Y-86150000D03*
X124946006Y-86287377D03*
X154325000Y-98200000D03*
X135509000Y-98958526D03*
X135915400Y-104470200D03*
X169291000Y-95796000D03*
X169164000Y-91694000D03*
D21*
X183200000Y-104700000D03*
D20*
X172212000Y-89789000D03*
X172466000Y-94810000D03*
X126000000Y-88060500D03*
X126350000Y-80700000D03*
X125975000Y-89314500D03*
X153025000Y-81275000D03*
X157825000Y-95500000D03*
X156825000Y-93300000D03*
X166225000Y-93875000D03*
X137363200Y-109397800D03*
D22*
X142654000Y-84529000D02*
X124632712Y-84529000D01*
X124632712Y-84529000D02*
X123363166Y-85798546D01*
X157429200Y-99304200D02*
X142654000Y-84529000D01*
X158150000Y-100825000D02*
X157429200Y-100104200D01*
X157429200Y-100104200D02*
X157429200Y-99304200D01*
X154178000Y-114101400D02*
X156481400Y-114101400D01*
X157782500Y-115062000D02*
X157731700Y-115011200D01*
X157731700Y-115011200D02*
X154914600Y-115011200D01*
X137566400Y-106019600D02*
X137881650Y-105704350D01*
X137881650Y-105704350D02*
X137881650Y-101991450D01*
X137881650Y-101991450D02*
X137337800Y-101447600D01*
X129497200Y-105097200D02*
X129082800Y-105511600D01*
X129082800Y-107848400D02*
X133070600Y-111836200D01*
X129082800Y-105511600D02*
X129082800Y-107848400D01*
X136180350Y-105097200D02*
X129497200Y-105097200D01*
X137254650Y-104022900D02*
X136180350Y-105097200D01*
X193700400Y-90500200D02*
X190881000Y-87680800D01*
X193700400Y-113411312D02*
X193700400Y-90500200D01*
X193284712Y-113827000D02*
X193700400Y-113411312D01*
X190881000Y-87680800D02*
X190881000Y-86563200D01*
X182508600Y-113827000D02*
X193284712Y-113827000D01*
X179044600Y-110363000D02*
X182508600Y-113827000D01*
X168732200Y-109702600D02*
X168732200Y-107899200D01*
X168808400Y-109778800D02*
X168732200Y-109702600D01*
X162490200Y-112566400D02*
X132264200Y-112566400D01*
X164109400Y-110947200D02*
X162490200Y-112566400D01*
X167642288Y-110947200D02*
X164109400Y-110947200D01*
X132264200Y-112566400D02*
X132232400Y-112598200D01*
X167662544Y-110926944D02*
X167642288Y-110947200D01*
X162678253Y-113020400D02*
X146974000Y-113020400D01*
X164091053Y-111607600D02*
X162678253Y-113020400D01*
X167868600Y-111607600D02*
X164091053Y-111607600D01*
X169087800Y-110388400D02*
X167868600Y-111607600D01*
X146974000Y-113020400D02*
X145618200Y-114376200D01*
X170713400Y-110388400D02*
X169087800Y-110388400D01*
X160578800Y-122758200D02*
X159156400Y-122758200D01*
X160756600Y-122580400D02*
X160578800Y-122758200D01*
X151425825Y-115744800D02*
X159896425Y-115744800D01*
X160934825Y-114706400D02*
X162102800Y-114706400D01*
X151003625Y-115322600D02*
X151425825Y-115744800D01*
X159896425Y-115744800D02*
X160934825Y-114706400D01*
X150954200Y-115322600D02*
X151003625Y-115322600D01*
X149733000Y-114101400D02*
X150954200Y-115322600D01*
X160084477Y-116198800D02*
X160775076Y-115508201D01*
X151237773Y-116198800D02*
X160084477Y-116198800D01*
X150815573Y-115776600D02*
X151237773Y-116198800D01*
X160775076Y-115508201D02*
X161972609Y-115508201D01*
X148908200Y-114163312D02*
X150521488Y-115776600D01*
X148908200Y-114106855D02*
X148908200Y-114163312D01*
X150521488Y-115776600D02*
X150815573Y-115776600D01*
X160694729Y-116230600D02*
X173786600Y-116230600D01*
X160272529Y-116652800D02*
X160694729Y-116230600D01*
X151049721Y-116652800D02*
X160272529Y-116652800D01*
X150627521Y-116230600D02*
X151049721Y-116652800D01*
X173786600Y-116230600D02*
X175183800Y-114833400D01*
X147238900Y-115082500D02*
X148387000Y-116230600D01*
X147238900Y-114832257D02*
X147238900Y-115082500D01*
X148387000Y-116230600D02*
X150627521Y-116230600D01*
X174455994Y-116684600D02*
X176175030Y-114965564D01*
X160460582Y-117106800D02*
X160882782Y-116684600D01*
X150439469Y-116684600D02*
X150861669Y-117106800D01*
X147367134Y-116087600D02*
X147964134Y-116684600D01*
X150861669Y-117106800D02*
X160460582Y-117106800D01*
X160882782Y-116684600D02*
X174455994Y-116684600D01*
X146235590Y-116087600D02*
X147367134Y-116087600D01*
X145888677Y-116434513D02*
X146235590Y-116087600D01*
X147964134Y-116684600D02*
X150439469Y-116684600D01*
X175164600Y-117138600D02*
X177368200Y-114935000D01*
X150673617Y-117560800D02*
X160648635Y-117560800D01*
X150251417Y-117138600D02*
X150673617Y-117560800D01*
X160648635Y-117560800D02*
X161070835Y-117138600D01*
X147390000Y-117138600D02*
X150251417Y-117138600D01*
X161070835Y-117138600D02*
X175164600Y-117138600D01*
X147066000Y-116814600D02*
X147390000Y-117138600D01*
X131683330Y-116870000D02*
X127782059Y-112968729D01*
X143782706Y-116870000D02*
X131683330Y-116870000D01*
X144505306Y-117592600D02*
X143782706Y-116870000D01*
X160836688Y-118014800D02*
X150485565Y-118014800D01*
X161258888Y-117592600D02*
X160836688Y-118014800D01*
X150485565Y-118014800D02*
X150063365Y-117592600D01*
X164455600Y-117592600D02*
X161258888Y-117592600D01*
X150063365Y-117592600D02*
X144505306Y-117592600D01*
X164820600Y-117957600D02*
X164455600Y-117592600D01*
X129273000Y-116613000D02*
X127253000Y-116613000D01*
X144040653Y-117770000D02*
X130430000Y-117770000D01*
X144317253Y-118046600D02*
X144040653Y-117770000D01*
X150297512Y-118468800D02*
X149875312Y-118046600D01*
X161269400Y-118468800D02*
X150297512Y-118468800D01*
X161518600Y-118219600D02*
X161269400Y-118468800D01*
X149875312Y-118046600D02*
X144317253Y-118046600D01*
X130430000Y-117770000D02*
X129273000Y-116613000D01*
D23*
X143921200Y-118673600D02*
X143789400Y-118541800D01*
X147497800Y-118673600D02*
X143921200Y-118673600D01*
D22*
X143670366Y-119662600D02*
X143639383Y-119631617D01*
X143639383Y-119631617D02*
X143852600Y-119844835D01*
X150237312Y-119662600D02*
X143670366Y-119662600D01*
X142959165Y-118951400D02*
X143639383Y-119631617D01*
X143852600Y-119844835D02*
X143852600Y-119844836D01*
X130969348Y-118951400D02*
X142959165Y-118951400D01*
X129264348Y-117246400D02*
X130969348Y-118951400D01*
X127990600Y-117246400D02*
X129264348Y-117246400D01*
X126136400Y-116484400D02*
X126892000Y-117240000D01*
X126892000Y-117240000D02*
X127984200Y-117240000D01*
X126136400Y-100816137D02*
X126136400Y-116484400D01*
X127984200Y-117240000D02*
X127990600Y-117246400D01*
X126377537Y-100575000D02*
X126136400Y-100816137D01*
X178449200Y-115708201D02*
X178449200Y-113264567D01*
X178183253Y-115974148D02*
X178449200Y-115708201D01*
X175388366Y-118769034D02*
X178183253Y-115974148D01*
X178449200Y-113264567D02*
X175526857Y-110342224D01*
X175013149Y-118769034D02*
X175388366Y-118769034D01*
X174405383Y-119376800D02*
X175013149Y-118769034D01*
X150237312Y-119662600D02*
X150523112Y-119376800D01*
X150523112Y-119376800D02*
X174405383Y-119376800D01*
X149796557Y-122161243D02*
X150587801Y-121369999D01*
X143852600Y-119844836D02*
X146169007Y-122161243D01*
X146169007Y-122161243D02*
X149796557Y-122161243D01*
X145666712Y-115214400D02*
X132308600Y-115214400D01*
X146245200Y-114635912D02*
X145666712Y-115214400D01*
X147383600Y-113474400D02*
X146245200Y-114612800D01*
X146245200Y-114612800D02*
X146245200Y-114635912D01*
X163157000Y-113474400D02*
X147383600Y-113474400D01*
X164480800Y-112150600D02*
X163157000Y-113474400D01*
X167446400Y-112150600D02*
X164480800Y-112150600D01*
X167538400Y-112242600D02*
X167446400Y-112150600D01*
X179269244Y-102000756D02*
X177650000Y-103620000D01*
X179269244Y-96312844D02*
X179269244Y-102000756D01*
X178104800Y-101271800D02*
X177266600Y-102110000D01*
X178104800Y-96215200D02*
X178104800Y-101271800D01*
D23*
X164534800Y-107238800D02*
X163722000Y-106426000D01*
D24*
X163722000Y-106426000D02*
X163722000Y-109933694D01*
X163722000Y-104036894D02*
X163722000Y-106426000D01*
D23*
X165658800Y-107238800D02*
X164534800Y-107238800D01*
D24*
X143002000Y-110134400D02*
X140157200Y-110134400D01*
X161442400Y-110134400D02*
X143002000Y-110134400D01*
D22*
X118117000Y-115997000D02*
X113290000Y-111170000D01*
X119405400Y-115997000D02*
X118117000Y-115997000D01*
X177995200Y-114393600D02*
X177444400Y-113842800D01*
X175200314Y-118315034D02*
X177995200Y-115520148D01*
X177995200Y-115520148D02*
X177995200Y-114393600D01*
X177444400Y-113842800D02*
X174132800Y-113842800D01*
X174825097Y-118315034D02*
X175200314Y-118315034D01*
X149977600Y-119035600D02*
X150090400Y-118922800D01*
X150090400Y-118922800D02*
X174217331Y-118922800D01*
X174217331Y-118922800D02*
X174825097Y-118315034D01*
X148717000Y-120116600D02*
X174307635Y-120116600D01*
X148513800Y-120319800D02*
X148717000Y-120116600D01*
X148513800Y-120446800D02*
X148513800Y-120319800D01*
X174307635Y-120116600D02*
X175201201Y-119223034D01*
X175201201Y-119223034D02*
X176636166Y-119223034D01*
X177609991Y-119290609D02*
X177633883Y-119290609D01*
X176950566Y-119950034D02*
X177609991Y-119290609D01*
X175184287Y-119882001D02*
X175703711Y-119882001D01*
X175771744Y-119950034D02*
X176950566Y-119950034D01*
X174365488Y-120700800D02*
X175184287Y-119882001D01*
X175703711Y-119882001D02*
X175771744Y-119950034D01*
X148671791Y-121434243D02*
X149405234Y-120700800D01*
X149405234Y-120700800D02*
X174365488Y-120700800D01*
X125509400Y-116499453D02*
X125509400Y-101549200D01*
X126710347Y-117700400D02*
X125509400Y-116499453D01*
X128322112Y-117700400D02*
X126710347Y-117700400D01*
X130027112Y-119405400D02*
X128322112Y-117700400D01*
X142771112Y-119405400D02*
X130027112Y-119405400D01*
X146250912Y-122885200D02*
X142771112Y-119405400D01*
X150672800Y-122885200D02*
X146250912Y-122885200D01*
X128349000Y-119130000D02*
X122840000Y-119130000D01*
X122840000Y-119130000D02*
X120570000Y-121400000D01*
X128607000Y-118872000D02*
X128349000Y-119130000D01*
X134213600Y-122631200D02*
X133400800Y-121818400D01*
X145110200Y-122631200D02*
X134213600Y-122631200D01*
X135712200Y-104267000D02*
X135915400Y-104470200D01*
X135712200Y-99161726D02*
X135712200Y-104267000D01*
X135509000Y-98958526D02*
X135712200Y-99161726D01*
X180872874Y-122529600D02*
X177633883Y-119290609D01*
X185547000Y-122529600D02*
X180872874Y-122529600D01*
X178539599Y-117319601D02*
X176636166Y-119223034D01*
X182089601Y-117319601D02*
X178539599Y-117319601D01*
X183489600Y-118719600D02*
X182089601Y-117319601D01*
X166471600Y-114554000D02*
X164795200Y-112877600D01*
X172964400Y-114554000D02*
X166471600Y-114554000D01*
X172974000Y-114544400D02*
X172964400Y-114554000D01*
D24*
X130759200Y-107645200D02*
X130708400Y-107645200D01*
X134718400Y-111604400D02*
X130759200Y-107645200D01*
X163722000Y-109933694D02*
X162051294Y-111604400D01*
X164168894Y-103590000D02*
X163722000Y-104036894D01*
X166680000Y-103590000D02*
X164168894Y-103590000D01*
X162051294Y-111604400D02*
X134718400Y-111604400D01*
X140157200Y-110134400D02*
X139293600Y-109270800D01*
X162252000Y-109324800D02*
X161442400Y-110134400D01*
X162252000Y-103428000D02*
X162252000Y-109324800D01*
X162926300Y-102753700D02*
X162252000Y-103428000D01*
X139293600Y-109270800D02*
X139293600Y-107848400D01*
D22*
X175526857Y-105686457D02*
X175225000Y-105384600D01*
X175526857Y-110342224D02*
X175526857Y-105686457D01*
X174498000Y-110337600D02*
X174510869Y-110350469D01*
X174498000Y-99974400D02*
X174498000Y-110337600D01*
X174320200Y-99796600D02*
X174498000Y-99974400D01*
X166763134Y-113817400D02*
X165849064Y-112903330D01*
X174107400Y-113817400D02*
X166763134Y-113817400D01*
X174132800Y-113842800D02*
X174107400Y-113817400D01*
X157810200Y-103809800D02*
X157810200Y-105556000D01*
X157810200Y-105556000D02*
X161017000Y-108762800D01*
X161917000Y-101744400D02*
X162926300Y-102753700D01*
X161340800Y-87477600D02*
X161917000Y-88053800D01*
D24*
X163570000Y-102110000D02*
X162926300Y-102753700D01*
D22*
X161917000Y-88053800D02*
X161917000Y-101744400D01*
X161290000Y-88646000D02*
X161290000Y-97637600D01*
D24*
X185928000Y-110148000D02*
X185928000Y-110185200D01*
X179400000Y-103620000D02*
X185928000Y-110148000D01*
X177650000Y-103620000D02*
X179400000Y-103620000D01*
X165630000Y-102110000D02*
X163570000Y-102110000D01*
D22*
X188417200Y-96164400D02*
X188417200Y-96189800D01*
X188417200Y-96189800D02*
X191185800Y-98958400D01*
X186835800Y-96164400D02*
X188214000Y-96164400D01*
X188214000Y-96164400D02*
X188417200Y-96164400D01*
D23*
X129379800Y-91120200D02*
X130559600Y-92300000D01*
X130559600Y-92300000D02*
X136699200Y-92300000D01*
X136699200Y-92300000D02*
X137999200Y-93600000D01*
X137999200Y-93600000D02*
X139293600Y-93600000D01*
D24*
X139293600Y-98350000D02*
X139293600Y-107848400D01*
X139293600Y-98350000D02*
X139293600Y-93600000D01*
D22*
X122975000Y-88650000D02*
X122975000Y-87950000D01*
X140428600Y-93125000D02*
X133453600Y-86150000D01*
X122975000Y-87950000D02*
X121075000Y-86050000D01*
X133453600Y-86150000D02*
X129400000Y-86150000D01*
X161290000Y-106685000D02*
X161290000Y-97637600D01*
X160981644Y-106993356D02*
X161290000Y-106685000D01*
X175443999Y-120509001D02*
X175443999Y-123709001D01*
X175443999Y-123709001D02*
X175243999Y-123909001D01*
X187500000Y-101328600D02*
X184835800Y-98664400D01*
X193025000Y-113200000D02*
X191700000Y-113200000D01*
X191700000Y-113200000D02*
X187500000Y-109000000D01*
X187500000Y-109000000D02*
X187500000Y-101328600D01*
X187583014Y-98664400D02*
X186835800Y-98664400D01*
X191700000Y-108600000D02*
X191700000Y-102781386D01*
X191700000Y-102781386D02*
X187583014Y-98664400D01*
X135344144Y-86555856D02*
X135150000Y-86750000D01*
X143450000Y-93800000D02*
X143450000Y-88975000D01*
X137705856Y-86555856D02*
X135344144Y-86555856D01*
X143450000Y-88975000D02*
X140700000Y-86225000D01*
X112800000Y-104975000D02*
X112800000Y-96325000D01*
X114606600Y-106781600D02*
X112800000Y-104975000D01*
X112800000Y-96325000D02*
X115850000Y-93275000D01*
X121158000Y-106781600D02*
X114606600Y-106781600D01*
X124200000Y-84075000D02*
X145000000Y-84075000D01*
X145000000Y-84075000D02*
X157925000Y-97000000D01*
X123550000Y-84725000D02*
X124200000Y-84075000D01*
X125324887Y-84983000D02*
X124157887Y-86150000D01*
X142465948Y-84983000D02*
X125324887Y-84983000D01*
X155625000Y-99200000D02*
X155625000Y-98142052D01*
X155625000Y-98142052D02*
X142465948Y-84983000D01*
X124946006Y-86287377D02*
X125710383Y-85523000D01*
X125710383Y-85523000D02*
X141648000Y-85523000D01*
X141648000Y-85523000D02*
X154325000Y-98200000D01*
X169291000Y-95796000D02*
X169164000Y-95669000D01*
X169164000Y-95669000D02*
X169164000Y-91694000D01*
D24*
X182900000Y-98100200D02*
X184835800Y-96164400D01*
X182900000Y-104400000D02*
X182900000Y-98100200D01*
X183200000Y-104700000D02*
X182900000Y-104400000D01*
D22*
X172466000Y-94810000D02*
X172593000Y-94683000D01*
X172593000Y-94683000D02*
X172593000Y-90170000D01*
X172593000Y-90170000D02*
X172212000Y-89789000D01*
X126427000Y-80623000D02*
X152373000Y-80623000D01*
X125975000Y-89314500D02*
X125975000Y-88085500D01*
X125975000Y-88085500D02*
X126000000Y-88060500D01*
X152373000Y-80623000D02*
X153025000Y-81275000D01*
X126350000Y-80700000D02*
X126427000Y-80623000D01*
X164646000Y-80804000D02*
X181284000Y-80804000D01*
X157825000Y-87625000D02*
X164646000Y-80804000D01*
X181284000Y-80804000D02*
X182830000Y-82350000D01*
X157825000Y-95500000D02*
X157825000Y-87625000D01*
X156850000Y-87900000D02*
X164400000Y-80350000D01*
X183370000Y-80350000D02*
X185370000Y-82350000D01*
X156825000Y-93300000D02*
X156850000Y-93275000D01*
X164400000Y-80350000D02*
X183370000Y-80350000D01*
X156850000Y-93275000D02*
X156850000Y-87900000D01*
X178515000Y-84125000D02*
X180290000Y-82350000D01*
X165950000Y-93600000D02*
X165950000Y-90650000D01*
X166225000Y-93875000D02*
X165950000Y-93600000D01*
X165950000Y-90650000D02*
X172475000Y-84125000D01*
X172475000Y-84125000D02*
X178515000Y-84125000D01*
G04 #@! TA.AperFunction,Conductor*
G36*
X117203225Y-101570669D02*
G01*
X117225480Y-101596353D01*
X117239127Y-101617240D01*
X117314275Y-101732265D01*
X117314279Y-101732270D01*
X117466762Y-101897908D01*
X117518484Y-101938165D01*
X117644424Y-102036189D01*
X117677680Y-102054186D01*
X117728071Y-102104200D01*
X117743423Y-102173516D01*
X117718862Y-102240129D01*
X117677680Y-102275813D01*
X117644426Y-102293810D01*
X117644424Y-102293811D01*
X117466762Y-102432091D01*
X117314279Y-102597729D01*
X117221868Y-102739175D01*
X117167864Y-102785263D01*
X117097516Y-102794838D01*
X117033159Y-102764860D01*
X117013171Y-102742529D01*
X116964925Y-102673626D01*
X116332962Y-103305589D01*
X116315925Y-103242007D01*
X116250099Y-103127993D01*
X116157007Y-103034901D01*
X116042993Y-102969075D01*
X115979409Y-102952037D01*
X116611372Y-102320072D01*
X116611372Y-102320071D01*
X116542850Y-102272092D01*
X116498521Y-102216635D01*
X116491212Y-102146016D01*
X116523242Y-102082655D01*
X116555150Y-102058066D01*
X116595576Y-102036189D01*
X116773240Y-101897906D01*
X116925722Y-101732268D01*
X117014518Y-101596354D01*
X117068520Y-101550268D01*
X117138868Y-101540692D01*
X117203225Y-101570669D01*
G37*
G04 #@! TD.AperFunction*
G04 #@! TA.AperFunction,Conductor*
G36*
X116964924Y-99116372D02*
G01*
X116964925Y-99116372D01*
X117013173Y-99047469D01*
X117068630Y-99003141D01*
X117139250Y-98995832D01*
X117202610Y-99027863D01*
X117221869Y-99050825D01*
X117314275Y-99192265D01*
X117314279Y-99192270D01*
X117466762Y-99357908D01*
X117485573Y-99372549D01*
X117644424Y-99496189D01*
X117677680Y-99514186D01*
X117728071Y-99564200D01*
X117743423Y-99633516D01*
X117718862Y-99700129D01*
X117677680Y-99735813D01*
X117644426Y-99753810D01*
X117644424Y-99753811D01*
X117466762Y-99892091D01*
X117314279Y-100057729D01*
X117225483Y-100193643D01*
X117171479Y-100239731D01*
X117101131Y-100249306D01*
X117036774Y-100219329D01*
X117014517Y-100193643D01*
X116925720Y-100057729D01*
X116773237Y-99892091D01*
X116677481Y-99817561D01*
X116595576Y-99753811D01*
X116595569Y-99753807D01*
X116555150Y-99731933D01*
X116504760Y-99681920D01*
X116489408Y-99612603D01*
X116513969Y-99545990D01*
X116542849Y-99517907D01*
X116611372Y-99469925D01*
X116611372Y-99469924D01*
X115979410Y-98837962D01*
X116042993Y-98820925D01*
X116157007Y-98755099D01*
X116250099Y-98662007D01*
X116315925Y-98547993D01*
X116332962Y-98484410D01*
X116964924Y-99116372D01*
G37*
G04 #@! TD.AperFunction*
G04 #@! TA.AperFunction,Conductor*
G36*
X116964924Y-96576372D02*
G01*
X116964925Y-96576372D01*
X117013173Y-96507469D01*
X117068630Y-96463141D01*
X117139250Y-96455832D01*
X117202610Y-96487863D01*
X117221869Y-96510825D01*
X117314275Y-96652265D01*
X117314279Y-96652270D01*
X117466762Y-96817908D01*
X117479885Y-96828122D01*
X117644424Y-96956189D01*
X117677680Y-96974186D01*
X117728071Y-97024200D01*
X117743423Y-97093516D01*
X117718862Y-97160129D01*
X117677680Y-97195813D01*
X117644426Y-97213810D01*
X117644424Y-97213811D01*
X117466762Y-97352091D01*
X117314279Y-97517729D01*
X117221868Y-97659175D01*
X117167864Y-97705263D01*
X117097516Y-97714838D01*
X117033159Y-97684860D01*
X117013171Y-97662529D01*
X116964925Y-97593626D01*
X116332962Y-98225589D01*
X116315925Y-98162007D01*
X116250099Y-98047993D01*
X116157007Y-97954901D01*
X116042993Y-97889075D01*
X115979409Y-97872037D01*
X116611372Y-97240072D01*
X116537308Y-97188212D01*
X116492980Y-97132755D01*
X116485671Y-97062136D01*
X116517702Y-96998775D01*
X116537308Y-96981786D01*
X116611372Y-96929925D01*
X116611372Y-96929924D01*
X115979410Y-96297962D01*
X116042993Y-96280925D01*
X116157007Y-96215099D01*
X116250099Y-96122007D01*
X116315925Y-96007993D01*
X116332962Y-95944410D01*
X116964924Y-96576372D01*
G37*
G04 #@! TD.AperFunction*
G04 #@! TA.AperFunction,Conductor*
G36*
X117317021Y-94127442D02*
G01*
X117353483Y-94154857D01*
X117420834Y-94228018D01*
X117466760Y-94277906D01*
X117644424Y-94416189D01*
X117677680Y-94434186D01*
X117728071Y-94484200D01*
X117743423Y-94553516D01*
X117718862Y-94620129D01*
X117677680Y-94655813D01*
X117644426Y-94673810D01*
X117644424Y-94673811D01*
X117466762Y-94812091D01*
X117314279Y-94977729D01*
X117221868Y-95119175D01*
X117167864Y-95165263D01*
X117097516Y-95174838D01*
X117033159Y-95144860D01*
X117013171Y-95122529D01*
X116964925Y-95053626D01*
X116332962Y-95685589D01*
X116315925Y-95622007D01*
X116250099Y-95507993D01*
X116157007Y-95414901D01*
X116042993Y-95349075D01*
X115979408Y-95332037D01*
X116619315Y-94692129D01*
X116627286Y-94652469D01*
X116676686Y-94601477D01*
X116699179Y-94591489D01*
X116772738Y-94567115D01*
X116923652Y-94474030D01*
X117049030Y-94348652D01*
X117142115Y-94197738D01*
X117142118Y-94197728D01*
X117145217Y-94191086D01*
X117147126Y-94191976D01*
X117181581Y-94142200D01*
X117247135Y-94114936D01*
X117317021Y-94127442D01*
G37*
G04 #@! TD.AperFunction*
G04 #@! TA.AperFunction,Conductor*
G36*
X125675123Y-80020002D02*
G01*
X125721616Y-80073658D01*
X125731720Y-80143932D01*
X125713689Y-80193036D01*
X125616958Y-80346982D01*
X125616957Y-80346984D01*
X125569790Y-80481782D01*
X125556783Y-80518953D01*
X125536384Y-80700000D01*
X125556783Y-80881047D01*
X125556783Y-80881049D01*
X125556784Y-80881050D01*
X125616957Y-81053015D01*
X125616958Y-81053018D01*
X125713887Y-81207279D01*
X125713888Y-81207281D01*
X125842718Y-81336111D01*
X125842720Y-81336112D01*
X125996981Y-81433041D01*
X125996982Y-81433041D01*
X125996985Y-81433043D01*
X126168953Y-81493217D01*
X126350000Y-81513616D01*
X126531047Y-81493217D01*
X126703015Y-81433043D01*
X126857281Y-81336111D01*
X126897986Y-81295406D01*
X126960297Y-81261380D01*
X126987082Y-81258500D01*
X152057577Y-81258500D01*
X152125698Y-81278502D01*
X152146672Y-81295405D01*
X152191015Y-81339748D01*
X152225041Y-81402060D01*
X152227127Y-81414733D01*
X152231782Y-81456042D01*
X152231783Y-81456049D01*
X152291957Y-81628015D01*
X152291958Y-81628018D01*
X152388887Y-81782279D01*
X152388888Y-81782281D01*
X152517718Y-81911111D01*
X152517720Y-81911112D01*
X152671981Y-82008041D01*
X152671982Y-82008041D01*
X152671985Y-82008043D01*
X152843953Y-82068217D01*
X153025000Y-82088616D01*
X153206047Y-82068217D01*
X153378015Y-82008043D01*
X153532281Y-81911111D01*
X153661111Y-81782281D01*
X153758043Y-81628015D01*
X153818217Y-81456047D01*
X153838616Y-81275000D01*
X153818217Y-81093953D01*
X153758043Y-80921985D01*
X153758041Y-80921982D01*
X153758041Y-80921981D01*
X153661112Y-80767720D01*
X153661111Y-80767718D01*
X153532281Y-80638888D01*
X153532279Y-80638887D01*
X153378018Y-80541958D01*
X153378015Y-80541957D01*
X153206049Y-80481783D01*
X153206042Y-80481782D01*
X153164733Y-80477127D01*
X153099280Y-80449623D01*
X153089748Y-80441015D01*
X152863828Y-80215095D01*
X152829802Y-80152783D01*
X152834867Y-80081968D01*
X152877414Y-80025132D01*
X152943934Y-80000321D01*
X152952923Y-80000000D01*
X163547077Y-80000000D01*
X163615198Y-80020002D01*
X163661691Y-80073658D01*
X163671795Y-80143932D01*
X163642301Y-80208512D01*
X163636172Y-80215095D01*
X156356377Y-87494889D01*
X156356372Y-87494896D01*
X156286827Y-87598977D01*
X156238924Y-87714625D01*
X156238922Y-87714630D01*
X156214500Y-87837406D01*
X156214500Y-92716513D01*
X156194498Y-92784634D01*
X156190221Y-92790596D01*
X156091958Y-92946981D01*
X156091957Y-92946984D01*
X156044538Y-93082502D01*
X156031783Y-93118953D01*
X156011384Y-93300000D01*
X156031783Y-93481047D01*
X156031783Y-93481049D01*
X156031784Y-93481050D01*
X156091957Y-93653015D01*
X156091958Y-93653018D01*
X156188887Y-93807279D01*
X156188888Y-93807281D01*
X156317718Y-93936111D01*
X156317720Y-93936112D01*
X156471981Y-94033041D01*
X156471982Y-94033041D01*
X156471985Y-94033043D01*
X156643953Y-94093217D01*
X156825000Y-94113616D01*
X157006047Y-94093217D01*
X157021885Y-94087674D01*
X157092789Y-94084055D01*
X157154394Y-94119345D01*
X157187141Y-94182338D01*
X157189500Y-94206604D01*
X157189500Y-94955445D01*
X157170187Y-95022481D01*
X157129233Y-95087659D01*
X157076055Y-95134697D01*
X157005887Y-95145517D01*
X156941009Y-95116684D01*
X156933451Y-95109718D01*
X145405110Y-83581377D01*
X145405108Y-83581375D01*
X145301022Y-83511827D01*
X145185369Y-83463922D01*
X145062593Y-83439500D01*
X145062591Y-83439500D01*
X124262591Y-83439500D01*
X124137409Y-83439500D01*
X124137406Y-83439500D01*
X124014630Y-83463922D01*
X124014625Y-83463924D01*
X123898977Y-83511827D01*
X123794893Y-83581374D01*
X123794891Y-83581375D01*
X123485249Y-83891016D01*
X123422937Y-83925041D01*
X123410265Y-83927127D01*
X123368956Y-83931782D01*
X123368950Y-83931783D01*
X123196984Y-83991957D01*
X123196981Y-83991958D01*
X123042720Y-84088887D01*
X123042718Y-84088888D01*
X122913888Y-84217718D01*
X122913887Y-84217720D01*
X122816958Y-84371981D01*
X122816957Y-84371984D01*
X122816957Y-84371985D01*
X122756783Y-84543953D01*
X122736384Y-84725000D01*
X122756783Y-84906047D01*
X122756783Y-84906049D01*
X122756784Y-84906050D01*
X122816955Y-85078011D01*
X122818261Y-85080722D01*
X122818578Y-85082648D01*
X122819294Y-85084694D01*
X122818935Y-85084819D01*
X122829795Y-85150776D01*
X122801624Y-85215944D01*
X122793834Y-85224485D01*
X122727052Y-85291267D01*
X122630124Y-85445527D01*
X122630123Y-85445530D01*
X122596116Y-85542719D01*
X122569949Y-85617499D01*
X122549550Y-85798546D01*
X122569949Y-85979593D01*
X122569949Y-85979595D01*
X122569950Y-85979596D01*
X122630123Y-86151561D01*
X122630124Y-86151564D01*
X122727053Y-86305825D01*
X122727054Y-86305827D01*
X122855884Y-86434657D01*
X122855886Y-86434658D01*
X123010147Y-86531587D01*
X123010148Y-86531587D01*
X123010151Y-86531589D01*
X123182119Y-86591763D01*
X123363166Y-86612162D01*
X123363167Y-86612161D01*
X123363169Y-86612162D01*
X123363170Y-86612162D01*
X123392335Y-86608875D01*
X123406482Y-86607281D01*
X123476414Y-86619528D01*
X123519106Y-86653932D01*
X123521782Y-86657288D01*
X123650605Y-86786111D01*
X123650607Y-86786112D01*
X123804868Y-86883041D01*
X123804869Y-86883041D01*
X123804872Y-86883043D01*
X123976840Y-86943217D01*
X124157887Y-86963616D01*
X124338934Y-86943217D01*
X124365923Y-86933772D01*
X124436823Y-86930151D01*
X124474574Y-86946014D01*
X124571641Y-87007004D01*
X124592991Y-87020420D01*
X124764959Y-87080594D01*
X124946006Y-87100993D01*
X125127053Y-87080594D01*
X125299021Y-87020420D01*
X125453287Y-86923488D01*
X125582117Y-86794658D01*
X125679049Y-86640392D01*
X125739223Y-86468424D01*
X125743877Y-86427115D01*
X125771379Y-86361662D01*
X125779990Y-86352125D01*
X125936712Y-86195404D01*
X125999024Y-86161379D01*
X126025807Y-86158500D01*
X128474741Y-86158500D01*
X128542862Y-86178502D01*
X128589355Y-86232158D01*
X128599949Y-86270393D01*
X128606782Y-86331045D01*
X128666957Y-86503015D01*
X128666958Y-86503018D01*
X128763887Y-86657279D01*
X128763888Y-86657281D01*
X128892718Y-86786111D01*
X128892720Y-86786112D01*
X129046981Y-86883041D01*
X129046982Y-86883041D01*
X129046985Y-86883043D01*
X129218953Y-86943217D01*
X129400000Y-86963616D01*
X129581047Y-86943217D01*
X129753015Y-86883043D01*
X129787918Y-86861112D01*
X129877519Y-86804813D01*
X129944555Y-86785500D01*
X133138177Y-86785500D01*
X133206298Y-86805502D01*
X133227272Y-86822405D01*
X138791968Y-92387101D01*
X138825994Y-92449413D01*
X138820929Y-92520228D01*
X138778382Y-92577064D01*
X138760077Y-92588462D01*
X138694274Y-92621991D01*
X138548659Y-92727787D01*
X138512256Y-92764191D01*
X138475850Y-92800596D01*
X138413541Y-92834620D01*
X138386757Y-92837500D01*
X138367228Y-92837500D01*
X138299107Y-92817498D01*
X138278133Y-92800595D01*
X137185269Y-91707730D01*
X137185265Y-91707727D01*
X137060379Y-91624282D01*
X136921615Y-91566804D01*
X136921614Y-91566803D01*
X136774303Y-91537500D01*
X136774300Y-91537500D01*
X130927628Y-91537500D01*
X130859507Y-91517498D01*
X130838533Y-91500595D01*
X130297203Y-90959265D01*
X130266465Y-90909107D01*
X130255814Y-90876328D01*
X130214327Y-90748644D01*
X130118840Y-90583256D01*
X130118838Y-90583254D01*
X130118834Y-90583248D01*
X129991055Y-90441335D01*
X129836552Y-90329082D01*
X129662088Y-90251406D01*
X129475287Y-90211700D01*
X129284313Y-90211700D01*
X129097511Y-90251406D01*
X128923047Y-90329082D01*
X128768544Y-90441335D01*
X128640765Y-90583248D01*
X128640758Y-90583258D01*
X128545276Y-90748638D01*
X128545273Y-90748645D01*
X128486257Y-90930272D01*
X128466296Y-91120200D01*
X128486257Y-91310127D01*
X128513640Y-91394400D01*
X128545273Y-91491756D01*
X128545276Y-91491761D01*
X128640758Y-91657141D01*
X128640765Y-91657151D01*
X128768544Y-91799064D01*
X128768547Y-91799066D01*
X128923048Y-91911318D01*
X129097512Y-91988994D01*
X129153385Y-92000870D01*
X129215859Y-92034598D01*
X129216072Y-92034810D01*
X130073535Y-92892273D01*
X130195818Y-92973979D01*
X130198421Y-92975718D01*
X130337187Y-93033197D01*
X130484500Y-93062500D01*
X136331172Y-93062500D01*
X136399293Y-93082502D01*
X136420267Y-93099405D01*
X137513135Y-94192273D01*
X137638021Y-94275719D01*
X137717163Y-94308500D01*
X137776787Y-94333197D01*
X137924100Y-94362500D01*
X137924101Y-94362500D01*
X138024100Y-94362500D01*
X138092221Y-94382502D01*
X138138714Y-94436158D01*
X138150100Y-94488500D01*
X138150100Y-103490997D01*
X138130098Y-103559118D01*
X138076442Y-103605611D01*
X138006168Y-103615715D01*
X137941588Y-103586221D01*
X137917413Y-103558034D01*
X137890760Y-103515617D01*
X137761931Y-103386788D01*
X137761929Y-103386787D01*
X137607668Y-103289858D01*
X137607665Y-103289857D01*
X137435700Y-103229684D01*
X137435699Y-103229683D01*
X137435697Y-103229683D01*
X137254650Y-103209284D01*
X137073603Y-103229683D01*
X137073600Y-103229683D01*
X137073599Y-103229684D01*
X136901634Y-103289857D01*
X136901631Y-103289858D01*
X136747370Y-103386787D01*
X136747368Y-103386788D01*
X136618538Y-103515618D01*
X136618537Y-103515620D01*
X136580387Y-103576336D01*
X136527209Y-103623374D01*
X136457041Y-103634194D01*
X136392163Y-103605361D01*
X136353172Y-103546030D01*
X136347700Y-103509300D01*
X136347700Y-99099136D01*
X136347699Y-99099132D01*
X136338090Y-99050825D01*
X136325036Y-98985198D01*
X136322616Y-98960620D01*
X136322616Y-98958528D01*
X136320498Y-98939732D01*
X136302217Y-98777479D01*
X136242043Y-98605511D01*
X136242041Y-98605508D01*
X136242041Y-98605507D01*
X136145112Y-98451246D01*
X136145111Y-98451244D01*
X136016281Y-98322414D01*
X136016279Y-98322413D01*
X135862018Y-98225484D01*
X135862015Y-98225483D01*
X135690050Y-98165310D01*
X135690049Y-98165309D01*
X135690047Y-98165309D01*
X135509000Y-98144910D01*
X135327953Y-98165309D01*
X135327950Y-98165309D01*
X135327949Y-98165310D01*
X135155984Y-98225483D01*
X135155981Y-98225484D01*
X135001720Y-98322413D01*
X135001718Y-98322414D01*
X134872888Y-98451244D01*
X134872887Y-98451246D01*
X134775958Y-98605507D01*
X134775957Y-98605510D01*
X134745442Y-98692719D01*
X134715783Y-98777479D01*
X134695384Y-98958526D01*
X134715783Y-99139573D01*
X134715783Y-99139575D01*
X134715784Y-99139576D01*
X134775957Y-99311541D01*
X134775958Y-99311544D01*
X134872887Y-99465805D01*
X134872888Y-99465807D01*
X135001716Y-99594635D01*
X135001719Y-99594637D01*
X135017734Y-99604700D01*
X135064773Y-99657877D01*
X135076700Y-99711388D01*
X135076700Y-104335700D01*
X135056698Y-104403821D01*
X135003042Y-104450314D01*
X134950700Y-104461700D01*
X129434606Y-104461700D01*
X129311830Y-104486122D01*
X129311825Y-104486124D01*
X129196177Y-104534027D01*
X129092096Y-104603572D01*
X129092089Y-104603577D01*
X128589177Y-105106489D01*
X128589172Y-105106496D01*
X128519627Y-105210577D01*
X128471724Y-105326225D01*
X128471722Y-105326230D01*
X128447300Y-105449006D01*
X128447300Y-107910993D01*
X128467528Y-108012686D01*
X128471722Y-108033769D01*
X128519627Y-108149422D01*
X128589175Y-108253508D01*
X128589177Y-108253510D01*
X131975708Y-111640041D01*
X132009734Y-111702353D01*
X132004669Y-111773168D01*
X131962122Y-111830004D01*
X131928230Y-111848065D01*
X131879381Y-111865158D01*
X131725120Y-111962087D01*
X131725118Y-111962088D01*
X131596288Y-112090918D01*
X131596287Y-112090920D01*
X131499358Y-112245181D01*
X131499357Y-112245184D01*
X131442812Y-112406783D01*
X131439183Y-112417153D01*
X131418784Y-112598200D01*
X131439183Y-112779247D01*
X131439183Y-112779249D01*
X131439184Y-112779250D01*
X131499357Y-112951215D01*
X131499358Y-112951218D01*
X131596287Y-113105479D01*
X131596288Y-113105481D01*
X131725118Y-113234311D01*
X131725120Y-113234312D01*
X131879381Y-113331241D01*
X131879382Y-113331241D01*
X131879385Y-113331243D01*
X132051353Y-113391417D01*
X132232400Y-113411816D01*
X132413447Y-113391417D01*
X132585415Y-113331243D01*
X132739681Y-113234311D01*
X132739683Y-113234308D01*
X132745209Y-113229903D01*
X132747114Y-113232292D01*
X132797500Y-113204779D01*
X132824283Y-113201900D01*
X145589575Y-113201900D01*
X145657696Y-113221902D01*
X145704189Y-113275558D01*
X145714293Y-113345832D01*
X145684799Y-113410412D01*
X145678670Y-113416996D01*
X145553449Y-113542216D01*
X145491137Y-113576241D01*
X145478465Y-113578327D01*
X145437156Y-113582982D01*
X145437150Y-113582983D01*
X145265184Y-113643157D01*
X145265181Y-113643158D01*
X145110920Y-113740087D01*
X145110918Y-113740088D01*
X144982088Y-113868918D01*
X144982087Y-113868920D01*
X144885158Y-114023181D01*
X144885157Y-114023184D01*
X144843153Y-114143227D01*
X144824983Y-114195153D01*
X144804584Y-114376200D01*
X144811636Y-114438794D01*
X144799388Y-114508724D01*
X144751275Y-114560932D01*
X144686429Y-114578900D01*
X132853155Y-114578900D01*
X132786119Y-114559587D01*
X132661618Y-114481358D01*
X132661615Y-114481357D01*
X132489650Y-114421184D01*
X132489649Y-114421183D01*
X132489647Y-114421183D01*
X132308600Y-114400784D01*
X132127553Y-114421183D01*
X132127550Y-114421183D01*
X132127549Y-114421184D01*
X131955584Y-114481357D01*
X131955581Y-114481358D01*
X131801320Y-114578287D01*
X131801318Y-114578288D01*
X131672488Y-114707118D01*
X131672487Y-114707120D01*
X131575558Y-114861381D01*
X131575557Y-114861384D01*
X131533821Y-114980661D01*
X131515383Y-115033353D01*
X131494984Y-115214400D01*
X131515383Y-115395447D01*
X131515383Y-115395449D01*
X131515384Y-115395450D01*
X131552597Y-115501800D01*
X131556216Y-115572705D01*
X131520927Y-115634310D01*
X131457934Y-115667056D01*
X131387236Y-115660548D01*
X131344573Y-115632510D01*
X128616043Y-112903980D01*
X128582017Y-112841668D01*
X128579930Y-112828991D01*
X128575712Y-112791553D01*
X128575276Y-112787682D01*
X128515102Y-112615714D01*
X128515100Y-112615711D01*
X128515100Y-112615710D01*
X128418171Y-112461449D01*
X128418170Y-112461447D01*
X128289340Y-112332617D01*
X128289338Y-112332616D01*
X128135077Y-112235687D01*
X128135074Y-112235686D01*
X127963109Y-112175513D01*
X127963108Y-112175512D01*
X127963106Y-112175512D01*
X127782059Y-112155113D01*
X127601012Y-112175512D01*
X127601009Y-112175512D01*
X127601008Y-112175513D01*
X127429043Y-112235686D01*
X127429040Y-112235687D01*
X127274779Y-112332616D01*
X127274777Y-112332617D01*
X127145947Y-112461447D01*
X127145946Y-112461449D01*
X127049017Y-112615710D01*
X127049016Y-112615713D01*
X127016829Y-112707699D01*
X126975451Y-112765391D01*
X126909451Y-112791553D01*
X126839783Y-112777880D01*
X126788567Y-112728713D01*
X126771900Y-112666084D01*
X126771900Y-101351699D01*
X126791902Y-101283578D01*
X126830862Y-101245013D01*
X126884818Y-101211111D01*
X127013648Y-101082281D01*
X127110580Y-100928015D01*
X127170754Y-100756047D01*
X127191153Y-100575000D01*
X127170754Y-100393953D01*
X127110580Y-100221985D01*
X127110578Y-100221982D01*
X127110578Y-100221981D01*
X127013649Y-100067720D01*
X127013648Y-100067718D01*
X126884818Y-99938888D01*
X126884816Y-99938887D01*
X126730555Y-99841958D01*
X126730552Y-99841957D01*
X126558587Y-99781784D01*
X126558586Y-99781783D01*
X126558584Y-99781783D01*
X126377537Y-99761384D01*
X126196490Y-99781783D01*
X126196487Y-99781783D01*
X126196486Y-99781784D01*
X126024521Y-99841957D01*
X126024518Y-99841958D01*
X125870257Y-99938887D01*
X125870255Y-99938888D01*
X125741425Y-100067718D01*
X125741424Y-100067720D01*
X125644495Y-100221981D01*
X125644494Y-100221984D01*
X125610996Y-100317718D01*
X125584320Y-100393953D01*
X125579597Y-100435867D01*
X125571703Y-100505925D01*
X125562904Y-100540033D01*
X125525324Y-100630760D01*
X125525319Y-100630776D01*
X125522322Y-100645842D01*
X125489411Y-100708750D01*
X125427714Y-100743878D01*
X125412855Y-100746460D01*
X125328357Y-100755982D01*
X125328350Y-100755983D01*
X125156384Y-100816157D01*
X125156381Y-100816158D01*
X125002120Y-100913087D01*
X125002118Y-100913088D01*
X124873288Y-101041918D01*
X124873287Y-101041920D01*
X124776358Y-101196181D01*
X124776357Y-101196184D01*
X124726870Y-101337612D01*
X124716183Y-101368153D01*
X124695784Y-101549200D01*
X124716183Y-101730247D01*
X124716183Y-101730249D01*
X124716184Y-101730250D01*
X124776357Y-101902215D01*
X124776358Y-101902217D01*
X124854587Y-102026718D01*
X124873900Y-102093754D01*
X124873900Y-116562046D01*
X124888036Y-116633111D01*
X124898322Y-116684822D01*
X124946227Y-116800475D01*
X125015775Y-116904561D01*
X126216722Y-118105508D01*
X126305239Y-118194025D01*
X126409325Y-118263573D01*
X126409326Y-118263573D01*
X126409568Y-118263735D01*
X126455095Y-118318211D01*
X126463944Y-118388654D01*
X126433303Y-118452699D01*
X126372901Y-118490010D01*
X126339566Y-118494500D01*
X122777406Y-118494500D01*
X122654630Y-118518922D01*
X122654625Y-118518924D01*
X122538977Y-118566827D01*
X122434896Y-118636372D01*
X122434889Y-118636377D01*
X121311671Y-119759595D01*
X121249359Y-119793621D01*
X121222576Y-119796500D01*
X119899455Y-119796500D01*
X119795574Y-119807112D01*
X119627261Y-119862885D01*
X119476347Y-119955970D01*
X119476341Y-119955975D01*
X119350975Y-120081341D01*
X119350970Y-120081347D01*
X119257885Y-120232262D01*
X119202113Y-120400572D01*
X119202112Y-120400579D01*
X119191500Y-120504446D01*
X119191500Y-122295544D01*
X119202112Y-122399425D01*
X119257885Y-122567738D01*
X119350970Y-122718652D01*
X119350975Y-122718658D01*
X119476341Y-122844024D01*
X119476347Y-122844029D01*
X119476348Y-122844030D01*
X119627262Y-122937115D01*
X119795574Y-122992887D01*
X119899455Y-123003500D01*
X121240544Y-123003499D01*
X121344426Y-122992887D01*
X121512738Y-122937115D01*
X121663652Y-122844030D01*
X121789030Y-122718652D01*
X121882115Y-122567738D01*
X121882115Y-122567735D01*
X121885967Y-122561492D01*
X121888132Y-122562827D01*
X121927114Y-122518543D01*
X121995389Y-122499073D01*
X122063352Y-122519606D01*
X122083501Y-122535974D01*
X122217499Y-122669972D01*
X122217502Y-122669974D01*
X122391960Y-122796726D01*
X122584101Y-122894627D01*
X122584107Y-122894630D01*
X122789185Y-122961264D01*
X122860000Y-122972480D01*
X122860000Y-121942709D01*
X122880339Y-121954452D01*
X123031667Y-121995000D01*
X123188333Y-121995000D01*
X123339661Y-121954452D01*
X123360000Y-121942709D01*
X123360000Y-122972480D01*
X123430814Y-122961264D01*
X123635892Y-122894630D01*
X123635898Y-122894627D01*
X123828039Y-122796726D01*
X124002497Y-122669974D01*
X124002500Y-122669972D01*
X124154972Y-122517500D01*
X124154974Y-122517497D01*
X124281726Y-122343039D01*
X124379627Y-122150898D01*
X124379630Y-122150892D01*
X124446264Y-121945814D01*
X124480000Y-121732817D01*
X124480000Y-121650000D01*
X123652709Y-121650000D01*
X123664452Y-121629661D01*
X123705000Y-121478333D01*
X123705000Y-121321667D01*
X123664452Y-121170339D01*
X123652709Y-121150000D01*
X124480000Y-121150000D01*
X124480000Y-121067182D01*
X124446264Y-120854185D01*
X124379630Y-120649107D01*
X124379627Y-120649101D01*
X124281726Y-120456960D01*
X124154974Y-120282502D01*
X124154972Y-120282499D01*
X124002500Y-120130027D01*
X124002497Y-120130025D01*
X123828034Y-120003269D01*
X123823818Y-120000686D01*
X123824524Y-119999532D01*
X123777390Y-119955012D01*
X123760328Y-119886097D01*
X123783233Y-119818896D01*
X123838833Y-119774747D01*
X123886212Y-119765500D01*
X126632627Y-119765500D01*
X126700748Y-119785502D01*
X126747241Y-119839158D01*
X126757345Y-119909432D01*
X126727851Y-119974012D01*
X126721722Y-119980595D01*
X126660975Y-120041341D01*
X126660970Y-120041347D01*
X126567885Y-120192262D01*
X126512113Y-120360572D01*
X126512112Y-120360579D01*
X126501500Y-120464446D01*
X126501500Y-122255544D01*
X126512112Y-122359425D01*
X126567885Y-122527738D01*
X126660970Y-122678652D01*
X126660975Y-122678658D01*
X126786341Y-122804024D01*
X126786347Y-122804029D01*
X126786348Y-122804030D01*
X126937262Y-122897115D01*
X127105574Y-122952887D01*
X127209455Y-122963500D01*
X128550544Y-122963499D01*
X128654426Y-122952887D01*
X128822738Y-122897115D01*
X128973652Y-122804030D01*
X129099030Y-122678652D01*
X129192115Y-122527738D01*
X129192115Y-122527735D01*
X129195967Y-122521492D01*
X129198132Y-122522827D01*
X129237114Y-122478543D01*
X129305389Y-122459073D01*
X129373352Y-122479606D01*
X129393501Y-122495974D01*
X129527499Y-122629972D01*
X129527502Y-122629974D01*
X129701960Y-122756726D01*
X129894101Y-122854627D01*
X129894107Y-122854630D01*
X130099185Y-122921264D01*
X130170000Y-122932480D01*
X130170000Y-121902709D01*
X130190339Y-121914452D01*
X130341667Y-121955000D01*
X130498333Y-121955000D01*
X130649661Y-121914452D01*
X130670000Y-121902709D01*
X130670000Y-122932480D01*
X130740814Y-122921264D01*
X130945892Y-122854630D01*
X130945898Y-122854627D01*
X131138039Y-122756726D01*
X131312497Y-122629974D01*
X131312500Y-122629972D01*
X131464972Y-122477500D01*
X131464974Y-122477497D01*
X131591726Y-122303039D01*
X131689627Y-122110898D01*
X131689630Y-122110892D01*
X131756264Y-121905814D01*
X131790000Y-121692817D01*
X131790000Y-121610000D01*
X130962709Y-121610000D01*
X130974452Y-121589661D01*
X131015000Y-121438333D01*
X131015000Y-121281667D01*
X130974452Y-121130339D01*
X130962709Y-121110000D01*
X131790000Y-121110000D01*
X131790000Y-121027182D01*
X131756264Y-120814185D01*
X131689630Y-120609107D01*
X131689627Y-120609101D01*
X131591726Y-120416960D01*
X131463855Y-120240961D01*
X131439997Y-120174093D01*
X131456077Y-120104942D01*
X131506991Y-120055462D01*
X131565791Y-120040900D01*
X142455689Y-120040900D01*
X142523810Y-120060902D01*
X142544784Y-120077805D01*
X144247584Y-121780605D01*
X144281610Y-121842917D01*
X144276545Y-121913732D01*
X144233998Y-121970568D01*
X144167478Y-121995379D01*
X144158489Y-121995700D01*
X134529023Y-121995700D01*
X134460902Y-121975698D01*
X134439928Y-121958795D01*
X134347589Y-121866456D01*
X134313563Y-121804144D01*
X134311376Y-121790546D01*
X134294342Y-121628472D01*
X134235327Y-121446844D01*
X134139840Y-121281456D01*
X134139838Y-121281454D01*
X134139834Y-121281448D01*
X134012055Y-121139535D01*
X133857552Y-121027282D01*
X133683088Y-120949606D01*
X133496287Y-120909900D01*
X133305313Y-120909900D01*
X133118511Y-120949606D01*
X132944047Y-121027282D01*
X132789544Y-121139535D01*
X132661765Y-121281448D01*
X132661758Y-121281458D01*
X132566276Y-121446838D01*
X132566273Y-121446845D01*
X132507257Y-121628472D01*
X132487296Y-121818400D01*
X132507257Y-122008327D01*
X132531600Y-122083244D01*
X132566273Y-122189956D01*
X132566276Y-122189961D01*
X132661758Y-122355341D01*
X132661765Y-122355351D01*
X132789544Y-122497264D01*
X132831488Y-122527738D01*
X132944048Y-122609518D01*
X133118512Y-122687194D01*
X133305313Y-122726900D01*
X133358377Y-122726900D01*
X133426498Y-122746902D01*
X133447472Y-122763805D01*
X133719975Y-123036308D01*
X133808492Y-123124825D01*
X133912578Y-123194373D01*
X134028231Y-123242278D01*
X134151009Y-123266700D01*
X144565645Y-123266700D01*
X144632681Y-123286013D01*
X144757181Y-123364241D01*
X144757182Y-123364241D01*
X144757185Y-123364243D01*
X144929153Y-123424417D01*
X145110200Y-123444816D01*
X145291247Y-123424417D01*
X145463215Y-123364243D01*
X145604137Y-123275695D01*
X145672457Y-123256390D01*
X145740370Y-123277085D01*
X145760267Y-123293288D01*
X145845804Y-123378825D01*
X145949890Y-123448373D01*
X146065543Y-123496278D01*
X146188321Y-123520700D01*
X150128245Y-123520700D01*
X150195281Y-123540013D01*
X150319781Y-123618241D01*
X150319782Y-123618241D01*
X150319785Y-123618243D01*
X150491753Y-123678417D01*
X150672800Y-123698816D01*
X150853847Y-123678417D01*
X151025815Y-123618243D01*
X151180081Y-123521311D01*
X151308911Y-123392481D01*
X151405843Y-123238215D01*
X151466017Y-123066247D01*
X151486416Y-122885200D01*
X151472107Y-122758200D01*
X158342784Y-122758200D01*
X158363183Y-122939247D01*
X158363183Y-122939249D01*
X158363184Y-122939250D01*
X158423357Y-123111215D01*
X158423358Y-123111218D01*
X158520287Y-123265479D01*
X158520288Y-123265481D01*
X158649118Y-123394311D01*
X158649120Y-123394312D01*
X158803381Y-123491241D01*
X158803382Y-123491241D01*
X158803385Y-123491243D01*
X158975353Y-123551417D01*
X159156400Y-123571816D01*
X159337447Y-123551417D01*
X159509415Y-123491243D01*
X159519918Y-123484643D01*
X159633919Y-123413013D01*
X159700955Y-123393700D01*
X160641389Y-123393700D01*
X160641391Y-123393700D01*
X160662815Y-123389437D01*
X160701507Y-123387808D01*
X160704855Y-123388185D01*
X160756600Y-123394016D01*
X160937647Y-123373617D01*
X161109615Y-123313443D01*
X161263881Y-123216511D01*
X161392711Y-123087681D01*
X161489643Y-122933415D01*
X161549817Y-122761447D01*
X161570216Y-122580400D01*
X161549817Y-122399353D01*
X161489643Y-122227385D01*
X161489641Y-122227382D01*
X161489641Y-122227381D01*
X161392712Y-122073120D01*
X161392711Y-122073118D01*
X161263881Y-121944288D01*
X161263879Y-121944287D01*
X161109618Y-121847358D01*
X161109615Y-121847357D01*
X160937650Y-121787184D01*
X160937649Y-121787183D01*
X160937647Y-121787183D01*
X160756600Y-121766784D01*
X160575553Y-121787183D01*
X160575550Y-121787183D01*
X160575549Y-121787184D01*
X160403584Y-121847357D01*
X160403581Y-121847358D01*
X160249320Y-121944287D01*
X160249318Y-121944288D01*
X160120494Y-122073112D01*
X160118782Y-122075260D01*
X160117322Y-122076284D01*
X160115485Y-122078122D01*
X160115163Y-122077800D01*
X160060671Y-122116048D01*
X160020271Y-122122700D01*
X159700955Y-122122700D01*
X159633919Y-122103387D01*
X159509418Y-122025158D01*
X159509415Y-122025157D01*
X159337450Y-121964984D01*
X159337449Y-121964983D01*
X159337447Y-121964983D01*
X159156400Y-121944584D01*
X158975353Y-121964983D01*
X158975350Y-121964983D01*
X158975349Y-121964984D01*
X158803384Y-122025157D01*
X158803381Y-122025158D01*
X158649120Y-122122087D01*
X158649118Y-122122088D01*
X158520288Y-122250918D01*
X158520287Y-122250920D01*
X158423358Y-122405181D01*
X158423357Y-122405184D01*
X158368196Y-122562827D01*
X158363183Y-122577153D01*
X158342784Y-122758200D01*
X151472107Y-122758200D01*
X151466017Y-122704153D01*
X151405843Y-122532185D01*
X151405841Y-122532182D01*
X151405841Y-122532181D01*
X151308912Y-122377920D01*
X151308911Y-122377918D01*
X151180081Y-122249088D01*
X151180079Y-122249087D01*
X151112444Y-122206589D01*
X151065406Y-122153411D01*
X151054586Y-122083244D01*
X151083419Y-122018365D01*
X151090385Y-122010806D01*
X151095079Y-122006111D01*
X151095082Y-122006110D01*
X151223912Y-121877280D01*
X151320844Y-121723014D01*
X151381018Y-121551046D01*
X151392606Y-121448190D01*
X151420110Y-121382740D01*
X151478633Y-121342547D01*
X151517814Y-121336300D01*
X174428078Y-121336300D01*
X174428079Y-121336300D01*
X174550857Y-121311878D01*
X174634280Y-121277322D01*
X174704870Y-121269733D01*
X174768357Y-121301512D01*
X174804585Y-121362569D01*
X174808499Y-121393731D01*
X174808499Y-123158149D01*
X174788497Y-123226270D01*
X174749537Y-123264835D01*
X174736717Y-123272890D01*
X174736713Y-123272893D01*
X174607887Y-123401719D01*
X174607886Y-123401721D01*
X174510957Y-123555982D01*
X174510956Y-123555985D01*
X174460978Y-123698816D01*
X174450782Y-123727954D01*
X174430383Y-123909001D01*
X174450782Y-124090048D01*
X174450782Y-124090050D01*
X174450783Y-124090051D01*
X174510956Y-124262016D01*
X174510957Y-124262019D01*
X174607886Y-124416280D01*
X174607887Y-124416282D01*
X174736717Y-124545112D01*
X174736719Y-124545113D01*
X174890980Y-124642042D01*
X174890981Y-124642042D01*
X174890984Y-124642044D01*
X175062952Y-124702218D01*
X175243999Y-124722617D01*
X175425046Y-124702218D01*
X175597014Y-124642044D01*
X175751280Y-124545112D01*
X175880110Y-124416282D01*
X175977042Y-124262016D01*
X176037216Y-124090048D01*
X176057615Y-123909001D01*
X176057615Y-123908997D01*
X176057615Y-123901921D01*
X176058222Y-123901921D01*
X176059467Y-123872294D01*
X176079499Y-123771592D01*
X176079499Y-123646410D01*
X176079499Y-121053555D01*
X176098812Y-120986519D01*
X176146954Y-120909900D01*
X176177042Y-120862016D01*
X176237216Y-120690048D01*
X176237216Y-120690040D01*
X176238711Y-120683495D01*
X176273371Y-120621534D01*
X176336027Y-120588146D01*
X176361552Y-120585534D01*
X177013156Y-120585534D01*
X177013157Y-120585534D01*
X177135935Y-120561112D01*
X177251588Y-120513207D01*
X177355674Y-120443659D01*
X177532842Y-120266491D01*
X177595154Y-120232465D01*
X177665969Y-120237530D01*
X177711032Y-120266491D01*
X180379249Y-122934708D01*
X180467766Y-123023225D01*
X180571852Y-123092773D01*
X180687505Y-123140678D01*
X180810283Y-123165100D01*
X183659617Y-123165100D01*
X183727738Y-123185102D01*
X183774231Y-123238758D01*
X183777666Y-123247050D01*
X183794912Y-123293288D01*
X183806533Y-123324446D01*
X183844683Y-123394311D01*
X183932964Y-123555986D01*
X183937369Y-123564052D01*
X184100963Y-123782588D01*
X184100966Y-123782591D01*
X184100968Y-123782594D01*
X184294006Y-123975632D01*
X184512551Y-124139233D01*
X184752155Y-124270067D01*
X185007940Y-124365470D01*
X185007943Y-124365470D01*
X185007947Y-124365472D01*
X185162322Y-124399054D01*
X185274698Y-124423500D01*
X185547000Y-124442975D01*
X185819302Y-124423500D01*
X186086051Y-124365472D01*
X186086052Y-124365472D01*
X186086053Y-124365471D01*
X186086060Y-124365470D01*
X186341845Y-124270067D01*
X186581449Y-124139233D01*
X186799994Y-123975632D01*
X186993032Y-123782594D01*
X187156633Y-123564049D01*
X187287467Y-123324445D01*
X187382870Y-123068660D01*
X187440900Y-122801902D01*
X187460375Y-122529600D01*
X187440900Y-122257298D01*
X187411487Y-122122088D01*
X187382872Y-121990548D01*
X187382872Y-121990547D01*
X187382870Y-121990543D01*
X187382870Y-121990540D01*
X187287467Y-121734755D01*
X187156633Y-121495151D01*
X187111038Y-121434243D01*
X186993036Y-121276611D01*
X186993028Y-121276602D01*
X186799997Y-121083571D01*
X186799988Y-121083563D01*
X186581452Y-120919969D01*
X186581450Y-120919968D01*
X186581449Y-120919967D01*
X186505891Y-120878709D01*
X194149500Y-120878709D01*
X194149500Y-121121290D01*
X194181160Y-121361782D01*
X194243944Y-121596095D01*
X194243945Y-121596097D01*
X194243946Y-121596100D01*
X194336776Y-121820212D01*
X194336777Y-121820213D01*
X194336782Y-121820224D01*
X194458061Y-122030285D01*
X194458063Y-122030288D01*
X194458064Y-122030289D01*
X194605735Y-122222738D01*
X194605739Y-122222742D01*
X194605744Y-122222748D01*
X194777251Y-122394255D01*
X194777256Y-122394259D01*
X194777262Y-122394265D01*
X194969711Y-122541936D01*
X194969714Y-122541938D01*
X195179775Y-122663217D01*
X195179779Y-122663218D01*
X195179788Y-122663224D01*
X195403900Y-122756054D01*
X195638211Y-122818838D01*
X195638215Y-122818838D01*
X195638217Y-122818839D01*
X195700202Y-122826999D01*
X195878712Y-122850500D01*
X195878719Y-122850500D01*
X196121281Y-122850500D01*
X196121288Y-122850500D01*
X196338637Y-122821885D01*
X196361782Y-122818839D01*
X196361782Y-122818838D01*
X196361789Y-122818838D01*
X196596100Y-122756054D01*
X196820212Y-122663224D01*
X197030289Y-122541936D01*
X197222738Y-122394265D01*
X197394265Y-122222738D01*
X197541936Y-122030289D01*
X197663224Y-121820212D01*
X197756054Y-121596100D01*
X197818838Y-121361789D01*
X197850500Y-121121288D01*
X197850500Y-120878712D01*
X197824800Y-120683495D01*
X197818839Y-120638217D01*
X197818838Y-120638215D01*
X197818838Y-120638211D01*
X197756054Y-120403900D01*
X197663224Y-120179788D01*
X197663218Y-120179779D01*
X197663217Y-120179775D01*
X197541938Y-119969714D01*
X197541936Y-119969711D01*
X197394265Y-119777262D01*
X197394259Y-119777256D01*
X197394255Y-119777251D01*
X197222748Y-119605744D01*
X197222742Y-119605739D01*
X197222738Y-119605735D01*
X197030289Y-119458064D01*
X197030288Y-119458063D01*
X197030285Y-119458061D01*
X196820224Y-119336782D01*
X196820216Y-119336778D01*
X196820212Y-119336776D01*
X196596100Y-119243946D01*
X196596097Y-119243945D01*
X196596095Y-119243944D01*
X196361782Y-119181160D01*
X196121290Y-119149500D01*
X196121288Y-119149500D01*
X195878712Y-119149500D01*
X195878709Y-119149500D01*
X195638217Y-119181160D01*
X195403904Y-119243944D01*
X195403900Y-119243946D01*
X195368397Y-119258652D01*
X195179786Y-119336777D01*
X195179775Y-119336782D01*
X194969714Y-119458061D01*
X194777262Y-119605735D01*
X194777251Y-119605744D01*
X194605744Y-119777251D01*
X194605735Y-119777262D01*
X194458061Y-119969714D01*
X194336782Y-120179775D01*
X194336777Y-120179786D01*
X194336776Y-120179788D01*
X194245324Y-120400574D01*
X194243946Y-120403900D01*
X194243944Y-120403904D01*
X194181160Y-120638217D01*
X194149500Y-120878709D01*
X186505891Y-120878709D01*
X186341845Y-120789133D01*
X186341844Y-120789132D01*
X186086052Y-120693727D01*
X185819304Y-120635700D01*
X185819306Y-120635700D01*
X185547000Y-120616225D01*
X185274694Y-120635700D01*
X185007948Y-120693727D01*
X185007947Y-120693727D01*
X184752156Y-120789132D01*
X184512547Y-120919969D01*
X184294011Y-121083563D01*
X184294002Y-121083571D01*
X184100971Y-121276602D01*
X184100963Y-121276611D01*
X183937369Y-121495147D01*
X183806533Y-121734753D01*
X183795126Y-121765338D01*
X183777671Y-121812134D01*
X183735126Y-121868968D01*
X183668606Y-121893779D01*
X183659617Y-121894100D01*
X181188297Y-121894100D01*
X181120176Y-121874098D01*
X181099202Y-121857195D01*
X178467867Y-119225860D01*
X178433841Y-119163548D01*
X178431754Y-119150871D01*
X178431600Y-119149500D01*
X178427100Y-119109562D01*
X178366926Y-118937594D01*
X178366924Y-118937591D01*
X178366924Y-118937590D01*
X178269995Y-118783329D01*
X178269994Y-118783327D01*
X178211395Y-118724728D01*
X178177369Y-118662416D01*
X178182434Y-118591601D01*
X178211395Y-118546537D01*
X178470633Y-118287300D01*
X178765928Y-117992005D01*
X178828240Y-117957980D01*
X178855023Y-117955101D01*
X181556340Y-117955101D01*
X181624461Y-117975103D01*
X181670954Y-118028759D01*
X181681058Y-118099033D01*
X181674396Y-118125133D01*
X181653727Y-118180547D01*
X181653727Y-118180548D01*
X181595700Y-118447294D01*
X181576225Y-118719600D01*
X181595700Y-118991905D01*
X181653727Y-119258651D01*
X181653727Y-119258652D01*
X181746770Y-119508111D01*
X181749133Y-119514445D01*
X181872884Y-119741078D01*
X181879969Y-119754052D01*
X182043563Y-119972588D01*
X182043566Y-119972591D01*
X182043568Y-119972594D01*
X182236606Y-120165632D01*
X182236609Y-120165634D01*
X182236611Y-120165636D01*
X182353297Y-120252986D01*
X182455151Y-120329233D01*
X182694755Y-120460067D01*
X182950540Y-120555470D01*
X182950543Y-120555470D01*
X182950547Y-120555472D01*
X183088741Y-120585534D01*
X183217298Y-120613500D01*
X183489600Y-120632975D01*
X183761902Y-120613500D01*
X184028651Y-120555472D01*
X184028652Y-120555472D01*
X184028653Y-120555471D01*
X184028660Y-120555470D01*
X184284445Y-120460067D01*
X184524049Y-120329233D01*
X184742594Y-120165632D01*
X184935632Y-119972594D01*
X185099233Y-119754049D01*
X185230067Y-119514445D01*
X185325470Y-119258660D01*
X185383500Y-118991902D01*
X185402975Y-118719600D01*
X185383500Y-118447298D01*
X185355419Y-118318211D01*
X185325472Y-118180548D01*
X185325472Y-118180547D01*
X185325470Y-118180543D01*
X185325470Y-118180540D01*
X185230067Y-117924755D01*
X185099233Y-117685151D01*
X184935632Y-117466606D01*
X184742594Y-117273568D01*
X184742591Y-117273566D01*
X184742588Y-117273563D01*
X184524052Y-117109969D01*
X184524050Y-117109968D01*
X184524049Y-117109967D01*
X184284445Y-116979133D01*
X184284444Y-116979132D01*
X184028652Y-116883727D01*
X183761904Y-116825700D01*
X183761906Y-116825700D01*
X183489600Y-116806225D01*
X183217294Y-116825700D01*
X182950548Y-116883727D01*
X182950547Y-116883727D01*
X182736472Y-116963573D01*
X182665656Y-116968637D01*
X182603345Y-116934612D01*
X182494711Y-116825978D01*
X182494709Y-116825976D01*
X182390623Y-116756428D01*
X182274970Y-116708523D01*
X182152194Y-116684101D01*
X182152192Y-116684101D01*
X178676224Y-116684101D01*
X178608103Y-116664099D01*
X178561610Y-116610443D01*
X178551506Y-116540169D01*
X178581000Y-116475589D01*
X178587129Y-116469006D01*
X178676877Y-116379257D01*
X178706119Y-116350015D01*
X178942825Y-116113309D01*
X179012373Y-116009223D01*
X179060278Y-115893570D01*
X179084700Y-115770792D01*
X179084700Y-115645610D01*
X179084700Y-113201976D01*
X179060278Y-113079198D01*
X179012373Y-112963545D01*
X178942825Y-112859459D01*
X178854308Y-112770942D01*
X176360841Y-110277475D01*
X176326815Y-110215163D01*
X176324728Y-110202486D01*
X176322415Y-110181959D01*
X176320074Y-110161177D01*
X176259900Y-109989209D01*
X176259898Y-109989206D01*
X176259898Y-109989205D01*
X176181670Y-109864705D01*
X176162357Y-109797669D01*
X176162357Y-105623867D01*
X176162356Y-105623863D01*
X176161308Y-105618593D01*
X176137935Y-105501088D01*
X176090030Y-105385435D01*
X176045314Y-105318513D01*
X176024871Y-105262616D01*
X176024400Y-105258438D01*
X176019946Y-105218902D01*
X176018218Y-105203560D01*
X176018217Y-105203558D01*
X176018217Y-105203553D01*
X175958043Y-105031585D01*
X175958041Y-105031582D01*
X175958041Y-105031581D01*
X175861112Y-104877320D01*
X175861111Y-104877318D01*
X175732281Y-104748488D01*
X175732279Y-104748487D01*
X175578018Y-104651558D01*
X175578015Y-104651557D01*
X175406050Y-104591384D01*
X175406049Y-104591383D01*
X175406047Y-104591383D01*
X175314750Y-104581096D01*
X175245391Y-104573281D01*
X175179939Y-104545777D01*
X175139746Y-104487253D01*
X175133500Y-104448073D01*
X175133500Y-102110000D01*
X176353096Y-102110000D01*
X176373057Y-102299927D01*
X176399126Y-102380157D01*
X176432073Y-102481556D01*
X176432076Y-102481561D01*
X176527558Y-102646941D01*
X176527565Y-102646951D01*
X176655342Y-102788862D01*
X176655346Y-102788864D01*
X176655347Y-102788866D01*
X176674536Y-102802807D01*
X176717889Y-102859027D01*
X176723966Y-102929763D01*
X176702412Y-102978803D01*
X176671992Y-103020672D01*
X176590278Y-103181046D01*
X176590275Y-103181052D01*
X176534658Y-103352224D01*
X176534657Y-103352229D01*
X176534657Y-103352230D01*
X176506500Y-103530005D01*
X176506500Y-103709995D01*
X176533049Y-103877616D01*
X176534658Y-103887775D01*
X176583187Y-104037131D01*
X176590277Y-104058952D01*
X176656707Y-104189328D01*
X176671993Y-104219328D01*
X176777788Y-104364942D01*
X176905057Y-104492211D01*
X176905060Y-104492213D01*
X177050675Y-104598009D01*
X177211048Y-104679723D01*
X177382224Y-104735341D01*
X177382225Y-104735341D01*
X177382230Y-104735343D01*
X177560005Y-104763500D01*
X178874156Y-104763500D01*
X178942277Y-104783502D01*
X178963251Y-104800405D01*
X184949937Y-110787091D01*
X184962778Y-110802125D01*
X185055788Y-110930142D01*
X185183057Y-111057411D01*
X185218982Y-111083512D01*
X185328675Y-111163209D01*
X185489048Y-111244923D01*
X185660224Y-111300541D01*
X185660225Y-111300541D01*
X185660230Y-111300543D01*
X185838005Y-111328700D01*
X185838008Y-111328700D01*
X186017992Y-111328700D01*
X186017995Y-111328700D01*
X186195770Y-111300543D01*
X186366952Y-111244923D01*
X186527325Y-111163209D01*
X186672940Y-111057413D01*
X186800213Y-110930140D01*
X186906009Y-110784525D01*
X186987723Y-110624152D01*
X187043343Y-110452970D01*
X187071500Y-110275195D01*
X187071500Y-110058005D01*
X187064593Y-110014399D01*
X187043343Y-109880230D01*
X187034666Y-109853525D01*
X186994636Y-109730327D01*
X186992609Y-109659362D01*
X187029272Y-109598564D01*
X187092984Y-109567238D01*
X187163518Y-109575331D01*
X187203565Y-109602298D01*
X190577672Y-112976405D01*
X190611698Y-113038717D01*
X190606633Y-113109532D01*
X190564086Y-113166368D01*
X190497566Y-113191179D01*
X190488577Y-113191500D01*
X182824023Y-113191500D01*
X182755902Y-113171498D01*
X182734928Y-113154595D01*
X179878584Y-110298251D01*
X179844558Y-110235939D01*
X179842471Y-110223262D01*
X179837817Y-110181953D01*
X179777643Y-110009985D01*
X179777641Y-110009982D01*
X179777641Y-110009981D01*
X179680712Y-109855720D01*
X179680711Y-109855718D01*
X179551881Y-109726888D01*
X179551879Y-109726887D01*
X179397618Y-109629958D01*
X179397615Y-109629957D01*
X179225650Y-109569784D01*
X179225649Y-109569783D01*
X179225647Y-109569783D01*
X179044600Y-109549384D01*
X178863553Y-109569783D01*
X178863550Y-109569783D01*
X178863549Y-109569784D01*
X178691584Y-109629957D01*
X178691581Y-109629958D01*
X178537320Y-109726887D01*
X178537318Y-109726888D01*
X178408488Y-109855718D01*
X178408487Y-109855720D01*
X178311558Y-110009981D01*
X178311557Y-110009984D01*
X178251385Y-110181948D01*
X178251383Y-110181953D01*
X178230984Y-110363000D01*
X178251383Y-110544047D01*
X178251383Y-110544049D01*
X178251384Y-110544050D01*
X178311557Y-110716015D01*
X178311558Y-110716018D01*
X178408487Y-110870279D01*
X178408488Y-110870281D01*
X178537318Y-110999111D01*
X178537320Y-110999112D01*
X178691581Y-111096041D01*
X178691582Y-111096041D01*
X178691585Y-111096043D01*
X178863553Y-111156217D01*
X178904862Y-111160871D01*
X178970315Y-111188373D01*
X178979851Y-111196984D01*
X182103492Y-114320625D01*
X182207578Y-114390173D01*
X182323231Y-114438078D01*
X182446009Y-114462500D01*
X182446010Y-114462500D01*
X193347302Y-114462500D01*
X193347303Y-114462500D01*
X193470081Y-114438078D01*
X193585734Y-114390173D01*
X193689820Y-114320625D01*
X194194025Y-113816420D01*
X194205941Y-113798587D01*
X194263573Y-113712334D01*
X194311478Y-113596681D01*
X194335900Y-113473903D01*
X194335900Y-90437609D01*
X194311478Y-90314831D01*
X194263573Y-90199178D01*
X194194025Y-90095092D01*
X194105508Y-90006575D01*
X192210174Y-88111241D01*
X192176148Y-88048929D01*
X192181213Y-87978114D01*
X192210170Y-87933055D01*
X192327032Y-87816194D01*
X192490633Y-87597649D01*
X192621467Y-87358045D01*
X192716870Y-87102260D01*
X192774900Y-86835502D01*
X192794375Y-86563200D01*
X192774900Y-86290898D01*
X192716870Y-86024140D01*
X192621467Y-85768355D01*
X192490633Y-85528751D01*
X192428335Y-85445531D01*
X192327036Y-85310211D01*
X192327028Y-85310202D01*
X192133997Y-85117171D01*
X192133988Y-85117163D01*
X191915452Y-84953569D01*
X191915450Y-84953568D01*
X191915449Y-84953567D01*
X191675845Y-84822733D01*
X191675844Y-84822732D01*
X191420052Y-84727327D01*
X191153304Y-84669300D01*
X191153306Y-84669300D01*
X190881000Y-84649825D01*
X190608694Y-84669300D01*
X190341948Y-84727327D01*
X190341947Y-84727327D01*
X190086156Y-84822732D01*
X189846547Y-84953569D01*
X189628011Y-85117163D01*
X189628002Y-85117171D01*
X189434971Y-85310202D01*
X189434963Y-85310211D01*
X189271369Y-85528747D01*
X189140532Y-85768356D01*
X189045127Y-86024147D01*
X189045127Y-86024148D01*
X188987100Y-86290894D01*
X188967625Y-86563200D01*
X188987100Y-86835505D01*
X189045127Y-87102251D01*
X189045127Y-87102252D01*
X189137186Y-87349073D01*
X189140533Y-87358045D01*
X189247106Y-87553219D01*
X189271369Y-87597652D01*
X189434963Y-87816188D01*
X189434966Y-87816191D01*
X189434968Y-87816194D01*
X189628006Y-88009232D01*
X189628009Y-88009234D01*
X189628011Y-88009236D01*
X189774919Y-88119210D01*
X189846551Y-88172833D01*
X190086155Y-88303667D01*
X190341940Y-88399070D01*
X190341943Y-88399070D01*
X190341947Y-88399072D01*
X190496322Y-88432654D01*
X190608698Y-88457100D01*
X190723236Y-88465291D01*
X190789755Y-88490101D01*
X190803342Y-88501875D01*
X193027995Y-90726528D01*
X193062021Y-90788840D01*
X193064900Y-90815623D01*
X193064900Y-112269288D01*
X193044898Y-112337409D01*
X192991242Y-112383902D01*
X192953010Y-112394495D01*
X192843953Y-112406783D01*
X192843950Y-112406783D01*
X192843950Y-112406784D01*
X192671984Y-112466957D01*
X192671981Y-112466958D01*
X192547481Y-112545187D01*
X192480445Y-112564500D01*
X192015423Y-112564500D01*
X191947302Y-112544498D01*
X191926328Y-112527595D01*
X188172405Y-108773672D01*
X188138379Y-108711360D01*
X188135500Y-108684577D01*
X188135500Y-105326559D01*
X188155502Y-105258438D01*
X188209158Y-105211945D01*
X188279432Y-105201841D01*
X188326968Y-105218902D01*
X188550665Y-105354936D01*
X188821437Y-105472549D01*
X189105719Y-105552201D01*
X189398175Y-105592399D01*
X189398189Y-105592400D01*
X189693411Y-105592400D01*
X189693424Y-105592399D01*
X189985880Y-105552201D01*
X190270162Y-105472549D01*
X190540934Y-105354936D01*
X190793186Y-105201538D01*
X190858983Y-105148009D01*
X190924448Y-105120535D01*
X190994374Y-105132815D01*
X191046561Y-105180951D01*
X191064500Y-105245749D01*
X191064500Y-108055445D01*
X191045187Y-108122481D01*
X190966958Y-108246981D01*
X190966957Y-108246984D01*
X190964674Y-108253510D01*
X190906783Y-108418953D01*
X190886384Y-108600000D01*
X190906783Y-108781047D01*
X190906783Y-108781049D01*
X190906784Y-108781050D01*
X190966957Y-108953015D01*
X190966958Y-108953018D01*
X191063887Y-109107279D01*
X191063888Y-109107281D01*
X191192718Y-109236111D01*
X191192720Y-109236112D01*
X191346981Y-109333041D01*
X191346982Y-109333041D01*
X191346985Y-109333043D01*
X191518953Y-109393217D01*
X191700000Y-109413616D01*
X191881047Y-109393217D01*
X192053015Y-109333043D01*
X192207281Y-109236111D01*
X192336111Y-109107281D01*
X192433043Y-108953015D01*
X192493217Y-108781047D01*
X192513616Y-108600000D01*
X192493217Y-108418953D01*
X192433043Y-108246985D01*
X192433041Y-108246982D01*
X192433041Y-108246981D01*
X192354813Y-108122481D01*
X192335500Y-108055445D01*
X192335500Y-102718796D01*
X192335499Y-102718792D01*
X192311078Y-102596017D01*
X192263173Y-102480364D01*
X192193625Y-102376278D01*
X192105108Y-102287761D01*
X187988122Y-98170775D01*
X187968579Y-98157716D01*
X187924387Y-98106202D01*
X187898559Y-98050813D01*
X187898556Y-98050808D01*
X187775871Y-97875594D01*
X187775862Y-97875584D01*
X187624615Y-97724337D01*
X187624605Y-97724328D01*
X187449388Y-97601641D01*
X187449389Y-97601641D01*
X187282683Y-97523905D01*
X187229398Y-97476987D01*
X187209937Y-97408710D01*
X187230479Y-97340750D01*
X187282684Y-97295515D01*
X187445114Y-97219773D01*
X187445120Y-97219770D01*
X187499522Y-97181676D01*
X187499522Y-97181674D01*
X186932550Y-96614702D01*
X187013353Y-96593051D01*
X187118246Y-96532491D01*
X187203891Y-96446846D01*
X187264451Y-96341953D01*
X187286102Y-96261150D01*
X187853074Y-96828122D01*
X187853076Y-96828122D01*
X187891170Y-96773720D01*
X187891173Y-96773714D01*
X187980940Y-96581205D01*
X187980944Y-96581196D01*
X188035922Y-96376012D01*
X188054436Y-96164400D01*
X188035922Y-95952787D01*
X187980944Y-95747603D01*
X187980942Y-95747598D01*
X187891168Y-95555076D01*
X187891167Y-95555075D01*
X187853077Y-95500676D01*
X187853075Y-95500676D01*
X187286102Y-96067649D01*
X187264451Y-95986847D01*
X187203891Y-95881954D01*
X187118246Y-95796309D01*
X187013353Y-95735749D01*
X186932548Y-95714096D01*
X187499522Y-95147122D01*
X187499522Y-95147121D01*
X187445125Y-95109032D01*
X187445124Y-95109031D01*
X187252601Y-95019257D01*
X187252596Y-95019255D01*
X187047412Y-94964277D01*
X186835800Y-94945763D01*
X186624187Y-94964277D01*
X186419003Y-95019255D01*
X186418998Y-95019257D01*
X186226478Y-95109030D01*
X186131587Y-95175474D01*
X186064313Y-95198162D01*
X185995453Y-95180877D01*
X185958449Y-95147770D01*
X185913061Y-95087138D01*
X185796007Y-94999512D01*
X185796002Y-94999510D01*
X185659004Y-94948411D01*
X185658996Y-94948409D01*
X185598449Y-94941900D01*
X185598438Y-94941900D01*
X184073162Y-94941900D01*
X184073150Y-94941900D01*
X184012603Y-94948409D01*
X184012595Y-94948411D01*
X183875597Y-94999510D01*
X183875592Y-94999512D01*
X183758538Y-95087138D01*
X183670912Y-95204192D01*
X183670910Y-95204197D01*
X183619811Y-95341195D01*
X183619809Y-95341203D01*
X183613300Y-95401750D01*
X183613300Y-95717555D01*
X183593298Y-95785676D01*
X183576395Y-95806650D01*
X182027791Y-97355253D01*
X182027789Y-97355256D01*
X181957333Y-97452231D01*
X181921993Y-97500871D01*
X181839823Y-97662139D01*
X181838747Y-97665955D01*
X181784657Y-97832424D01*
X181784656Y-97832429D01*
X181784656Y-97832430D01*
X181766690Y-97945868D01*
X181759603Y-97990617D01*
X181756500Y-98010206D01*
X181756500Y-104055155D01*
X181736498Y-104123276D01*
X181682842Y-104169769D01*
X181612568Y-104179873D01*
X181547988Y-104150379D01*
X181541405Y-104144250D01*
X180144946Y-102747791D01*
X180144943Y-102747789D01*
X180144941Y-102747787D01*
X179999325Y-102641991D01*
X179998700Y-102641672D01*
X179988067Y-102636254D01*
X179988067Y-102636255D01*
X179838952Y-102560277D01*
X179838949Y-102560276D01*
X179834541Y-102558030D01*
X179835215Y-102556705D01*
X179785105Y-102516312D01*
X179762694Y-102448946D01*
X179780261Y-102380157D01*
X179783835Y-102374485D01*
X179832417Y-102301778D01*
X179880322Y-102186125D01*
X179904744Y-102063347D01*
X179904744Y-101938165D01*
X179904744Y-96857398D01*
X179924057Y-96790362D01*
X179985410Y-96692718D01*
X180002287Y-96665859D01*
X180062461Y-96493891D01*
X180082860Y-96312844D01*
X180062461Y-96131797D01*
X180002287Y-95959829D01*
X180002285Y-95959826D01*
X180002285Y-95959825D01*
X179905356Y-95805564D01*
X179905355Y-95805562D01*
X179776525Y-95676732D01*
X179776523Y-95676731D01*
X179622262Y-95579802D01*
X179622259Y-95579801D01*
X179450294Y-95519628D01*
X179450293Y-95519627D01*
X179450291Y-95519627D01*
X179269244Y-95499228D01*
X179088197Y-95519627D01*
X179088194Y-95519627D01*
X179088193Y-95519628D01*
X178916230Y-95579800D01*
X178814962Y-95643431D01*
X178746640Y-95662736D01*
X178678727Y-95642040D01*
X178658831Y-95625838D01*
X178612081Y-95579088D01*
X178612079Y-95579087D01*
X178457818Y-95482158D01*
X178457815Y-95482157D01*
X178285850Y-95421984D01*
X178285849Y-95421983D01*
X178285847Y-95421983D01*
X178104800Y-95401584D01*
X177923753Y-95421983D01*
X177923750Y-95421983D01*
X177923749Y-95421984D01*
X177751784Y-95482157D01*
X177751781Y-95482158D01*
X177597520Y-95579087D01*
X177597518Y-95579088D01*
X177468688Y-95707918D01*
X177468687Y-95707920D01*
X177371758Y-95862181D01*
X177371757Y-95862184D01*
X177315144Y-96023977D01*
X177311583Y-96034153D01*
X177291184Y-96215200D01*
X177311583Y-96396247D01*
X177311583Y-96396249D01*
X177311584Y-96396250D01*
X177371757Y-96568215D01*
X177371758Y-96568217D01*
X177449987Y-96692718D01*
X177469300Y-96759754D01*
X177469300Y-100956377D01*
X177449298Y-101024498D01*
X177432395Y-101045472D01*
X177313272Y-101164595D01*
X177250960Y-101198621D01*
X177224177Y-101201500D01*
X177171113Y-101201500D01*
X176984311Y-101241206D01*
X176809847Y-101318882D01*
X176655344Y-101431135D01*
X176527565Y-101573048D01*
X176527558Y-101573058D01*
X176432076Y-101738438D01*
X176432073Y-101738445D01*
X176373057Y-101920072D01*
X176353096Y-102110000D01*
X175133500Y-102110000D01*
X175133500Y-99911813D01*
X175133500Y-99911809D01*
X175129236Y-99890377D01*
X175127608Y-99851690D01*
X175128817Y-99840967D01*
X175131454Y-99817559D01*
X175133816Y-99796603D01*
X175133816Y-99796602D01*
X175133816Y-99796600D01*
X175113417Y-99615553D01*
X175053243Y-99443585D01*
X175053241Y-99443582D01*
X175053241Y-99443581D01*
X174956312Y-99289320D01*
X174956311Y-99289318D01*
X174827481Y-99160488D01*
X174827479Y-99160487D01*
X174673218Y-99063558D01*
X174673215Y-99063557D01*
X174501250Y-99003384D01*
X174501249Y-99003383D01*
X174501247Y-99003383D01*
X174320200Y-98982984D01*
X174139153Y-99003383D01*
X174139150Y-99003383D01*
X174139149Y-99003384D01*
X173967184Y-99063557D01*
X173967181Y-99063558D01*
X173812920Y-99160487D01*
X173812918Y-99160488D01*
X173684088Y-99289318D01*
X173684087Y-99289320D01*
X173587158Y-99443581D01*
X173587157Y-99443584D01*
X173530781Y-99604700D01*
X173526983Y-99615553D01*
X173506584Y-99796600D01*
X173526983Y-99977647D01*
X173526983Y-99977649D01*
X173526984Y-99977650D01*
X173587157Y-100149615D01*
X173587158Y-100149618D01*
X173684087Y-100303879D01*
X173684088Y-100303881D01*
X173812910Y-100432703D01*
X173812914Y-100432706D01*
X173812919Y-100432711D01*
X173812923Y-100432714D01*
X173815052Y-100434411D01*
X173816074Y-100435867D01*
X173817922Y-100437715D01*
X173817598Y-100438038D01*
X173855844Y-100492518D01*
X173862500Y-100532928D01*
X173862500Y-109826396D01*
X173843187Y-109893432D01*
X173777827Y-109997451D01*
X173777826Y-109997453D01*
X173718231Y-110167768D01*
X173717652Y-110169422D01*
X173697253Y-110350469D01*
X173717652Y-110531516D01*
X173717652Y-110531518D01*
X173717653Y-110531519D01*
X173777826Y-110703484D01*
X173777827Y-110703487D01*
X173874756Y-110857748D01*
X173874757Y-110857750D01*
X174003587Y-110986580D01*
X174003589Y-110986581D01*
X174157850Y-111083510D01*
X174157851Y-111083510D01*
X174157854Y-111083512D01*
X174329822Y-111143686D01*
X174510869Y-111164085D01*
X174691916Y-111143686D01*
X174863884Y-111083512D01*
X174958389Y-111024129D01*
X175026707Y-111004825D01*
X175092459Y-111024131D01*
X175150824Y-111060804D01*
X175173842Y-111075267D01*
X175345810Y-111135441D01*
X175387119Y-111140095D01*
X175452572Y-111167597D01*
X175462108Y-111176208D01*
X177278105Y-112992205D01*
X177312131Y-113054517D01*
X177307066Y-113125332D01*
X177264519Y-113182168D01*
X177197999Y-113206979D01*
X177189010Y-113207300D01*
X174677355Y-113207300D01*
X174610319Y-113187987D01*
X174485818Y-113109758D01*
X174485815Y-113109757D01*
X174313850Y-113049584D01*
X174313849Y-113049583D01*
X174313847Y-113049583D01*
X174132800Y-113029184D01*
X173951753Y-113049583D01*
X173951750Y-113049583D01*
X173951749Y-113049584D01*
X173779784Y-113109757D01*
X173779782Y-113109758D01*
X173695706Y-113162587D01*
X173628670Y-113181900D01*
X168000515Y-113181900D01*
X167932394Y-113161898D01*
X167885901Y-113108242D01*
X167875797Y-113037968D01*
X167905291Y-112973388D01*
X167933479Y-112949213D01*
X168045679Y-112878712D01*
X168045681Y-112878711D01*
X168174511Y-112749881D01*
X168174512Y-112749879D01*
X168258612Y-112616036D01*
X168271443Y-112595615D01*
X168331617Y-112423647D01*
X168352016Y-112242600D01*
X168336563Y-112105454D01*
X168348812Y-112035526D01*
X168372670Y-112002261D01*
X169314130Y-111060802D01*
X169376440Y-111026779D01*
X169403223Y-111023900D01*
X170168845Y-111023900D01*
X170235881Y-111043213D01*
X170360381Y-111121441D01*
X170360382Y-111121441D01*
X170360385Y-111121443D01*
X170532353Y-111181617D01*
X170713400Y-111202016D01*
X170894447Y-111181617D01*
X171066415Y-111121443D01*
X171220681Y-111024511D01*
X171349511Y-110895681D01*
X171446443Y-110741415D01*
X171506617Y-110569447D01*
X171527016Y-110388400D01*
X171506617Y-110207353D01*
X171446443Y-110035385D01*
X171446441Y-110035382D01*
X171446441Y-110035381D01*
X171349512Y-109881120D01*
X171349511Y-109881118D01*
X171220681Y-109752288D01*
X171220679Y-109752287D01*
X171066418Y-109655358D01*
X171066415Y-109655357D01*
X170894450Y-109595184D01*
X170894449Y-109595183D01*
X170894447Y-109595183D01*
X170713400Y-109574784D01*
X170532353Y-109595183D01*
X170532350Y-109595183D01*
X170532349Y-109595184D01*
X170360384Y-109655357D01*
X170360381Y-109655358D01*
X170235881Y-109733587D01*
X170168845Y-109752900D01*
X169025206Y-109752900D01*
X168902430Y-109777322D01*
X168902425Y-109777324D01*
X168786777Y-109825227D01*
X168682693Y-109894774D01*
X168682691Y-109894775D01*
X168312610Y-110264855D01*
X168250298Y-110298880D01*
X168179482Y-110293815D01*
X168156479Y-110282446D01*
X168015562Y-110193902D01*
X168015559Y-110193901D01*
X167843594Y-110133728D01*
X167843593Y-110133727D01*
X167843591Y-110133727D01*
X167662544Y-110113328D01*
X167481497Y-110133727D01*
X167481494Y-110133727D01*
X167481493Y-110133728D01*
X167309528Y-110193901D01*
X167309525Y-110193902D01*
X167152788Y-110292387D01*
X167085752Y-110311700D01*
X164967411Y-110311700D01*
X164899290Y-110291698D01*
X164852797Y-110238042D01*
X164842693Y-110167768D01*
X164842962Y-110165990D01*
X164865500Y-110023690D01*
X164865500Y-109843698D01*
X164865500Y-108127300D01*
X164885502Y-108059179D01*
X164939158Y-108012686D01*
X164991500Y-108001300D01*
X165121719Y-108001300D01*
X165189840Y-108021302D01*
X165195772Y-108025358D01*
X165202048Y-108029918D01*
X165376512Y-108107594D01*
X165563313Y-108147300D01*
X165754287Y-108147300D01*
X165941088Y-108107594D01*
X166115552Y-108029918D01*
X166270053Y-107917666D01*
X166270055Y-107917664D01*
X166397834Y-107775751D01*
X166397835Y-107775749D01*
X166397840Y-107775744D01*
X166493327Y-107610356D01*
X166552342Y-107428728D01*
X166572304Y-107238800D01*
X166552342Y-107048872D01*
X166493327Y-106867244D01*
X166397840Y-106701856D01*
X166397838Y-106701854D01*
X166397834Y-106701848D01*
X166270055Y-106559935D01*
X166115552Y-106447682D01*
X165941088Y-106370006D01*
X165754287Y-106330300D01*
X165563313Y-106330300D01*
X165376511Y-106370006D01*
X165202048Y-106447682D01*
X165195779Y-106452237D01*
X165128911Y-106476095D01*
X165121719Y-106476300D01*
X164991500Y-106476300D01*
X164923379Y-106456298D01*
X164876886Y-106402642D01*
X164865500Y-106350300D01*
X164865500Y-105731002D01*
X164885502Y-105662881D01*
X164939158Y-105616388D01*
X165009432Y-105606284D01*
X165042749Y-105615895D01*
X165043245Y-105616115D01*
X165043248Y-105616118D01*
X165217712Y-105693794D01*
X165404513Y-105733500D01*
X165595487Y-105733500D01*
X165782288Y-105693794D01*
X165956752Y-105616118D01*
X166111253Y-105503866D01*
X166111255Y-105503864D01*
X166239034Y-105361951D01*
X166239035Y-105361949D01*
X166239040Y-105361944D01*
X166334527Y-105196556D01*
X166393542Y-105014928D01*
X166411262Y-104846329D01*
X166438275Y-104780673D01*
X166496496Y-104740043D01*
X166536572Y-104733500D01*
X166769992Y-104733500D01*
X166769995Y-104733500D01*
X166947770Y-104705343D01*
X167118952Y-104649723D01*
X167279325Y-104568009D01*
X167424940Y-104462213D01*
X167552213Y-104334940D01*
X167658009Y-104189325D01*
X167739723Y-104028952D01*
X167795343Y-103857770D01*
X167823500Y-103679995D01*
X167823500Y-103500005D01*
X167795343Y-103322230D01*
X167739723Y-103151048D01*
X167658009Y-102990675D01*
X167552213Y-102845060D01*
X167552211Y-102845057D01*
X167424942Y-102717788D01*
X167279328Y-102611993D01*
X167279327Y-102611992D01*
X167279325Y-102611991D01*
X167118952Y-102530277D01*
X167118949Y-102530276D01*
X167118947Y-102530275D01*
X166947776Y-102474658D01*
X166947770Y-102474657D01*
X166859773Y-102460719D01*
X166795622Y-102430307D01*
X166758095Y-102370039D01*
X166755037Y-102316563D01*
X166773500Y-102199995D01*
X166773500Y-102020005D01*
X166745343Y-101842230D01*
X166689723Y-101671048D01*
X166608009Y-101510675D01*
X166524871Y-101396246D01*
X166502211Y-101365057D01*
X166374942Y-101237788D01*
X166229328Y-101131993D01*
X166229327Y-101131992D01*
X166229325Y-101131991D01*
X166068952Y-101050277D01*
X166068949Y-101050276D01*
X166068947Y-101050275D01*
X165897773Y-100994658D01*
X165897777Y-100994658D01*
X165864677Y-100989415D01*
X165719995Y-100966500D01*
X163659995Y-100966500D01*
X163480004Y-100966500D01*
X163356717Y-100986027D01*
X163356716Y-100986026D01*
X163302233Y-100994656D01*
X163302226Y-100994658D01*
X163131052Y-101050275D01*
X163131046Y-101050278D01*
X162970671Y-101131993D01*
X162830962Y-101233499D01*
X162825063Y-101237784D01*
X162767595Y-101295252D01*
X162705282Y-101329277D01*
X162634467Y-101324211D01*
X162577631Y-101281664D01*
X162552821Y-101215144D01*
X162552500Y-101206156D01*
X162552500Y-87991210D01*
X162552499Y-87991206D01*
X162549895Y-87978114D01*
X162528078Y-87868431D01*
X162480173Y-87752778D01*
X162410625Y-87648692D01*
X162322108Y-87560175D01*
X162174784Y-87412851D01*
X162140758Y-87350539D01*
X162138671Y-87337862D01*
X162137499Y-87327457D01*
X162134017Y-87296553D01*
X162073843Y-87124585D01*
X162073841Y-87124582D01*
X162073841Y-87124581D01*
X161976912Y-86970320D01*
X161976911Y-86970318D01*
X161848081Y-86841488D01*
X161848079Y-86841487D01*
X161693818Y-86744558D01*
X161693815Y-86744557D01*
X161521850Y-86684384D01*
X161521849Y-86684383D01*
X161521847Y-86684383D01*
X161340800Y-86663984D01*
X161159753Y-86684383D01*
X161159750Y-86684383D01*
X161159749Y-86684384D01*
X160987784Y-86744557D01*
X160987781Y-86744558D01*
X160833520Y-86841487D01*
X160833518Y-86841488D01*
X160704688Y-86970318D01*
X160704687Y-86970320D01*
X160607758Y-87124581D01*
X160607757Y-87124584D01*
X160547585Y-87296548D01*
X160547583Y-87296553D01*
X160527184Y-87477600D01*
X160547583Y-87658647D01*
X160547583Y-87658649D01*
X160547584Y-87658650D01*
X160607757Y-87830615D01*
X160607758Y-87830617D01*
X160690989Y-87963079D01*
X160710295Y-88031400D01*
X160689600Y-88099313D01*
X160673397Y-88119210D01*
X160653888Y-88138718D01*
X160653887Y-88138720D01*
X160556958Y-88292981D01*
X160556957Y-88292984D01*
X160499531Y-88457100D01*
X160496783Y-88464953D01*
X160476384Y-88646000D01*
X160496783Y-88827047D01*
X160496783Y-88827049D01*
X160496784Y-88827050D01*
X160556957Y-88999015D01*
X160556958Y-88999017D01*
X160635187Y-89123518D01*
X160654500Y-89190554D01*
X160654500Y-97093045D01*
X160635187Y-97160081D01*
X160556958Y-97284581D01*
X160556957Y-97284584D01*
X160521156Y-97386900D01*
X160496783Y-97456553D01*
X160476384Y-97637600D01*
X160496783Y-97818647D01*
X160496783Y-97818649D01*
X160496784Y-97818650D01*
X160556957Y-97990615D01*
X160556958Y-97990617D01*
X160635187Y-98115118D01*
X160654500Y-98182154D01*
X160654500Y-106174419D01*
X160634498Y-106242540D01*
X160595536Y-106281106D01*
X160474364Y-106357243D01*
X160474362Y-106357244D01*
X160345532Y-106486074D01*
X160345531Y-106486076D01*
X160248602Y-106640337D01*
X160248601Y-106640340D01*
X160196804Y-106788367D01*
X160155426Y-106846059D01*
X160089425Y-106872221D01*
X160019758Y-106858548D01*
X159988780Y-106835847D01*
X158482605Y-105329672D01*
X158448579Y-105267360D01*
X158445700Y-105240577D01*
X158445700Y-104354354D01*
X158465013Y-104287318D01*
X158507735Y-104219325D01*
X158543243Y-104162815D01*
X158603417Y-103990847D01*
X158623816Y-103809800D01*
X158603417Y-103628753D01*
X158543243Y-103456785D01*
X158543241Y-103456782D01*
X158543241Y-103456781D01*
X158446312Y-103302520D01*
X158446311Y-103302518D01*
X158317481Y-103173688D01*
X158317479Y-103173687D01*
X158163218Y-103076758D01*
X158163215Y-103076757D01*
X157991250Y-103016584D01*
X157991249Y-103016583D01*
X157991247Y-103016583D01*
X157810200Y-102996184D01*
X157629153Y-103016583D01*
X157629150Y-103016583D01*
X157629149Y-103016584D01*
X157457184Y-103076757D01*
X157457181Y-103076758D01*
X157302920Y-103173687D01*
X157302918Y-103173688D01*
X157174088Y-103302518D01*
X157174087Y-103302520D01*
X157077158Y-103456781D01*
X157077157Y-103456784D01*
X157025081Y-103605611D01*
X157016983Y-103628753D01*
X156996584Y-103809800D01*
X157016983Y-103990847D01*
X157016983Y-103990849D01*
X157016984Y-103990850D01*
X157077157Y-104162815D01*
X157077158Y-104162817D01*
X157155387Y-104287318D01*
X157174700Y-104354354D01*
X157174700Y-105618593D01*
X157189659Y-105693794D01*
X157199122Y-105741369D01*
X157247027Y-105857022D01*
X157316575Y-105961108D01*
X157316577Y-105961110D01*
X160131272Y-108775805D01*
X160165298Y-108838117D01*
X160160233Y-108908932D01*
X160117686Y-108965768D01*
X160051166Y-108990579D01*
X160042177Y-108990900D01*
X140683044Y-108990900D01*
X140614923Y-108970898D01*
X140593948Y-108953995D01*
X140474004Y-108834050D01*
X140439979Y-108771738D01*
X140437100Y-108744955D01*
X140437100Y-94050259D01*
X140457102Y-93982138D01*
X140510758Y-93935645D01*
X140548993Y-93925051D01*
X140563099Y-93923461D01*
X140609647Y-93918217D01*
X140781615Y-93858043D01*
X140935881Y-93761111D01*
X141064711Y-93632281D01*
X141161643Y-93478015D01*
X141221817Y-93306047D01*
X141242216Y-93125000D01*
X141221817Y-92943953D01*
X141161643Y-92771985D01*
X141161641Y-92771982D01*
X141161641Y-92771981D01*
X141064712Y-92617720D01*
X141064711Y-92617718D01*
X140935881Y-92488888D01*
X140935879Y-92488887D01*
X140781618Y-92391958D01*
X140781615Y-92391957D01*
X140609649Y-92331783D01*
X140609642Y-92331782D01*
X140568333Y-92327127D01*
X140502880Y-92299623D01*
X140493348Y-92291015D01*
X135711958Y-87509625D01*
X135677932Y-87447313D01*
X135682997Y-87376498D01*
X135711958Y-87331435D01*
X135786107Y-87257285D01*
X135786111Y-87257281D01*
X135790486Y-87250317D01*
X135843664Y-87203282D01*
X135897172Y-87191356D01*
X137161301Y-87191356D01*
X137228337Y-87210669D01*
X137352837Y-87288897D01*
X137352838Y-87288897D01*
X137352841Y-87288899D01*
X137524809Y-87349073D01*
X137705856Y-87369472D01*
X137886903Y-87349073D01*
X138058871Y-87288899D01*
X138213137Y-87191967D01*
X138341967Y-87063137D01*
X138438899Y-86908871D01*
X138499073Y-86736903D01*
X138519472Y-86555856D01*
X138499073Y-86374809D01*
X138482033Y-86326114D01*
X138478414Y-86255211D01*
X138513703Y-86193606D01*
X138576697Y-86160859D01*
X138600963Y-86158500D01*
X139766291Y-86158500D01*
X139834412Y-86178502D01*
X139880905Y-86232158D01*
X139891498Y-86270388D01*
X139906783Y-86406047D01*
X139906783Y-86406049D01*
X139906784Y-86406050D01*
X139966957Y-86578015D01*
X139966958Y-86578018D01*
X140063887Y-86732279D01*
X140063888Y-86732281D01*
X140192718Y-86861111D01*
X140192720Y-86861112D01*
X140346981Y-86958041D01*
X140346982Y-86958041D01*
X140346985Y-86958043D01*
X140518953Y-87018217D01*
X140560262Y-87022871D01*
X140625715Y-87050373D01*
X140635251Y-87058984D01*
X142777595Y-89201328D01*
X142811621Y-89263640D01*
X142814500Y-89290423D01*
X142814500Y-93255445D01*
X142795187Y-93322481D01*
X142716958Y-93446981D01*
X142716957Y-93446984D01*
X142680071Y-93552400D01*
X142656783Y-93618953D01*
X142636384Y-93800000D01*
X142656783Y-93981047D01*
X142656783Y-93981049D01*
X142656784Y-93981050D01*
X142716957Y-94153015D01*
X142716958Y-94153018D01*
X142813887Y-94307279D01*
X142813888Y-94307281D01*
X142942718Y-94436111D01*
X142942720Y-94436112D01*
X143096981Y-94533041D01*
X143096982Y-94533041D01*
X143096985Y-94533043D01*
X143268953Y-94593217D01*
X143450000Y-94613616D01*
X143631047Y-94593217D01*
X143803015Y-94533043D01*
X143957281Y-94436111D01*
X144086111Y-94307281D01*
X144183043Y-94153015D01*
X144243217Y-93981047D01*
X144263616Y-93800000D01*
X144243217Y-93618953D01*
X144183043Y-93446985D01*
X144183041Y-93446982D01*
X144183041Y-93446981D01*
X144104813Y-93322481D01*
X144085500Y-93255445D01*
X144085500Y-89163423D01*
X144105502Y-89095302D01*
X144159158Y-89048809D01*
X144229432Y-89038705D01*
X144294012Y-89068199D01*
X144300595Y-89074328D01*
X153491015Y-98264748D01*
X153525041Y-98327060D01*
X153527127Y-98339733D01*
X153531782Y-98381042D01*
X153531783Y-98381049D01*
X153591957Y-98553015D01*
X153591958Y-98553018D01*
X153688887Y-98707279D01*
X153688888Y-98707281D01*
X153817718Y-98836111D01*
X153817720Y-98836112D01*
X153971981Y-98933041D01*
X153971982Y-98933041D01*
X153971985Y-98933043D01*
X154143953Y-98993217D01*
X154325000Y-99013616D01*
X154506047Y-98993217D01*
X154658899Y-98939731D01*
X154729800Y-98936112D01*
X154791405Y-98971401D01*
X154824152Y-99034394D01*
X154825719Y-99072768D01*
X154812255Y-99192268D01*
X154811384Y-99200000D01*
X154831783Y-99381047D01*
X154831783Y-99381049D01*
X154831784Y-99381050D01*
X154891957Y-99553015D01*
X154891958Y-99553018D01*
X154988887Y-99707279D01*
X154988888Y-99707281D01*
X155117718Y-99836111D01*
X155117720Y-99836112D01*
X155271981Y-99933041D01*
X155271982Y-99933041D01*
X155271985Y-99933043D01*
X155443953Y-99993217D01*
X155625000Y-100013616D01*
X155806047Y-99993217D01*
X155978015Y-99933043D01*
X156132281Y-99836111D01*
X156261111Y-99707281D01*
X156358043Y-99553015D01*
X156401004Y-99430237D01*
X156442381Y-99372549D01*
X156508381Y-99346386D01*
X156578048Y-99360058D01*
X156609027Y-99382760D01*
X156756795Y-99530528D01*
X156790821Y-99592840D01*
X156793700Y-99619623D01*
X156793700Y-100166793D01*
X156818122Y-100289569D01*
X156818124Y-100289574D01*
X156861358Y-100393949D01*
X156866027Y-100405222D01*
X156935575Y-100509308D01*
X156935577Y-100509310D01*
X157316015Y-100889748D01*
X157350041Y-100952060D01*
X157352127Y-100964733D01*
X157356782Y-101006042D01*
X157356783Y-101006049D01*
X157416957Y-101178015D01*
X157416958Y-101178018D01*
X157513887Y-101332279D01*
X157513888Y-101332281D01*
X157642718Y-101461111D01*
X157642720Y-101461112D01*
X157796981Y-101558041D01*
X157796982Y-101558041D01*
X157796985Y-101558043D01*
X157968953Y-101618217D01*
X158150000Y-101638616D01*
X158331047Y-101618217D01*
X158503015Y-101558043D01*
X158657281Y-101461111D01*
X158786111Y-101332281D01*
X158883043Y-101178015D01*
X158943217Y-101006047D01*
X158963616Y-100825000D01*
X158943217Y-100643953D01*
X158883043Y-100471985D01*
X158883041Y-100471982D01*
X158883041Y-100471981D01*
X158786112Y-100317720D01*
X158786111Y-100317718D01*
X158657281Y-100188888D01*
X158657279Y-100188887D01*
X158503018Y-100091958D01*
X158503015Y-100091957D01*
X158331049Y-100031783D01*
X158331042Y-100031782D01*
X158289733Y-100027127D01*
X158224280Y-99999623D01*
X158214748Y-99991015D01*
X158101605Y-99877872D01*
X158067579Y-99815560D01*
X158064700Y-99788777D01*
X158064700Y-99241610D01*
X158064699Y-99241606D01*
X158040278Y-99118831D01*
X157992373Y-99003178D01*
X157922825Y-98899092D01*
X157834308Y-98810575D01*
X143949328Y-84925595D01*
X143915302Y-84863283D01*
X143920367Y-84792468D01*
X143962914Y-84735632D01*
X144029434Y-84710821D01*
X144038423Y-84710500D01*
X144684577Y-84710500D01*
X144752698Y-84730502D01*
X144773672Y-84747405D01*
X157091015Y-97064748D01*
X157125041Y-97127060D01*
X157127127Y-97139733D01*
X157131782Y-97181042D01*
X157131783Y-97181049D01*
X157191957Y-97353015D01*
X157191958Y-97353018D01*
X157288887Y-97507279D01*
X157288888Y-97507281D01*
X157417718Y-97636111D01*
X157417720Y-97636112D01*
X157571981Y-97733041D01*
X157571982Y-97733041D01*
X157571985Y-97733043D01*
X157743953Y-97793217D01*
X157925000Y-97813616D01*
X158106047Y-97793217D01*
X158278015Y-97733043D01*
X158432281Y-97636111D01*
X158561111Y-97507281D01*
X158658043Y-97353015D01*
X158718217Y-97181047D01*
X158738616Y-97000000D01*
X158718217Y-96818953D01*
X158658043Y-96646985D01*
X158658041Y-96646982D01*
X158658041Y-96646981D01*
X158561112Y-96492720D01*
X158561111Y-96492718D01*
X158432281Y-96363888D01*
X158432279Y-96363887D01*
X158364767Y-96321466D01*
X158317729Y-96268287D01*
X158306909Y-96198120D01*
X158335742Y-96133242D01*
X158342696Y-96125695D01*
X158461111Y-96007281D01*
X158480107Y-95977050D01*
X158558041Y-95853018D01*
X158558040Y-95853018D01*
X158558043Y-95853015D01*
X158618217Y-95681047D01*
X158638616Y-95500000D01*
X158618217Y-95318953D01*
X158558043Y-95146985D01*
X158558041Y-95146982D01*
X158558041Y-95146981D01*
X158479813Y-95022481D01*
X158460500Y-94955445D01*
X158460500Y-87940423D01*
X158480502Y-87872302D01*
X158497405Y-87851328D01*
X164872328Y-81476405D01*
X164934640Y-81442379D01*
X164961423Y-81439500D01*
X176265500Y-81439500D01*
X176333621Y-81459502D01*
X176380114Y-81513158D01*
X176391500Y-81565500D01*
X176391500Y-83248649D01*
X176398009Y-83309195D01*
X176398010Y-83309200D01*
X176398011Y-83309201D01*
X176401840Y-83319467D01*
X176406906Y-83390280D01*
X176372883Y-83452593D01*
X176310571Y-83486620D01*
X176283785Y-83489500D01*
X172412406Y-83489500D01*
X172289630Y-83513922D01*
X172289625Y-83513924D01*
X172173977Y-83561827D01*
X172069896Y-83631372D01*
X172069889Y-83631377D01*
X165456377Y-90244889D01*
X165456372Y-90244896D01*
X165386827Y-90348977D01*
X165338924Y-90464625D01*
X165338922Y-90464630D01*
X165314500Y-90587406D01*
X165314500Y-93662593D01*
X165325445Y-93717616D01*
X165338922Y-93785369D01*
X165386827Y-93901022D01*
X165402041Y-93923791D01*
X165402877Y-93925042D01*
X165423319Y-93980933D01*
X165431783Y-94056047D01*
X165431783Y-94056049D01*
X165431784Y-94056050D01*
X165491957Y-94228015D01*
X165491958Y-94228018D01*
X165588887Y-94382279D01*
X165588888Y-94382281D01*
X165717718Y-94511111D01*
X165717720Y-94511112D01*
X165871981Y-94608041D01*
X165871982Y-94608041D01*
X165871985Y-94608043D01*
X166043953Y-94668217D01*
X166225000Y-94688616D01*
X166406047Y-94668217D01*
X166578015Y-94608043D01*
X166732281Y-94511111D01*
X166861111Y-94382281D01*
X166958043Y-94228015D01*
X167018217Y-94056047D01*
X167038616Y-93875000D01*
X167018217Y-93693953D01*
X166958043Y-93521985D01*
X166958041Y-93521982D01*
X166958041Y-93521981D01*
X166861112Y-93367720D01*
X166861111Y-93367718D01*
X166732284Y-93238891D01*
X166644463Y-93183709D01*
X166597426Y-93130530D01*
X166585500Y-93077022D01*
X166585500Y-91694000D01*
X168350384Y-91694000D01*
X168370783Y-91875047D01*
X168370783Y-91875049D01*
X168370784Y-91875050D01*
X168430957Y-92047015D01*
X168430958Y-92047017D01*
X168509187Y-92171518D01*
X168528500Y-92238554D01*
X168528500Y-95505760D01*
X168521430Y-95547374D01*
X168497783Y-95614952D01*
X168494731Y-95642040D01*
X168477384Y-95796000D01*
X168497783Y-95977047D01*
X168497783Y-95977049D01*
X168497784Y-95977050D01*
X168557957Y-96149015D01*
X168557958Y-96149018D01*
X168654887Y-96303279D01*
X168654888Y-96303281D01*
X168783718Y-96432111D01*
X168783720Y-96432112D01*
X168937981Y-96529041D01*
X168937982Y-96529041D01*
X168937985Y-96529043D01*
X169109953Y-96589217D01*
X169291000Y-96609616D01*
X169472047Y-96589217D01*
X169644015Y-96529043D01*
X169798281Y-96432111D01*
X169927111Y-96303281D01*
X170024043Y-96149015D01*
X170084217Y-95977047D01*
X170104616Y-95796000D01*
X170084217Y-95614953D01*
X170024043Y-95442985D01*
X170024041Y-95442982D01*
X170024041Y-95442981D01*
X169927112Y-95288720D01*
X169927111Y-95288718D01*
X169836405Y-95198012D01*
X169802379Y-95135700D01*
X169799500Y-95108917D01*
X169799500Y-92238554D01*
X169818813Y-92171518D01*
X169878849Y-92075970D01*
X169897043Y-92047015D01*
X169957217Y-91875047D01*
X169977616Y-91694000D01*
X169957217Y-91512953D01*
X169897043Y-91340985D01*
X169897041Y-91340982D01*
X169897041Y-91340981D01*
X169800112Y-91186720D01*
X169800111Y-91186718D01*
X169671281Y-91057888D01*
X169671279Y-91057887D01*
X169517018Y-90960958D01*
X169517015Y-90960957D01*
X169345050Y-90900784D01*
X169345049Y-90900783D01*
X169345047Y-90900783D01*
X169164000Y-90880384D01*
X168982953Y-90900783D01*
X168982950Y-90900783D01*
X168982949Y-90900784D01*
X168810984Y-90960957D01*
X168810981Y-90960958D01*
X168656720Y-91057887D01*
X168656718Y-91057888D01*
X168527888Y-91186718D01*
X168527887Y-91186720D01*
X168430958Y-91340981D01*
X168430957Y-91340984D01*
X168378201Y-91491754D01*
X168370783Y-91512953D01*
X168350384Y-91694000D01*
X166585500Y-91694000D01*
X166585500Y-90965423D01*
X166605502Y-90897302D01*
X166622405Y-90876328D01*
X167709733Y-89789000D01*
X171398384Y-89789000D01*
X171418783Y-89970047D01*
X171418783Y-89970049D01*
X171418784Y-89970050D01*
X171478957Y-90142015D01*
X171478958Y-90142018D01*
X171575887Y-90296279D01*
X171575888Y-90296281D01*
X171704718Y-90425111D01*
X171704720Y-90425112D01*
X171858980Y-90522040D01*
X171858985Y-90522043D01*
X171873111Y-90526985D01*
X171930804Y-90568361D01*
X171956969Y-90634360D01*
X171957500Y-90645916D01*
X171957500Y-94122917D01*
X171937498Y-94191038D01*
X171920595Y-94212012D01*
X171829888Y-94302718D01*
X171829887Y-94302720D01*
X171732958Y-94456981D01*
X171732957Y-94456984D01*
X171674906Y-94622887D01*
X171672783Y-94628953D01*
X171652384Y-94810000D01*
X171672783Y-94991047D01*
X171672783Y-94991049D01*
X171672784Y-94991050D01*
X171732957Y-95163015D01*
X171732958Y-95163018D01*
X171829887Y-95317279D01*
X171829888Y-95317281D01*
X171958718Y-95446111D01*
X171958720Y-95446112D01*
X172112981Y-95543041D01*
X172112982Y-95543041D01*
X172112985Y-95543043D01*
X172284953Y-95603217D01*
X172466000Y-95623616D01*
X172647047Y-95603217D01*
X172819015Y-95543043D01*
X172973281Y-95446111D01*
X173102111Y-95317281D01*
X173199043Y-95163015D01*
X173259217Y-94991047D01*
X173279616Y-94810000D01*
X173259217Y-94628953D01*
X173235569Y-94561372D01*
X173228500Y-94519760D01*
X173228500Y-91394395D01*
X187382757Y-91394395D01*
X187382757Y-91394404D01*
X187402902Y-91688920D01*
X187402903Y-91688926D01*
X187462967Y-91977975D01*
X187462969Y-91977983D01*
X187561833Y-92256159D01*
X187697654Y-92518281D01*
X187697655Y-92518282D01*
X187851050Y-92735595D01*
X188573712Y-92012932D01*
X188668629Y-92143575D01*
X188796625Y-92271571D01*
X188927265Y-92366486D01*
X188206771Y-93086981D01*
X188206771Y-93086982D01*
X188298408Y-93161535D01*
X188550665Y-93314936D01*
X188821437Y-93432549D01*
X189105719Y-93512201D01*
X189398175Y-93552399D01*
X189398189Y-93552400D01*
X189693411Y-93552400D01*
X189693424Y-93552399D01*
X189985880Y-93512201D01*
X190270162Y-93432549D01*
X190540934Y-93314936D01*
X190793190Y-93161535D01*
X190884827Y-93086982D01*
X190164333Y-92366487D01*
X190294975Y-92271571D01*
X190422971Y-92143575D01*
X190517887Y-92012932D01*
X191240549Y-92735594D01*
X191393945Y-92518282D01*
X191393945Y-92518281D01*
X191529766Y-92256159D01*
X191628630Y-91977983D01*
X191628632Y-91977975D01*
X191688696Y-91688926D01*
X191688697Y-91688920D01*
X191708843Y-91394404D01*
X191708843Y-91394395D01*
X191688697Y-91099879D01*
X191688696Y-91099873D01*
X191628632Y-90810824D01*
X191628630Y-90810816D01*
X191529766Y-90532640D01*
X191393945Y-90270518D01*
X191393944Y-90270517D01*
X191240548Y-90053203D01*
X190517886Y-90775865D01*
X190422971Y-90645225D01*
X190294975Y-90517229D01*
X190164333Y-90422313D01*
X190884828Y-89701818D01*
X190884827Y-89701816D01*
X190793186Y-89627261D01*
X190540934Y-89473863D01*
X190270162Y-89356250D01*
X189985880Y-89276598D01*
X189693424Y-89236400D01*
X189398175Y-89236400D01*
X189105719Y-89276598D01*
X188821437Y-89356250D01*
X188550665Y-89473863D01*
X188298409Y-89627263D01*
X188206771Y-89701816D01*
X188206770Y-89701817D01*
X188927266Y-90422313D01*
X188796625Y-90517229D01*
X188668629Y-90645225D01*
X188573713Y-90775866D01*
X187851050Y-90053203D01*
X187851049Y-90053203D01*
X187697659Y-90270508D01*
X187561833Y-90532640D01*
X187462969Y-90810816D01*
X187462967Y-90810824D01*
X187402903Y-91099873D01*
X187402902Y-91099879D01*
X187382757Y-91394395D01*
X173228500Y-91394395D01*
X173228500Y-90107410D01*
X173228499Y-90107406D01*
X173204078Y-89984631D01*
X173156173Y-89868978D01*
X173086625Y-89764892D01*
X173045984Y-89724251D01*
X173011958Y-89661939D01*
X173009871Y-89649262D01*
X173005217Y-89607953D01*
X172945043Y-89435985D01*
X172945041Y-89435982D01*
X172945041Y-89435981D01*
X172848112Y-89281720D01*
X172848111Y-89281718D01*
X172719281Y-89152888D01*
X172719279Y-89152887D01*
X172565018Y-89055958D01*
X172565015Y-89055957D01*
X172393050Y-88995784D01*
X172393049Y-88995783D01*
X172393047Y-88995783D01*
X172212000Y-88975384D01*
X172030953Y-88995783D01*
X172030950Y-88995783D01*
X172030949Y-88995784D01*
X171858984Y-89055957D01*
X171858981Y-89055958D01*
X171704720Y-89152887D01*
X171704718Y-89152888D01*
X171575888Y-89281718D01*
X171575887Y-89281720D01*
X171478958Y-89435981D01*
X171478957Y-89435984D01*
X171418785Y-89607948D01*
X171418783Y-89607953D01*
X171398384Y-89789000D01*
X167709733Y-89789000D01*
X172701328Y-84797405D01*
X172763640Y-84763379D01*
X172790423Y-84760500D01*
X178577590Y-84760500D01*
X178577591Y-84760500D01*
X178700369Y-84736078D01*
X178816022Y-84688173D01*
X178920108Y-84618625D01*
X179660022Y-83878709D01*
X194149500Y-83878709D01*
X194149500Y-84121290D01*
X194181160Y-84361782D01*
X194243944Y-84596095D01*
X194243945Y-84596097D01*
X194243946Y-84596100D01*
X194336776Y-84820212D01*
X194336777Y-84820213D01*
X194336782Y-84820224D01*
X194458061Y-85030285D01*
X194458063Y-85030288D01*
X194458064Y-85030289D01*
X194605735Y-85222738D01*
X194605739Y-85222742D01*
X194605744Y-85222748D01*
X194777251Y-85394255D01*
X194777256Y-85394259D01*
X194777262Y-85394265D01*
X194952523Y-85528747D01*
X194969714Y-85541938D01*
X195179775Y-85663217D01*
X195179779Y-85663218D01*
X195179788Y-85663224D01*
X195403900Y-85756054D01*
X195638211Y-85818838D01*
X195638215Y-85818838D01*
X195638217Y-85818839D01*
X195700202Y-85826999D01*
X195878712Y-85850500D01*
X195878719Y-85850500D01*
X196121281Y-85850500D01*
X196121288Y-85850500D01*
X196338637Y-85821885D01*
X196361782Y-85818839D01*
X196361782Y-85818838D01*
X196361789Y-85818838D01*
X196596100Y-85756054D01*
X196820212Y-85663224D01*
X197030289Y-85541936D01*
X197222738Y-85394265D01*
X197394265Y-85222738D01*
X197541936Y-85030289D01*
X197663224Y-84820212D01*
X197756054Y-84596100D01*
X197818838Y-84361789D01*
X197850500Y-84121288D01*
X197850500Y-83878712D01*
X197823100Y-83670586D01*
X197818839Y-83638217D01*
X197818838Y-83638215D01*
X197818838Y-83638211D01*
X197756054Y-83403900D01*
X197663224Y-83179788D01*
X197663218Y-83179779D01*
X197663217Y-83179775D01*
X197541938Y-82969714D01*
X197541936Y-82969711D01*
X197394265Y-82777262D01*
X197394259Y-82777256D01*
X197394255Y-82777251D01*
X197222748Y-82605744D01*
X197222742Y-82605739D01*
X197222738Y-82605735D01*
X197030289Y-82458064D01*
X197030288Y-82458063D01*
X197030285Y-82458061D01*
X196820224Y-82336782D01*
X196820216Y-82336778D01*
X196820212Y-82336776D01*
X196596100Y-82243946D01*
X196596097Y-82243945D01*
X196596095Y-82243944D01*
X196361782Y-82181160D01*
X196121290Y-82149500D01*
X196121288Y-82149500D01*
X195878712Y-82149500D01*
X195878709Y-82149500D01*
X195638217Y-82181160D01*
X195403904Y-82243944D01*
X195403900Y-82243946D01*
X195179786Y-82336777D01*
X195179775Y-82336782D01*
X194969714Y-82458061D01*
X194777262Y-82605735D01*
X194777251Y-82605744D01*
X194605744Y-82777251D01*
X194605735Y-82777262D01*
X194458061Y-82969714D01*
X194336782Y-83179775D01*
X194336777Y-83179786D01*
X194336776Y-83179788D01*
X194265068Y-83352906D01*
X194243946Y-83403900D01*
X194243944Y-83403904D01*
X194181160Y-83638217D01*
X194149500Y-83878709D01*
X179660022Y-83878709D01*
X179834462Y-83704269D01*
X179896773Y-83670246D01*
X179950130Y-83671149D01*
X179950224Y-83670586D01*
X179953990Y-83671214D01*
X179954493Y-83671223D01*
X179955356Y-83671441D01*
X179955365Y-83671444D01*
X180177431Y-83708500D01*
X180177435Y-83708500D01*
X180402565Y-83708500D01*
X180402569Y-83708500D01*
X180624635Y-83671444D01*
X180837574Y-83598342D01*
X181035576Y-83491189D01*
X181213240Y-83352906D01*
X181365722Y-83187268D01*
X181454518Y-83051354D01*
X181508520Y-83005268D01*
X181578868Y-82995692D01*
X181643225Y-83025669D01*
X181665480Y-83051353D01*
X181698607Y-83102058D01*
X181754275Y-83187265D01*
X181754279Y-83187270D01*
X181906762Y-83352908D01*
X181951984Y-83388106D01*
X182084424Y-83491189D01*
X182282426Y-83598342D01*
X182282427Y-83598342D01*
X182282428Y-83598343D01*
X182378639Y-83631372D01*
X182495365Y-83671444D01*
X182717431Y-83708500D01*
X182717435Y-83708500D01*
X182942565Y-83708500D01*
X182942569Y-83708500D01*
X183164635Y-83671444D01*
X183377574Y-83598342D01*
X183575576Y-83491189D01*
X183753240Y-83352906D01*
X183905722Y-83187268D01*
X183994518Y-83051354D01*
X184048520Y-83005268D01*
X184118868Y-82995692D01*
X184183225Y-83025669D01*
X184205480Y-83051353D01*
X184238607Y-83102058D01*
X184294275Y-83187265D01*
X184294279Y-83187270D01*
X184446762Y-83352908D01*
X184491984Y-83388106D01*
X184624424Y-83491189D01*
X184822426Y-83598342D01*
X184822427Y-83598342D01*
X184822428Y-83598343D01*
X184918639Y-83631372D01*
X185035365Y-83671444D01*
X185257431Y-83708500D01*
X185257435Y-83708500D01*
X185482565Y-83708500D01*
X185482569Y-83708500D01*
X185704635Y-83671444D01*
X185917574Y-83598342D01*
X186115576Y-83491189D01*
X186293240Y-83352906D01*
X186445722Y-83187268D01*
X186538131Y-83045824D01*
X186592134Y-82999736D01*
X186662482Y-82990161D01*
X186726839Y-83020138D01*
X186746827Y-83042470D01*
X186871886Y-83221073D01*
X186871893Y-83221082D01*
X187038917Y-83388106D01*
X187038926Y-83388113D01*
X187232420Y-83523599D01*
X187232422Y-83523600D01*
X187446506Y-83623429D01*
X187446510Y-83623431D01*
X187660000Y-83680635D01*
X187660000Y-82783012D01*
X187717007Y-82815925D01*
X187844174Y-82850000D01*
X187975826Y-82850000D01*
X188102993Y-82815925D01*
X188160000Y-82783012D01*
X188160000Y-83680634D01*
X188373489Y-83623431D01*
X188373493Y-83623429D01*
X188587577Y-83523600D01*
X188587579Y-83523599D01*
X188781073Y-83388113D01*
X188781082Y-83388106D01*
X188948106Y-83221082D01*
X188948113Y-83221073D01*
X189083599Y-83027579D01*
X189083600Y-83027577D01*
X189183429Y-82813493D01*
X189183431Y-82813488D01*
X189240636Y-82600000D01*
X188343012Y-82600000D01*
X188375925Y-82542993D01*
X188410000Y-82415826D01*
X188410000Y-82284174D01*
X188375925Y-82157007D01*
X188343012Y-82100000D01*
X189240636Y-82100000D01*
X189183431Y-81886511D01*
X189183429Y-81886506D01*
X189083599Y-81672421D01*
X188948112Y-81478925D01*
X188781076Y-81311888D01*
X188781073Y-81311886D01*
X188587579Y-81176400D01*
X188587577Y-81176399D01*
X188373493Y-81076570D01*
X188373488Y-81076568D01*
X188160000Y-81019364D01*
X188160000Y-81916988D01*
X188102993Y-81884075D01*
X187975826Y-81850000D01*
X187844174Y-81850000D01*
X187717007Y-81884075D01*
X187660000Y-81916988D01*
X187660000Y-81019364D01*
X187446511Y-81076568D01*
X187446506Y-81076570D01*
X187232421Y-81176400D01*
X187038925Y-81311887D01*
X187038919Y-81311892D01*
X186871892Y-81478919D01*
X186871883Y-81478930D01*
X186746827Y-81657530D01*
X186691370Y-81701859D01*
X186620751Y-81709168D01*
X186557390Y-81677138D01*
X186538131Y-81654175D01*
X186445724Y-81512734D01*
X186445720Y-81512729D01*
X186293237Y-81347091D01*
X186183116Y-81261380D01*
X186115576Y-81208811D01*
X185917574Y-81101658D01*
X185917572Y-81101657D01*
X185917571Y-81101656D01*
X185704639Y-81028557D01*
X185704630Y-81028555D01*
X185649550Y-81019364D01*
X185482569Y-80991500D01*
X185257431Y-80991500D01*
X185109562Y-81016174D01*
X185035357Y-81028557D01*
X185034474Y-81028781D01*
X185034101Y-81028766D01*
X185030224Y-81029414D01*
X185030090Y-81028615D01*
X184963528Y-81026106D01*
X184914461Y-80995728D01*
X184133828Y-80215095D01*
X184099802Y-80152783D01*
X184104867Y-80081968D01*
X184147414Y-80025132D01*
X184213934Y-80000321D01*
X184222923Y-80000000D01*
X199874000Y-80000000D01*
X199942121Y-80020002D01*
X199988614Y-80073658D01*
X200000000Y-80126000D01*
X200000000Y-124874000D01*
X199979998Y-124942121D01*
X199926342Y-124988614D01*
X199874000Y-125000000D01*
X111126000Y-125000000D01*
X111057879Y-124979998D01*
X111011386Y-124926342D01*
X111000000Y-124874000D01*
X111000000Y-120878709D01*
X113149500Y-120878709D01*
X113149500Y-121121290D01*
X113181160Y-121361782D01*
X113243944Y-121596095D01*
X113243945Y-121596097D01*
X113243946Y-121596100D01*
X113336776Y-121820212D01*
X113336777Y-121820213D01*
X113336782Y-121820224D01*
X113458061Y-122030285D01*
X113458063Y-122030288D01*
X113458064Y-122030289D01*
X113605735Y-122222738D01*
X113605739Y-122222742D01*
X113605744Y-122222748D01*
X113777251Y-122394255D01*
X113777256Y-122394259D01*
X113777262Y-122394265D01*
X113969711Y-122541936D01*
X113969714Y-122541938D01*
X114179775Y-122663217D01*
X114179779Y-122663218D01*
X114179788Y-122663224D01*
X114403900Y-122756054D01*
X114638211Y-122818838D01*
X114638215Y-122818838D01*
X114638217Y-122818839D01*
X114700202Y-122826999D01*
X114878712Y-122850500D01*
X114878719Y-122850500D01*
X115121281Y-122850500D01*
X115121288Y-122850500D01*
X115338637Y-122821885D01*
X115361782Y-122818839D01*
X115361782Y-122818838D01*
X115361789Y-122818838D01*
X115596100Y-122756054D01*
X115820212Y-122663224D01*
X116030289Y-122541936D01*
X116222738Y-122394265D01*
X116394265Y-122222738D01*
X116541936Y-122030289D01*
X116663224Y-121820212D01*
X116756054Y-121596100D01*
X116818838Y-121361789D01*
X116850500Y-121121288D01*
X116850500Y-120878712D01*
X116824800Y-120683495D01*
X116818839Y-120638217D01*
X116818838Y-120638215D01*
X116818838Y-120638211D01*
X116756054Y-120403900D01*
X116663224Y-120179788D01*
X116663218Y-120179779D01*
X116663217Y-120179775D01*
X116541938Y-119969714D01*
X116541936Y-119969711D01*
X116394265Y-119777262D01*
X116394259Y-119777256D01*
X116394255Y-119777251D01*
X116222748Y-119605744D01*
X116222742Y-119605739D01*
X116222738Y-119605735D01*
X116030289Y-119458064D01*
X116030288Y-119458063D01*
X116030285Y-119458061D01*
X115820224Y-119336782D01*
X115820216Y-119336778D01*
X115820212Y-119336776D01*
X115596100Y-119243946D01*
X115596097Y-119243945D01*
X115596095Y-119243944D01*
X115361782Y-119181160D01*
X115121290Y-119149500D01*
X115121288Y-119149500D01*
X114878712Y-119149500D01*
X114878709Y-119149500D01*
X114638217Y-119181160D01*
X114403904Y-119243944D01*
X114403900Y-119243946D01*
X114368397Y-119258652D01*
X114179786Y-119336777D01*
X114179775Y-119336782D01*
X113969714Y-119458061D01*
X113777262Y-119605735D01*
X113777251Y-119605744D01*
X113605744Y-119777251D01*
X113605735Y-119777262D01*
X113458061Y-119969714D01*
X113336782Y-120179775D01*
X113336777Y-120179786D01*
X113336776Y-120179788D01*
X113245324Y-120400574D01*
X113243946Y-120403900D01*
X113243944Y-120403904D01*
X113181160Y-120638217D01*
X113149500Y-120878709D01*
X111000000Y-120878709D01*
X111000000Y-115370000D01*
X111456625Y-115370000D01*
X111476100Y-115642305D01*
X111534127Y-115909051D01*
X111534127Y-115909052D01*
X111612573Y-116119375D01*
X111629533Y-116164845D01*
X111745038Y-116376377D01*
X111760369Y-116404452D01*
X111923963Y-116622988D01*
X111923966Y-116622991D01*
X111923968Y-116622994D01*
X112117006Y-116816032D01*
X112117009Y-116816034D01*
X112117011Y-116816036D01*
X112130292Y-116825978D01*
X112335551Y-116979633D01*
X112575155Y-117110467D01*
X112830940Y-117205870D01*
X112830943Y-117205870D01*
X112830947Y-117205872D01*
X112985322Y-117239454D01*
X113097698Y-117263900D01*
X113370000Y-117283375D01*
X113642302Y-117263900D01*
X113909051Y-117205872D01*
X113909052Y-117205872D01*
X113909053Y-117205871D01*
X113909060Y-117205870D01*
X114164845Y-117110467D01*
X114404449Y-116979633D01*
X114622994Y-116816032D01*
X114816032Y-116622994D01*
X114979633Y-116404449D01*
X115110467Y-116164845D01*
X115205870Y-115909060D01*
X115263900Y-115642302D01*
X115283375Y-115370000D01*
X115263900Y-115097698D01*
X115235113Y-114965368D01*
X115205872Y-114830948D01*
X115205872Y-114830947D01*
X115205870Y-114830943D01*
X115205870Y-114830940D01*
X115110467Y-114575155D01*
X114979633Y-114335551D01*
X114821664Y-114124529D01*
X114816036Y-114117011D01*
X114816028Y-114117002D01*
X114622997Y-113923971D01*
X114622988Y-113923963D01*
X114404452Y-113760369D01*
X114404450Y-113760368D01*
X114404449Y-113760367D01*
X114164845Y-113629533D01*
X114164844Y-113629532D01*
X113909052Y-113534127D01*
X113642304Y-113476100D01*
X113642306Y-113476100D01*
X113370000Y-113456625D01*
X113097694Y-113476100D01*
X112830948Y-113534127D01*
X112830947Y-113534127D01*
X112575156Y-113629532D01*
X112335547Y-113760369D01*
X112117011Y-113923963D01*
X112117002Y-113923971D01*
X111923971Y-114117002D01*
X111923963Y-114117011D01*
X111760369Y-114335547D01*
X111629532Y-114575156D01*
X111534127Y-114830947D01*
X111534127Y-114830948D01*
X111476100Y-115097694D01*
X111456625Y-115370000D01*
X111000000Y-115370000D01*
X111000000Y-111170000D01*
X111376625Y-111170000D01*
X111396100Y-111442305D01*
X111454127Y-111709051D01*
X111454127Y-111709052D01*
X111548504Y-111962088D01*
X111549533Y-111964845D01*
X111653427Y-112155113D01*
X111680369Y-112204452D01*
X111843963Y-112422988D01*
X111843966Y-112422991D01*
X111843968Y-112422994D01*
X112037006Y-112616032D01*
X112037009Y-112616034D01*
X112037011Y-112616036D01*
X112187530Y-112728713D01*
X112255551Y-112779633D01*
X112495155Y-112910467D01*
X112750940Y-113005870D01*
X112750943Y-113005870D01*
X112750947Y-113005872D01*
X112888603Y-113035817D01*
X113017698Y-113063900D01*
X113290000Y-113083375D01*
X113562302Y-113063900D01*
X113829060Y-113005870D01*
X114043130Y-112926025D01*
X114113942Y-112920961D01*
X114176251Y-112954984D01*
X117623375Y-116402108D01*
X117711892Y-116490625D01*
X117815978Y-116560173D01*
X117931631Y-116608078D01*
X118054409Y-116632500D01*
X118860845Y-116632500D01*
X118927881Y-116651813D01*
X119052381Y-116730041D01*
X119052382Y-116730041D01*
X119052385Y-116730043D01*
X119224353Y-116790217D01*
X119405400Y-116810616D01*
X119586447Y-116790217D01*
X119758415Y-116730043D01*
X119912681Y-116633111D01*
X120041511Y-116504281D01*
X120138443Y-116350015D01*
X120198617Y-116178047D01*
X120219016Y-115997000D01*
X120198617Y-115815953D01*
X120138443Y-115643985D01*
X120138441Y-115643982D01*
X120138441Y-115643981D01*
X120041512Y-115489720D01*
X120041511Y-115489718D01*
X119912681Y-115360888D01*
X119912679Y-115360887D01*
X119758418Y-115263958D01*
X119758415Y-115263957D01*
X119586450Y-115203784D01*
X119586449Y-115203783D01*
X119586447Y-115203783D01*
X119405400Y-115183384D01*
X119224353Y-115203783D01*
X119224350Y-115203783D01*
X119224349Y-115203784D01*
X119052384Y-115263957D01*
X119052381Y-115263958D01*
X118927881Y-115342187D01*
X118860845Y-115361500D01*
X118432423Y-115361500D01*
X118364302Y-115341498D01*
X118343328Y-115324595D01*
X115074987Y-112056254D01*
X115040961Y-111993942D01*
X115046025Y-111923130D01*
X115125870Y-111709060D01*
X115183900Y-111442302D01*
X115203375Y-111170000D01*
X115183900Y-110897698D01*
X115125870Y-110630940D01*
X115030467Y-110375155D01*
X114899633Y-110135551D01*
X114796254Y-109997453D01*
X114736036Y-109917011D01*
X114736028Y-109917002D01*
X114542997Y-109723971D01*
X114542988Y-109723963D01*
X114324452Y-109560369D01*
X114324450Y-109560368D01*
X114324449Y-109560367D01*
X114084845Y-109429533D01*
X114084844Y-109429532D01*
X113829052Y-109334127D01*
X113562304Y-109276100D01*
X113562306Y-109276100D01*
X113290000Y-109256625D01*
X113017694Y-109276100D01*
X112750948Y-109334127D01*
X112750947Y-109334127D01*
X112495156Y-109429532D01*
X112255547Y-109560369D01*
X112037011Y-109723963D01*
X112037002Y-109723971D01*
X111843971Y-109917002D01*
X111843963Y-109917011D01*
X111680369Y-110135547D01*
X111549532Y-110375156D01*
X111454127Y-110630947D01*
X111454127Y-110630948D01*
X111396100Y-110897694D01*
X111376625Y-111170000D01*
X111000000Y-111170000D01*
X111000000Y-96262406D01*
X112164500Y-96262406D01*
X112164500Y-105037593D01*
X112183441Y-105132815D01*
X112188922Y-105160369D01*
X112236827Y-105276022D01*
X112306375Y-105380108D01*
X114112975Y-107186708D01*
X114201492Y-107275225D01*
X114305578Y-107344773D01*
X114421231Y-107392678D01*
X114544009Y-107417100D01*
X120451601Y-107417100D01*
X120519722Y-107437102D01*
X120545239Y-107458792D01*
X120546745Y-107460464D01*
X120546747Y-107460466D01*
X120701248Y-107572718D01*
X120875712Y-107650394D01*
X121062513Y-107690100D01*
X121253487Y-107690100D01*
X121440288Y-107650394D01*
X121614752Y-107572718D01*
X121769253Y-107460466D01*
X121830290Y-107392678D01*
X121897034Y-107318551D01*
X121897035Y-107318549D01*
X121897040Y-107318544D01*
X121992527Y-107153156D01*
X122051542Y-106971528D01*
X122071504Y-106781600D01*
X122051542Y-106591672D01*
X121992527Y-106410044D01*
X121897040Y-106244656D01*
X121897038Y-106244654D01*
X121897034Y-106244648D01*
X121769255Y-106102735D01*
X121614752Y-105990482D01*
X121440288Y-105912806D01*
X121253487Y-105873100D01*
X121062513Y-105873100D01*
X120875711Y-105912806D01*
X120701247Y-105990482D01*
X120546745Y-106102735D01*
X120545239Y-106104408D01*
X120544123Y-106105095D01*
X120541837Y-106107154D01*
X120541460Y-106106735D01*
X120484794Y-106141649D01*
X120451601Y-106146100D01*
X114922023Y-106146100D01*
X114853902Y-106126098D01*
X114832928Y-106109195D01*
X113472405Y-104748672D01*
X113438379Y-104686360D01*
X113435500Y-104659577D01*
X113435500Y-96640422D01*
X113455502Y-96572301D01*
X113472395Y-96551337D01*
X114280763Y-95742968D01*
X114343071Y-95708947D01*
X114413886Y-95714011D01*
X114470722Y-95756558D01*
X114495374Y-95821085D01*
X114515429Y-96050310D01*
X114515430Y-96050316D01*
X114576568Y-96278489D01*
X114576570Y-96278493D01*
X114676401Y-96492582D01*
X114735071Y-96576372D01*
X114735073Y-96576372D01*
X115367037Y-95944408D01*
X115384075Y-96007993D01*
X115449901Y-96122007D01*
X115542993Y-96215099D01*
X115657007Y-96280925D01*
X115720590Y-96297962D01*
X115088626Y-96929925D01*
X115088626Y-96929926D01*
X115162691Y-96981787D01*
X115207019Y-97037244D01*
X115214328Y-97107863D01*
X115182297Y-97171224D01*
X115162690Y-97188214D01*
X115088625Y-97240073D01*
X115720589Y-97872037D01*
X115657007Y-97889075D01*
X115542993Y-97954901D01*
X115449901Y-98047993D01*
X115384075Y-98162007D01*
X115367037Y-98225589D01*
X114735073Y-97593625D01*
X114676399Y-97677422D01*
X114576570Y-97891506D01*
X114576568Y-97891510D01*
X114515431Y-98119680D01*
X114494843Y-98355000D01*
X114515431Y-98590319D01*
X114576568Y-98818489D01*
X114576570Y-98818493D01*
X114676401Y-99032582D01*
X114735072Y-99116372D01*
X115367037Y-98484408D01*
X115384075Y-98547993D01*
X115449901Y-98662007D01*
X115542993Y-98755099D01*
X115657007Y-98820925D01*
X115720590Y-98837962D01*
X115088626Y-99469925D01*
X115088626Y-99469927D01*
X115157149Y-99517907D01*
X115201478Y-99573364D01*
X115208787Y-99643983D01*
X115176757Y-99707344D01*
X115144850Y-99731933D01*
X115109240Y-99751204D01*
X115104432Y-99753807D01*
X115104426Y-99753810D01*
X115104424Y-99753811D01*
X114926762Y-99892091D01*
X114774279Y-100057729D01*
X114774275Y-100057734D01*
X114651141Y-100246206D01*
X114560703Y-100452386D01*
X114560702Y-100452387D01*
X114505437Y-100670624D01*
X114505436Y-100670630D01*
X114505436Y-100670632D01*
X114486844Y-100895000D01*
X114504973Y-101113783D01*
X114505437Y-101119375D01*
X114560702Y-101337612D01*
X114560703Y-101337613D01*
X114560704Y-101337616D01*
X114649781Y-101540692D01*
X114651141Y-101543793D01*
X114774275Y-101732265D01*
X114774279Y-101732270D01*
X114926762Y-101897908D01*
X114978484Y-101938165D01*
X115104424Y-102036189D01*
X115144848Y-102058065D01*
X115195239Y-102108077D01*
X115210592Y-102177394D01*
X115186032Y-102244007D01*
X115157150Y-102272093D01*
X115088625Y-102320073D01*
X115720589Y-102952037D01*
X115657007Y-102969075D01*
X115542993Y-103034901D01*
X115449901Y-103127993D01*
X115384075Y-103242007D01*
X115367037Y-103305589D01*
X114735073Y-102673625D01*
X114676399Y-102757422D01*
X114576570Y-102971506D01*
X114576568Y-102971510D01*
X114515431Y-103199680D01*
X114494843Y-103435000D01*
X114515431Y-103670319D01*
X114576568Y-103898489D01*
X114576570Y-103898493D01*
X114676401Y-104112582D01*
X114735072Y-104196372D01*
X115367037Y-103564408D01*
X115384075Y-103627993D01*
X115449901Y-103742007D01*
X115542993Y-103835099D01*
X115657007Y-103900925D01*
X115720590Y-103917962D01*
X115088626Y-104549925D01*
X115088626Y-104549926D01*
X115172420Y-104608599D01*
X115386506Y-104708429D01*
X115386510Y-104708431D01*
X115614680Y-104769568D01*
X115850000Y-104790156D01*
X116085319Y-104769568D01*
X116313489Y-104708431D01*
X116313493Y-104708429D01*
X116527578Y-104608600D01*
X116611372Y-104549926D01*
X116611372Y-104549924D01*
X115979410Y-103917962D01*
X116042993Y-103900925D01*
X116157007Y-103835099D01*
X116250099Y-103742007D01*
X116315925Y-103627993D01*
X116332962Y-103564410D01*
X116964924Y-104196372D01*
X116964925Y-104196372D01*
X117013173Y-104127469D01*
X117068630Y-104083141D01*
X117139250Y-104075832D01*
X117202610Y-104107863D01*
X117221869Y-104130825D01*
X117314275Y-104272265D01*
X117314279Y-104272270D01*
X117466762Y-104437908D01*
X117497989Y-104462213D01*
X117644424Y-104576189D01*
X117842426Y-104683342D01*
X117842427Y-104683342D01*
X117842428Y-104683343D01*
X117925225Y-104711767D01*
X118055365Y-104756444D01*
X118277431Y-104793500D01*
X118277435Y-104793500D01*
X118502565Y-104793500D01*
X118502569Y-104793500D01*
X118724635Y-104756444D01*
X118937574Y-104683342D01*
X119135576Y-104576189D01*
X119313240Y-104437906D01*
X119465722Y-104272268D01*
X119588860Y-104083791D01*
X119679296Y-103877616D01*
X119734564Y-103659368D01*
X119753156Y-103435000D01*
X119734564Y-103210632D01*
X119725209Y-103173689D01*
X119679297Y-102992387D01*
X119679296Y-102992386D01*
X119679296Y-102992384D01*
X119588860Y-102786209D01*
X119563758Y-102747787D01*
X119465724Y-102597734D01*
X119465720Y-102597729D01*
X119330490Y-102450832D01*
X119313240Y-102432094D01*
X119313239Y-102432093D01*
X119313237Y-102432091D01*
X119231382Y-102368381D01*
X119135576Y-102293811D01*
X119102319Y-102275813D01*
X119051929Y-102225802D01*
X119036576Y-102156485D01*
X119061136Y-102089872D01*
X119102320Y-102054186D01*
X119135576Y-102036189D01*
X119313240Y-101897906D01*
X119465722Y-101732268D01*
X119588860Y-101543791D01*
X119679296Y-101337616D01*
X119734564Y-101119368D01*
X119753156Y-100895000D01*
X119734564Y-100670632D01*
X119699693Y-100532928D01*
X119679297Y-100452387D01*
X119679296Y-100452386D01*
X119679296Y-100452384D01*
X119588860Y-100246209D01*
X119573031Y-100221981D01*
X119465724Y-100057734D01*
X119465720Y-100057729D01*
X119313237Y-99892091D01*
X119217481Y-99817561D01*
X119135576Y-99753811D01*
X119102319Y-99735813D01*
X119051929Y-99685802D01*
X119036576Y-99616485D01*
X119061136Y-99549872D01*
X119102320Y-99514186D01*
X119135576Y-99496189D01*
X119313240Y-99357906D01*
X119465722Y-99192268D01*
X119588860Y-99003791D01*
X119679296Y-98797616D01*
X119734564Y-98579368D01*
X119753156Y-98355000D01*
X119734564Y-98130632D01*
X119730635Y-98115118D01*
X119679297Y-97912387D01*
X119679296Y-97912386D01*
X119679296Y-97912384D01*
X119588860Y-97706209D01*
X119562561Y-97665955D01*
X119465724Y-97517734D01*
X119465720Y-97517729D01*
X119345281Y-97386899D01*
X119313240Y-97352094D01*
X119313239Y-97352093D01*
X119313237Y-97352091D01*
X119171357Y-97241661D01*
X119135576Y-97213811D01*
X119102319Y-97195813D01*
X119051929Y-97145802D01*
X119036576Y-97076485D01*
X119061136Y-97009872D01*
X119102320Y-96974186D01*
X119135576Y-96956189D01*
X119313240Y-96817906D01*
X119465722Y-96652268D01*
X119588860Y-96463791D01*
X119679296Y-96257616D01*
X119734564Y-96039368D01*
X119753156Y-95815000D01*
X119734564Y-95590632D01*
X119734562Y-95590624D01*
X119679297Y-95372387D01*
X119679296Y-95372386D01*
X119679296Y-95372384D01*
X119588860Y-95166209D01*
X119568272Y-95134697D01*
X119465724Y-94977734D01*
X119465720Y-94977729D01*
X119313237Y-94812091D01*
X119231382Y-94748381D01*
X119135576Y-94673811D01*
X119125235Y-94668215D01*
X119102320Y-94655814D01*
X119051929Y-94605802D01*
X119036576Y-94536485D01*
X119061136Y-94469872D01*
X119102320Y-94434186D01*
X119135576Y-94416189D01*
X119313240Y-94277906D01*
X119465722Y-94112268D01*
X119588860Y-93923791D01*
X119679296Y-93717616D01*
X119734564Y-93499368D01*
X119753156Y-93275000D01*
X119734564Y-93050632D01*
X119730148Y-93033195D01*
X119679297Y-92832387D01*
X119679296Y-92832386D01*
X119679296Y-92832384D01*
X119588860Y-92626209D01*
X119519849Y-92520579D01*
X119465724Y-92437734D01*
X119465720Y-92437729D01*
X119313237Y-92272091D01*
X119223045Y-92201892D01*
X119135576Y-92133811D01*
X118937574Y-92026658D01*
X118937572Y-92026657D01*
X118937571Y-92026656D01*
X118724639Y-91953557D01*
X118724630Y-91953555D01*
X118680476Y-91946187D01*
X118502569Y-91916500D01*
X118277431Y-91916500D01*
X118129211Y-91941233D01*
X118055369Y-91953555D01*
X118055360Y-91953557D01*
X117842428Y-92026656D01*
X117842426Y-92026658D01*
X117644426Y-92133810D01*
X117644424Y-92133811D01*
X117466759Y-92272094D01*
X117353483Y-92395143D01*
X117292630Y-92431714D01*
X117221666Y-92429579D01*
X117163121Y-92389417D01*
X117146144Y-92358481D01*
X117145217Y-92358914D01*
X117142116Y-92352266D01*
X117142115Y-92352262D01*
X117049030Y-92201348D01*
X117049029Y-92201347D01*
X117049024Y-92201341D01*
X116923658Y-92075975D01*
X116923652Y-92075970D01*
X116876712Y-92047017D01*
X116772738Y-91982885D01*
X116684224Y-91953555D01*
X116604427Y-91927113D01*
X116604420Y-91927112D01*
X116500553Y-91916500D01*
X115199455Y-91916500D01*
X115095574Y-91927112D01*
X114927261Y-91982885D01*
X114776347Y-92075970D01*
X114776341Y-92075975D01*
X114650975Y-92201341D01*
X114650970Y-92201347D01*
X114557885Y-92352262D01*
X114502113Y-92520572D01*
X114502112Y-92520579D01*
X114491500Y-92624446D01*
X114491500Y-93682576D01*
X114471498Y-93750697D01*
X114454595Y-93771671D01*
X112394892Y-95831375D01*
X112306377Y-95919889D01*
X112306372Y-95919896D01*
X112236827Y-96023977D01*
X112188924Y-96139625D01*
X112188922Y-96139630D01*
X112164500Y-96262406D01*
X111000000Y-96262406D01*
X111000000Y-86050000D01*
X120261384Y-86050000D01*
X120281783Y-86231047D01*
X120281783Y-86231049D01*
X120281784Y-86231050D01*
X120341957Y-86403015D01*
X120341958Y-86403018D01*
X120438887Y-86557279D01*
X120438888Y-86557281D01*
X120567718Y-86686111D01*
X120567720Y-86686112D01*
X120721981Y-86783041D01*
X120721982Y-86783041D01*
X120721985Y-86783043D01*
X120893953Y-86843217D01*
X120935262Y-86847871D01*
X121000715Y-86875373D01*
X121010251Y-86883984D01*
X122240863Y-88114596D01*
X122274889Y-88176908D01*
X122269824Y-88247723D01*
X122258457Y-88270724D01*
X122244471Y-88292985D01*
X122241956Y-88296987D01*
X122183183Y-88464953D01*
X122181783Y-88468953D01*
X122161384Y-88650000D01*
X122181783Y-88831047D01*
X122181783Y-88831049D01*
X122181784Y-88831050D01*
X122241957Y-89003015D01*
X122241958Y-89003018D01*
X122338887Y-89157279D01*
X122338888Y-89157281D01*
X122467718Y-89286111D01*
X122467720Y-89286112D01*
X122621981Y-89383041D01*
X122621982Y-89383041D01*
X122621985Y-89383043D01*
X122793953Y-89443217D01*
X122975000Y-89463616D01*
X123156047Y-89443217D01*
X123328015Y-89383043D01*
X123437100Y-89314500D01*
X125161384Y-89314500D01*
X125181783Y-89495547D01*
X125181783Y-89495549D01*
X125181784Y-89495550D01*
X125241957Y-89667515D01*
X125241958Y-89667518D01*
X125338887Y-89821779D01*
X125338888Y-89821781D01*
X125467718Y-89950611D01*
X125467720Y-89950612D01*
X125621981Y-90047541D01*
X125621982Y-90047541D01*
X125621985Y-90047543D01*
X125793953Y-90107717D01*
X125975000Y-90128116D01*
X126156047Y-90107717D01*
X126328015Y-90047543D01*
X126482281Y-89950611D01*
X126611111Y-89821781D01*
X126708043Y-89667515D01*
X126768217Y-89495547D01*
X126788616Y-89314500D01*
X126768217Y-89133453D01*
X126708043Y-88961485D01*
X126708041Y-88961482D01*
X126708041Y-88961481D01*
X126629813Y-88836981D01*
X126610500Y-88769945D01*
X126610500Y-88643986D01*
X126630502Y-88575865D01*
X126634778Y-88569903D01*
X126733041Y-88413518D01*
X126733040Y-88413518D01*
X126733043Y-88413515D01*
X126793217Y-88241547D01*
X126813616Y-88060500D01*
X126793217Y-87879453D01*
X126733043Y-87707485D01*
X126733041Y-87707482D01*
X126733041Y-87707481D01*
X126636112Y-87553220D01*
X126636111Y-87553218D01*
X126507281Y-87424388D01*
X126507279Y-87424387D01*
X126353018Y-87327458D01*
X126353015Y-87327457D01*
X126181050Y-87267284D01*
X126181049Y-87267283D01*
X126181047Y-87267283D01*
X126000000Y-87246884D01*
X125818953Y-87267283D01*
X125818950Y-87267283D01*
X125818949Y-87267284D01*
X125646984Y-87327457D01*
X125646981Y-87327458D01*
X125492720Y-87424387D01*
X125492718Y-87424388D01*
X125363888Y-87553218D01*
X125363887Y-87553220D01*
X125266958Y-87707481D01*
X125266957Y-87707484D01*
X125210640Y-87868431D01*
X125206783Y-87879453D01*
X125186384Y-88060500D01*
X125206783Y-88241547D01*
X125206783Y-88241549D01*
X125206784Y-88241550D01*
X125266956Y-88413514D01*
X125266957Y-88413515D01*
X125320187Y-88498231D01*
X125339500Y-88565265D01*
X125339500Y-88769945D01*
X125320187Y-88836981D01*
X125241958Y-88961481D01*
X125241957Y-88961484D01*
X125195133Y-89095302D01*
X125181783Y-89133453D01*
X125161384Y-89314500D01*
X123437100Y-89314500D01*
X123482281Y-89286111D01*
X123611111Y-89157281D01*
X123708043Y-89003015D01*
X123768217Y-88831047D01*
X123788616Y-88650000D01*
X123768217Y-88468953D01*
X123708043Y-88296985D01*
X123708041Y-88296982D01*
X123708041Y-88296981D01*
X123629813Y-88172481D01*
X123610500Y-88105445D01*
X123610500Y-87887410D01*
X123610499Y-87887406D01*
X123608917Y-87879453D01*
X123586078Y-87764631D01*
X123538173Y-87648978D01*
X123468625Y-87544892D01*
X123380108Y-87456375D01*
X121908984Y-85985251D01*
X121874958Y-85922939D01*
X121872871Y-85910262D01*
X121868217Y-85868953D01*
X121808043Y-85696985D01*
X121808041Y-85696982D01*
X121808041Y-85696981D01*
X121711112Y-85542720D01*
X121711111Y-85542718D01*
X121582281Y-85413888D01*
X121582279Y-85413887D01*
X121428018Y-85316958D01*
X121428015Y-85316957D01*
X121256050Y-85256784D01*
X121256049Y-85256783D01*
X121256047Y-85256783D01*
X121075000Y-85236384D01*
X120893953Y-85256783D01*
X120893950Y-85256783D01*
X120893949Y-85256784D01*
X120721984Y-85316957D01*
X120721981Y-85316958D01*
X120567720Y-85413887D01*
X120567718Y-85413888D01*
X120438888Y-85542718D01*
X120438887Y-85542720D01*
X120341958Y-85696981D01*
X120341957Y-85696984D01*
X120281785Y-85868948D01*
X120281783Y-85868953D01*
X120261384Y-86050000D01*
X111000000Y-86050000D01*
X111000000Y-83878709D01*
X113149500Y-83878709D01*
X113149500Y-84121290D01*
X113181160Y-84361782D01*
X113243944Y-84596095D01*
X113243945Y-84596097D01*
X113243946Y-84596100D01*
X113336776Y-84820212D01*
X113336777Y-84820213D01*
X113336782Y-84820224D01*
X113458061Y-85030285D01*
X113458063Y-85030288D01*
X113458064Y-85030289D01*
X113605735Y-85222738D01*
X113605739Y-85222742D01*
X113605744Y-85222748D01*
X113777251Y-85394255D01*
X113777256Y-85394259D01*
X113777262Y-85394265D01*
X113952523Y-85528747D01*
X113969714Y-85541938D01*
X114179775Y-85663217D01*
X114179779Y-85663218D01*
X114179788Y-85663224D01*
X114403900Y-85756054D01*
X114638211Y-85818838D01*
X114638215Y-85818838D01*
X114638217Y-85818839D01*
X114700202Y-85826999D01*
X114878712Y-85850500D01*
X114878719Y-85850500D01*
X115121281Y-85850500D01*
X115121288Y-85850500D01*
X115338637Y-85821885D01*
X115361782Y-85818839D01*
X115361782Y-85818838D01*
X115361789Y-85818838D01*
X115596100Y-85756054D01*
X115820212Y-85663224D01*
X116030289Y-85541936D01*
X116222738Y-85394265D01*
X116394265Y-85222738D01*
X116541936Y-85030289D01*
X116663224Y-84820212D01*
X116756054Y-84596100D01*
X116818838Y-84361789D01*
X116850500Y-84121288D01*
X116850500Y-83878712D01*
X116823100Y-83670586D01*
X116818839Y-83638217D01*
X116818838Y-83638215D01*
X116818838Y-83638211D01*
X116756054Y-83403900D01*
X116663224Y-83179788D01*
X116663218Y-83179779D01*
X116663217Y-83179775D01*
X116541938Y-82969714D01*
X116541936Y-82969711D01*
X116394265Y-82777262D01*
X116394259Y-82777256D01*
X116394255Y-82777251D01*
X116222748Y-82605744D01*
X116222742Y-82605739D01*
X116222738Y-82605735D01*
X116030289Y-82458064D01*
X116030288Y-82458063D01*
X116030285Y-82458061D01*
X115820224Y-82336782D01*
X115820216Y-82336778D01*
X115820212Y-82336776D01*
X115596100Y-82243946D01*
X115596097Y-82243945D01*
X115596095Y-82243944D01*
X115361782Y-82181160D01*
X115121290Y-82149500D01*
X115121288Y-82149500D01*
X114878712Y-82149500D01*
X114878709Y-82149500D01*
X114638217Y-82181160D01*
X114403904Y-82243944D01*
X114403900Y-82243946D01*
X114179786Y-82336777D01*
X114179775Y-82336782D01*
X113969714Y-82458061D01*
X113777262Y-82605735D01*
X113777251Y-82605744D01*
X113605744Y-82777251D01*
X113605735Y-82777262D01*
X113458061Y-82969714D01*
X113336782Y-83179775D01*
X113336777Y-83179786D01*
X113336776Y-83179788D01*
X113265068Y-83352906D01*
X113243946Y-83403900D01*
X113243944Y-83403904D01*
X113181160Y-83638217D01*
X113149500Y-83878709D01*
X111000000Y-83878709D01*
X111000000Y-80126000D01*
X111020002Y-80057879D01*
X111073658Y-80011386D01*
X111126000Y-80000000D01*
X125607002Y-80000000D01*
X125675123Y-80020002D01*
G37*
G04 #@! TD.AperFunction*
G04 #@! TA.AperFunction,Conductor*
G36*
X156003881Y-114756213D02*
G01*
X156128381Y-114834441D01*
X156128382Y-114834441D01*
X156128385Y-114834443D01*
X156213915Y-114864371D01*
X156271607Y-114905749D01*
X156297769Y-114971749D01*
X156284096Y-115041417D01*
X156234929Y-115092633D01*
X156172300Y-115109300D01*
X154487100Y-115109300D01*
X154418979Y-115089298D01*
X154372486Y-115035642D01*
X154362382Y-114965368D01*
X154391876Y-114900788D01*
X154445485Y-114864371D01*
X154531015Y-114834443D01*
X154541518Y-114827843D01*
X154655519Y-114756213D01*
X154722555Y-114736900D01*
X155936845Y-114736900D01*
X156003881Y-114756213D01*
G37*
G04 #@! TD.AperFunction*
G04 #@! TA.AperFunction,Conductor*
G36*
X160396523Y-114129902D02*
G01*
X160443016Y-114183558D01*
X160453120Y-114253832D01*
X160423626Y-114318412D01*
X160417497Y-114324995D01*
X159670097Y-115072395D01*
X159607785Y-115106421D01*
X159581002Y-115109300D01*
X156790500Y-115109300D01*
X156722379Y-115089298D01*
X156675886Y-115035642D01*
X156665782Y-114965368D01*
X156695276Y-114900788D01*
X156748885Y-114864371D01*
X156834415Y-114834443D01*
X156988681Y-114737511D01*
X157117511Y-114608681D01*
X157214443Y-114454415D01*
X157274617Y-114282447D01*
X157281451Y-114221793D01*
X157308954Y-114156340D01*
X157367478Y-114116147D01*
X157406659Y-114109900D01*
X160328402Y-114109900D01*
X160396523Y-114129902D01*
G37*
G04 #@! TD.AperFunction*
G04 #@! TA.AperFunction,Conductor*
G36*
X138105637Y-104458741D02*
G01*
X138144628Y-104518072D01*
X138150100Y-104554802D01*
X138150100Y-107758405D01*
X138150100Y-109180804D01*
X138150100Y-109360796D01*
X138160987Y-109429533D01*
X138178256Y-109538572D01*
X138198963Y-109602298D01*
X138207950Y-109629957D01*
X138233877Y-109709752D01*
X138233878Y-109709755D01*
X138233880Y-109709759D01*
X138297663Y-109834941D01*
X138297665Y-109834943D01*
X138315591Y-109870125D01*
X138421387Y-110015741D01*
X138651452Y-110245806D01*
X138685476Y-110308117D01*
X138680412Y-110378932D01*
X138637865Y-110435768D01*
X138571345Y-110460579D01*
X138562356Y-110460900D01*
X135244243Y-110460900D01*
X135176122Y-110440898D01*
X135155148Y-110423995D01*
X131504146Y-106772991D01*
X131504143Y-106772989D01*
X131504142Y-106772988D01*
X131504141Y-106772987D01*
X131358525Y-106667191D01*
X131321670Y-106648412D01*
X131321670Y-106648411D01*
X131198159Y-106585480D01*
X131198147Y-106585475D01*
X131129227Y-106563082D01*
X131026972Y-106529856D01*
X130938083Y-106515778D01*
X130849196Y-106501700D01*
X130849195Y-106501700D01*
X130618405Y-106501700D01*
X130440630Y-106529857D01*
X130440624Y-106529858D01*
X130269452Y-106585475D01*
X130269446Y-106585478D01*
X130109071Y-106667193D01*
X129963457Y-106772988D01*
X129963454Y-106772991D01*
X129933395Y-106803051D01*
X129871083Y-106837077D01*
X129800268Y-106832012D01*
X129743432Y-106789465D01*
X129718621Y-106722945D01*
X129718300Y-106713956D01*
X129718300Y-105858700D01*
X129738302Y-105790579D01*
X129791958Y-105744086D01*
X129844300Y-105732700D01*
X136242940Y-105732700D01*
X136242941Y-105732700D01*
X136365719Y-105708278D01*
X136481372Y-105660373D01*
X136585458Y-105590825D01*
X137319399Y-104856882D01*
X137381710Y-104822859D01*
X137394388Y-104820771D01*
X137435689Y-104816118D01*
X137435689Y-104816117D01*
X137435697Y-104816117D01*
X137607665Y-104755943D01*
X137761931Y-104659011D01*
X137890761Y-104530181D01*
X137909633Y-104500147D01*
X137917413Y-104487766D01*
X137970591Y-104440728D01*
X138040758Y-104429908D01*
X138105637Y-104458741D01*
G37*
G04 #@! TD.AperFunction*
M02*
