G04 #@! TF.GenerationSoftware,KiCad,Pcbnew,8.0.5*
G04 #@! TF.CreationDate,2024-11-12T20:07:36-06:00*
G04 #@! TF.ProjectId,MonitoringSystem_PCB,4d6f6e69-746f-4726-996e-675379737465,rev?*
G04 #@! TF.SameCoordinates,Original*
G04 #@! TF.FileFunction,Legend,Top*
G04 #@! TF.FilePolarity,Positive*
%FSLAX46Y46*%
G04 Gerber Fmt 4.6, Leading zero omitted, Abs format (unit mm)*
G04 Created by KiCad (PCBNEW 8.0.5) date 2024-11-12 20:07:36*
%MOMM*%
%LPD*%
G01*
G04 APERTURE LIST*
G04 Aperture macros list*
%AMRoundRect*
0 Rectangle with rounded corners*
0 $1 Rounding radius*
0 $2 $3 $4 $5 $6 $7 $8 $9 X,Y pos of 4 corners*
0 Add a 4 corners polygon primitive as box body*
4,1,4,$2,$3,$4,$5,$6,$7,$8,$9,$2,$3,0*
0 Add four circle primitives for the rounded corners*
1,1,$1+$1,$2,$3*
1,1,$1+$1,$4,$5*
1,1,$1+$1,$6,$7*
1,1,$1+$1,$8,$9*
0 Add four rect primitives between the rounded corners*
20,1,$1+$1,$2,$3,$4,$5,0*
20,1,$1+$1,$4,$5,$6,$7,0*
20,1,$1+$1,$6,$7,$8,$9,0*
20,1,$1+$1,$8,$9,$2,$3,0*%
%AMFreePoly0*
4,1,6,1.000000,0.000000,0.500000,-0.750000,-0.500000,-0.750000,-0.500000,0.750000,0.500000,0.750000,1.000000,0.000000,1.000000,0.000000,$1*%
%AMFreePoly1*
4,1,6,0.500000,-0.750000,-0.650000,-0.750000,-0.150000,0.000000,-0.650000,0.750000,0.500000,0.750000,0.500000,-0.750000,0.500000,-0.750000,$1*%
G04 Aperture macros list end*
%ADD10C,0.150000*%
%ADD11C,0.120000*%
%ADD12C,0.200000*%
%ADD13C,0.152400*%
%ADD14C,0.127000*%
%ADD15RoundRect,0.250000X-0.262500X-0.450000X0.262500X-0.450000X0.262500X0.450000X-0.262500X0.450000X0*%
%ADD16RoundRect,0.250000X-0.450000X0.262500X-0.450000X-0.262500X0.450000X-0.262500X0.450000X0.262500X0*%
%ADD17RoundRect,0.250000X-0.620000X-0.845000X0.620000X-0.845000X0.620000X0.845000X-0.620000X0.845000X0*%
%ADD18O,1.740000X2.190000*%
%ADD19RoundRect,0.250000X0.262500X0.450000X-0.262500X0.450000X-0.262500X-0.450000X0.262500X-0.450000X0*%
%ADD20RoundRect,0.225000X-0.375000X0.225000X-0.375000X-0.225000X0.375000X-0.225000X0.375000X0.225000X0*%
%ADD21RoundRect,0.250000X-0.250000X-0.475000X0.250000X-0.475000X0.250000X0.475000X-0.250000X0.475000X0*%
%ADD22RoundRect,0.250000X-0.475000X0.250000X-0.475000X-0.250000X0.475000X-0.250000X0.475000X0.250000X0*%
%ADD23RoundRect,0.250000X0.250000X0.475000X-0.250000X0.475000X-0.250000X-0.475000X0.250000X-0.475000X0*%
%ADD24RoundRect,0.250000X0.450000X-0.262500X0.450000X0.262500X-0.450000X0.262500X-0.450000X-0.262500X0*%
%ADD25FreePoly0,270.000000*%
%ADD26FreePoly0,90.000000*%
%ADD27R,1.500000X1.500000*%
%ADD28R,1.550000X1.300000*%
%ADD29RoundRect,0.250000X-0.600000X-0.600000X0.600000X-0.600000X0.600000X0.600000X-0.600000X0.600000X0*%
%ADD30C,1.700000*%
%ADD31RoundRect,0.150000X0.587500X0.150000X-0.587500X0.150000X-0.587500X-0.150000X0.587500X-0.150000X0*%
%ADD32RoundRect,0.375000X0.625000X0.375000X-0.625000X0.375000X-0.625000X-0.375000X0.625000X-0.375000X0*%
%ADD33RoundRect,0.500000X0.500000X1.400000X-0.500000X1.400000X-0.500000X-1.400000X0.500000X-1.400000X0*%
%ADD34C,2.800000*%
%ADD35RoundRect,0.250000X0.475000X-0.250000X0.475000X0.250000X-0.475000X0.250000X-0.475000X-0.250000X0*%
%ADD36RoundRect,0.250000X-1.000000X-0.650000X1.000000X-0.650000X1.000000X0.650000X-1.000000X0.650000X0*%
%ADD37R,1.700000X1.700000*%
%ADD38O,1.700000X1.700000*%
%ADD39RoundRect,0.243750X0.243750X0.456250X-0.243750X0.456250X-0.243750X-0.456250X0.243750X-0.456250X0*%
%ADD40O,1.699999X0.349999*%
%ADD41FreePoly0,0.000000*%
%ADD42FreePoly0,180.000000*%
%ADD43O,0.349999X1.699999*%
%ADD44FreePoly1,180.000000*%
%ADD45R,1.498600X0.812800*%
%ADD46R,0.812800X1.498600*%
%ADD47R,0.889000X0.889000*%
%ADD48RoundRect,0.075000X-0.825000X-0.075000X0.825000X-0.075000X0.825000X0.075000X-0.825000X0.075000X0*%
%ADD49C,3.200000*%
%ADD50R,2.600000X2.600000*%
%ADD51RoundRect,0.062500X0.350000X-0.062500X0.350000X0.062500X-0.350000X0.062500X-0.350000X-0.062500X0*%
%ADD52RoundRect,0.062500X0.062500X-0.350000X0.062500X0.350000X-0.062500X0.350000X-0.062500X-0.350000X0*%
%ADD53RoundRect,0.102000X0.714000X-0.714000X0.714000X0.714000X-0.714000X0.714000X-0.714000X-0.714000X0*%
%ADD54C,1.632000*%
%ADD55C,3.520000*%
%ADD56RoundRect,0.225000X0.375000X-0.225000X0.375000X0.225000X-0.375000X0.225000X-0.375000X-0.225000X0*%
G04 APERTURE END LIST*
D10*
X159876819Y-123395657D02*
X159400628Y-123728990D01*
X159876819Y-123967085D02*
X158876819Y-123967085D01*
X158876819Y-123967085D02*
X158876819Y-123586133D01*
X158876819Y-123586133D02*
X158924438Y-123490895D01*
X158924438Y-123490895D02*
X158972057Y-123443276D01*
X158972057Y-123443276D02*
X159067295Y-123395657D01*
X159067295Y-123395657D02*
X159210152Y-123395657D01*
X159210152Y-123395657D02*
X159305390Y-123443276D01*
X159305390Y-123443276D02*
X159353009Y-123490895D01*
X159353009Y-123490895D02*
X159400628Y-123586133D01*
X159400628Y-123586133D02*
X159400628Y-123967085D01*
X158972057Y-123014704D02*
X158924438Y-122967085D01*
X158924438Y-122967085D02*
X158876819Y-122871847D01*
X158876819Y-122871847D02*
X158876819Y-122633752D01*
X158876819Y-122633752D02*
X158924438Y-122538514D01*
X158924438Y-122538514D02*
X158972057Y-122490895D01*
X158972057Y-122490895D02*
X159067295Y-122443276D01*
X159067295Y-122443276D02*
X159162533Y-122443276D01*
X159162533Y-122443276D02*
X159305390Y-122490895D01*
X159305390Y-122490895D02*
X159876819Y-123062323D01*
X159876819Y-123062323D02*
X159876819Y-122443276D01*
X159876819Y-121967085D02*
X159876819Y-121776609D01*
X159876819Y-121776609D02*
X159829200Y-121681371D01*
X159829200Y-121681371D02*
X159781580Y-121633752D01*
X159781580Y-121633752D02*
X159638723Y-121538514D01*
X159638723Y-121538514D02*
X159448247Y-121490895D01*
X159448247Y-121490895D02*
X159067295Y-121490895D01*
X159067295Y-121490895D02*
X158972057Y-121538514D01*
X158972057Y-121538514D02*
X158924438Y-121586133D01*
X158924438Y-121586133D02*
X158876819Y-121681371D01*
X158876819Y-121681371D02*
X158876819Y-121871847D01*
X158876819Y-121871847D02*
X158924438Y-121967085D01*
X158924438Y-121967085D02*
X158972057Y-122014704D01*
X158972057Y-122014704D02*
X159067295Y-122062323D01*
X159067295Y-122062323D02*
X159305390Y-122062323D01*
X159305390Y-122062323D02*
X159400628Y-122014704D01*
X159400628Y-122014704D02*
X159448247Y-121967085D01*
X159448247Y-121967085D02*
X159495866Y-121871847D01*
X159495866Y-121871847D02*
X159495866Y-121681371D01*
X159495866Y-121681371D02*
X159448247Y-121586133D01*
X159448247Y-121586133D02*
X159400628Y-121538514D01*
X159400628Y-121538514D02*
X159305390Y-121490895D01*
X163497419Y-111285257D02*
X163021228Y-111618590D01*
X163497419Y-111856685D02*
X162497419Y-111856685D01*
X162497419Y-111856685D02*
X162497419Y-111475733D01*
X162497419Y-111475733D02*
X162545038Y-111380495D01*
X162545038Y-111380495D02*
X162592657Y-111332876D01*
X162592657Y-111332876D02*
X162687895Y-111285257D01*
X162687895Y-111285257D02*
X162830752Y-111285257D01*
X162830752Y-111285257D02*
X162925990Y-111332876D01*
X162925990Y-111332876D02*
X162973609Y-111380495D01*
X162973609Y-111380495D02*
X163021228Y-111475733D01*
X163021228Y-111475733D02*
X163021228Y-111856685D01*
X162592657Y-110904304D02*
X162545038Y-110856685D01*
X162545038Y-110856685D02*
X162497419Y-110761447D01*
X162497419Y-110761447D02*
X162497419Y-110523352D01*
X162497419Y-110523352D02*
X162545038Y-110428114D01*
X162545038Y-110428114D02*
X162592657Y-110380495D01*
X162592657Y-110380495D02*
X162687895Y-110332876D01*
X162687895Y-110332876D02*
X162783133Y-110332876D01*
X162783133Y-110332876D02*
X162925990Y-110380495D01*
X162925990Y-110380495D02*
X163497419Y-110951923D01*
X163497419Y-110951923D02*
X163497419Y-110332876D01*
X162925990Y-109761447D02*
X162878371Y-109856685D01*
X162878371Y-109856685D02*
X162830752Y-109904304D01*
X162830752Y-109904304D02*
X162735514Y-109951923D01*
X162735514Y-109951923D02*
X162687895Y-109951923D01*
X162687895Y-109951923D02*
X162592657Y-109904304D01*
X162592657Y-109904304D02*
X162545038Y-109856685D01*
X162545038Y-109856685D02*
X162497419Y-109761447D01*
X162497419Y-109761447D02*
X162497419Y-109570971D01*
X162497419Y-109570971D02*
X162545038Y-109475733D01*
X162545038Y-109475733D02*
X162592657Y-109428114D01*
X162592657Y-109428114D02*
X162687895Y-109380495D01*
X162687895Y-109380495D02*
X162735514Y-109380495D01*
X162735514Y-109380495D02*
X162830752Y-109428114D01*
X162830752Y-109428114D02*
X162878371Y-109475733D01*
X162878371Y-109475733D02*
X162925990Y-109570971D01*
X162925990Y-109570971D02*
X162925990Y-109761447D01*
X162925990Y-109761447D02*
X162973609Y-109856685D01*
X162973609Y-109856685D02*
X163021228Y-109904304D01*
X163021228Y-109904304D02*
X163116466Y-109951923D01*
X163116466Y-109951923D02*
X163306942Y-109951923D01*
X163306942Y-109951923D02*
X163402180Y-109904304D01*
X163402180Y-109904304D02*
X163449800Y-109856685D01*
X163449800Y-109856685D02*
X163497419Y-109761447D01*
X163497419Y-109761447D02*
X163497419Y-109570971D01*
X163497419Y-109570971D02*
X163449800Y-109475733D01*
X163449800Y-109475733D02*
X163402180Y-109428114D01*
X163402180Y-109428114D02*
X163306942Y-109380495D01*
X163306942Y-109380495D02*
X163116466Y-109380495D01*
X163116466Y-109380495D02*
X163021228Y-109428114D01*
X163021228Y-109428114D02*
X162973609Y-109475733D01*
X162973609Y-109475733D02*
X162925990Y-109570971D01*
X162557142Y-102434819D02*
X162223809Y-101958628D01*
X161985714Y-102434819D02*
X161985714Y-101434819D01*
X161985714Y-101434819D02*
X162366666Y-101434819D01*
X162366666Y-101434819D02*
X162461904Y-101482438D01*
X162461904Y-101482438D02*
X162509523Y-101530057D01*
X162509523Y-101530057D02*
X162557142Y-101625295D01*
X162557142Y-101625295D02*
X162557142Y-101768152D01*
X162557142Y-101768152D02*
X162509523Y-101863390D01*
X162509523Y-101863390D02*
X162461904Y-101911009D01*
X162461904Y-101911009D02*
X162366666Y-101958628D01*
X162366666Y-101958628D02*
X161985714Y-101958628D01*
X162938095Y-101530057D02*
X162985714Y-101482438D01*
X162985714Y-101482438D02*
X163080952Y-101434819D01*
X163080952Y-101434819D02*
X163319047Y-101434819D01*
X163319047Y-101434819D02*
X163414285Y-101482438D01*
X163414285Y-101482438D02*
X163461904Y-101530057D01*
X163461904Y-101530057D02*
X163509523Y-101625295D01*
X163509523Y-101625295D02*
X163509523Y-101720533D01*
X163509523Y-101720533D02*
X163461904Y-101863390D01*
X163461904Y-101863390D02*
X162890476Y-102434819D01*
X162890476Y-102434819D02*
X163509523Y-102434819D01*
X163842857Y-101434819D02*
X164509523Y-101434819D01*
X164509523Y-101434819D02*
X164080952Y-102434819D01*
X154947819Y-112422057D02*
X154471628Y-112755390D01*
X154947819Y-112993485D02*
X153947819Y-112993485D01*
X153947819Y-112993485D02*
X153947819Y-112612533D01*
X153947819Y-112612533D02*
X153995438Y-112517295D01*
X153995438Y-112517295D02*
X154043057Y-112469676D01*
X154043057Y-112469676D02*
X154138295Y-112422057D01*
X154138295Y-112422057D02*
X154281152Y-112422057D01*
X154281152Y-112422057D02*
X154376390Y-112469676D01*
X154376390Y-112469676D02*
X154424009Y-112517295D01*
X154424009Y-112517295D02*
X154471628Y-112612533D01*
X154471628Y-112612533D02*
X154471628Y-112993485D01*
X154043057Y-112041104D02*
X153995438Y-111993485D01*
X153995438Y-111993485D02*
X153947819Y-111898247D01*
X153947819Y-111898247D02*
X153947819Y-111660152D01*
X153947819Y-111660152D02*
X153995438Y-111564914D01*
X153995438Y-111564914D02*
X154043057Y-111517295D01*
X154043057Y-111517295D02*
X154138295Y-111469676D01*
X154138295Y-111469676D02*
X154233533Y-111469676D01*
X154233533Y-111469676D02*
X154376390Y-111517295D01*
X154376390Y-111517295D02*
X154947819Y-112088723D01*
X154947819Y-112088723D02*
X154947819Y-111469676D01*
X153947819Y-110612533D02*
X153947819Y-110803009D01*
X153947819Y-110803009D02*
X153995438Y-110898247D01*
X153995438Y-110898247D02*
X154043057Y-110945866D01*
X154043057Y-110945866D02*
X154185914Y-111041104D01*
X154185914Y-111041104D02*
X154376390Y-111088723D01*
X154376390Y-111088723D02*
X154757342Y-111088723D01*
X154757342Y-111088723D02*
X154852580Y-111041104D01*
X154852580Y-111041104D02*
X154900200Y-110993485D01*
X154900200Y-110993485D02*
X154947819Y-110898247D01*
X154947819Y-110898247D02*
X154947819Y-110707771D01*
X154947819Y-110707771D02*
X154900200Y-110612533D01*
X154900200Y-110612533D02*
X154852580Y-110564914D01*
X154852580Y-110564914D02*
X154757342Y-110517295D01*
X154757342Y-110517295D02*
X154519247Y-110517295D01*
X154519247Y-110517295D02*
X154424009Y-110564914D01*
X154424009Y-110564914D02*
X154376390Y-110612533D01*
X154376390Y-110612533D02*
X154328771Y-110707771D01*
X154328771Y-110707771D02*
X154328771Y-110898247D01*
X154328771Y-110898247D02*
X154376390Y-110993485D01*
X154376390Y-110993485D02*
X154424009Y-111041104D01*
X154424009Y-111041104D02*
X154519247Y-111088723D01*
X162527142Y-99084819D02*
X162193809Y-98608628D01*
X161955714Y-99084819D02*
X161955714Y-98084819D01*
X161955714Y-98084819D02*
X162336666Y-98084819D01*
X162336666Y-98084819D02*
X162431904Y-98132438D01*
X162431904Y-98132438D02*
X162479523Y-98180057D01*
X162479523Y-98180057D02*
X162527142Y-98275295D01*
X162527142Y-98275295D02*
X162527142Y-98418152D01*
X162527142Y-98418152D02*
X162479523Y-98513390D01*
X162479523Y-98513390D02*
X162431904Y-98561009D01*
X162431904Y-98561009D02*
X162336666Y-98608628D01*
X162336666Y-98608628D02*
X161955714Y-98608628D01*
X162908095Y-98180057D02*
X162955714Y-98132438D01*
X162955714Y-98132438D02*
X163050952Y-98084819D01*
X163050952Y-98084819D02*
X163289047Y-98084819D01*
X163289047Y-98084819D02*
X163384285Y-98132438D01*
X163384285Y-98132438D02*
X163431904Y-98180057D01*
X163431904Y-98180057D02*
X163479523Y-98275295D01*
X163479523Y-98275295D02*
X163479523Y-98370533D01*
X163479523Y-98370533D02*
X163431904Y-98513390D01*
X163431904Y-98513390D02*
X162860476Y-99084819D01*
X162860476Y-99084819D02*
X163479523Y-99084819D01*
X164384285Y-98084819D02*
X163908095Y-98084819D01*
X163908095Y-98084819D02*
X163860476Y-98561009D01*
X163860476Y-98561009D02*
X163908095Y-98513390D01*
X163908095Y-98513390D02*
X164003333Y-98465771D01*
X164003333Y-98465771D02*
X164241428Y-98465771D01*
X164241428Y-98465771D02*
X164336666Y-98513390D01*
X164336666Y-98513390D02*
X164384285Y-98561009D01*
X164384285Y-98561009D02*
X164431904Y-98656247D01*
X164431904Y-98656247D02*
X164431904Y-98894342D01*
X164431904Y-98894342D02*
X164384285Y-98989580D01*
X164384285Y-98989580D02*
X164336666Y-99037200D01*
X164336666Y-99037200D02*
X164241428Y-99084819D01*
X164241428Y-99084819D02*
X164003333Y-99084819D01*
X164003333Y-99084819D02*
X163908095Y-99037200D01*
X163908095Y-99037200D02*
X163860476Y-98989580D01*
X162657142Y-105744819D02*
X162323809Y-105268628D01*
X162085714Y-105744819D02*
X162085714Y-104744819D01*
X162085714Y-104744819D02*
X162466666Y-104744819D01*
X162466666Y-104744819D02*
X162561904Y-104792438D01*
X162561904Y-104792438D02*
X162609523Y-104840057D01*
X162609523Y-104840057D02*
X162657142Y-104935295D01*
X162657142Y-104935295D02*
X162657142Y-105078152D01*
X162657142Y-105078152D02*
X162609523Y-105173390D01*
X162609523Y-105173390D02*
X162561904Y-105221009D01*
X162561904Y-105221009D02*
X162466666Y-105268628D01*
X162466666Y-105268628D02*
X162085714Y-105268628D01*
X163038095Y-104840057D02*
X163085714Y-104792438D01*
X163085714Y-104792438D02*
X163180952Y-104744819D01*
X163180952Y-104744819D02*
X163419047Y-104744819D01*
X163419047Y-104744819D02*
X163514285Y-104792438D01*
X163514285Y-104792438D02*
X163561904Y-104840057D01*
X163561904Y-104840057D02*
X163609523Y-104935295D01*
X163609523Y-104935295D02*
X163609523Y-105030533D01*
X163609523Y-105030533D02*
X163561904Y-105173390D01*
X163561904Y-105173390D02*
X162990476Y-105744819D01*
X162990476Y-105744819D02*
X163609523Y-105744819D01*
X164466666Y-105078152D02*
X164466666Y-105744819D01*
X164228571Y-104697200D02*
X163990476Y-105411485D01*
X163990476Y-105411485D02*
X164609523Y-105411485D01*
X128816666Y-116694819D02*
X128816666Y-117409104D01*
X128816666Y-117409104D02*
X128769047Y-117551961D01*
X128769047Y-117551961D02*
X128673809Y-117647200D01*
X128673809Y-117647200D02*
X128530952Y-117694819D01*
X128530952Y-117694819D02*
X128435714Y-117694819D01*
X129197619Y-116694819D02*
X129816666Y-116694819D01*
X129816666Y-116694819D02*
X129483333Y-117075771D01*
X129483333Y-117075771D02*
X129626190Y-117075771D01*
X129626190Y-117075771D02*
X129721428Y-117123390D01*
X129721428Y-117123390D02*
X129769047Y-117171009D01*
X129769047Y-117171009D02*
X129816666Y-117266247D01*
X129816666Y-117266247D02*
X129816666Y-117504342D01*
X129816666Y-117504342D02*
X129769047Y-117599580D01*
X129769047Y-117599580D02*
X129721428Y-117647200D01*
X129721428Y-117647200D02*
X129626190Y-117694819D01*
X129626190Y-117694819D02*
X129340476Y-117694819D01*
X129340476Y-117694819D02*
X129245238Y-117647200D01*
X129245238Y-117647200D02*
X129197619Y-117599580D01*
X121506666Y-116734819D02*
X121506666Y-117449104D01*
X121506666Y-117449104D02*
X121459047Y-117591961D01*
X121459047Y-117591961D02*
X121363809Y-117687200D01*
X121363809Y-117687200D02*
X121220952Y-117734819D01*
X121220952Y-117734819D02*
X121125714Y-117734819D01*
X122506666Y-117734819D02*
X121935238Y-117734819D01*
X122220952Y-117734819D02*
X122220952Y-116734819D01*
X122220952Y-116734819D02*
X122125714Y-116877676D01*
X122125714Y-116877676D02*
X122030476Y-116972914D01*
X122030476Y-116972914D02*
X121935238Y-117020533D01*
X127914819Y-113342857D02*
X127438628Y-113676190D01*
X127914819Y-113914285D02*
X126914819Y-113914285D01*
X126914819Y-113914285D02*
X126914819Y-113533333D01*
X126914819Y-113533333D02*
X126962438Y-113438095D01*
X126962438Y-113438095D02*
X127010057Y-113390476D01*
X127010057Y-113390476D02*
X127105295Y-113342857D01*
X127105295Y-113342857D02*
X127248152Y-113342857D01*
X127248152Y-113342857D02*
X127343390Y-113390476D01*
X127343390Y-113390476D02*
X127391009Y-113438095D01*
X127391009Y-113438095D02*
X127438628Y-113533333D01*
X127438628Y-113533333D02*
X127438628Y-113914285D01*
X127010057Y-112961904D02*
X126962438Y-112914285D01*
X126962438Y-112914285D02*
X126914819Y-112819047D01*
X126914819Y-112819047D02*
X126914819Y-112580952D01*
X126914819Y-112580952D02*
X126962438Y-112485714D01*
X126962438Y-112485714D02*
X127010057Y-112438095D01*
X127010057Y-112438095D02*
X127105295Y-112390476D01*
X127105295Y-112390476D02*
X127200533Y-112390476D01*
X127200533Y-112390476D02*
X127343390Y-112438095D01*
X127343390Y-112438095D02*
X127914819Y-113009523D01*
X127914819Y-113009523D02*
X127914819Y-112390476D01*
X126914819Y-112057142D02*
X126914819Y-111438095D01*
X126914819Y-111438095D02*
X127295771Y-111771428D01*
X127295771Y-111771428D02*
X127295771Y-111628571D01*
X127295771Y-111628571D02*
X127343390Y-111533333D01*
X127343390Y-111533333D02*
X127391009Y-111485714D01*
X127391009Y-111485714D02*
X127486247Y-111438095D01*
X127486247Y-111438095D02*
X127724342Y-111438095D01*
X127724342Y-111438095D02*
X127819580Y-111485714D01*
X127819580Y-111485714D02*
X127867200Y-111533333D01*
X127867200Y-111533333D02*
X127914819Y-111628571D01*
X127914819Y-111628571D02*
X127914819Y-111914285D01*
X127914819Y-111914285D02*
X127867200Y-112009523D01*
X127867200Y-112009523D02*
X127819580Y-112057142D01*
X127844819Y-115692857D02*
X127368628Y-116026190D01*
X127844819Y-116264285D02*
X126844819Y-116264285D01*
X126844819Y-116264285D02*
X126844819Y-115883333D01*
X126844819Y-115883333D02*
X126892438Y-115788095D01*
X126892438Y-115788095D02*
X126940057Y-115740476D01*
X126940057Y-115740476D02*
X127035295Y-115692857D01*
X127035295Y-115692857D02*
X127178152Y-115692857D01*
X127178152Y-115692857D02*
X127273390Y-115740476D01*
X127273390Y-115740476D02*
X127321009Y-115788095D01*
X127321009Y-115788095D02*
X127368628Y-115883333D01*
X127368628Y-115883333D02*
X127368628Y-116264285D01*
X126940057Y-115311904D02*
X126892438Y-115264285D01*
X126892438Y-115264285D02*
X126844819Y-115169047D01*
X126844819Y-115169047D02*
X126844819Y-114930952D01*
X126844819Y-114930952D02*
X126892438Y-114835714D01*
X126892438Y-114835714D02*
X126940057Y-114788095D01*
X126940057Y-114788095D02*
X127035295Y-114740476D01*
X127035295Y-114740476D02*
X127130533Y-114740476D01*
X127130533Y-114740476D02*
X127273390Y-114788095D01*
X127273390Y-114788095D02*
X127844819Y-115359523D01*
X127844819Y-115359523D02*
X127844819Y-114740476D01*
X126940057Y-114359523D02*
X126892438Y-114311904D01*
X126892438Y-114311904D02*
X126844819Y-114216666D01*
X126844819Y-114216666D02*
X126844819Y-113978571D01*
X126844819Y-113978571D02*
X126892438Y-113883333D01*
X126892438Y-113883333D02*
X126940057Y-113835714D01*
X126940057Y-113835714D02*
X127035295Y-113788095D01*
X127035295Y-113788095D02*
X127130533Y-113788095D01*
X127130533Y-113788095D02*
X127273390Y-113835714D01*
X127273390Y-113835714D02*
X127844819Y-114407142D01*
X127844819Y-114407142D02*
X127844819Y-113788095D01*
X162133114Y-124864019D02*
X162133114Y-123864019D01*
X162133114Y-123864019D02*
X162371209Y-123864019D01*
X162371209Y-123864019D02*
X162514066Y-123911638D01*
X162514066Y-123911638D02*
X162609304Y-124006876D01*
X162609304Y-124006876D02*
X162656923Y-124102114D01*
X162656923Y-124102114D02*
X162704542Y-124292590D01*
X162704542Y-124292590D02*
X162704542Y-124435447D01*
X162704542Y-124435447D02*
X162656923Y-124625923D01*
X162656923Y-124625923D02*
X162609304Y-124721161D01*
X162609304Y-124721161D02*
X162514066Y-124816400D01*
X162514066Y-124816400D02*
X162371209Y-124864019D01*
X162371209Y-124864019D02*
X162133114Y-124864019D01*
X163656923Y-124864019D02*
X163085495Y-124864019D01*
X163371209Y-124864019D02*
X163371209Y-123864019D01*
X163371209Y-123864019D02*
X163275971Y-124006876D01*
X163275971Y-124006876D02*
X163180733Y-124102114D01*
X163180733Y-124102114D02*
X163085495Y-124149733D01*
X164609304Y-124864019D02*
X164037876Y-124864019D01*
X164323590Y-124864019D02*
X164323590Y-123864019D01*
X164323590Y-123864019D02*
X164228352Y-124006876D01*
X164228352Y-124006876D02*
X164133114Y-124102114D01*
X164133114Y-124102114D02*
X164037876Y-124149733D01*
X162434914Y-113663519D02*
X162434914Y-112663519D01*
X162434914Y-112663519D02*
X162673009Y-112663519D01*
X162673009Y-112663519D02*
X162815866Y-112711138D01*
X162815866Y-112711138D02*
X162911104Y-112806376D01*
X162911104Y-112806376D02*
X162958723Y-112901614D01*
X162958723Y-112901614D02*
X163006342Y-113092090D01*
X163006342Y-113092090D02*
X163006342Y-113234947D01*
X163006342Y-113234947D02*
X162958723Y-113425423D01*
X162958723Y-113425423D02*
X162911104Y-113520661D01*
X162911104Y-113520661D02*
X162815866Y-113615900D01*
X162815866Y-113615900D02*
X162673009Y-113663519D01*
X162673009Y-113663519D02*
X162434914Y-113663519D01*
X163958723Y-113663519D02*
X163387295Y-113663519D01*
X163673009Y-113663519D02*
X163673009Y-112663519D01*
X163673009Y-112663519D02*
X163577771Y-112806376D01*
X163577771Y-112806376D02*
X163482533Y-112901614D01*
X163482533Y-112901614D02*
X163387295Y-112949233D01*
X164577771Y-112663519D02*
X164673009Y-112663519D01*
X164673009Y-112663519D02*
X164768247Y-112711138D01*
X164768247Y-112711138D02*
X164815866Y-112758757D01*
X164815866Y-112758757D02*
X164863485Y-112853995D01*
X164863485Y-112853995D02*
X164911104Y-113044471D01*
X164911104Y-113044471D02*
X164911104Y-113282566D01*
X164911104Y-113282566D02*
X164863485Y-113473042D01*
X164863485Y-113473042D02*
X164815866Y-113568280D01*
X164815866Y-113568280D02*
X164768247Y-113615900D01*
X164768247Y-113615900D02*
X164673009Y-113663519D01*
X164673009Y-113663519D02*
X164577771Y-113663519D01*
X164577771Y-113663519D02*
X164482533Y-113615900D01*
X164482533Y-113615900D02*
X164434914Y-113568280D01*
X164434914Y-113568280D02*
X164387295Y-113473042D01*
X164387295Y-113473042D02*
X164339676Y-113282566D01*
X164339676Y-113282566D02*
X164339676Y-113044471D01*
X164339676Y-113044471D02*
X164387295Y-112853995D01*
X164387295Y-112853995D02*
X164434914Y-112758757D01*
X164434914Y-112758757D02*
X164482533Y-112711138D01*
X164482533Y-112711138D02*
X164577771Y-112663519D01*
X165571105Y-113656019D02*
X165571105Y-112656019D01*
X165571105Y-112656019D02*
X165809200Y-112656019D01*
X165809200Y-112656019D02*
X165952057Y-112703638D01*
X165952057Y-112703638D02*
X166047295Y-112798876D01*
X166047295Y-112798876D02*
X166094914Y-112894114D01*
X166094914Y-112894114D02*
X166142533Y-113084590D01*
X166142533Y-113084590D02*
X166142533Y-113227447D01*
X166142533Y-113227447D02*
X166094914Y-113417923D01*
X166094914Y-113417923D02*
X166047295Y-113513161D01*
X166047295Y-113513161D02*
X165952057Y-113608400D01*
X165952057Y-113608400D02*
X165809200Y-113656019D01*
X165809200Y-113656019D02*
X165571105Y-113656019D01*
X166618724Y-113656019D02*
X166809200Y-113656019D01*
X166809200Y-113656019D02*
X166904438Y-113608400D01*
X166904438Y-113608400D02*
X166952057Y-113560780D01*
X166952057Y-113560780D02*
X167047295Y-113417923D01*
X167047295Y-113417923D02*
X167094914Y-113227447D01*
X167094914Y-113227447D02*
X167094914Y-112846495D01*
X167094914Y-112846495D02*
X167047295Y-112751257D01*
X167047295Y-112751257D02*
X166999676Y-112703638D01*
X166999676Y-112703638D02*
X166904438Y-112656019D01*
X166904438Y-112656019D02*
X166713962Y-112656019D01*
X166713962Y-112656019D02*
X166618724Y-112703638D01*
X166618724Y-112703638D02*
X166571105Y-112751257D01*
X166571105Y-112751257D02*
X166523486Y-112846495D01*
X166523486Y-112846495D02*
X166523486Y-113084590D01*
X166523486Y-113084590D02*
X166571105Y-113179828D01*
X166571105Y-113179828D02*
X166618724Y-113227447D01*
X166618724Y-113227447D02*
X166713962Y-113275066D01*
X166713962Y-113275066D02*
X166904438Y-113275066D01*
X166904438Y-113275066D02*
X166999676Y-113227447D01*
X166999676Y-113227447D02*
X167047295Y-113179828D01*
X167047295Y-113179828D02*
X167094914Y-113084590D01*
X165479505Y-124864019D02*
X165479505Y-123864019D01*
X165479505Y-123864019D02*
X165717600Y-123864019D01*
X165717600Y-123864019D02*
X165860457Y-123911638D01*
X165860457Y-123911638D02*
X165955695Y-124006876D01*
X165955695Y-124006876D02*
X166003314Y-124102114D01*
X166003314Y-124102114D02*
X166050933Y-124292590D01*
X166050933Y-124292590D02*
X166050933Y-124435447D01*
X166050933Y-124435447D02*
X166003314Y-124625923D01*
X166003314Y-124625923D02*
X165955695Y-124721161D01*
X165955695Y-124721161D02*
X165860457Y-124816400D01*
X165860457Y-124816400D02*
X165717600Y-124864019D01*
X165717600Y-124864019D02*
X165479505Y-124864019D01*
X166622362Y-124292590D02*
X166527124Y-124244971D01*
X166527124Y-124244971D02*
X166479505Y-124197352D01*
X166479505Y-124197352D02*
X166431886Y-124102114D01*
X166431886Y-124102114D02*
X166431886Y-124054495D01*
X166431886Y-124054495D02*
X166479505Y-123959257D01*
X166479505Y-123959257D02*
X166527124Y-123911638D01*
X166527124Y-123911638D02*
X166622362Y-123864019D01*
X166622362Y-123864019D02*
X166812838Y-123864019D01*
X166812838Y-123864019D02*
X166908076Y-123911638D01*
X166908076Y-123911638D02*
X166955695Y-123959257D01*
X166955695Y-123959257D02*
X167003314Y-124054495D01*
X167003314Y-124054495D02*
X167003314Y-124102114D01*
X167003314Y-124102114D02*
X166955695Y-124197352D01*
X166955695Y-124197352D02*
X166908076Y-124244971D01*
X166908076Y-124244971D02*
X166812838Y-124292590D01*
X166812838Y-124292590D02*
X166622362Y-124292590D01*
X166622362Y-124292590D02*
X166527124Y-124340209D01*
X166527124Y-124340209D02*
X166479505Y-124387828D01*
X166479505Y-124387828D02*
X166431886Y-124483066D01*
X166431886Y-124483066D02*
X166431886Y-124673542D01*
X166431886Y-124673542D02*
X166479505Y-124768780D01*
X166479505Y-124768780D02*
X166527124Y-124816400D01*
X166527124Y-124816400D02*
X166622362Y-124864019D01*
X166622362Y-124864019D02*
X166812838Y-124864019D01*
X166812838Y-124864019D02*
X166908076Y-124816400D01*
X166908076Y-124816400D02*
X166955695Y-124768780D01*
X166955695Y-124768780D02*
X167003314Y-124673542D01*
X167003314Y-124673542D02*
X167003314Y-124483066D01*
X167003314Y-124483066D02*
X166955695Y-124387828D01*
X166955695Y-124387828D02*
X166908076Y-124340209D01*
X166908076Y-124340209D02*
X166812838Y-124292590D01*
X121279580Y-115366666D02*
X121327200Y-115414285D01*
X121327200Y-115414285D02*
X121374819Y-115557142D01*
X121374819Y-115557142D02*
X121374819Y-115652380D01*
X121374819Y-115652380D02*
X121327200Y-115795237D01*
X121327200Y-115795237D02*
X121231961Y-115890475D01*
X121231961Y-115890475D02*
X121136723Y-115938094D01*
X121136723Y-115938094D02*
X120946247Y-115985713D01*
X120946247Y-115985713D02*
X120803390Y-115985713D01*
X120803390Y-115985713D02*
X120612914Y-115938094D01*
X120612914Y-115938094D02*
X120517676Y-115890475D01*
X120517676Y-115890475D02*
X120422438Y-115795237D01*
X120422438Y-115795237D02*
X120374819Y-115652380D01*
X120374819Y-115652380D02*
X120374819Y-115557142D01*
X120374819Y-115557142D02*
X120422438Y-115414285D01*
X120422438Y-115414285D02*
X120470057Y-115366666D01*
X121374819Y-114890475D02*
X121374819Y-114699999D01*
X121374819Y-114699999D02*
X121327200Y-114604761D01*
X121327200Y-114604761D02*
X121279580Y-114557142D01*
X121279580Y-114557142D02*
X121136723Y-114461904D01*
X121136723Y-114461904D02*
X120946247Y-114414285D01*
X120946247Y-114414285D02*
X120565295Y-114414285D01*
X120565295Y-114414285D02*
X120470057Y-114461904D01*
X120470057Y-114461904D02*
X120422438Y-114509523D01*
X120422438Y-114509523D02*
X120374819Y-114604761D01*
X120374819Y-114604761D02*
X120374819Y-114795237D01*
X120374819Y-114795237D02*
X120422438Y-114890475D01*
X120422438Y-114890475D02*
X120470057Y-114938094D01*
X120470057Y-114938094D02*
X120565295Y-114985713D01*
X120565295Y-114985713D02*
X120803390Y-114985713D01*
X120803390Y-114985713D02*
X120898628Y-114938094D01*
X120898628Y-114938094D02*
X120946247Y-114890475D01*
X120946247Y-114890475D02*
X120993866Y-114795237D01*
X120993866Y-114795237D02*
X120993866Y-114604761D01*
X120993866Y-114604761D02*
X120946247Y-114509523D01*
X120946247Y-114509523D02*
X120898628Y-114461904D01*
X120898628Y-114461904D02*
X120803390Y-114414285D01*
X121109580Y-113086666D02*
X121157200Y-113134285D01*
X121157200Y-113134285D02*
X121204819Y-113277142D01*
X121204819Y-113277142D02*
X121204819Y-113372380D01*
X121204819Y-113372380D02*
X121157200Y-113515237D01*
X121157200Y-113515237D02*
X121061961Y-113610475D01*
X121061961Y-113610475D02*
X120966723Y-113658094D01*
X120966723Y-113658094D02*
X120776247Y-113705713D01*
X120776247Y-113705713D02*
X120633390Y-113705713D01*
X120633390Y-113705713D02*
X120442914Y-113658094D01*
X120442914Y-113658094D02*
X120347676Y-113610475D01*
X120347676Y-113610475D02*
X120252438Y-113515237D01*
X120252438Y-113515237D02*
X120204819Y-113372380D01*
X120204819Y-113372380D02*
X120204819Y-113277142D01*
X120204819Y-113277142D02*
X120252438Y-113134285D01*
X120252438Y-113134285D02*
X120300057Y-113086666D01*
X120633390Y-112515237D02*
X120585771Y-112610475D01*
X120585771Y-112610475D02*
X120538152Y-112658094D01*
X120538152Y-112658094D02*
X120442914Y-112705713D01*
X120442914Y-112705713D02*
X120395295Y-112705713D01*
X120395295Y-112705713D02*
X120300057Y-112658094D01*
X120300057Y-112658094D02*
X120252438Y-112610475D01*
X120252438Y-112610475D02*
X120204819Y-112515237D01*
X120204819Y-112515237D02*
X120204819Y-112324761D01*
X120204819Y-112324761D02*
X120252438Y-112229523D01*
X120252438Y-112229523D02*
X120300057Y-112181904D01*
X120300057Y-112181904D02*
X120395295Y-112134285D01*
X120395295Y-112134285D02*
X120442914Y-112134285D01*
X120442914Y-112134285D02*
X120538152Y-112181904D01*
X120538152Y-112181904D02*
X120585771Y-112229523D01*
X120585771Y-112229523D02*
X120633390Y-112324761D01*
X120633390Y-112324761D02*
X120633390Y-112515237D01*
X120633390Y-112515237D02*
X120681009Y-112610475D01*
X120681009Y-112610475D02*
X120728628Y-112658094D01*
X120728628Y-112658094D02*
X120823866Y-112705713D01*
X120823866Y-112705713D02*
X121014342Y-112705713D01*
X121014342Y-112705713D02*
X121109580Y-112658094D01*
X121109580Y-112658094D02*
X121157200Y-112610475D01*
X121157200Y-112610475D02*
X121204819Y-112515237D01*
X121204819Y-112515237D02*
X121204819Y-112324761D01*
X121204819Y-112324761D02*
X121157200Y-112229523D01*
X121157200Y-112229523D02*
X121109580Y-112181904D01*
X121109580Y-112181904D02*
X121014342Y-112134285D01*
X121014342Y-112134285D02*
X120823866Y-112134285D01*
X120823866Y-112134285D02*
X120728628Y-112181904D01*
X120728628Y-112181904D02*
X120681009Y-112229523D01*
X120681009Y-112229523D02*
X120633390Y-112324761D01*
X191609580Y-122752857D02*
X191657200Y-122800476D01*
X191657200Y-122800476D02*
X191704819Y-122943333D01*
X191704819Y-122943333D02*
X191704819Y-123038571D01*
X191704819Y-123038571D02*
X191657200Y-123181428D01*
X191657200Y-123181428D02*
X191561961Y-123276666D01*
X191561961Y-123276666D02*
X191466723Y-123324285D01*
X191466723Y-123324285D02*
X191276247Y-123371904D01*
X191276247Y-123371904D02*
X191133390Y-123371904D01*
X191133390Y-123371904D02*
X190942914Y-123324285D01*
X190942914Y-123324285D02*
X190847676Y-123276666D01*
X190847676Y-123276666D02*
X190752438Y-123181428D01*
X190752438Y-123181428D02*
X190704819Y-123038571D01*
X190704819Y-123038571D02*
X190704819Y-122943333D01*
X190704819Y-122943333D02*
X190752438Y-122800476D01*
X190752438Y-122800476D02*
X190800057Y-122752857D01*
X190704819Y-122419523D02*
X190704819Y-121800476D01*
X190704819Y-121800476D02*
X191085771Y-122133809D01*
X191085771Y-122133809D02*
X191085771Y-121990952D01*
X191085771Y-121990952D02*
X191133390Y-121895714D01*
X191133390Y-121895714D02*
X191181009Y-121848095D01*
X191181009Y-121848095D02*
X191276247Y-121800476D01*
X191276247Y-121800476D02*
X191514342Y-121800476D01*
X191514342Y-121800476D02*
X191609580Y-121848095D01*
X191609580Y-121848095D02*
X191657200Y-121895714D01*
X191657200Y-121895714D02*
X191704819Y-121990952D01*
X191704819Y-121990952D02*
X191704819Y-122276666D01*
X191704819Y-122276666D02*
X191657200Y-122371904D01*
X191657200Y-122371904D02*
X191609580Y-122419523D01*
X190704819Y-121181428D02*
X190704819Y-121086190D01*
X190704819Y-121086190D02*
X190752438Y-120990952D01*
X190752438Y-120990952D02*
X190800057Y-120943333D01*
X190800057Y-120943333D02*
X190895295Y-120895714D01*
X190895295Y-120895714D02*
X191085771Y-120848095D01*
X191085771Y-120848095D02*
X191323866Y-120848095D01*
X191323866Y-120848095D02*
X191514342Y-120895714D01*
X191514342Y-120895714D02*
X191609580Y-120943333D01*
X191609580Y-120943333D02*
X191657200Y-120990952D01*
X191657200Y-120990952D02*
X191704819Y-121086190D01*
X191704819Y-121086190D02*
X191704819Y-121181428D01*
X191704819Y-121181428D02*
X191657200Y-121276666D01*
X191657200Y-121276666D02*
X191609580Y-121324285D01*
X191609580Y-121324285D02*
X191514342Y-121371904D01*
X191514342Y-121371904D02*
X191323866Y-121419523D01*
X191323866Y-121419523D02*
X191085771Y-121419523D01*
X191085771Y-121419523D02*
X190895295Y-121371904D01*
X190895295Y-121371904D02*
X190800057Y-121324285D01*
X190800057Y-121324285D02*
X190752438Y-121276666D01*
X190752438Y-121276666D02*
X190704819Y-121181428D01*
X162134933Y-84689180D02*
X162087314Y-84736800D01*
X162087314Y-84736800D02*
X161944457Y-84784419D01*
X161944457Y-84784419D02*
X161849219Y-84784419D01*
X161849219Y-84784419D02*
X161706362Y-84736800D01*
X161706362Y-84736800D02*
X161611124Y-84641561D01*
X161611124Y-84641561D02*
X161563505Y-84546323D01*
X161563505Y-84546323D02*
X161515886Y-84355847D01*
X161515886Y-84355847D02*
X161515886Y-84212990D01*
X161515886Y-84212990D02*
X161563505Y-84022514D01*
X161563505Y-84022514D02*
X161611124Y-83927276D01*
X161611124Y-83927276D02*
X161706362Y-83832038D01*
X161706362Y-83832038D02*
X161849219Y-83784419D01*
X161849219Y-83784419D02*
X161944457Y-83784419D01*
X161944457Y-83784419D02*
X162087314Y-83832038D01*
X162087314Y-83832038D02*
X162134933Y-83879657D01*
X162468267Y-83784419D02*
X163134933Y-83784419D01*
X163134933Y-83784419D02*
X162706362Y-84784419D01*
X176004819Y-88442857D02*
X175528628Y-88776190D01*
X176004819Y-89014285D02*
X175004819Y-89014285D01*
X175004819Y-89014285D02*
X175004819Y-88633333D01*
X175004819Y-88633333D02*
X175052438Y-88538095D01*
X175052438Y-88538095D02*
X175100057Y-88490476D01*
X175100057Y-88490476D02*
X175195295Y-88442857D01*
X175195295Y-88442857D02*
X175338152Y-88442857D01*
X175338152Y-88442857D02*
X175433390Y-88490476D01*
X175433390Y-88490476D02*
X175481009Y-88538095D01*
X175481009Y-88538095D02*
X175528628Y-88633333D01*
X175528628Y-88633333D02*
X175528628Y-89014285D01*
X176004819Y-87490476D02*
X176004819Y-88061904D01*
X176004819Y-87776190D02*
X175004819Y-87776190D01*
X175004819Y-87776190D02*
X175147676Y-87871428D01*
X175147676Y-87871428D02*
X175242914Y-87966666D01*
X175242914Y-87966666D02*
X175290533Y-88061904D01*
X175004819Y-87157142D02*
X175004819Y-86490476D01*
X175004819Y-86490476D02*
X176004819Y-86919047D01*
X160422719Y-114433933D02*
X161137004Y-114433933D01*
X161137004Y-114433933D02*
X161279861Y-114481552D01*
X161279861Y-114481552D02*
X161375100Y-114576790D01*
X161375100Y-114576790D02*
X161422719Y-114719647D01*
X161422719Y-114719647D02*
X161422719Y-114814885D01*
X161422719Y-113957742D02*
X160422719Y-113957742D01*
X160422719Y-113957742D02*
X160422719Y-113576790D01*
X160422719Y-113576790D02*
X160470338Y-113481552D01*
X160470338Y-113481552D02*
X160517957Y-113433933D01*
X160517957Y-113433933D02*
X160613195Y-113386314D01*
X160613195Y-113386314D02*
X160756052Y-113386314D01*
X160756052Y-113386314D02*
X160851290Y-113433933D01*
X160851290Y-113433933D02*
X160898909Y-113481552D01*
X160898909Y-113481552D02*
X160946528Y-113576790D01*
X160946528Y-113576790D02*
X160946528Y-113957742D01*
X160517957Y-113005361D02*
X160470338Y-112957742D01*
X160470338Y-112957742D02*
X160422719Y-112862504D01*
X160422719Y-112862504D02*
X160422719Y-112624409D01*
X160422719Y-112624409D02*
X160470338Y-112529171D01*
X160470338Y-112529171D02*
X160517957Y-112481552D01*
X160517957Y-112481552D02*
X160613195Y-112433933D01*
X160613195Y-112433933D02*
X160708433Y-112433933D01*
X160708433Y-112433933D02*
X160851290Y-112481552D01*
X160851290Y-112481552D02*
X161422719Y-113052980D01*
X161422719Y-113052980D02*
X161422719Y-112433933D01*
X122366667Y-81907200D02*
X122509524Y-81954819D01*
X122509524Y-81954819D02*
X122747619Y-81954819D01*
X122747619Y-81954819D02*
X122842857Y-81907200D01*
X122842857Y-81907200D02*
X122890476Y-81859580D01*
X122890476Y-81859580D02*
X122938095Y-81764342D01*
X122938095Y-81764342D02*
X122938095Y-81669104D01*
X122938095Y-81669104D02*
X122890476Y-81573866D01*
X122890476Y-81573866D02*
X122842857Y-81526247D01*
X122842857Y-81526247D02*
X122747619Y-81478628D01*
X122747619Y-81478628D02*
X122557143Y-81431009D01*
X122557143Y-81431009D02*
X122461905Y-81383390D01*
X122461905Y-81383390D02*
X122414286Y-81335771D01*
X122414286Y-81335771D02*
X122366667Y-81240533D01*
X122366667Y-81240533D02*
X122366667Y-81145295D01*
X122366667Y-81145295D02*
X122414286Y-81050057D01*
X122414286Y-81050057D02*
X122461905Y-81002438D01*
X122461905Y-81002438D02*
X122557143Y-80954819D01*
X122557143Y-80954819D02*
X122795238Y-80954819D01*
X122795238Y-80954819D02*
X122938095Y-81002438D01*
X123271429Y-80954819D02*
X123509524Y-81954819D01*
X123509524Y-81954819D02*
X123700000Y-81240533D01*
X123700000Y-81240533D02*
X123890476Y-81954819D01*
X123890476Y-81954819D02*
X124128572Y-80954819D01*
X125033333Y-81954819D02*
X124461905Y-81954819D01*
X124747619Y-81954819D02*
X124747619Y-80954819D01*
X124747619Y-80954819D02*
X124652381Y-81097676D01*
X124652381Y-81097676D02*
X124557143Y-81192914D01*
X124557143Y-81192914D02*
X124461905Y-81240533D01*
X184159580Y-87966666D02*
X184207200Y-88014285D01*
X184207200Y-88014285D02*
X184254819Y-88157142D01*
X184254819Y-88157142D02*
X184254819Y-88252380D01*
X184254819Y-88252380D02*
X184207200Y-88395237D01*
X184207200Y-88395237D02*
X184111961Y-88490475D01*
X184111961Y-88490475D02*
X184016723Y-88538094D01*
X184016723Y-88538094D02*
X183826247Y-88585713D01*
X183826247Y-88585713D02*
X183683390Y-88585713D01*
X183683390Y-88585713D02*
X183492914Y-88538094D01*
X183492914Y-88538094D02*
X183397676Y-88490475D01*
X183397676Y-88490475D02*
X183302438Y-88395237D01*
X183302438Y-88395237D02*
X183254819Y-88252380D01*
X183254819Y-88252380D02*
X183254819Y-88157142D01*
X183254819Y-88157142D02*
X183302438Y-88014285D01*
X183302438Y-88014285D02*
X183350057Y-87966666D01*
X184254819Y-87014285D02*
X184254819Y-87585713D01*
X184254819Y-87299999D02*
X183254819Y-87299999D01*
X183254819Y-87299999D02*
X183397676Y-87395237D01*
X183397676Y-87395237D02*
X183492914Y-87490475D01*
X183492914Y-87490475D02*
X183540533Y-87585713D01*
X151504819Y-112252857D02*
X151028628Y-112586190D01*
X151504819Y-112824285D02*
X150504819Y-112824285D01*
X150504819Y-112824285D02*
X150504819Y-112443333D01*
X150504819Y-112443333D02*
X150552438Y-112348095D01*
X150552438Y-112348095D02*
X150600057Y-112300476D01*
X150600057Y-112300476D02*
X150695295Y-112252857D01*
X150695295Y-112252857D02*
X150838152Y-112252857D01*
X150838152Y-112252857D02*
X150933390Y-112300476D01*
X150933390Y-112300476D02*
X150981009Y-112348095D01*
X150981009Y-112348095D02*
X151028628Y-112443333D01*
X151028628Y-112443333D02*
X151028628Y-112824285D01*
X151504819Y-111300476D02*
X151504819Y-111871904D01*
X151504819Y-111586190D02*
X150504819Y-111586190D01*
X150504819Y-111586190D02*
X150647676Y-111681428D01*
X150647676Y-111681428D02*
X150742914Y-111776666D01*
X150742914Y-111776666D02*
X150790533Y-111871904D01*
X150838152Y-110443333D02*
X151504819Y-110443333D01*
X150457200Y-110681428D02*
X151171485Y-110919523D01*
X151171485Y-110919523D02*
X151171485Y-110300476D01*
X180560742Y-93425180D02*
X180513123Y-93472800D01*
X180513123Y-93472800D02*
X180370266Y-93520419D01*
X180370266Y-93520419D02*
X180275028Y-93520419D01*
X180275028Y-93520419D02*
X180132171Y-93472800D01*
X180132171Y-93472800D02*
X180036933Y-93377561D01*
X180036933Y-93377561D02*
X179989314Y-93282323D01*
X179989314Y-93282323D02*
X179941695Y-93091847D01*
X179941695Y-93091847D02*
X179941695Y-92948990D01*
X179941695Y-92948990D02*
X179989314Y-92758514D01*
X179989314Y-92758514D02*
X180036933Y-92663276D01*
X180036933Y-92663276D02*
X180132171Y-92568038D01*
X180132171Y-92568038D02*
X180275028Y-92520419D01*
X180275028Y-92520419D02*
X180370266Y-92520419D01*
X180370266Y-92520419D02*
X180513123Y-92568038D01*
X180513123Y-92568038D02*
X180560742Y-92615657D01*
X180941695Y-92615657D02*
X180989314Y-92568038D01*
X180989314Y-92568038D02*
X181084552Y-92520419D01*
X181084552Y-92520419D02*
X181322647Y-92520419D01*
X181322647Y-92520419D02*
X181417885Y-92568038D01*
X181417885Y-92568038D02*
X181465504Y-92615657D01*
X181465504Y-92615657D02*
X181513123Y-92710895D01*
X181513123Y-92710895D02*
X181513123Y-92806133D01*
X181513123Y-92806133D02*
X181465504Y-92948990D01*
X181465504Y-92948990D02*
X180894076Y-93520419D01*
X180894076Y-93520419D02*
X181513123Y-93520419D01*
X181989314Y-93520419D02*
X182179790Y-93520419D01*
X182179790Y-93520419D02*
X182275028Y-93472800D01*
X182275028Y-93472800D02*
X182322647Y-93425180D01*
X182322647Y-93425180D02*
X182417885Y-93282323D01*
X182417885Y-93282323D02*
X182465504Y-93091847D01*
X182465504Y-93091847D02*
X182465504Y-92710895D01*
X182465504Y-92710895D02*
X182417885Y-92615657D01*
X182417885Y-92615657D02*
X182370266Y-92568038D01*
X182370266Y-92568038D02*
X182275028Y-92520419D01*
X182275028Y-92520419D02*
X182084552Y-92520419D01*
X182084552Y-92520419D02*
X181989314Y-92568038D01*
X181989314Y-92568038D02*
X181941695Y-92615657D01*
X181941695Y-92615657D02*
X181894076Y-92710895D01*
X181894076Y-92710895D02*
X181894076Y-92948990D01*
X181894076Y-92948990D02*
X181941695Y-93044228D01*
X181941695Y-93044228D02*
X181989314Y-93091847D01*
X181989314Y-93091847D02*
X182084552Y-93139466D01*
X182084552Y-93139466D02*
X182275028Y-93139466D01*
X182275028Y-93139466D02*
X182370266Y-93091847D01*
X182370266Y-93091847D02*
X182417885Y-93044228D01*
X182417885Y-93044228D02*
X182465504Y-92948990D01*
X173777332Y-124363820D02*
X173443999Y-123887629D01*
X173205904Y-124363820D02*
X173205904Y-123363820D01*
X173205904Y-123363820D02*
X173586856Y-123363820D01*
X173586856Y-123363820D02*
X173682094Y-123411439D01*
X173682094Y-123411439D02*
X173729713Y-123459058D01*
X173729713Y-123459058D02*
X173777332Y-123554296D01*
X173777332Y-123554296D02*
X173777332Y-123697153D01*
X173777332Y-123697153D02*
X173729713Y-123792391D01*
X173729713Y-123792391D02*
X173682094Y-123840010D01*
X173682094Y-123840010D02*
X173586856Y-123887629D01*
X173586856Y-123887629D02*
X173205904Y-123887629D01*
X174110666Y-123363820D02*
X174777332Y-123363820D01*
X174777332Y-123363820D02*
X174348761Y-124363820D01*
X116659666Y-90012019D02*
X116659666Y-90726304D01*
X116659666Y-90726304D02*
X116612047Y-90869161D01*
X116612047Y-90869161D02*
X116516809Y-90964400D01*
X116516809Y-90964400D02*
X116373952Y-91012019D01*
X116373952Y-91012019D02*
X116278714Y-91012019D01*
X117564428Y-90345352D02*
X117564428Y-91012019D01*
X117326333Y-89964400D02*
X117088238Y-90678685D01*
X117088238Y-90678685D02*
X117707285Y-90678685D01*
X166734261Y-97946057D02*
X166639023Y-97898438D01*
X166639023Y-97898438D02*
X166543785Y-97803200D01*
X166543785Y-97803200D02*
X166400928Y-97660342D01*
X166400928Y-97660342D02*
X166305690Y-97612723D01*
X166305690Y-97612723D02*
X166210452Y-97612723D01*
X166258071Y-97850819D02*
X166162833Y-97803200D01*
X166162833Y-97803200D02*
X166067595Y-97707961D01*
X166067595Y-97707961D02*
X166019976Y-97517485D01*
X166019976Y-97517485D02*
X166019976Y-97184152D01*
X166019976Y-97184152D02*
X166067595Y-96993676D01*
X166067595Y-96993676D02*
X166162833Y-96898438D01*
X166162833Y-96898438D02*
X166258071Y-96850819D01*
X166258071Y-96850819D02*
X166448547Y-96850819D01*
X166448547Y-96850819D02*
X166543785Y-96898438D01*
X166543785Y-96898438D02*
X166639023Y-96993676D01*
X166639023Y-96993676D02*
X166686642Y-97184152D01*
X166686642Y-97184152D02*
X166686642Y-97517485D01*
X166686642Y-97517485D02*
X166639023Y-97707961D01*
X166639023Y-97707961D02*
X166543785Y-97803200D01*
X166543785Y-97803200D02*
X166448547Y-97850819D01*
X166448547Y-97850819D02*
X166258071Y-97850819D01*
X167067595Y-96946057D02*
X167115214Y-96898438D01*
X167115214Y-96898438D02*
X167210452Y-96850819D01*
X167210452Y-96850819D02*
X167448547Y-96850819D01*
X167448547Y-96850819D02*
X167543785Y-96898438D01*
X167543785Y-96898438D02*
X167591404Y-96946057D01*
X167591404Y-96946057D02*
X167639023Y-97041295D01*
X167639023Y-97041295D02*
X167639023Y-97136533D01*
X167639023Y-97136533D02*
X167591404Y-97279390D01*
X167591404Y-97279390D02*
X167019976Y-97850819D01*
X167019976Y-97850819D02*
X167639023Y-97850819D01*
X130907142Y-99709580D02*
X130859523Y-99757200D01*
X130859523Y-99757200D02*
X130716666Y-99804819D01*
X130716666Y-99804819D02*
X130621428Y-99804819D01*
X130621428Y-99804819D02*
X130478571Y-99757200D01*
X130478571Y-99757200D02*
X130383333Y-99661961D01*
X130383333Y-99661961D02*
X130335714Y-99566723D01*
X130335714Y-99566723D02*
X130288095Y-99376247D01*
X130288095Y-99376247D02*
X130288095Y-99233390D01*
X130288095Y-99233390D02*
X130335714Y-99042914D01*
X130335714Y-99042914D02*
X130383333Y-98947676D01*
X130383333Y-98947676D02*
X130478571Y-98852438D01*
X130478571Y-98852438D02*
X130621428Y-98804819D01*
X130621428Y-98804819D02*
X130716666Y-98804819D01*
X130716666Y-98804819D02*
X130859523Y-98852438D01*
X130859523Y-98852438D02*
X130907142Y-98900057D01*
X131288095Y-98900057D02*
X131335714Y-98852438D01*
X131335714Y-98852438D02*
X131430952Y-98804819D01*
X131430952Y-98804819D02*
X131669047Y-98804819D01*
X131669047Y-98804819D02*
X131764285Y-98852438D01*
X131764285Y-98852438D02*
X131811904Y-98900057D01*
X131811904Y-98900057D02*
X131859523Y-98995295D01*
X131859523Y-98995295D02*
X131859523Y-99090533D01*
X131859523Y-99090533D02*
X131811904Y-99233390D01*
X131811904Y-99233390D02*
X131240476Y-99804819D01*
X131240476Y-99804819D02*
X131859523Y-99804819D01*
X132764285Y-98804819D02*
X132288095Y-98804819D01*
X132288095Y-98804819D02*
X132240476Y-99281009D01*
X132240476Y-99281009D02*
X132288095Y-99233390D01*
X132288095Y-99233390D02*
X132383333Y-99185771D01*
X132383333Y-99185771D02*
X132621428Y-99185771D01*
X132621428Y-99185771D02*
X132716666Y-99233390D01*
X132716666Y-99233390D02*
X132764285Y-99281009D01*
X132764285Y-99281009D02*
X132811904Y-99376247D01*
X132811904Y-99376247D02*
X132811904Y-99614342D01*
X132811904Y-99614342D02*
X132764285Y-99709580D01*
X132764285Y-99709580D02*
X132716666Y-99757200D01*
X132716666Y-99757200D02*
X132621428Y-99804819D01*
X132621428Y-99804819D02*
X132383333Y-99804819D01*
X132383333Y-99804819D02*
X132288095Y-99757200D01*
X132288095Y-99757200D02*
X132240476Y-99709580D01*
X164724933Y-86555619D02*
X164391600Y-86079428D01*
X164153505Y-86555619D02*
X164153505Y-85555619D01*
X164153505Y-85555619D02*
X164534457Y-85555619D01*
X164534457Y-85555619D02*
X164629695Y-85603238D01*
X164629695Y-85603238D02*
X164677314Y-85650857D01*
X164677314Y-85650857D02*
X164724933Y-85746095D01*
X164724933Y-85746095D02*
X164724933Y-85888952D01*
X164724933Y-85888952D02*
X164677314Y-85984190D01*
X164677314Y-85984190D02*
X164629695Y-86031809D01*
X164629695Y-86031809D02*
X164534457Y-86079428D01*
X164534457Y-86079428D02*
X164153505Y-86079428D01*
X165582076Y-85888952D02*
X165582076Y-86555619D01*
X165343981Y-85508000D02*
X165105886Y-86222285D01*
X165105886Y-86222285D02*
X165724933Y-86222285D01*
X162171619Y-111197466D02*
X161695428Y-111530799D01*
X162171619Y-111768894D02*
X161171619Y-111768894D01*
X161171619Y-111768894D02*
X161171619Y-111387942D01*
X161171619Y-111387942D02*
X161219238Y-111292704D01*
X161219238Y-111292704D02*
X161266857Y-111245085D01*
X161266857Y-111245085D02*
X161362095Y-111197466D01*
X161362095Y-111197466D02*
X161504952Y-111197466D01*
X161504952Y-111197466D02*
X161600190Y-111245085D01*
X161600190Y-111245085D02*
X161647809Y-111292704D01*
X161647809Y-111292704D02*
X161695428Y-111387942D01*
X161695428Y-111387942D02*
X161695428Y-111768894D01*
X162171619Y-110721275D02*
X162171619Y-110530799D01*
X162171619Y-110530799D02*
X162124000Y-110435561D01*
X162124000Y-110435561D02*
X162076380Y-110387942D01*
X162076380Y-110387942D02*
X161933523Y-110292704D01*
X161933523Y-110292704D02*
X161743047Y-110245085D01*
X161743047Y-110245085D02*
X161362095Y-110245085D01*
X161362095Y-110245085D02*
X161266857Y-110292704D01*
X161266857Y-110292704D02*
X161219238Y-110340323D01*
X161219238Y-110340323D02*
X161171619Y-110435561D01*
X161171619Y-110435561D02*
X161171619Y-110626037D01*
X161171619Y-110626037D02*
X161219238Y-110721275D01*
X161219238Y-110721275D02*
X161266857Y-110768894D01*
X161266857Y-110768894D02*
X161362095Y-110816513D01*
X161362095Y-110816513D02*
X161600190Y-110816513D01*
X161600190Y-110816513D02*
X161695428Y-110768894D01*
X161695428Y-110768894D02*
X161743047Y-110721275D01*
X161743047Y-110721275D02*
X161790666Y-110626037D01*
X161790666Y-110626037D02*
X161790666Y-110435561D01*
X161790666Y-110435561D02*
X161743047Y-110340323D01*
X161743047Y-110340323D02*
X161695428Y-110292704D01*
X161695428Y-110292704D02*
X161600190Y-110245085D01*
X184013095Y-115229819D02*
X184013095Y-116039342D01*
X184013095Y-116039342D02*
X184060714Y-116134580D01*
X184060714Y-116134580D02*
X184108333Y-116182200D01*
X184108333Y-116182200D02*
X184203571Y-116229819D01*
X184203571Y-116229819D02*
X184394047Y-116229819D01*
X184394047Y-116229819D02*
X184489285Y-116182200D01*
X184489285Y-116182200D02*
X184536904Y-116134580D01*
X184536904Y-116134580D02*
X184584523Y-116039342D01*
X184584523Y-116039342D02*
X184584523Y-115229819D01*
X185489285Y-115229819D02*
X185298809Y-115229819D01*
X185298809Y-115229819D02*
X185203571Y-115277438D01*
X185203571Y-115277438D02*
X185155952Y-115325057D01*
X185155952Y-115325057D02*
X185060714Y-115467914D01*
X185060714Y-115467914D02*
X185013095Y-115658390D01*
X185013095Y-115658390D02*
X185013095Y-116039342D01*
X185013095Y-116039342D02*
X185060714Y-116134580D01*
X185060714Y-116134580D02*
X185108333Y-116182200D01*
X185108333Y-116182200D02*
X185203571Y-116229819D01*
X185203571Y-116229819D02*
X185394047Y-116229819D01*
X185394047Y-116229819D02*
X185489285Y-116182200D01*
X185489285Y-116182200D02*
X185536904Y-116134580D01*
X185536904Y-116134580D02*
X185584523Y-116039342D01*
X185584523Y-116039342D02*
X185584523Y-115801247D01*
X185584523Y-115801247D02*
X185536904Y-115706009D01*
X185536904Y-115706009D02*
X185489285Y-115658390D01*
X185489285Y-115658390D02*
X185394047Y-115610771D01*
X185394047Y-115610771D02*
X185203571Y-115610771D01*
X185203571Y-115610771D02*
X185108333Y-115658390D01*
X185108333Y-115658390D02*
X185060714Y-115706009D01*
X185060714Y-115706009D02*
X185013095Y-115801247D01*
X187645095Y-123884419D02*
X188216523Y-123884419D01*
X187930809Y-124884419D02*
X187930809Y-123884419D01*
X188549857Y-124884419D02*
X188549857Y-123884419D01*
X188549857Y-123884419D02*
X188930809Y-123884419D01*
X188930809Y-123884419D02*
X189026047Y-123932038D01*
X189026047Y-123932038D02*
X189073666Y-123979657D01*
X189073666Y-123979657D02*
X189121285Y-124074895D01*
X189121285Y-124074895D02*
X189121285Y-124217752D01*
X189121285Y-124217752D02*
X189073666Y-124312990D01*
X189073666Y-124312990D02*
X189026047Y-124360609D01*
X189026047Y-124360609D02*
X188930809Y-124408228D01*
X188930809Y-124408228D02*
X188549857Y-124408228D01*
X190026047Y-123884419D02*
X189549857Y-123884419D01*
X189549857Y-123884419D02*
X189502238Y-124360609D01*
X189502238Y-124360609D02*
X189549857Y-124312990D01*
X189549857Y-124312990D02*
X189645095Y-124265371D01*
X189645095Y-124265371D02*
X189883190Y-124265371D01*
X189883190Y-124265371D02*
X189978428Y-124312990D01*
X189978428Y-124312990D02*
X190026047Y-124360609D01*
X190026047Y-124360609D02*
X190073666Y-124455847D01*
X190073666Y-124455847D02*
X190073666Y-124693942D01*
X190073666Y-124693942D02*
X190026047Y-124789180D01*
X190026047Y-124789180D02*
X189978428Y-124836800D01*
X189978428Y-124836800D02*
X189883190Y-124884419D01*
X189883190Y-124884419D02*
X189645095Y-124884419D01*
X189645095Y-124884419D02*
X189549857Y-124836800D01*
X189549857Y-124836800D02*
X189502238Y-124789180D01*
X166103379Y-108043658D02*
X166150999Y-108091277D01*
X166150999Y-108091277D02*
X166198618Y-108234134D01*
X166198618Y-108234134D02*
X166198618Y-108329372D01*
X166198618Y-108329372D02*
X166150999Y-108472229D01*
X166150999Y-108472229D02*
X166055760Y-108567467D01*
X166055760Y-108567467D02*
X165960522Y-108615086D01*
X165960522Y-108615086D02*
X165770046Y-108662705D01*
X165770046Y-108662705D02*
X165627189Y-108662705D01*
X165627189Y-108662705D02*
X165436713Y-108615086D01*
X165436713Y-108615086D02*
X165341475Y-108567467D01*
X165341475Y-108567467D02*
X165246237Y-108472229D01*
X165246237Y-108472229D02*
X165198618Y-108329372D01*
X165198618Y-108329372D02*
X165198618Y-108234134D01*
X165198618Y-108234134D02*
X165246237Y-108091277D01*
X165246237Y-108091277D02*
X165293856Y-108043658D01*
X166198618Y-107091277D02*
X166198618Y-107662705D01*
X166198618Y-107376991D02*
X165198618Y-107376991D01*
X165198618Y-107376991D02*
X165341475Y-107472229D01*
X165341475Y-107472229D02*
X165436713Y-107567467D01*
X165436713Y-107567467D02*
X165484332Y-107662705D01*
X165198618Y-106757943D02*
X165198618Y-106091277D01*
X165198618Y-106091277D02*
X166198618Y-106519848D01*
X159862219Y-121182057D02*
X159386028Y-121515390D01*
X159862219Y-121753485D02*
X158862219Y-121753485D01*
X158862219Y-121753485D02*
X158862219Y-121372533D01*
X158862219Y-121372533D02*
X158909838Y-121277295D01*
X158909838Y-121277295D02*
X158957457Y-121229676D01*
X158957457Y-121229676D02*
X159052695Y-121182057D01*
X159052695Y-121182057D02*
X159195552Y-121182057D01*
X159195552Y-121182057D02*
X159290790Y-121229676D01*
X159290790Y-121229676D02*
X159338409Y-121277295D01*
X159338409Y-121277295D02*
X159386028Y-121372533D01*
X159386028Y-121372533D02*
X159386028Y-121753485D01*
X159862219Y-120229676D02*
X159862219Y-120801104D01*
X159862219Y-120515390D02*
X158862219Y-120515390D01*
X158862219Y-120515390D02*
X159005076Y-120610628D01*
X159005076Y-120610628D02*
X159100314Y-120705866D01*
X159100314Y-120705866D02*
X159147933Y-120801104D01*
X158862219Y-119896342D02*
X158862219Y-119277295D01*
X158862219Y-119277295D02*
X159243171Y-119610628D01*
X159243171Y-119610628D02*
X159243171Y-119467771D01*
X159243171Y-119467771D02*
X159290790Y-119372533D01*
X159290790Y-119372533D02*
X159338409Y-119324914D01*
X159338409Y-119324914D02*
X159433647Y-119277295D01*
X159433647Y-119277295D02*
X159671742Y-119277295D01*
X159671742Y-119277295D02*
X159766980Y-119324914D01*
X159766980Y-119324914D02*
X159814600Y-119372533D01*
X159814600Y-119372533D02*
X159862219Y-119467771D01*
X159862219Y-119467771D02*
X159862219Y-119753485D01*
X159862219Y-119753485D02*
X159814600Y-119848723D01*
X159814600Y-119848723D02*
X159766980Y-119896342D01*
X146349733Y-111985419D02*
X146016400Y-111509228D01*
X145778305Y-111985419D02*
X145778305Y-110985419D01*
X145778305Y-110985419D02*
X146159257Y-110985419D01*
X146159257Y-110985419D02*
X146254495Y-111033038D01*
X146254495Y-111033038D02*
X146302114Y-111080657D01*
X146302114Y-111080657D02*
X146349733Y-111175895D01*
X146349733Y-111175895D02*
X146349733Y-111318752D01*
X146349733Y-111318752D02*
X146302114Y-111413990D01*
X146302114Y-111413990D02*
X146254495Y-111461609D01*
X146254495Y-111461609D02*
X146159257Y-111509228D01*
X146159257Y-111509228D02*
X145778305Y-111509228D01*
X147206876Y-110985419D02*
X147016400Y-110985419D01*
X147016400Y-110985419D02*
X146921162Y-111033038D01*
X146921162Y-111033038D02*
X146873543Y-111080657D01*
X146873543Y-111080657D02*
X146778305Y-111223514D01*
X146778305Y-111223514D02*
X146730686Y-111413990D01*
X146730686Y-111413990D02*
X146730686Y-111794942D01*
X146730686Y-111794942D02*
X146778305Y-111890180D01*
X146778305Y-111890180D02*
X146825924Y-111937800D01*
X146825924Y-111937800D02*
X146921162Y-111985419D01*
X146921162Y-111985419D02*
X147111638Y-111985419D01*
X147111638Y-111985419D02*
X147206876Y-111937800D01*
X147206876Y-111937800D02*
X147254495Y-111890180D01*
X147254495Y-111890180D02*
X147302114Y-111794942D01*
X147302114Y-111794942D02*
X147302114Y-111556847D01*
X147302114Y-111556847D02*
X147254495Y-111461609D01*
X147254495Y-111461609D02*
X147206876Y-111413990D01*
X147206876Y-111413990D02*
X147111638Y-111366371D01*
X147111638Y-111366371D02*
X146921162Y-111366371D01*
X146921162Y-111366371D02*
X146825924Y-111413990D01*
X146825924Y-111413990D02*
X146778305Y-111461609D01*
X146778305Y-111461609D02*
X146730686Y-111556847D01*
X192254819Y-107138094D02*
X191254819Y-107138094D01*
X191254819Y-107138094D02*
X191254819Y-106899999D01*
X191254819Y-106899999D02*
X191302438Y-106757142D01*
X191302438Y-106757142D02*
X191397676Y-106661904D01*
X191397676Y-106661904D02*
X191492914Y-106614285D01*
X191492914Y-106614285D02*
X191683390Y-106566666D01*
X191683390Y-106566666D02*
X191826247Y-106566666D01*
X191826247Y-106566666D02*
X192016723Y-106614285D01*
X192016723Y-106614285D02*
X192111961Y-106661904D01*
X192111961Y-106661904D02*
X192207200Y-106757142D01*
X192207200Y-106757142D02*
X192254819Y-106899999D01*
X192254819Y-106899999D02*
X192254819Y-107138094D01*
X191350057Y-106185713D02*
X191302438Y-106138094D01*
X191302438Y-106138094D02*
X191254819Y-106042856D01*
X191254819Y-106042856D02*
X191254819Y-105804761D01*
X191254819Y-105804761D02*
X191302438Y-105709523D01*
X191302438Y-105709523D02*
X191350057Y-105661904D01*
X191350057Y-105661904D02*
X191445295Y-105614285D01*
X191445295Y-105614285D02*
X191540533Y-105614285D01*
X191540533Y-105614285D02*
X191683390Y-105661904D01*
X191683390Y-105661904D02*
X192254819Y-106233332D01*
X192254819Y-106233332D02*
X192254819Y-105614285D01*
X181087733Y-90017980D02*
X181040114Y-90065600D01*
X181040114Y-90065600D02*
X180897257Y-90113219D01*
X180897257Y-90113219D02*
X180802019Y-90113219D01*
X180802019Y-90113219D02*
X180659162Y-90065600D01*
X180659162Y-90065600D02*
X180563924Y-89970361D01*
X180563924Y-89970361D02*
X180516305Y-89875123D01*
X180516305Y-89875123D02*
X180468686Y-89684647D01*
X180468686Y-89684647D02*
X180468686Y-89541790D01*
X180468686Y-89541790D02*
X180516305Y-89351314D01*
X180516305Y-89351314D02*
X180563924Y-89256076D01*
X180563924Y-89256076D02*
X180659162Y-89160838D01*
X180659162Y-89160838D02*
X180802019Y-89113219D01*
X180802019Y-89113219D02*
X180897257Y-89113219D01*
X180897257Y-89113219D02*
X181040114Y-89160838D01*
X181040114Y-89160838D02*
X181087733Y-89208457D01*
X181421067Y-89113219D02*
X182040114Y-89113219D01*
X182040114Y-89113219D02*
X181706781Y-89494171D01*
X181706781Y-89494171D02*
X181849638Y-89494171D01*
X181849638Y-89494171D02*
X181944876Y-89541790D01*
X181944876Y-89541790D02*
X181992495Y-89589409D01*
X181992495Y-89589409D02*
X182040114Y-89684647D01*
X182040114Y-89684647D02*
X182040114Y-89922742D01*
X182040114Y-89922742D02*
X181992495Y-90017980D01*
X181992495Y-90017980D02*
X181944876Y-90065600D01*
X181944876Y-90065600D02*
X181849638Y-90113219D01*
X181849638Y-90113219D02*
X181563924Y-90113219D01*
X181563924Y-90113219D02*
X181468686Y-90065600D01*
X181468686Y-90065600D02*
X181421067Y-90017980D01*
X148217142Y-114949580D02*
X148169523Y-114997200D01*
X148169523Y-114997200D02*
X148026666Y-115044819D01*
X148026666Y-115044819D02*
X147931428Y-115044819D01*
X147931428Y-115044819D02*
X147788571Y-114997200D01*
X147788571Y-114997200D02*
X147693333Y-114901961D01*
X147693333Y-114901961D02*
X147645714Y-114806723D01*
X147645714Y-114806723D02*
X147598095Y-114616247D01*
X147598095Y-114616247D02*
X147598095Y-114473390D01*
X147598095Y-114473390D02*
X147645714Y-114282914D01*
X147645714Y-114282914D02*
X147693333Y-114187676D01*
X147693333Y-114187676D02*
X147788571Y-114092438D01*
X147788571Y-114092438D02*
X147931428Y-114044819D01*
X147931428Y-114044819D02*
X148026666Y-114044819D01*
X148026666Y-114044819D02*
X148169523Y-114092438D01*
X148169523Y-114092438D02*
X148217142Y-114140057D01*
X149169523Y-115044819D02*
X148598095Y-115044819D01*
X148883809Y-115044819D02*
X148883809Y-114044819D01*
X148883809Y-114044819D02*
X148788571Y-114187676D01*
X148788571Y-114187676D02*
X148693333Y-114282914D01*
X148693333Y-114282914D02*
X148598095Y-114330533D01*
X149550476Y-114140057D02*
X149598095Y-114092438D01*
X149598095Y-114092438D02*
X149693333Y-114044819D01*
X149693333Y-114044819D02*
X149931428Y-114044819D01*
X149931428Y-114044819D02*
X150026666Y-114092438D01*
X150026666Y-114092438D02*
X150074285Y-114140057D01*
X150074285Y-114140057D02*
X150121904Y-114235295D01*
X150121904Y-114235295D02*
X150121904Y-114330533D01*
X150121904Y-114330533D02*
X150074285Y-114473390D01*
X150074285Y-114473390D02*
X149502857Y-115044819D01*
X149502857Y-115044819D02*
X150121904Y-115044819D01*
X174874819Y-82683333D02*
X175589104Y-82683333D01*
X175589104Y-82683333D02*
X175731961Y-82730952D01*
X175731961Y-82730952D02*
X175827200Y-82826190D01*
X175827200Y-82826190D02*
X175874819Y-82969047D01*
X175874819Y-82969047D02*
X175874819Y-83064285D01*
X174874819Y-81778571D02*
X174874819Y-81969047D01*
X174874819Y-81969047D02*
X174922438Y-82064285D01*
X174922438Y-82064285D02*
X174970057Y-82111904D01*
X174970057Y-82111904D02*
X175112914Y-82207142D01*
X175112914Y-82207142D02*
X175303390Y-82254761D01*
X175303390Y-82254761D02*
X175684342Y-82254761D01*
X175684342Y-82254761D02*
X175779580Y-82207142D01*
X175779580Y-82207142D02*
X175827200Y-82159523D01*
X175827200Y-82159523D02*
X175874819Y-82064285D01*
X175874819Y-82064285D02*
X175874819Y-81873809D01*
X175874819Y-81873809D02*
X175827200Y-81778571D01*
X175827200Y-81778571D02*
X175779580Y-81730952D01*
X175779580Y-81730952D02*
X175684342Y-81683333D01*
X175684342Y-81683333D02*
X175446247Y-81683333D01*
X175446247Y-81683333D02*
X175351009Y-81730952D01*
X175351009Y-81730952D02*
X175303390Y-81778571D01*
X175303390Y-81778571D02*
X175255771Y-81873809D01*
X175255771Y-81873809D02*
X175255771Y-82064285D01*
X175255771Y-82064285D02*
X175303390Y-82159523D01*
X175303390Y-82159523D02*
X175351009Y-82207142D01*
X175351009Y-82207142D02*
X175446247Y-82254761D01*
X148304819Y-81863094D02*
X147304819Y-81863094D01*
X147304819Y-81863094D02*
X147304819Y-81624999D01*
X147304819Y-81624999D02*
X147352438Y-81482142D01*
X147352438Y-81482142D02*
X147447676Y-81386904D01*
X147447676Y-81386904D02*
X147542914Y-81339285D01*
X147542914Y-81339285D02*
X147733390Y-81291666D01*
X147733390Y-81291666D02*
X147876247Y-81291666D01*
X147876247Y-81291666D02*
X148066723Y-81339285D01*
X148066723Y-81339285D02*
X148161961Y-81386904D01*
X148161961Y-81386904D02*
X148257200Y-81482142D01*
X148257200Y-81482142D02*
X148304819Y-81624999D01*
X148304819Y-81624999D02*
X148304819Y-81863094D01*
X147304819Y-80434523D02*
X147304819Y-80624999D01*
X147304819Y-80624999D02*
X147352438Y-80720237D01*
X147352438Y-80720237D02*
X147400057Y-80767856D01*
X147400057Y-80767856D02*
X147542914Y-80863094D01*
X147542914Y-80863094D02*
X147733390Y-80910713D01*
X147733390Y-80910713D02*
X148114342Y-80910713D01*
X148114342Y-80910713D02*
X148209580Y-80863094D01*
X148209580Y-80863094D02*
X148257200Y-80815475D01*
X148257200Y-80815475D02*
X148304819Y-80720237D01*
X148304819Y-80720237D02*
X148304819Y-80529761D01*
X148304819Y-80529761D02*
X148257200Y-80434523D01*
X148257200Y-80434523D02*
X148209580Y-80386904D01*
X148209580Y-80386904D02*
X148114342Y-80339285D01*
X148114342Y-80339285D02*
X147876247Y-80339285D01*
X147876247Y-80339285D02*
X147781009Y-80386904D01*
X147781009Y-80386904D02*
X147733390Y-80434523D01*
X147733390Y-80434523D02*
X147685771Y-80529761D01*
X147685771Y-80529761D02*
X147685771Y-80720237D01*
X147685771Y-80720237D02*
X147733390Y-80815475D01*
X147733390Y-80815475D02*
X147781009Y-80863094D01*
X147781009Y-80863094D02*
X147876247Y-80910713D01*
X144598219Y-124585304D02*
X145407742Y-124585304D01*
X145407742Y-124585304D02*
X145502980Y-124537685D01*
X145502980Y-124537685D02*
X145550600Y-124490066D01*
X145550600Y-124490066D02*
X145598219Y-124394828D01*
X145598219Y-124394828D02*
X145598219Y-124204352D01*
X145598219Y-124204352D02*
X145550600Y-124109114D01*
X145550600Y-124109114D02*
X145502980Y-124061495D01*
X145502980Y-124061495D02*
X145407742Y-124013876D01*
X145407742Y-124013876D02*
X144598219Y-124013876D01*
X144598219Y-123632923D02*
X144598219Y-123013876D01*
X144598219Y-123013876D02*
X144979171Y-123347209D01*
X144979171Y-123347209D02*
X144979171Y-123204352D01*
X144979171Y-123204352D02*
X145026790Y-123109114D01*
X145026790Y-123109114D02*
X145074409Y-123061495D01*
X145074409Y-123061495D02*
X145169647Y-123013876D01*
X145169647Y-123013876D02*
X145407742Y-123013876D01*
X145407742Y-123013876D02*
X145502980Y-123061495D01*
X145502980Y-123061495D02*
X145550600Y-123109114D01*
X145550600Y-123109114D02*
X145598219Y-123204352D01*
X145598219Y-123204352D02*
X145598219Y-123490066D01*
X145598219Y-123490066D02*
X145550600Y-123585304D01*
X145550600Y-123585304D02*
X145502980Y-123632923D01*
X146348285Y-118379152D02*
X146348285Y-119045819D01*
X145919714Y-118379152D02*
X145919714Y-118902961D01*
X145919714Y-118902961D02*
X145967333Y-118998200D01*
X145967333Y-118998200D02*
X146062571Y-119045819D01*
X146062571Y-119045819D02*
X146205428Y-119045819D01*
X146205428Y-119045819D02*
X146300666Y-118998200D01*
X146300666Y-118998200D02*
X146348285Y-118950580D01*
X132872266Y-111392619D02*
X132872266Y-112106904D01*
X132872266Y-112106904D02*
X132824647Y-112249761D01*
X132824647Y-112249761D02*
X132729409Y-112345000D01*
X132729409Y-112345000D02*
X132586552Y-112392619D01*
X132586552Y-112392619D02*
X132491314Y-112392619D01*
X133348457Y-112392619D02*
X133348457Y-111392619D01*
X133348457Y-111392619D02*
X133729409Y-111392619D01*
X133729409Y-111392619D02*
X133824647Y-111440238D01*
X133824647Y-111440238D02*
X133872266Y-111487857D01*
X133872266Y-111487857D02*
X133919885Y-111583095D01*
X133919885Y-111583095D02*
X133919885Y-111725952D01*
X133919885Y-111725952D02*
X133872266Y-111821190D01*
X133872266Y-111821190D02*
X133824647Y-111868809D01*
X133824647Y-111868809D02*
X133729409Y-111916428D01*
X133729409Y-111916428D02*
X133348457Y-111916428D01*
X134872266Y-112392619D02*
X134300838Y-112392619D01*
X134586552Y-112392619D02*
X134586552Y-111392619D01*
X134586552Y-111392619D02*
X134491314Y-111535476D01*
X134491314Y-111535476D02*
X134396076Y-111630714D01*
X134396076Y-111630714D02*
X134300838Y-111678333D01*
X127432142Y-109654819D02*
X127098809Y-109178628D01*
X126860714Y-109654819D02*
X126860714Y-108654819D01*
X126860714Y-108654819D02*
X127241666Y-108654819D01*
X127241666Y-108654819D02*
X127336904Y-108702438D01*
X127336904Y-108702438D02*
X127384523Y-108750057D01*
X127384523Y-108750057D02*
X127432142Y-108845295D01*
X127432142Y-108845295D02*
X127432142Y-108988152D01*
X127432142Y-108988152D02*
X127384523Y-109083390D01*
X127384523Y-109083390D02*
X127336904Y-109131009D01*
X127336904Y-109131009D02*
X127241666Y-109178628D01*
X127241666Y-109178628D02*
X126860714Y-109178628D01*
X128384523Y-109654819D02*
X127813095Y-109654819D01*
X128098809Y-109654819D02*
X128098809Y-108654819D01*
X128098809Y-108654819D02*
X128003571Y-108797676D01*
X128003571Y-108797676D02*
X127908333Y-108892914D01*
X127908333Y-108892914D02*
X127813095Y-108940533D01*
X128955952Y-109083390D02*
X128860714Y-109035771D01*
X128860714Y-109035771D02*
X128813095Y-108988152D01*
X128813095Y-108988152D02*
X128765476Y-108892914D01*
X128765476Y-108892914D02*
X128765476Y-108845295D01*
X128765476Y-108845295D02*
X128813095Y-108750057D01*
X128813095Y-108750057D02*
X128860714Y-108702438D01*
X128860714Y-108702438D02*
X128955952Y-108654819D01*
X128955952Y-108654819D02*
X129146428Y-108654819D01*
X129146428Y-108654819D02*
X129241666Y-108702438D01*
X129241666Y-108702438D02*
X129289285Y-108750057D01*
X129289285Y-108750057D02*
X129336904Y-108845295D01*
X129336904Y-108845295D02*
X129336904Y-108892914D01*
X129336904Y-108892914D02*
X129289285Y-108988152D01*
X129289285Y-108988152D02*
X129241666Y-109035771D01*
X129241666Y-109035771D02*
X129146428Y-109083390D01*
X129146428Y-109083390D02*
X128955952Y-109083390D01*
X128955952Y-109083390D02*
X128860714Y-109131009D01*
X128860714Y-109131009D02*
X128813095Y-109178628D01*
X128813095Y-109178628D02*
X128765476Y-109273866D01*
X128765476Y-109273866D02*
X128765476Y-109464342D01*
X128765476Y-109464342D02*
X128813095Y-109559580D01*
X128813095Y-109559580D02*
X128860714Y-109607200D01*
X128860714Y-109607200D02*
X128955952Y-109654819D01*
X128955952Y-109654819D02*
X129146428Y-109654819D01*
X129146428Y-109654819D02*
X129241666Y-109607200D01*
X129241666Y-109607200D02*
X129289285Y-109559580D01*
X129289285Y-109559580D02*
X129336904Y-109464342D01*
X129336904Y-109464342D02*
X129336904Y-109273866D01*
X129336904Y-109273866D02*
X129289285Y-109178628D01*
X129289285Y-109178628D02*
X129241666Y-109131009D01*
X129241666Y-109131009D02*
X129146428Y-109083390D01*
X138657142Y-94954819D02*
X138323809Y-94478628D01*
X138085714Y-94954819D02*
X138085714Y-93954819D01*
X138085714Y-93954819D02*
X138466666Y-93954819D01*
X138466666Y-93954819D02*
X138561904Y-94002438D01*
X138561904Y-94002438D02*
X138609523Y-94050057D01*
X138609523Y-94050057D02*
X138657142Y-94145295D01*
X138657142Y-94145295D02*
X138657142Y-94288152D01*
X138657142Y-94288152D02*
X138609523Y-94383390D01*
X138609523Y-94383390D02*
X138561904Y-94431009D01*
X138561904Y-94431009D02*
X138466666Y-94478628D01*
X138466666Y-94478628D02*
X138085714Y-94478628D01*
X139609523Y-94954819D02*
X139038095Y-94954819D01*
X139323809Y-94954819D02*
X139323809Y-93954819D01*
X139323809Y-93954819D02*
X139228571Y-94097676D01*
X139228571Y-94097676D02*
X139133333Y-94192914D01*
X139133333Y-94192914D02*
X139038095Y-94240533D01*
X140085714Y-94954819D02*
X140276190Y-94954819D01*
X140276190Y-94954819D02*
X140371428Y-94907200D01*
X140371428Y-94907200D02*
X140419047Y-94859580D01*
X140419047Y-94859580D02*
X140514285Y-94716723D01*
X140514285Y-94716723D02*
X140561904Y-94526247D01*
X140561904Y-94526247D02*
X140561904Y-94145295D01*
X140561904Y-94145295D02*
X140514285Y-94050057D01*
X140514285Y-94050057D02*
X140466666Y-94002438D01*
X140466666Y-94002438D02*
X140371428Y-93954819D01*
X140371428Y-93954819D02*
X140180952Y-93954819D01*
X140180952Y-93954819D02*
X140085714Y-94002438D01*
X140085714Y-94002438D02*
X140038095Y-94050057D01*
X140038095Y-94050057D02*
X139990476Y-94145295D01*
X139990476Y-94145295D02*
X139990476Y-94383390D01*
X139990476Y-94383390D02*
X140038095Y-94478628D01*
X140038095Y-94478628D02*
X140085714Y-94526247D01*
X140085714Y-94526247D02*
X140180952Y-94573866D01*
X140180952Y-94573866D02*
X140371428Y-94573866D01*
X140371428Y-94573866D02*
X140466666Y-94526247D01*
X140466666Y-94526247D02*
X140514285Y-94478628D01*
X140514285Y-94478628D02*
X140561904Y-94383390D01*
X138224219Y-106280257D02*
X137748028Y-106613590D01*
X138224219Y-106851685D02*
X137224219Y-106851685D01*
X137224219Y-106851685D02*
X137224219Y-106470733D01*
X137224219Y-106470733D02*
X137271838Y-106375495D01*
X137271838Y-106375495D02*
X137319457Y-106327876D01*
X137319457Y-106327876D02*
X137414695Y-106280257D01*
X137414695Y-106280257D02*
X137557552Y-106280257D01*
X137557552Y-106280257D02*
X137652790Y-106327876D01*
X137652790Y-106327876D02*
X137700409Y-106375495D01*
X137700409Y-106375495D02*
X137748028Y-106470733D01*
X137748028Y-106470733D02*
X137748028Y-106851685D01*
X138224219Y-105327876D02*
X138224219Y-105899304D01*
X138224219Y-105613590D02*
X137224219Y-105613590D01*
X137224219Y-105613590D02*
X137367076Y-105708828D01*
X137367076Y-105708828D02*
X137462314Y-105804066D01*
X137462314Y-105804066D02*
X137509933Y-105899304D01*
X138224219Y-104375495D02*
X138224219Y-104946923D01*
X138224219Y-104661209D02*
X137224219Y-104661209D01*
X137224219Y-104661209D02*
X137367076Y-104756447D01*
X137367076Y-104756447D02*
X137462314Y-104851685D01*
X137462314Y-104851685D02*
X137509933Y-104946923D01*
X162231619Y-96019857D02*
X161755428Y-96353190D01*
X162231619Y-96591285D02*
X161231619Y-96591285D01*
X161231619Y-96591285D02*
X161231619Y-96210333D01*
X161231619Y-96210333D02*
X161279238Y-96115095D01*
X161279238Y-96115095D02*
X161326857Y-96067476D01*
X161326857Y-96067476D02*
X161422095Y-96019857D01*
X161422095Y-96019857D02*
X161564952Y-96019857D01*
X161564952Y-96019857D02*
X161660190Y-96067476D01*
X161660190Y-96067476D02*
X161707809Y-96115095D01*
X161707809Y-96115095D02*
X161755428Y-96210333D01*
X161755428Y-96210333D02*
X161755428Y-96591285D01*
X162231619Y-95067476D02*
X162231619Y-95638904D01*
X162231619Y-95353190D02*
X161231619Y-95353190D01*
X161231619Y-95353190D02*
X161374476Y-95448428D01*
X161374476Y-95448428D02*
X161469714Y-95543666D01*
X161469714Y-95543666D02*
X161517333Y-95638904D01*
X161231619Y-94162714D02*
X161231619Y-94638904D01*
X161231619Y-94638904D02*
X161707809Y-94686523D01*
X161707809Y-94686523D02*
X161660190Y-94638904D01*
X161660190Y-94638904D02*
X161612571Y-94543666D01*
X161612571Y-94543666D02*
X161612571Y-94305571D01*
X161612571Y-94305571D02*
X161660190Y-94210333D01*
X161660190Y-94210333D02*
X161707809Y-94162714D01*
X161707809Y-94162714D02*
X161803047Y-94115095D01*
X161803047Y-94115095D02*
X162041142Y-94115095D01*
X162041142Y-94115095D02*
X162136380Y-94162714D01*
X162136380Y-94162714D02*
X162184000Y-94210333D01*
X162184000Y-94210333D02*
X162231619Y-94305571D01*
X162231619Y-94305571D02*
X162231619Y-94543666D01*
X162231619Y-94543666D02*
X162184000Y-94638904D01*
X162184000Y-94638904D02*
X162136380Y-94686523D01*
X179103495Y-116904419D02*
X179674923Y-116904419D01*
X179389209Y-117904419D02*
X179389209Y-116904419D01*
X180008257Y-117904419D02*
X180008257Y-116904419D01*
X180008257Y-116904419D02*
X180389209Y-116904419D01*
X180389209Y-116904419D02*
X180484447Y-116952038D01*
X180484447Y-116952038D02*
X180532066Y-116999657D01*
X180532066Y-116999657D02*
X180579685Y-117094895D01*
X180579685Y-117094895D02*
X180579685Y-117237752D01*
X180579685Y-117237752D02*
X180532066Y-117332990D01*
X180532066Y-117332990D02*
X180484447Y-117380609D01*
X180484447Y-117380609D02*
X180389209Y-117428228D01*
X180389209Y-117428228D02*
X180008257Y-117428228D01*
X181436828Y-117237752D02*
X181436828Y-117904419D01*
X181198733Y-116856800D02*
X180960638Y-117571085D01*
X180960638Y-117571085D02*
X181579685Y-117571085D01*
X174799304Y-114729620D02*
X174799304Y-115539143D01*
X174799304Y-115539143D02*
X174846923Y-115634381D01*
X174846923Y-115634381D02*
X174894542Y-115682001D01*
X174894542Y-115682001D02*
X174989780Y-115729620D01*
X174989780Y-115729620D02*
X175180256Y-115729620D01*
X175180256Y-115729620D02*
X175275494Y-115682001D01*
X175275494Y-115682001D02*
X175323113Y-115634381D01*
X175323113Y-115634381D02*
X175370732Y-115539143D01*
X175370732Y-115539143D02*
X175370732Y-114729620D01*
X176370732Y-115729620D02*
X175799304Y-115729620D01*
X176085018Y-115729620D02*
X176085018Y-114729620D01*
X176085018Y-114729620D02*
X175989780Y-114872477D01*
X175989780Y-114872477D02*
X175894542Y-114967715D01*
X175894542Y-114967715D02*
X175799304Y-115015334D01*
X177323113Y-115729620D02*
X176751685Y-115729620D01*
X177037399Y-115729620D02*
X177037399Y-114729620D01*
X177037399Y-114729620D02*
X176942161Y-114872477D01*
X176942161Y-114872477D02*
X176846923Y-114967715D01*
X176846923Y-114967715D02*
X176751685Y-115015334D01*
X167189551Y-118464115D02*
X167856218Y-118464115D01*
X167189551Y-118892686D02*
X167713360Y-118892686D01*
X167713360Y-118892686D02*
X167808599Y-118845067D01*
X167808599Y-118845067D02*
X167856218Y-118749829D01*
X167856218Y-118749829D02*
X167856218Y-118606972D01*
X167856218Y-118606972D02*
X167808599Y-118511734D01*
X167808599Y-118511734D02*
X167760979Y-118464115D01*
X129754819Y-90305357D02*
X129278628Y-90638690D01*
X129754819Y-90876785D02*
X128754819Y-90876785D01*
X128754819Y-90876785D02*
X128754819Y-90495833D01*
X128754819Y-90495833D02*
X128802438Y-90400595D01*
X128802438Y-90400595D02*
X128850057Y-90352976D01*
X128850057Y-90352976D02*
X128945295Y-90305357D01*
X128945295Y-90305357D02*
X129088152Y-90305357D01*
X129088152Y-90305357D02*
X129183390Y-90352976D01*
X129183390Y-90352976D02*
X129231009Y-90400595D01*
X129231009Y-90400595D02*
X129278628Y-90495833D01*
X129278628Y-90495833D02*
X129278628Y-90876785D01*
X128850057Y-89924404D02*
X128802438Y-89876785D01*
X128802438Y-89876785D02*
X128754819Y-89781547D01*
X128754819Y-89781547D02*
X128754819Y-89543452D01*
X128754819Y-89543452D02*
X128802438Y-89448214D01*
X128802438Y-89448214D02*
X128850057Y-89400595D01*
X128850057Y-89400595D02*
X128945295Y-89352976D01*
X128945295Y-89352976D02*
X129040533Y-89352976D01*
X129040533Y-89352976D02*
X129183390Y-89400595D01*
X129183390Y-89400595D02*
X129754819Y-89972023D01*
X129754819Y-89972023D02*
X129754819Y-89352976D01*
X129754819Y-88400595D02*
X129754819Y-88972023D01*
X129754819Y-88686309D02*
X128754819Y-88686309D01*
X128754819Y-88686309D02*
X128897676Y-88781547D01*
X128897676Y-88781547D02*
X128992914Y-88876785D01*
X128992914Y-88876785D02*
X129040533Y-88972023D01*
X123416666Y-108904819D02*
X123416666Y-109619104D01*
X123416666Y-109619104D02*
X123369047Y-109761961D01*
X123369047Y-109761961D02*
X123273809Y-109857200D01*
X123273809Y-109857200D02*
X123130952Y-109904819D01*
X123130952Y-109904819D02*
X123035714Y-109904819D01*
X123892857Y-109904819D02*
X123892857Y-108904819D01*
X123892857Y-108904819D02*
X124273809Y-108904819D01*
X124273809Y-108904819D02*
X124369047Y-108952438D01*
X124369047Y-108952438D02*
X124416666Y-109000057D01*
X124416666Y-109000057D02*
X124464285Y-109095295D01*
X124464285Y-109095295D02*
X124464285Y-109238152D01*
X124464285Y-109238152D02*
X124416666Y-109333390D01*
X124416666Y-109333390D02*
X124369047Y-109381009D01*
X124369047Y-109381009D02*
X124273809Y-109428628D01*
X124273809Y-109428628D02*
X123892857Y-109428628D01*
X124797619Y-108904819D02*
X125416666Y-108904819D01*
X125416666Y-108904819D02*
X125083333Y-109285771D01*
X125083333Y-109285771D02*
X125226190Y-109285771D01*
X125226190Y-109285771D02*
X125321428Y-109333390D01*
X125321428Y-109333390D02*
X125369047Y-109381009D01*
X125369047Y-109381009D02*
X125416666Y-109476247D01*
X125416666Y-109476247D02*
X125416666Y-109714342D01*
X125416666Y-109714342D02*
X125369047Y-109809580D01*
X125369047Y-109809580D02*
X125321428Y-109857200D01*
X125321428Y-109857200D02*
X125226190Y-109904819D01*
X125226190Y-109904819D02*
X124940476Y-109904819D01*
X124940476Y-109904819D02*
X124845238Y-109857200D01*
X124845238Y-109857200D02*
X124797619Y-109809580D01*
X133666667Y-82007200D02*
X133809524Y-82054819D01*
X133809524Y-82054819D02*
X134047619Y-82054819D01*
X134047619Y-82054819D02*
X134142857Y-82007200D01*
X134142857Y-82007200D02*
X134190476Y-81959580D01*
X134190476Y-81959580D02*
X134238095Y-81864342D01*
X134238095Y-81864342D02*
X134238095Y-81769104D01*
X134238095Y-81769104D02*
X134190476Y-81673866D01*
X134190476Y-81673866D02*
X134142857Y-81626247D01*
X134142857Y-81626247D02*
X134047619Y-81578628D01*
X134047619Y-81578628D02*
X133857143Y-81531009D01*
X133857143Y-81531009D02*
X133761905Y-81483390D01*
X133761905Y-81483390D02*
X133714286Y-81435771D01*
X133714286Y-81435771D02*
X133666667Y-81340533D01*
X133666667Y-81340533D02*
X133666667Y-81245295D01*
X133666667Y-81245295D02*
X133714286Y-81150057D01*
X133714286Y-81150057D02*
X133761905Y-81102438D01*
X133761905Y-81102438D02*
X133857143Y-81054819D01*
X133857143Y-81054819D02*
X134095238Y-81054819D01*
X134095238Y-81054819D02*
X134238095Y-81102438D01*
X134571429Y-81054819D02*
X134809524Y-82054819D01*
X134809524Y-82054819D02*
X135000000Y-81340533D01*
X135000000Y-81340533D02*
X135190476Y-82054819D01*
X135190476Y-82054819D02*
X135428572Y-81054819D01*
X135714286Y-81054819D02*
X136333333Y-81054819D01*
X136333333Y-81054819D02*
X136000000Y-81435771D01*
X136000000Y-81435771D02*
X136142857Y-81435771D01*
X136142857Y-81435771D02*
X136238095Y-81483390D01*
X136238095Y-81483390D02*
X136285714Y-81531009D01*
X136285714Y-81531009D02*
X136333333Y-81626247D01*
X136333333Y-81626247D02*
X136333333Y-81864342D01*
X136333333Y-81864342D02*
X136285714Y-81959580D01*
X136285714Y-81959580D02*
X136238095Y-82007200D01*
X136238095Y-82007200D02*
X136142857Y-82054819D01*
X136142857Y-82054819D02*
X135857143Y-82054819D01*
X135857143Y-82054819D02*
X135761905Y-82007200D01*
X135761905Y-82007200D02*
X135714286Y-81959580D01*
X149838095Y-95379819D02*
X149838095Y-96189342D01*
X149838095Y-96189342D02*
X149885714Y-96284580D01*
X149885714Y-96284580D02*
X149933333Y-96332200D01*
X149933333Y-96332200D02*
X150028571Y-96379819D01*
X150028571Y-96379819D02*
X150219047Y-96379819D01*
X150219047Y-96379819D02*
X150314285Y-96332200D01*
X150314285Y-96332200D02*
X150361904Y-96284580D01*
X150361904Y-96284580D02*
X150409523Y-96189342D01*
X150409523Y-96189342D02*
X150409523Y-95379819D01*
X150838095Y-95475057D02*
X150885714Y-95427438D01*
X150885714Y-95427438D02*
X150980952Y-95379819D01*
X150980952Y-95379819D02*
X151219047Y-95379819D01*
X151219047Y-95379819D02*
X151314285Y-95427438D01*
X151314285Y-95427438D02*
X151361904Y-95475057D01*
X151361904Y-95475057D02*
X151409523Y-95570295D01*
X151409523Y-95570295D02*
X151409523Y-95665533D01*
X151409523Y-95665533D02*
X151361904Y-95808390D01*
X151361904Y-95808390D02*
X150790476Y-96379819D01*
X150790476Y-96379819D02*
X151409523Y-96379819D01*
X140465700Y-90119819D02*
X140465700Y-90357914D01*
X140227605Y-90262676D02*
X140465700Y-90357914D01*
X140465700Y-90357914D02*
X140703795Y-90262676D01*
X140322843Y-90548390D02*
X140465700Y-90357914D01*
X140465700Y-90357914D02*
X140608557Y-90548390D01*
X138607142Y-97604819D02*
X138273809Y-97128628D01*
X138035714Y-97604819D02*
X138035714Y-96604819D01*
X138035714Y-96604819D02*
X138416666Y-96604819D01*
X138416666Y-96604819D02*
X138511904Y-96652438D01*
X138511904Y-96652438D02*
X138559523Y-96700057D01*
X138559523Y-96700057D02*
X138607142Y-96795295D01*
X138607142Y-96795295D02*
X138607142Y-96938152D01*
X138607142Y-96938152D02*
X138559523Y-97033390D01*
X138559523Y-97033390D02*
X138511904Y-97081009D01*
X138511904Y-97081009D02*
X138416666Y-97128628D01*
X138416666Y-97128628D02*
X138035714Y-97128628D01*
X138988095Y-96700057D02*
X139035714Y-96652438D01*
X139035714Y-96652438D02*
X139130952Y-96604819D01*
X139130952Y-96604819D02*
X139369047Y-96604819D01*
X139369047Y-96604819D02*
X139464285Y-96652438D01*
X139464285Y-96652438D02*
X139511904Y-96700057D01*
X139511904Y-96700057D02*
X139559523Y-96795295D01*
X139559523Y-96795295D02*
X139559523Y-96890533D01*
X139559523Y-96890533D02*
X139511904Y-97033390D01*
X139511904Y-97033390D02*
X138940476Y-97604819D01*
X138940476Y-97604819D02*
X139559523Y-97604819D01*
X140178571Y-96604819D02*
X140273809Y-96604819D01*
X140273809Y-96604819D02*
X140369047Y-96652438D01*
X140369047Y-96652438D02*
X140416666Y-96700057D01*
X140416666Y-96700057D02*
X140464285Y-96795295D01*
X140464285Y-96795295D02*
X140511904Y-96985771D01*
X140511904Y-96985771D02*
X140511904Y-97223866D01*
X140511904Y-97223866D02*
X140464285Y-97414342D01*
X140464285Y-97414342D02*
X140416666Y-97509580D01*
X140416666Y-97509580D02*
X140369047Y-97557200D01*
X140369047Y-97557200D02*
X140273809Y-97604819D01*
X140273809Y-97604819D02*
X140178571Y-97604819D01*
X140178571Y-97604819D02*
X140083333Y-97557200D01*
X140083333Y-97557200D02*
X140035714Y-97509580D01*
X140035714Y-97509580D02*
X139988095Y-97414342D01*
X139988095Y-97414342D02*
X139940476Y-97223866D01*
X139940476Y-97223866D02*
X139940476Y-96985771D01*
X139940476Y-96985771D02*
X139988095Y-96795295D01*
X139988095Y-96795295D02*
X140035714Y-96700057D01*
X140035714Y-96700057D02*
X140083333Y-96652438D01*
X140083333Y-96652438D02*
X140178571Y-96604819D01*
X131107142Y-106062580D02*
X131059523Y-106110200D01*
X131059523Y-106110200D02*
X130916666Y-106157819D01*
X130916666Y-106157819D02*
X130821428Y-106157819D01*
X130821428Y-106157819D02*
X130678571Y-106110200D01*
X130678571Y-106110200D02*
X130583333Y-106014961D01*
X130583333Y-106014961D02*
X130535714Y-105919723D01*
X130535714Y-105919723D02*
X130488095Y-105729247D01*
X130488095Y-105729247D02*
X130488095Y-105586390D01*
X130488095Y-105586390D02*
X130535714Y-105395914D01*
X130535714Y-105395914D02*
X130583333Y-105300676D01*
X130583333Y-105300676D02*
X130678571Y-105205438D01*
X130678571Y-105205438D02*
X130821428Y-105157819D01*
X130821428Y-105157819D02*
X130916666Y-105157819D01*
X130916666Y-105157819D02*
X131059523Y-105205438D01*
X131059523Y-105205438D02*
X131107142Y-105253057D01*
X131488095Y-105253057D02*
X131535714Y-105205438D01*
X131535714Y-105205438D02*
X131630952Y-105157819D01*
X131630952Y-105157819D02*
X131869047Y-105157819D01*
X131869047Y-105157819D02*
X131964285Y-105205438D01*
X131964285Y-105205438D02*
X132011904Y-105253057D01*
X132011904Y-105253057D02*
X132059523Y-105348295D01*
X132059523Y-105348295D02*
X132059523Y-105443533D01*
X132059523Y-105443533D02*
X132011904Y-105586390D01*
X132011904Y-105586390D02*
X131440476Y-106157819D01*
X131440476Y-106157819D02*
X132059523Y-106157819D01*
X132392857Y-105157819D02*
X133011904Y-105157819D01*
X133011904Y-105157819D02*
X132678571Y-105538771D01*
X132678571Y-105538771D02*
X132821428Y-105538771D01*
X132821428Y-105538771D02*
X132916666Y-105586390D01*
X132916666Y-105586390D02*
X132964285Y-105634009D01*
X132964285Y-105634009D02*
X133011904Y-105729247D01*
X133011904Y-105729247D02*
X133011904Y-105967342D01*
X133011904Y-105967342D02*
X132964285Y-106062580D01*
X132964285Y-106062580D02*
X132916666Y-106110200D01*
X132916666Y-106110200D02*
X132821428Y-106157819D01*
X132821428Y-106157819D02*
X132535714Y-106157819D01*
X132535714Y-106157819D02*
X132440476Y-106110200D01*
X132440476Y-106110200D02*
X132392857Y-106062580D01*
X136284580Y-89116666D02*
X136332200Y-89164285D01*
X136332200Y-89164285D02*
X136379819Y-89307142D01*
X136379819Y-89307142D02*
X136379819Y-89402380D01*
X136379819Y-89402380D02*
X136332200Y-89545237D01*
X136332200Y-89545237D02*
X136236961Y-89640475D01*
X136236961Y-89640475D02*
X136141723Y-89688094D01*
X136141723Y-89688094D02*
X135951247Y-89735713D01*
X135951247Y-89735713D02*
X135808390Y-89735713D01*
X135808390Y-89735713D02*
X135617914Y-89688094D01*
X135617914Y-89688094D02*
X135522676Y-89640475D01*
X135522676Y-89640475D02*
X135427438Y-89545237D01*
X135427438Y-89545237D02*
X135379819Y-89402380D01*
X135379819Y-89402380D02*
X135379819Y-89307142D01*
X135379819Y-89307142D02*
X135427438Y-89164285D01*
X135427438Y-89164285D02*
X135475057Y-89116666D01*
X135379819Y-88259523D02*
X135379819Y-88449999D01*
X135379819Y-88449999D02*
X135427438Y-88545237D01*
X135427438Y-88545237D02*
X135475057Y-88592856D01*
X135475057Y-88592856D02*
X135617914Y-88688094D01*
X135617914Y-88688094D02*
X135808390Y-88735713D01*
X135808390Y-88735713D02*
X136189342Y-88735713D01*
X136189342Y-88735713D02*
X136284580Y-88688094D01*
X136284580Y-88688094D02*
X136332200Y-88640475D01*
X136332200Y-88640475D02*
X136379819Y-88545237D01*
X136379819Y-88545237D02*
X136379819Y-88354761D01*
X136379819Y-88354761D02*
X136332200Y-88259523D01*
X136332200Y-88259523D02*
X136284580Y-88211904D01*
X136284580Y-88211904D02*
X136189342Y-88164285D01*
X136189342Y-88164285D02*
X135951247Y-88164285D01*
X135951247Y-88164285D02*
X135856009Y-88211904D01*
X135856009Y-88211904D02*
X135808390Y-88259523D01*
X135808390Y-88259523D02*
X135760771Y-88354761D01*
X135760771Y-88354761D02*
X135760771Y-88545237D01*
X135760771Y-88545237D02*
X135808390Y-88640475D01*
X135808390Y-88640475D02*
X135856009Y-88688094D01*
X135856009Y-88688094D02*
X135951247Y-88735713D01*
X141779819Y-82088094D02*
X140779819Y-82088094D01*
X140779819Y-82088094D02*
X140779819Y-81849999D01*
X140779819Y-81849999D02*
X140827438Y-81707142D01*
X140827438Y-81707142D02*
X140922676Y-81611904D01*
X140922676Y-81611904D02*
X141017914Y-81564285D01*
X141017914Y-81564285D02*
X141208390Y-81516666D01*
X141208390Y-81516666D02*
X141351247Y-81516666D01*
X141351247Y-81516666D02*
X141541723Y-81564285D01*
X141541723Y-81564285D02*
X141636961Y-81611904D01*
X141636961Y-81611904D02*
X141732200Y-81707142D01*
X141732200Y-81707142D02*
X141779819Y-81849999D01*
X141779819Y-81849999D02*
X141779819Y-82088094D01*
X140779819Y-81183332D02*
X140779819Y-80516666D01*
X140779819Y-80516666D02*
X141779819Y-80945237D01*
X127641666Y-103654819D02*
X127641666Y-104369104D01*
X127641666Y-104369104D02*
X127594047Y-104511961D01*
X127594047Y-104511961D02*
X127498809Y-104607200D01*
X127498809Y-104607200D02*
X127355952Y-104654819D01*
X127355952Y-104654819D02*
X127260714Y-104654819D01*
X128594047Y-103654819D02*
X128117857Y-103654819D01*
X128117857Y-103654819D02*
X128070238Y-104131009D01*
X128070238Y-104131009D02*
X128117857Y-104083390D01*
X128117857Y-104083390D02*
X128213095Y-104035771D01*
X128213095Y-104035771D02*
X128451190Y-104035771D01*
X128451190Y-104035771D02*
X128546428Y-104083390D01*
X128546428Y-104083390D02*
X128594047Y-104131009D01*
X128594047Y-104131009D02*
X128641666Y-104226247D01*
X128641666Y-104226247D02*
X128641666Y-104464342D01*
X128641666Y-104464342D02*
X128594047Y-104559580D01*
X128594047Y-104559580D02*
X128546428Y-104607200D01*
X128546428Y-104607200D02*
X128451190Y-104654819D01*
X128451190Y-104654819D02*
X128213095Y-104654819D01*
X128213095Y-104654819D02*
X128117857Y-104607200D01*
X128117857Y-104607200D02*
X128070238Y-104559580D01*
X127667969Y-93102819D02*
X127191779Y-93102819D01*
X127191779Y-93102819D02*
X127191779Y-92102819D01*
X128572731Y-93007580D02*
X128525112Y-93055200D01*
X128525112Y-93055200D02*
X128382255Y-93102819D01*
X128382255Y-93102819D02*
X128287017Y-93102819D01*
X128287017Y-93102819D02*
X128144160Y-93055200D01*
X128144160Y-93055200D02*
X128048922Y-92959961D01*
X128048922Y-92959961D02*
X128001303Y-92864723D01*
X128001303Y-92864723D02*
X127953684Y-92674247D01*
X127953684Y-92674247D02*
X127953684Y-92531390D01*
X127953684Y-92531390D02*
X128001303Y-92340914D01*
X128001303Y-92340914D02*
X128048922Y-92245676D01*
X128048922Y-92245676D02*
X128144160Y-92150438D01*
X128144160Y-92150438D02*
X128287017Y-92102819D01*
X128287017Y-92102819D02*
X128382255Y-92102819D01*
X128382255Y-92102819D02*
X128525112Y-92150438D01*
X128525112Y-92150438D02*
X128572731Y-92198057D01*
X129001303Y-93102819D02*
X129001303Y-92102819D01*
X129001303Y-92102819D02*
X129239398Y-92102819D01*
X129239398Y-92102819D02*
X129382255Y-92150438D01*
X129382255Y-92150438D02*
X129477493Y-92245676D01*
X129477493Y-92245676D02*
X129525112Y-92340914D01*
X129525112Y-92340914D02*
X129572731Y-92531390D01*
X129572731Y-92531390D02*
X129572731Y-92674247D01*
X129572731Y-92674247D02*
X129525112Y-92864723D01*
X129525112Y-92864723D02*
X129477493Y-92959961D01*
X129477493Y-92959961D02*
X129382255Y-93055200D01*
X129382255Y-93055200D02*
X129239398Y-93102819D01*
X129239398Y-93102819D02*
X129001303Y-93102819D01*
X170095942Y-99311619D02*
X169762609Y-98835428D01*
X169524514Y-99311619D02*
X169524514Y-98311619D01*
X169524514Y-98311619D02*
X169905466Y-98311619D01*
X169905466Y-98311619D02*
X170000704Y-98359238D01*
X170000704Y-98359238D02*
X170048323Y-98406857D01*
X170048323Y-98406857D02*
X170095942Y-98502095D01*
X170095942Y-98502095D02*
X170095942Y-98644952D01*
X170095942Y-98644952D02*
X170048323Y-98740190D01*
X170048323Y-98740190D02*
X170000704Y-98787809D01*
X170000704Y-98787809D02*
X169905466Y-98835428D01*
X169905466Y-98835428D02*
X169524514Y-98835428D01*
X171048323Y-99311619D02*
X170476895Y-99311619D01*
X170762609Y-99311619D02*
X170762609Y-98311619D01*
X170762609Y-98311619D02*
X170667371Y-98454476D01*
X170667371Y-98454476D02*
X170572133Y-98549714D01*
X170572133Y-98549714D02*
X170476895Y-98597333D01*
X171429276Y-98406857D02*
X171476895Y-98359238D01*
X171476895Y-98359238D02*
X171572133Y-98311619D01*
X171572133Y-98311619D02*
X171810228Y-98311619D01*
X171810228Y-98311619D02*
X171905466Y-98359238D01*
X171905466Y-98359238D02*
X171953085Y-98406857D01*
X171953085Y-98406857D02*
X172000704Y-98502095D01*
X172000704Y-98502095D02*
X172000704Y-98597333D01*
X172000704Y-98597333D02*
X171953085Y-98740190D01*
X171953085Y-98740190D02*
X171381657Y-99311619D01*
X171381657Y-99311619D02*
X172000704Y-99311619D01*
X165563561Y-88713457D02*
X165468323Y-88665838D01*
X165468323Y-88665838D02*
X165373085Y-88570600D01*
X165373085Y-88570600D02*
X165230228Y-88427742D01*
X165230228Y-88427742D02*
X165134990Y-88380123D01*
X165134990Y-88380123D02*
X165039752Y-88380123D01*
X165087371Y-88618219D02*
X164992133Y-88570600D01*
X164992133Y-88570600D02*
X164896895Y-88475361D01*
X164896895Y-88475361D02*
X164849276Y-88284885D01*
X164849276Y-88284885D02*
X164849276Y-87951552D01*
X164849276Y-87951552D02*
X164896895Y-87761076D01*
X164896895Y-87761076D02*
X164992133Y-87665838D01*
X164992133Y-87665838D02*
X165087371Y-87618219D01*
X165087371Y-87618219D02*
X165277847Y-87618219D01*
X165277847Y-87618219D02*
X165373085Y-87665838D01*
X165373085Y-87665838D02*
X165468323Y-87761076D01*
X165468323Y-87761076D02*
X165515942Y-87951552D01*
X165515942Y-87951552D02*
X165515942Y-88284885D01*
X165515942Y-88284885D02*
X165468323Y-88475361D01*
X165468323Y-88475361D02*
X165373085Y-88570600D01*
X165373085Y-88570600D02*
X165277847Y-88618219D01*
X165277847Y-88618219D02*
X165087371Y-88618219D01*
X166468323Y-88618219D02*
X165896895Y-88618219D01*
X166182609Y-88618219D02*
X166182609Y-87618219D01*
X166182609Y-87618219D02*
X166087371Y-87761076D01*
X166087371Y-87761076D02*
X165992133Y-87856314D01*
X165992133Y-87856314D02*
X165896895Y-87903933D01*
X138517333Y-110030419D02*
X138184000Y-109554228D01*
X137945905Y-110030419D02*
X137945905Y-109030419D01*
X137945905Y-109030419D02*
X138326857Y-109030419D01*
X138326857Y-109030419D02*
X138422095Y-109078038D01*
X138422095Y-109078038D02*
X138469714Y-109125657D01*
X138469714Y-109125657D02*
X138517333Y-109220895D01*
X138517333Y-109220895D02*
X138517333Y-109363752D01*
X138517333Y-109363752D02*
X138469714Y-109458990D01*
X138469714Y-109458990D02*
X138422095Y-109506609D01*
X138422095Y-109506609D02*
X138326857Y-109554228D01*
X138326857Y-109554228D02*
X137945905Y-109554228D01*
X139422095Y-109030419D02*
X138945905Y-109030419D01*
X138945905Y-109030419D02*
X138898286Y-109506609D01*
X138898286Y-109506609D02*
X138945905Y-109458990D01*
X138945905Y-109458990D02*
X139041143Y-109411371D01*
X139041143Y-109411371D02*
X139279238Y-109411371D01*
X139279238Y-109411371D02*
X139374476Y-109458990D01*
X139374476Y-109458990D02*
X139422095Y-109506609D01*
X139422095Y-109506609D02*
X139469714Y-109601847D01*
X139469714Y-109601847D02*
X139469714Y-109839942D01*
X139469714Y-109839942D02*
X139422095Y-109935180D01*
X139422095Y-109935180D02*
X139374476Y-109982800D01*
X139374476Y-109982800D02*
X139279238Y-110030419D01*
X139279238Y-110030419D02*
X139041143Y-110030419D01*
X139041143Y-110030419D02*
X138945905Y-109982800D01*
X138945905Y-109982800D02*
X138898286Y-109935180D01*
X179001141Y-120968581D02*
X178953522Y-121016201D01*
X178953522Y-121016201D02*
X178810665Y-121063820D01*
X178810665Y-121063820D02*
X178715427Y-121063820D01*
X178715427Y-121063820D02*
X178572570Y-121016201D01*
X178572570Y-121016201D02*
X178477332Y-120920962D01*
X178477332Y-120920962D02*
X178429713Y-120825724D01*
X178429713Y-120825724D02*
X178382094Y-120635248D01*
X178382094Y-120635248D02*
X178382094Y-120492391D01*
X178382094Y-120492391D02*
X178429713Y-120301915D01*
X178429713Y-120301915D02*
X178477332Y-120206677D01*
X178477332Y-120206677D02*
X178572570Y-120111439D01*
X178572570Y-120111439D02*
X178715427Y-120063820D01*
X178715427Y-120063820D02*
X178810665Y-120063820D01*
X178810665Y-120063820D02*
X178953522Y-120111439D01*
X178953522Y-120111439D02*
X179001141Y-120159058D01*
X179382094Y-120159058D02*
X179429713Y-120111439D01*
X179429713Y-120111439D02*
X179524951Y-120063820D01*
X179524951Y-120063820D02*
X179763046Y-120063820D01*
X179763046Y-120063820D02*
X179858284Y-120111439D01*
X179858284Y-120111439D02*
X179905903Y-120159058D01*
X179905903Y-120159058D02*
X179953522Y-120254296D01*
X179953522Y-120254296D02*
X179953522Y-120349534D01*
X179953522Y-120349534D02*
X179905903Y-120492391D01*
X179905903Y-120492391D02*
X179334475Y-121063820D01*
X179334475Y-121063820D02*
X179953522Y-121063820D01*
X180905903Y-121063820D02*
X180334475Y-121063820D01*
X180620189Y-121063820D02*
X180620189Y-120063820D01*
X180620189Y-120063820D02*
X180524951Y-120206677D01*
X180524951Y-120206677D02*
X180429713Y-120301915D01*
X180429713Y-120301915D02*
X180334475Y-120349534D01*
X186419095Y-84248019D02*
X186990523Y-84248019D01*
X186704809Y-85248019D02*
X186704809Y-84248019D01*
X187323857Y-85248019D02*
X187323857Y-84248019D01*
X187323857Y-84248019D02*
X187704809Y-84248019D01*
X187704809Y-84248019D02*
X187800047Y-84295638D01*
X187800047Y-84295638D02*
X187847666Y-84343257D01*
X187847666Y-84343257D02*
X187895285Y-84438495D01*
X187895285Y-84438495D02*
X187895285Y-84581352D01*
X187895285Y-84581352D02*
X187847666Y-84676590D01*
X187847666Y-84676590D02*
X187800047Y-84724209D01*
X187800047Y-84724209D02*
X187704809Y-84771828D01*
X187704809Y-84771828D02*
X187323857Y-84771828D01*
X188276238Y-84343257D02*
X188323857Y-84295638D01*
X188323857Y-84295638D02*
X188419095Y-84248019D01*
X188419095Y-84248019D02*
X188657190Y-84248019D01*
X188657190Y-84248019D02*
X188752428Y-84295638D01*
X188752428Y-84295638D02*
X188800047Y-84343257D01*
X188800047Y-84343257D02*
X188847666Y-84438495D01*
X188847666Y-84438495D02*
X188847666Y-84533733D01*
X188847666Y-84533733D02*
X188800047Y-84676590D01*
X188800047Y-84676590D02*
X188228619Y-85248019D01*
X188228619Y-85248019D02*
X188847666Y-85248019D01*
X151037142Y-114949580D02*
X150989523Y-114997200D01*
X150989523Y-114997200D02*
X150846666Y-115044819D01*
X150846666Y-115044819D02*
X150751428Y-115044819D01*
X150751428Y-115044819D02*
X150608571Y-114997200D01*
X150608571Y-114997200D02*
X150513333Y-114901961D01*
X150513333Y-114901961D02*
X150465714Y-114806723D01*
X150465714Y-114806723D02*
X150418095Y-114616247D01*
X150418095Y-114616247D02*
X150418095Y-114473390D01*
X150418095Y-114473390D02*
X150465714Y-114282914D01*
X150465714Y-114282914D02*
X150513333Y-114187676D01*
X150513333Y-114187676D02*
X150608571Y-114092438D01*
X150608571Y-114092438D02*
X150751428Y-114044819D01*
X150751428Y-114044819D02*
X150846666Y-114044819D01*
X150846666Y-114044819D02*
X150989523Y-114092438D01*
X150989523Y-114092438D02*
X151037142Y-114140057D01*
X151989523Y-115044819D02*
X151418095Y-115044819D01*
X151703809Y-115044819D02*
X151703809Y-114044819D01*
X151703809Y-114044819D02*
X151608571Y-114187676D01*
X151608571Y-114187676D02*
X151513333Y-114282914D01*
X151513333Y-114282914D02*
X151418095Y-114330533D01*
X152846666Y-114378152D02*
X152846666Y-115044819D01*
X152608571Y-113997200D02*
X152370476Y-114711485D01*
X152370476Y-114711485D02*
X152989523Y-114711485D01*
X176301141Y-124268581D02*
X176253522Y-124316201D01*
X176253522Y-124316201D02*
X176110665Y-124363820D01*
X176110665Y-124363820D02*
X176015427Y-124363820D01*
X176015427Y-124363820D02*
X175872570Y-124316201D01*
X175872570Y-124316201D02*
X175777332Y-124220962D01*
X175777332Y-124220962D02*
X175729713Y-124125724D01*
X175729713Y-124125724D02*
X175682094Y-123935248D01*
X175682094Y-123935248D02*
X175682094Y-123792391D01*
X175682094Y-123792391D02*
X175729713Y-123601915D01*
X175729713Y-123601915D02*
X175777332Y-123506677D01*
X175777332Y-123506677D02*
X175872570Y-123411439D01*
X175872570Y-123411439D02*
X176015427Y-123363820D01*
X176015427Y-123363820D02*
X176110665Y-123363820D01*
X176110665Y-123363820D02*
X176253522Y-123411439D01*
X176253522Y-123411439D02*
X176301141Y-123459058D01*
X176682094Y-123459058D02*
X176729713Y-123411439D01*
X176729713Y-123411439D02*
X176824951Y-123363820D01*
X176824951Y-123363820D02*
X177063046Y-123363820D01*
X177063046Y-123363820D02*
X177158284Y-123411439D01*
X177158284Y-123411439D02*
X177205903Y-123459058D01*
X177205903Y-123459058D02*
X177253522Y-123554296D01*
X177253522Y-123554296D02*
X177253522Y-123649534D01*
X177253522Y-123649534D02*
X177205903Y-123792391D01*
X177205903Y-123792391D02*
X176634475Y-124363820D01*
X176634475Y-124363820D02*
X177253522Y-124363820D01*
X177634475Y-123459058D02*
X177682094Y-123411439D01*
X177682094Y-123411439D02*
X177777332Y-123363820D01*
X177777332Y-123363820D02*
X178015427Y-123363820D01*
X178015427Y-123363820D02*
X178110665Y-123411439D01*
X178110665Y-123411439D02*
X178158284Y-123459058D01*
X178158284Y-123459058D02*
X178205903Y-123554296D01*
X178205903Y-123554296D02*
X178205903Y-123649534D01*
X178205903Y-123649534D02*
X178158284Y-123792391D01*
X178158284Y-123792391D02*
X177586856Y-124363820D01*
X177586856Y-124363820D02*
X178205903Y-124363820D01*
X192254819Y-111538094D02*
X191254819Y-111538094D01*
X191254819Y-111538094D02*
X191254819Y-111299999D01*
X191254819Y-111299999D02*
X191302438Y-111157142D01*
X191302438Y-111157142D02*
X191397676Y-111061904D01*
X191397676Y-111061904D02*
X191492914Y-111014285D01*
X191492914Y-111014285D02*
X191683390Y-110966666D01*
X191683390Y-110966666D02*
X191826247Y-110966666D01*
X191826247Y-110966666D02*
X192016723Y-111014285D01*
X192016723Y-111014285D02*
X192111961Y-111061904D01*
X192111961Y-111061904D02*
X192207200Y-111157142D01*
X192207200Y-111157142D02*
X192254819Y-111299999D01*
X192254819Y-111299999D02*
X192254819Y-111538094D01*
X192254819Y-110014285D02*
X192254819Y-110585713D01*
X192254819Y-110299999D02*
X191254819Y-110299999D01*
X191254819Y-110299999D02*
X191397676Y-110395237D01*
X191397676Y-110395237D02*
X191492914Y-110490475D01*
X191492914Y-110490475D02*
X191540533Y-110585713D01*
X169401141Y-110757581D02*
X169353522Y-110805201D01*
X169353522Y-110805201D02*
X169210665Y-110852820D01*
X169210665Y-110852820D02*
X169115427Y-110852820D01*
X169115427Y-110852820D02*
X168972570Y-110805201D01*
X168972570Y-110805201D02*
X168877332Y-110709962D01*
X168877332Y-110709962D02*
X168829713Y-110614724D01*
X168829713Y-110614724D02*
X168782094Y-110424248D01*
X168782094Y-110424248D02*
X168782094Y-110281391D01*
X168782094Y-110281391D02*
X168829713Y-110090915D01*
X168829713Y-110090915D02*
X168877332Y-109995677D01*
X168877332Y-109995677D02*
X168972570Y-109900439D01*
X168972570Y-109900439D02*
X169115427Y-109852820D01*
X169115427Y-109852820D02*
X169210665Y-109852820D01*
X169210665Y-109852820D02*
X169353522Y-109900439D01*
X169353522Y-109900439D02*
X169401141Y-109948058D01*
X170353522Y-110852820D02*
X169782094Y-110852820D01*
X170067808Y-110852820D02*
X170067808Y-109852820D01*
X170067808Y-109852820D02*
X169972570Y-109995677D01*
X169972570Y-109995677D02*
X169877332Y-110090915D01*
X169877332Y-110090915D02*
X169782094Y-110138534D01*
X170924951Y-110281391D02*
X170829713Y-110233772D01*
X170829713Y-110233772D02*
X170782094Y-110186153D01*
X170782094Y-110186153D02*
X170734475Y-110090915D01*
X170734475Y-110090915D02*
X170734475Y-110043296D01*
X170734475Y-110043296D02*
X170782094Y-109948058D01*
X170782094Y-109948058D02*
X170829713Y-109900439D01*
X170829713Y-109900439D02*
X170924951Y-109852820D01*
X170924951Y-109852820D02*
X171115427Y-109852820D01*
X171115427Y-109852820D02*
X171210665Y-109900439D01*
X171210665Y-109900439D02*
X171258284Y-109948058D01*
X171258284Y-109948058D02*
X171305903Y-110043296D01*
X171305903Y-110043296D02*
X171305903Y-110090915D01*
X171305903Y-110090915D02*
X171258284Y-110186153D01*
X171258284Y-110186153D02*
X171210665Y-110233772D01*
X171210665Y-110233772D02*
X171115427Y-110281391D01*
X171115427Y-110281391D02*
X170924951Y-110281391D01*
X170924951Y-110281391D02*
X170829713Y-110329010D01*
X170829713Y-110329010D02*
X170782094Y-110376629D01*
X170782094Y-110376629D02*
X170734475Y-110471867D01*
X170734475Y-110471867D02*
X170734475Y-110662343D01*
X170734475Y-110662343D02*
X170782094Y-110757581D01*
X170782094Y-110757581D02*
X170829713Y-110805201D01*
X170829713Y-110805201D02*
X170924951Y-110852820D01*
X170924951Y-110852820D02*
X171115427Y-110852820D01*
X171115427Y-110852820D02*
X171210665Y-110805201D01*
X171210665Y-110805201D02*
X171258284Y-110757581D01*
X171258284Y-110757581D02*
X171305903Y-110662343D01*
X171305903Y-110662343D02*
X171305903Y-110471867D01*
X171305903Y-110471867D02*
X171258284Y-110376629D01*
X171258284Y-110376629D02*
X171210665Y-110329010D01*
X171210665Y-110329010D02*
X171115427Y-110281391D01*
X136259580Y-92091666D02*
X136307200Y-92139285D01*
X136307200Y-92139285D02*
X136354819Y-92282142D01*
X136354819Y-92282142D02*
X136354819Y-92377380D01*
X136354819Y-92377380D02*
X136307200Y-92520237D01*
X136307200Y-92520237D02*
X136211961Y-92615475D01*
X136211961Y-92615475D02*
X136116723Y-92663094D01*
X136116723Y-92663094D02*
X135926247Y-92710713D01*
X135926247Y-92710713D02*
X135783390Y-92710713D01*
X135783390Y-92710713D02*
X135592914Y-92663094D01*
X135592914Y-92663094D02*
X135497676Y-92615475D01*
X135497676Y-92615475D02*
X135402438Y-92520237D01*
X135402438Y-92520237D02*
X135354819Y-92377380D01*
X135354819Y-92377380D02*
X135354819Y-92282142D01*
X135354819Y-92282142D02*
X135402438Y-92139285D01*
X135402438Y-92139285D02*
X135450057Y-92091666D01*
X135354819Y-91186904D02*
X135354819Y-91663094D01*
X135354819Y-91663094D02*
X135831009Y-91710713D01*
X135831009Y-91710713D02*
X135783390Y-91663094D01*
X135783390Y-91663094D02*
X135735771Y-91567856D01*
X135735771Y-91567856D02*
X135735771Y-91329761D01*
X135735771Y-91329761D02*
X135783390Y-91234523D01*
X135783390Y-91234523D02*
X135831009Y-91186904D01*
X135831009Y-91186904D02*
X135926247Y-91139285D01*
X135926247Y-91139285D02*
X136164342Y-91139285D01*
X136164342Y-91139285D02*
X136259580Y-91186904D01*
X136259580Y-91186904D02*
X136307200Y-91234523D01*
X136307200Y-91234523D02*
X136354819Y-91329761D01*
X136354819Y-91329761D02*
X136354819Y-91567856D01*
X136354819Y-91567856D02*
X136307200Y-91663094D01*
X136307200Y-91663094D02*
X136259580Y-91710713D01*
X153787142Y-114879580D02*
X153739523Y-114927200D01*
X153739523Y-114927200D02*
X153596666Y-114974819D01*
X153596666Y-114974819D02*
X153501428Y-114974819D01*
X153501428Y-114974819D02*
X153358571Y-114927200D01*
X153358571Y-114927200D02*
X153263333Y-114831961D01*
X153263333Y-114831961D02*
X153215714Y-114736723D01*
X153215714Y-114736723D02*
X153168095Y-114546247D01*
X153168095Y-114546247D02*
X153168095Y-114403390D01*
X153168095Y-114403390D02*
X153215714Y-114212914D01*
X153215714Y-114212914D02*
X153263333Y-114117676D01*
X153263333Y-114117676D02*
X153358571Y-114022438D01*
X153358571Y-114022438D02*
X153501428Y-113974819D01*
X153501428Y-113974819D02*
X153596666Y-113974819D01*
X153596666Y-113974819D02*
X153739523Y-114022438D01*
X153739523Y-114022438D02*
X153787142Y-114070057D01*
X154739523Y-114974819D02*
X154168095Y-114974819D01*
X154453809Y-114974819D02*
X154453809Y-113974819D01*
X154453809Y-113974819D02*
X154358571Y-114117676D01*
X154358571Y-114117676D02*
X154263333Y-114212914D01*
X154263333Y-114212914D02*
X154168095Y-114260533D01*
X155072857Y-113974819D02*
X155691904Y-113974819D01*
X155691904Y-113974819D02*
X155358571Y-114355771D01*
X155358571Y-114355771D02*
X155501428Y-114355771D01*
X155501428Y-114355771D02*
X155596666Y-114403390D01*
X155596666Y-114403390D02*
X155644285Y-114451009D01*
X155644285Y-114451009D02*
X155691904Y-114546247D01*
X155691904Y-114546247D02*
X155691904Y-114784342D01*
X155691904Y-114784342D02*
X155644285Y-114879580D01*
X155644285Y-114879580D02*
X155596666Y-114927200D01*
X155596666Y-114927200D02*
X155501428Y-114974819D01*
X155501428Y-114974819D02*
X155215714Y-114974819D01*
X155215714Y-114974819D02*
X155120476Y-114927200D01*
X155120476Y-114927200D02*
X155072857Y-114879580D01*
X115838095Y-114844819D02*
X116409523Y-114844819D01*
X116123809Y-115844819D02*
X116123809Y-114844819D01*
X116742857Y-115844819D02*
X116742857Y-114844819D01*
X116742857Y-114844819D02*
X117123809Y-114844819D01*
X117123809Y-114844819D02*
X117219047Y-114892438D01*
X117219047Y-114892438D02*
X117266666Y-114940057D01*
X117266666Y-114940057D02*
X117314285Y-115035295D01*
X117314285Y-115035295D02*
X117314285Y-115178152D01*
X117314285Y-115178152D02*
X117266666Y-115273390D01*
X117266666Y-115273390D02*
X117219047Y-115321009D01*
X117219047Y-115321009D02*
X117123809Y-115368628D01*
X117123809Y-115368628D02*
X116742857Y-115368628D01*
X117647619Y-114844819D02*
X118266666Y-114844819D01*
X118266666Y-114844819D02*
X117933333Y-115225771D01*
X117933333Y-115225771D02*
X118076190Y-115225771D01*
X118076190Y-115225771D02*
X118171428Y-115273390D01*
X118171428Y-115273390D02*
X118219047Y-115321009D01*
X118219047Y-115321009D02*
X118266666Y-115416247D01*
X118266666Y-115416247D02*
X118266666Y-115654342D01*
X118266666Y-115654342D02*
X118219047Y-115749580D01*
X118219047Y-115749580D02*
X118171428Y-115797200D01*
X118171428Y-115797200D02*
X118076190Y-115844819D01*
X118076190Y-115844819D02*
X117790476Y-115844819D01*
X117790476Y-115844819D02*
X117695238Y-115797200D01*
X117695238Y-115797200D02*
X117647619Y-115749580D01*
X181033333Y-96759580D02*
X180985714Y-96807200D01*
X180985714Y-96807200D02*
X180842857Y-96854819D01*
X180842857Y-96854819D02*
X180747619Y-96854819D01*
X180747619Y-96854819D02*
X180604762Y-96807200D01*
X180604762Y-96807200D02*
X180509524Y-96711961D01*
X180509524Y-96711961D02*
X180461905Y-96616723D01*
X180461905Y-96616723D02*
X180414286Y-96426247D01*
X180414286Y-96426247D02*
X180414286Y-96283390D01*
X180414286Y-96283390D02*
X180461905Y-96092914D01*
X180461905Y-96092914D02*
X180509524Y-95997676D01*
X180509524Y-95997676D02*
X180604762Y-95902438D01*
X180604762Y-95902438D02*
X180747619Y-95854819D01*
X180747619Y-95854819D02*
X180842857Y-95854819D01*
X180842857Y-95854819D02*
X180985714Y-95902438D01*
X180985714Y-95902438D02*
X181033333Y-95950057D01*
X181414286Y-95950057D02*
X181461905Y-95902438D01*
X181461905Y-95902438D02*
X181557143Y-95854819D01*
X181557143Y-95854819D02*
X181795238Y-95854819D01*
X181795238Y-95854819D02*
X181890476Y-95902438D01*
X181890476Y-95902438D02*
X181938095Y-95950057D01*
X181938095Y-95950057D02*
X181985714Y-96045295D01*
X181985714Y-96045295D02*
X181985714Y-96140533D01*
X181985714Y-96140533D02*
X181938095Y-96283390D01*
X181938095Y-96283390D02*
X181366667Y-96854819D01*
X181366667Y-96854819D02*
X181985714Y-96854819D01*
X172553333Y-96720819D02*
X172220000Y-96244628D01*
X171981905Y-96720819D02*
X171981905Y-95720819D01*
X171981905Y-95720819D02*
X172362857Y-95720819D01*
X172362857Y-95720819D02*
X172458095Y-95768438D01*
X172458095Y-95768438D02*
X172505714Y-95816057D01*
X172505714Y-95816057D02*
X172553333Y-95911295D01*
X172553333Y-95911295D02*
X172553333Y-96054152D01*
X172553333Y-96054152D02*
X172505714Y-96149390D01*
X172505714Y-96149390D02*
X172458095Y-96197009D01*
X172458095Y-96197009D02*
X172362857Y-96244628D01*
X172362857Y-96244628D02*
X171981905Y-96244628D01*
X172934286Y-95816057D02*
X172981905Y-95768438D01*
X172981905Y-95768438D02*
X173077143Y-95720819D01*
X173077143Y-95720819D02*
X173315238Y-95720819D01*
X173315238Y-95720819D02*
X173410476Y-95768438D01*
X173410476Y-95768438D02*
X173458095Y-95816057D01*
X173458095Y-95816057D02*
X173505714Y-95911295D01*
X173505714Y-95911295D02*
X173505714Y-96006533D01*
X173505714Y-96006533D02*
X173458095Y-96149390D01*
X173458095Y-96149390D02*
X172886667Y-96720819D01*
X172886667Y-96720819D02*
X173505714Y-96720819D01*
X168516667Y-83357200D02*
X168659524Y-83404819D01*
X168659524Y-83404819D02*
X168897619Y-83404819D01*
X168897619Y-83404819D02*
X168992857Y-83357200D01*
X168992857Y-83357200D02*
X169040476Y-83309580D01*
X169040476Y-83309580D02*
X169088095Y-83214342D01*
X169088095Y-83214342D02*
X169088095Y-83119104D01*
X169088095Y-83119104D02*
X169040476Y-83023866D01*
X169040476Y-83023866D02*
X168992857Y-82976247D01*
X168992857Y-82976247D02*
X168897619Y-82928628D01*
X168897619Y-82928628D02*
X168707143Y-82881009D01*
X168707143Y-82881009D02*
X168611905Y-82833390D01*
X168611905Y-82833390D02*
X168564286Y-82785771D01*
X168564286Y-82785771D02*
X168516667Y-82690533D01*
X168516667Y-82690533D02*
X168516667Y-82595295D01*
X168516667Y-82595295D02*
X168564286Y-82500057D01*
X168564286Y-82500057D02*
X168611905Y-82452438D01*
X168611905Y-82452438D02*
X168707143Y-82404819D01*
X168707143Y-82404819D02*
X168945238Y-82404819D01*
X168945238Y-82404819D02*
X169088095Y-82452438D01*
X169421429Y-82404819D02*
X169659524Y-83404819D01*
X169659524Y-83404819D02*
X169850000Y-82690533D01*
X169850000Y-82690533D02*
X170040476Y-83404819D01*
X170040476Y-83404819D02*
X170278572Y-82404819D01*
X170611905Y-82500057D02*
X170659524Y-82452438D01*
X170659524Y-82452438D02*
X170754762Y-82404819D01*
X170754762Y-82404819D02*
X170992857Y-82404819D01*
X170992857Y-82404819D02*
X171088095Y-82452438D01*
X171088095Y-82452438D02*
X171135714Y-82500057D01*
X171135714Y-82500057D02*
X171183333Y-82595295D01*
X171183333Y-82595295D02*
X171183333Y-82690533D01*
X171183333Y-82690533D02*
X171135714Y-82833390D01*
X171135714Y-82833390D02*
X170564286Y-83404819D01*
X170564286Y-83404819D02*
X171183333Y-83404819D01*
X171924941Y-106033181D02*
X171877322Y-106080801D01*
X171877322Y-106080801D02*
X171734465Y-106128420D01*
X171734465Y-106128420D02*
X171639227Y-106128420D01*
X171639227Y-106128420D02*
X171496370Y-106080801D01*
X171496370Y-106080801D02*
X171401132Y-105985562D01*
X171401132Y-105985562D02*
X171353513Y-105890324D01*
X171353513Y-105890324D02*
X171305894Y-105699848D01*
X171305894Y-105699848D02*
X171305894Y-105556991D01*
X171305894Y-105556991D02*
X171353513Y-105366515D01*
X171353513Y-105366515D02*
X171401132Y-105271277D01*
X171401132Y-105271277D02*
X171496370Y-105176039D01*
X171496370Y-105176039D02*
X171639227Y-105128420D01*
X171639227Y-105128420D02*
X171734465Y-105128420D01*
X171734465Y-105128420D02*
X171877322Y-105176039D01*
X171877322Y-105176039D02*
X171924941Y-105223658D01*
X172877322Y-106128420D02*
X172305894Y-106128420D01*
X172591608Y-106128420D02*
X172591608Y-105128420D01*
X172591608Y-105128420D02*
X172496370Y-105271277D01*
X172496370Y-105271277D02*
X172401132Y-105366515D01*
X172401132Y-105366515D02*
X172305894Y-105414134D01*
X173353513Y-106128420D02*
X173543989Y-106128420D01*
X173543989Y-106128420D02*
X173639227Y-106080801D01*
X173639227Y-106080801D02*
X173686846Y-106033181D01*
X173686846Y-106033181D02*
X173782084Y-105890324D01*
X173782084Y-105890324D02*
X173829703Y-105699848D01*
X173829703Y-105699848D02*
X173829703Y-105318896D01*
X173829703Y-105318896D02*
X173782084Y-105223658D01*
X173782084Y-105223658D02*
X173734465Y-105176039D01*
X173734465Y-105176039D02*
X173639227Y-105128420D01*
X173639227Y-105128420D02*
X173448751Y-105128420D01*
X173448751Y-105128420D02*
X173353513Y-105176039D01*
X173353513Y-105176039D02*
X173305894Y-105223658D01*
X173305894Y-105223658D02*
X173258275Y-105318896D01*
X173258275Y-105318896D02*
X173258275Y-105556991D01*
X173258275Y-105556991D02*
X173305894Y-105652229D01*
X173305894Y-105652229D02*
X173353513Y-105699848D01*
X173353513Y-105699848D02*
X173448751Y-105747467D01*
X173448751Y-105747467D02*
X173639227Y-105747467D01*
X173639227Y-105747467D02*
X173734465Y-105699848D01*
X173734465Y-105699848D02*
X173782084Y-105652229D01*
X173782084Y-105652229D02*
X173829703Y-105556991D01*
X172717319Y-93511904D02*
X173526842Y-93511904D01*
X173526842Y-93511904D02*
X173622080Y-93464285D01*
X173622080Y-93464285D02*
X173669700Y-93416666D01*
X173669700Y-93416666D02*
X173717319Y-93321428D01*
X173717319Y-93321428D02*
X173717319Y-93130952D01*
X173717319Y-93130952D02*
X173669700Y-93035714D01*
X173669700Y-93035714D02*
X173622080Y-92988095D01*
X173622080Y-92988095D02*
X173526842Y-92940476D01*
X173526842Y-92940476D02*
X172717319Y-92940476D01*
X173050652Y-92035714D02*
X173717319Y-92035714D01*
X172669700Y-92273809D02*
X173383985Y-92511904D01*
X173383985Y-92511904D02*
X173383985Y-91892857D01*
X168497579Y-121951858D02*
X168545199Y-121999477D01*
X168545199Y-121999477D02*
X168592818Y-122142334D01*
X168592818Y-122142334D02*
X168592818Y-122237572D01*
X168592818Y-122237572D02*
X168545199Y-122380429D01*
X168545199Y-122380429D02*
X168449960Y-122475667D01*
X168449960Y-122475667D02*
X168354722Y-122523286D01*
X168354722Y-122523286D02*
X168164246Y-122570905D01*
X168164246Y-122570905D02*
X168021389Y-122570905D01*
X168021389Y-122570905D02*
X167830913Y-122523286D01*
X167830913Y-122523286D02*
X167735675Y-122475667D01*
X167735675Y-122475667D02*
X167640437Y-122380429D01*
X167640437Y-122380429D02*
X167592818Y-122237572D01*
X167592818Y-122237572D02*
X167592818Y-122142334D01*
X167592818Y-122142334D02*
X167640437Y-121999477D01*
X167640437Y-121999477D02*
X167688056Y-121951858D01*
X167688056Y-121570905D02*
X167640437Y-121523286D01*
X167640437Y-121523286D02*
X167592818Y-121428048D01*
X167592818Y-121428048D02*
X167592818Y-121189953D01*
X167592818Y-121189953D02*
X167640437Y-121094715D01*
X167640437Y-121094715D02*
X167688056Y-121047096D01*
X167688056Y-121047096D02*
X167783294Y-120999477D01*
X167783294Y-120999477D02*
X167878532Y-120999477D01*
X167878532Y-120999477D02*
X168021389Y-121047096D01*
X168021389Y-121047096D02*
X168592818Y-121618524D01*
X168592818Y-121618524D02*
X168592818Y-120999477D01*
X167592818Y-120380429D02*
X167592818Y-120285191D01*
X167592818Y-120285191D02*
X167640437Y-120189953D01*
X167640437Y-120189953D02*
X167688056Y-120142334D01*
X167688056Y-120142334D02*
X167783294Y-120094715D01*
X167783294Y-120094715D02*
X167973770Y-120047096D01*
X167973770Y-120047096D02*
X168211865Y-120047096D01*
X168211865Y-120047096D02*
X168402341Y-120094715D01*
X168402341Y-120094715D02*
X168497579Y-120142334D01*
X168497579Y-120142334D02*
X168545199Y-120189953D01*
X168545199Y-120189953D02*
X168592818Y-120285191D01*
X168592818Y-120285191D02*
X168592818Y-120380429D01*
X168592818Y-120380429D02*
X168545199Y-120475667D01*
X168545199Y-120475667D02*
X168497579Y-120523286D01*
X168497579Y-120523286D02*
X168402341Y-120570905D01*
X168402341Y-120570905D02*
X168211865Y-120618524D01*
X168211865Y-120618524D02*
X167973770Y-120618524D01*
X167973770Y-120618524D02*
X167783294Y-120570905D01*
X167783294Y-120570905D02*
X167688056Y-120523286D01*
X167688056Y-120523286D02*
X167640437Y-120475667D01*
X167640437Y-120475667D02*
X167592818Y-120380429D01*
X132959580Y-90117857D02*
X133007200Y-90165476D01*
X133007200Y-90165476D02*
X133054819Y-90308333D01*
X133054819Y-90308333D02*
X133054819Y-90403571D01*
X133054819Y-90403571D02*
X133007200Y-90546428D01*
X133007200Y-90546428D02*
X132911961Y-90641666D01*
X132911961Y-90641666D02*
X132816723Y-90689285D01*
X132816723Y-90689285D02*
X132626247Y-90736904D01*
X132626247Y-90736904D02*
X132483390Y-90736904D01*
X132483390Y-90736904D02*
X132292914Y-90689285D01*
X132292914Y-90689285D02*
X132197676Y-90641666D01*
X132197676Y-90641666D02*
X132102438Y-90546428D01*
X132102438Y-90546428D02*
X132054819Y-90403571D01*
X132054819Y-90403571D02*
X132054819Y-90308333D01*
X132054819Y-90308333D02*
X132102438Y-90165476D01*
X132102438Y-90165476D02*
X132150057Y-90117857D01*
X132054819Y-89784523D02*
X132054819Y-89165476D01*
X132054819Y-89165476D02*
X132435771Y-89498809D01*
X132435771Y-89498809D02*
X132435771Y-89355952D01*
X132435771Y-89355952D02*
X132483390Y-89260714D01*
X132483390Y-89260714D02*
X132531009Y-89213095D01*
X132531009Y-89213095D02*
X132626247Y-89165476D01*
X132626247Y-89165476D02*
X132864342Y-89165476D01*
X132864342Y-89165476D02*
X132959580Y-89213095D01*
X132959580Y-89213095D02*
X133007200Y-89260714D01*
X133007200Y-89260714D02*
X133054819Y-89355952D01*
X133054819Y-89355952D02*
X133054819Y-89641666D01*
X133054819Y-89641666D02*
X133007200Y-89736904D01*
X133007200Y-89736904D02*
X132959580Y-89784523D01*
X132150057Y-88784523D02*
X132102438Y-88736904D01*
X132102438Y-88736904D02*
X132054819Y-88641666D01*
X132054819Y-88641666D02*
X132054819Y-88403571D01*
X132054819Y-88403571D02*
X132102438Y-88308333D01*
X132102438Y-88308333D02*
X132150057Y-88260714D01*
X132150057Y-88260714D02*
X132245295Y-88213095D01*
X132245295Y-88213095D02*
X132340533Y-88213095D01*
X132340533Y-88213095D02*
X132483390Y-88260714D01*
X132483390Y-88260714D02*
X133054819Y-88832142D01*
X133054819Y-88832142D02*
X133054819Y-88213095D01*
X192354819Y-116538094D02*
X191354819Y-116538094D01*
X191354819Y-116538094D02*
X191354819Y-116299999D01*
X191354819Y-116299999D02*
X191402438Y-116157142D01*
X191402438Y-116157142D02*
X191497676Y-116061904D01*
X191497676Y-116061904D02*
X191592914Y-116014285D01*
X191592914Y-116014285D02*
X191783390Y-115966666D01*
X191783390Y-115966666D02*
X191926247Y-115966666D01*
X191926247Y-115966666D02*
X192116723Y-116014285D01*
X192116723Y-116014285D02*
X192211961Y-116061904D01*
X192211961Y-116061904D02*
X192307200Y-116157142D01*
X192307200Y-116157142D02*
X192354819Y-116299999D01*
X192354819Y-116299999D02*
X192354819Y-116538094D01*
X191688152Y-115109523D02*
X192354819Y-115109523D01*
X191307200Y-115347618D02*
X192021485Y-115585713D01*
X192021485Y-115585713D02*
X192021485Y-114966666D01*
X188769580Y-122702857D02*
X188817200Y-122750476D01*
X188817200Y-122750476D02*
X188864819Y-122893333D01*
X188864819Y-122893333D02*
X188864819Y-122988571D01*
X188864819Y-122988571D02*
X188817200Y-123131428D01*
X188817200Y-123131428D02*
X188721961Y-123226666D01*
X188721961Y-123226666D02*
X188626723Y-123274285D01*
X188626723Y-123274285D02*
X188436247Y-123321904D01*
X188436247Y-123321904D02*
X188293390Y-123321904D01*
X188293390Y-123321904D02*
X188102914Y-123274285D01*
X188102914Y-123274285D02*
X188007676Y-123226666D01*
X188007676Y-123226666D02*
X187912438Y-123131428D01*
X187912438Y-123131428D02*
X187864819Y-122988571D01*
X187864819Y-122988571D02*
X187864819Y-122893333D01*
X187864819Y-122893333D02*
X187912438Y-122750476D01*
X187912438Y-122750476D02*
X187960057Y-122702857D01*
X187864819Y-122369523D02*
X187864819Y-121750476D01*
X187864819Y-121750476D02*
X188245771Y-122083809D01*
X188245771Y-122083809D02*
X188245771Y-121940952D01*
X188245771Y-121940952D02*
X188293390Y-121845714D01*
X188293390Y-121845714D02*
X188341009Y-121798095D01*
X188341009Y-121798095D02*
X188436247Y-121750476D01*
X188436247Y-121750476D02*
X188674342Y-121750476D01*
X188674342Y-121750476D02*
X188769580Y-121798095D01*
X188769580Y-121798095D02*
X188817200Y-121845714D01*
X188817200Y-121845714D02*
X188864819Y-121940952D01*
X188864819Y-121940952D02*
X188864819Y-122226666D01*
X188864819Y-122226666D02*
X188817200Y-122321904D01*
X188817200Y-122321904D02*
X188769580Y-122369523D01*
X188864819Y-120798095D02*
X188864819Y-121369523D01*
X188864819Y-121083809D02*
X187864819Y-121083809D01*
X187864819Y-121083809D02*
X188007676Y-121179047D01*
X188007676Y-121179047D02*
X188102914Y-121274285D01*
X188102914Y-121274285D02*
X188150533Y-121369523D01*
X174657141Y-110768581D02*
X174609522Y-110816201D01*
X174609522Y-110816201D02*
X174466665Y-110863820D01*
X174466665Y-110863820D02*
X174371427Y-110863820D01*
X174371427Y-110863820D02*
X174228570Y-110816201D01*
X174228570Y-110816201D02*
X174133332Y-110720962D01*
X174133332Y-110720962D02*
X174085713Y-110625724D01*
X174085713Y-110625724D02*
X174038094Y-110435248D01*
X174038094Y-110435248D02*
X174038094Y-110292391D01*
X174038094Y-110292391D02*
X174085713Y-110101915D01*
X174085713Y-110101915D02*
X174133332Y-110006677D01*
X174133332Y-110006677D02*
X174228570Y-109911439D01*
X174228570Y-109911439D02*
X174371427Y-109863820D01*
X174371427Y-109863820D02*
X174466665Y-109863820D01*
X174466665Y-109863820D02*
X174609522Y-109911439D01*
X174609522Y-109911439D02*
X174657141Y-109959058D01*
X175609522Y-110863820D02*
X175038094Y-110863820D01*
X175323808Y-110863820D02*
X175323808Y-109863820D01*
X175323808Y-109863820D02*
X175228570Y-110006677D01*
X175228570Y-110006677D02*
X175133332Y-110101915D01*
X175133332Y-110101915D02*
X175038094Y-110149534D01*
X176514284Y-109863820D02*
X176038094Y-109863820D01*
X176038094Y-109863820D02*
X175990475Y-110340010D01*
X175990475Y-110340010D02*
X176038094Y-110292391D01*
X176038094Y-110292391D02*
X176133332Y-110244772D01*
X176133332Y-110244772D02*
X176371427Y-110244772D01*
X176371427Y-110244772D02*
X176466665Y-110292391D01*
X176466665Y-110292391D02*
X176514284Y-110340010D01*
X176514284Y-110340010D02*
X176561903Y-110435248D01*
X176561903Y-110435248D02*
X176561903Y-110673343D01*
X176561903Y-110673343D02*
X176514284Y-110768581D01*
X176514284Y-110768581D02*
X176466665Y-110816201D01*
X176466665Y-110816201D02*
X176371427Y-110863820D01*
X176371427Y-110863820D02*
X176133332Y-110863820D01*
X176133332Y-110863820D02*
X176038094Y-110816201D01*
X176038094Y-110816201D02*
X175990475Y-110768581D01*
X123007780Y-90427066D02*
X123055400Y-90474685D01*
X123055400Y-90474685D02*
X123103019Y-90617542D01*
X123103019Y-90617542D02*
X123103019Y-90712780D01*
X123103019Y-90712780D02*
X123055400Y-90855637D01*
X123055400Y-90855637D02*
X122960161Y-90950875D01*
X122960161Y-90950875D02*
X122864923Y-90998494D01*
X122864923Y-90998494D02*
X122674447Y-91046113D01*
X122674447Y-91046113D02*
X122531590Y-91046113D01*
X122531590Y-91046113D02*
X122341114Y-90998494D01*
X122341114Y-90998494D02*
X122245876Y-90950875D01*
X122245876Y-90950875D02*
X122150638Y-90855637D01*
X122150638Y-90855637D02*
X122103019Y-90712780D01*
X122103019Y-90712780D02*
X122103019Y-90617542D01*
X122103019Y-90617542D02*
X122150638Y-90474685D01*
X122150638Y-90474685D02*
X122198257Y-90427066D01*
X122436352Y-89569923D02*
X123103019Y-89569923D01*
X122055400Y-89808018D02*
X122769685Y-90046113D01*
X122769685Y-90046113D02*
X122769685Y-89427066D01*
X131158142Y-93582580D02*
X131110523Y-93630200D01*
X131110523Y-93630200D02*
X130967666Y-93677819D01*
X130967666Y-93677819D02*
X130872428Y-93677819D01*
X130872428Y-93677819D02*
X130729571Y-93630200D01*
X130729571Y-93630200D02*
X130634333Y-93534961D01*
X130634333Y-93534961D02*
X130586714Y-93439723D01*
X130586714Y-93439723D02*
X130539095Y-93249247D01*
X130539095Y-93249247D02*
X130539095Y-93106390D01*
X130539095Y-93106390D02*
X130586714Y-92915914D01*
X130586714Y-92915914D02*
X130634333Y-92820676D01*
X130634333Y-92820676D02*
X130729571Y-92725438D01*
X130729571Y-92725438D02*
X130872428Y-92677819D01*
X130872428Y-92677819D02*
X130967666Y-92677819D01*
X130967666Y-92677819D02*
X131110523Y-92725438D01*
X131110523Y-92725438D02*
X131158142Y-92773057D01*
X131539095Y-92773057D02*
X131586714Y-92725438D01*
X131586714Y-92725438D02*
X131681952Y-92677819D01*
X131681952Y-92677819D02*
X131920047Y-92677819D01*
X131920047Y-92677819D02*
X132015285Y-92725438D01*
X132015285Y-92725438D02*
X132062904Y-92773057D01*
X132062904Y-92773057D02*
X132110523Y-92868295D01*
X132110523Y-92868295D02*
X132110523Y-92963533D01*
X132110523Y-92963533D02*
X132062904Y-93106390D01*
X132062904Y-93106390D02*
X131491476Y-93677819D01*
X131491476Y-93677819D02*
X132110523Y-93677819D01*
X132967666Y-93011152D02*
X132967666Y-93677819D01*
X132729571Y-92630200D02*
X132491476Y-93344485D01*
X132491476Y-93344485D02*
X133110523Y-93344485D01*
X126504819Y-89766666D02*
X126028628Y-90099999D01*
X126504819Y-90338094D02*
X125504819Y-90338094D01*
X125504819Y-90338094D02*
X125504819Y-89957142D01*
X125504819Y-89957142D02*
X125552438Y-89861904D01*
X125552438Y-89861904D02*
X125600057Y-89814285D01*
X125600057Y-89814285D02*
X125695295Y-89766666D01*
X125695295Y-89766666D02*
X125838152Y-89766666D01*
X125838152Y-89766666D02*
X125933390Y-89814285D01*
X125933390Y-89814285D02*
X125981009Y-89861904D01*
X125981009Y-89861904D02*
X126028628Y-89957142D01*
X126028628Y-89957142D02*
X126028628Y-90338094D01*
X125504819Y-89433332D02*
X125504819Y-88814285D01*
X125504819Y-88814285D02*
X125885771Y-89147618D01*
X125885771Y-89147618D02*
X125885771Y-89004761D01*
X125885771Y-89004761D02*
X125933390Y-88909523D01*
X125933390Y-88909523D02*
X125981009Y-88861904D01*
X125981009Y-88861904D02*
X126076247Y-88814285D01*
X126076247Y-88814285D02*
X126314342Y-88814285D01*
X126314342Y-88814285D02*
X126409580Y-88861904D01*
X126409580Y-88861904D02*
X126457200Y-88909523D01*
X126457200Y-88909523D02*
X126504819Y-89004761D01*
X126504819Y-89004761D02*
X126504819Y-89290475D01*
X126504819Y-89290475D02*
X126457200Y-89385713D01*
X126457200Y-89385713D02*
X126409580Y-89433332D01*
X115768095Y-110584819D02*
X116339523Y-110584819D01*
X116053809Y-111584819D02*
X116053809Y-110584819D01*
X116672857Y-111584819D02*
X116672857Y-110584819D01*
X116672857Y-110584819D02*
X117053809Y-110584819D01*
X117053809Y-110584819D02*
X117149047Y-110632438D01*
X117149047Y-110632438D02*
X117196666Y-110680057D01*
X117196666Y-110680057D02*
X117244285Y-110775295D01*
X117244285Y-110775295D02*
X117244285Y-110918152D01*
X117244285Y-110918152D02*
X117196666Y-111013390D01*
X117196666Y-111013390D02*
X117149047Y-111061009D01*
X117149047Y-111061009D02*
X117053809Y-111108628D01*
X117053809Y-111108628D02*
X116672857Y-111108628D01*
X118196666Y-111584819D02*
X117625238Y-111584819D01*
X117910952Y-111584819D02*
X117910952Y-110584819D01*
X117910952Y-110584819D02*
X117815714Y-110727676D01*
X117815714Y-110727676D02*
X117720476Y-110822914D01*
X117720476Y-110822914D02*
X117625238Y-110870533D01*
X179981579Y-108754858D02*
X180029199Y-108802477D01*
X180029199Y-108802477D02*
X180076818Y-108945334D01*
X180076818Y-108945334D02*
X180076818Y-109040572D01*
X180076818Y-109040572D02*
X180029199Y-109183429D01*
X180029199Y-109183429D02*
X179933960Y-109278667D01*
X179933960Y-109278667D02*
X179838722Y-109326286D01*
X179838722Y-109326286D02*
X179648246Y-109373905D01*
X179648246Y-109373905D02*
X179505389Y-109373905D01*
X179505389Y-109373905D02*
X179314913Y-109326286D01*
X179314913Y-109326286D02*
X179219675Y-109278667D01*
X179219675Y-109278667D02*
X179124437Y-109183429D01*
X179124437Y-109183429D02*
X179076818Y-109040572D01*
X179076818Y-109040572D02*
X179076818Y-108945334D01*
X179076818Y-108945334D02*
X179124437Y-108802477D01*
X179124437Y-108802477D02*
X179172056Y-108754858D01*
X180076818Y-107802477D02*
X180076818Y-108373905D01*
X180076818Y-108088191D02*
X179076818Y-108088191D01*
X179076818Y-108088191D02*
X179219675Y-108183429D01*
X179219675Y-108183429D02*
X179314913Y-108278667D01*
X179314913Y-108278667D02*
X179362532Y-108373905D01*
X179076818Y-106945334D02*
X179076818Y-107135810D01*
X179076818Y-107135810D02*
X179124437Y-107231048D01*
X179124437Y-107231048D02*
X179172056Y-107278667D01*
X179172056Y-107278667D02*
X179314913Y-107373905D01*
X179314913Y-107373905D02*
X179505389Y-107421524D01*
X179505389Y-107421524D02*
X179886341Y-107421524D01*
X179886341Y-107421524D02*
X179981579Y-107373905D01*
X179981579Y-107373905D02*
X180029199Y-107326286D01*
X180029199Y-107326286D02*
X180076818Y-107231048D01*
X180076818Y-107231048D02*
X180076818Y-107040572D01*
X180076818Y-107040572D02*
X180029199Y-106945334D01*
X180029199Y-106945334D02*
X179981579Y-106897715D01*
X179981579Y-106897715D02*
X179886341Y-106850096D01*
X179886341Y-106850096D02*
X179648246Y-106850096D01*
X179648246Y-106850096D02*
X179553008Y-106897715D01*
X179553008Y-106897715D02*
X179505389Y-106945334D01*
X179505389Y-106945334D02*
X179457770Y-107040572D01*
X179457770Y-107040572D02*
X179457770Y-107231048D01*
X179457770Y-107231048D02*
X179505389Y-107326286D01*
X179505389Y-107326286D02*
X179553008Y-107373905D01*
X179553008Y-107373905D02*
X179648246Y-107421524D01*
X154904819Y-81988094D02*
X153904819Y-81988094D01*
X153904819Y-81988094D02*
X153904819Y-81749999D01*
X153904819Y-81749999D02*
X153952438Y-81607142D01*
X153952438Y-81607142D02*
X154047676Y-81511904D01*
X154047676Y-81511904D02*
X154142914Y-81464285D01*
X154142914Y-81464285D02*
X154333390Y-81416666D01*
X154333390Y-81416666D02*
X154476247Y-81416666D01*
X154476247Y-81416666D02*
X154666723Y-81464285D01*
X154666723Y-81464285D02*
X154761961Y-81511904D01*
X154761961Y-81511904D02*
X154857200Y-81607142D01*
X154857200Y-81607142D02*
X154904819Y-81749999D01*
X154904819Y-81749999D02*
X154904819Y-81988094D01*
X153904819Y-80511904D02*
X153904819Y-80988094D01*
X153904819Y-80988094D02*
X154381009Y-81035713D01*
X154381009Y-81035713D02*
X154333390Y-80988094D01*
X154333390Y-80988094D02*
X154285771Y-80892856D01*
X154285771Y-80892856D02*
X154285771Y-80654761D01*
X154285771Y-80654761D02*
X154333390Y-80559523D01*
X154333390Y-80559523D02*
X154381009Y-80511904D01*
X154381009Y-80511904D02*
X154476247Y-80464285D01*
X154476247Y-80464285D02*
X154714342Y-80464285D01*
X154714342Y-80464285D02*
X154809580Y-80511904D01*
X154809580Y-80511904D02*
X154857200Y-80559523D01*
X154857200Y-80559523D02*
X154904819Y-80654761D01*
X154904819Y-80654761D02*
X154904819Y-80892856D01*
X154904819Y-80892856D02*
X154857200Y-80988094D01*
X154857200Y-80988094D02*
X154809580Y-81035713D01*
X162079219Y-90142857D02*
X161603028Y-90476190D01*
X162079219Y-90714285D02*
X161079219Y-90714285D01*
X161079219Y-90714285D02*
X161079219Y-90333333D01*
X161079219Y-90333333D02*
X161126838Y-90238095D01*
X161126838Y-90238095D02*
X161174457Y-90190476D01*
X161174457Y-90190476D02*
X161269695Y-90142857D01*
X161269695Y-90142857D02*
X161412552Y-90142857D01*
X161412552Y-90142857D02*
X161507790Y-90190476D01*
X161507790Y-90190476D02*
X161555409Y-90238095D01*
X161555409Y-90238095D02*
X161603028Y-90333333D01*
X161603028Y-90333333D02*
X161603028Y-90714285D01*
X162079219Y-89190476D02*
X162079219Y-89761904D01*
X162079219Y-89476190D02*
X161079219Y-89476190D01*
X161079219Y-89476190D02*
X161222076Y-89571428D01*
X161222076Y-89571428D02*
X161317314Y-89666666D01*
X161317314Y-89666666D02*
X161364933Y-89761904D01*
X161079219Y-88333333D02*
X161079219Y-88523809D01*
X161079219Y-88523809D02*
X161126838Y-88619047D01*
X161126838Y-88619047D02*
X161174457Y-88666666D01*
X161174457Y-88666666D02*
X161317314Y-88761904D01*
X161317314Y-88761904D02*
X161507790Y-88809523D01*
X161507790Y-88809523D02*
X161888742Y-88809523D01*
X161888742Y-88809523D02*
X161983980Y-88761904D01*
X161983980Y-88761904D02*
X162031600Y-88714285D01*
X162031600Y-88714285D02*
X162079219Y-88619047D01*
X162079219Y-88619047D02*
X162079219Y-88428571D01*
X162079219Y-88428571D02*
X162031600Y-88333333D01*
X162031600Y-88333333D02*
X161983980Y-88285714D01*
X161983980Y-88285714D02*
X161888742Y-88238095D01*
X161888742Y-88238095D02*
X161650647Y-88238095D01*
X161650647Y-88238095D02*
X161555409Y-88285714D01*
X161555409Y-88285714D02*
X161507790Y-88333333D01*
X161507790Y-88333333D02*
X161460171Y-88428571D01*
X161460171Y-88428571D02*
X161460171Y-88619047D01*
X161460171Y-88619047D02*
X161507790Y-88714285D01*
X161507790Y-88714285D02*
X161555409Y-88761904D01*
X161555409Y-88761904D02*
X161650647Y-88809523D01*
X134713742Y-105007580D02*
X134666123Y-105055200D01*
X134666123Y-105055200D02*
X134523266Y-105102819D01*
X134523266Y-105102819D02*
X134428028Y-105102819D01*
X134428028Y-105102819D02*
X134285171Y-105055200D01*
X134285171Y-105055200D02*
X134189933Y-104959961D01*
X134189933Y-104959961D02*
X134142314Y-104864723D01*
X134142314Y-104864723D02*
X134094695Y-104674247D01*
X134094695Y-104674247D02*
X134094695Y-104531390D01*
X134094695Y-104531390D02*
X134142314Y-104340914D01*
X134142314Y-104340914D02*
X134189933Y-104245676D01*
X134189933Y-104245676D02*
X134285171Y-104150438D01*
X134285171Y-104150438D02*
X134428028Y-104102819D01*
X134428028Y-104102819D02*
X134523266Y-104102819D01*
X134523266Y-104102819D02*
X134666123Y-104150438D01*
X134666123Y-104150438D02*
X134713742Y-104198057D01*
X135094695Y-104198057D02*
X135142314Y-104150438D01*
X135142314Y-104150438D02*
X135237552Y-104102819D01*
X135237552Y-104102819D02*
X135475647Y-104102819D01*
X135475647Y-104102819D02*
X135570885Y-104150438D01*
X135570885Y-104150438D02*
X135618504Y-104198057D01*
X135618504Y-104198057D02*
X135666123Y-104293295D01*
X135666123Y-104293295D02*
X135666123Y-104388533D01*
X135666123Y-104388533D02*
X135618504Y-104531390D01*
X135618504Y-104531390D02*
X135047076Y-105102819D01*
X135047076Y-105102819D02*
X135666123Y-105102819D01*
X136523266Y-104102819D02*
X136332790Y-104102819D01*
X136332790Y-104102819D02*
X136237552Y-104150438D01*
X136237552Y-104150438D02*
X136189933Y-104198057D01*
X136189933Y-104198057D02*
X136094695Y-104340914D01*
X136094695Y-104340914D02*
X136047076Y-104531390D01*
X136047076Y-104531390D02*
X136047076Y-104912342D01*
X136047076Y-104912342D02*
X136094695Y-105007580D01*
X136094695Y-105007580D02*
X136142314Y-105055200D01*
X136142314Y-105055200D02*
X136237552Y-105102819D01*
X136237552Y-105102819D02*
X136428028Y-105102819D01*
X136428028Y-105102819D02*
X136523266Y-105055200D01*
X136523266Y-105055200D02*
X136570885Y-105007580D01*
X136570885Y-105007580D02*
X136618504Y-104912342D01*
X136618504Y-104912342D02*
X136618504Y-104674247D01*
X136618504Y-104674247D02*
X136570885Y-104579009D01*
X136570885Y-104579009D02*
X136523266Y-104531390D01*
X136523266Y-104531390D02*
X136428028Y-104483771D01*
X136428028Y-104483771D02*
X136237552Y-104483771D01*
X136237552Y-104483771D02*
X136142314Y-104531390D01*
X136142314Y-104531390D02*
X136094695Y-104579009D01*
X136094695Y-104579009D02*
X136047076Y-104674247D01*
X134129542Y-101597619D02*
X133796209Y-101121428D01*
X133558114Y-101597619D02*
X133558114Y-100597619D01*
X133558114Y-100597619D02*
X133939066Y-100597619D01*
X133939066Y-100597619D02*
X134034304Y-100645238D01*
X134034304Y-100645238D02*
X134081923Y-100692857D01*
X134081923Y-100692857D02*
X134129542Y-100788095D01*
X134129542Y-100788095D02*
X134129542Y-100930952D01*
X134129542Y-100930952D02*
X134081923Y-101026190D01*
X134081923Y-101026190D02*
X134034304Y-101073809D01*
X134034304Y-101073809D02*
X133939066Y-101121428D01*
X133939066Y-101121428D02*
X133558114Y-101121428D01*
X135081923Y-101597619D02*
X134510495Y-101597619D01*
X134796209Y-101597619D02*
X134796209Y-100597619D01*
X134796209Y-100597619D02*
X134700971Y-100740476D01*
X134700971Y-100740476D02*
X134605733Y-100835714D01*
X134605733Y-100835714D02*
X134510495Y-100883333D01*
X135700971Y-100597619D02*
X135796209Y-100597619D01*
X135796209Y-100597619D02*
X135891447Y-100645238D01*
X135891447Y-100645238D02*
X135939066Y-100692857D01*
X135939066Y-100692857D02*
X135986685Y-100788095D01*
X135986685Y-100788095D02*
X136034304Y-100978571D01*
X136034304Y-100978571D02*
X136034304Y-101216666D01*
X136034304Y-101216666D02*
X135986685Y-101407142D01*
X135986685Y-101407142D02*
X135939066Y-101502380D01*
X135939066Y-101502380D02*
X135891447Y-101550000D01*
X135891447Y-101550000D02*
X135796209Y-101597619D01*
X135796209Y-101597619D02*
X135700971Y-101597619D01*
X135700971Y-101597619D02*
X135605733Y-101550000D01*
X135605733Y-101550000D02*
X135558114Y-101502380D01*
X135558114Y-101502380D02*
X135510495Y-101407142D01*
X135510495Y-101407142D02*
X135462876Y-101216666D01*
X135462876Y-101216666D02*
X135462876Y-100978571D01*
X135462876Y-100978571D02*
X135510495Y-100788095D01*
X135510495Y-100788095D02*
X135558114Y-100692857D01*
X135558114Y-100692857D02*
X135605733Y-100645238D01*
X135605733Y-100645238D02*
X135700971Y-100597619D01*
X198065547Y-91655981D02*
X198065547Y-92371380D01*
X198065547Y-92371380D02*
X198017853Y-92514460D01*
X198017853Y-92514460D02*
X197922467Y-92609847D01*
X197922467Y-92609847D02*
X197779387Y-92657540D01*
X197779387Y-92657540D02*
X197684000Y-92657540D01*
X198494787Y-91751367D02*
X198542480Y-91703674D01*
X198542480Y-91703674D02*
X198637867Y-91655981D01*
X198637867Y-91655981D02*
X198876333Y-91655981D01*
X198876333Y-91655981D02*
X198971720Y-91703674D01*
X198971720Y-91703674D02*
X199019413Y-91751367D01*
X199019413Y-91751367D02*
X199067106Y-91846754D01*
X199067106Y-91846754D02*
X199067106Y-91942141D01*
X199067106Y-91942141D02*
X199019413Y-92085220D01*
X199019413Y-92085220D02*
X198447093Y-92657540D01*
X198447093Y-92657540D02*
X199067106Y-92657540D01*
X168592818Y-124026667D02*
X168116627Y-124360000D01*
X168592818Y-124598095D02*
X167592818Y-124598095D01*
X167592818Y-124598095D02*
X167592818Y-124217143D01*
X167592818Y-124217143D02*
X167640437Y-124121905D01*
X167640437Y-124121905D02*
X167688056Y-124074286D01*
X167688056Y-124074286D02*
X167783294Y-124026667D01*
X167783294Y-124026667D02*
X167926151Y-124026667D01*
X167926151Y-124026667D02*
X168021389Y-124074286D01*
X168021389Y-124074286D02*
X168069008Y-124121905D01*
X168069008Y-124121905D02*
X168116627Y-124217143D01*
X168116627Y-124217143D02*
X168116627Y-124598095D01*
X168021389Y-123455238D02*
X167973770Y-123550476D01*
X167973770Y-123550476D02*
X167926151Y-123598095D01*
X167926151Y-123598095D02*
X167830913Y-123645714D01*
X167830913Y-123645714D02*
X167783294Y-123645714D01*
X167783294Y-123645714D02*
X167688056Y-123598095D01*
X167688056Y-123598095D02*
X167640437Y-123550476D01*
X167640437Y-123550476D02*
X167592818Y-123455238D01*
X167592818Y-123455238D02*
X167592818Y-123264762D01*
X167592818Y-123264762D02*
X167640437Y-123169524D01*
X167640437Y-123169524D02*
X167688056Y-123121905D01*
X167688056Y-123121905D02*
X167783294Y-123074286D01*
X167783294Y-123074286D02*
X167830913Y-123074286D01*
X167830913Y-123074286D02*
X167926151Y-123121905D01*
X167926151Y-123121905D02*
X167973770Y-123169524D01*
X167973770Y-123169524D02*
X168021389Y-123264762D01*
X168021389Y-123264762D02*
X168021389Y-123455238D01*
X168021389Y-123455238D02*
X168069008Y-123550476D01*
X168069008Y-123550476D02*
X168116627Y-123598095D01*
X168116627Y-123598095D02*
X168211865Y-123645714D01*
X168211865Y-123645714D02*
X168402341Y-123645714D01*
X168402341Y-123645714D02*
X168497579Y-123598095D01*
X168497579Y-123598095D02*
X168545199Y-123550476D01*
X168545199Y-123550476D02*
X168592818Y-123455238D01*
X168592818Y-123455238D02*
X168592818Y-123264762D01*
X168592818Y-123264762D02*
X168545199Y-123169524D01*
X168545199Y-123169524D02*
X168497579Y-123121905D01*
X168497579Y-123121905D02*
X168402341Y-123074286D01*
X168402341Y-123074286D02*
X168211865Y-123074286D01*
X168211865Y-123074286D02*
X168116627Y-123121905D01*
X168116627Y-123121905D02*
X168069008Y-123169524D01*
X168069008Y-123169524D02*
X168021389Y-123264762D01*
X183651419Y-107212694D02*
X182651419Y-107212694D01*
X182651419Y-107212694D02*
X182651419Y-106974599D01*
X182651419Y-106974599D02*
X182699038Y-106831742D01*
X182699038Y-106831742D02*
X182794276Y-106736504D01*
X182794276Y-106736504D02*
X182889514Y-106688885D01*
X182889514Y-106688885D02*
X183079990Y-106641266D01*
X183079990Y-106641266D02*
X183222847Y-106641266D01*
X183222847Y-106641266D02*
X183413323Y-106688885D01*
X183413323Y-106688885D02*
X183508561Y-106736504D01*
X183508561Y-106736504D02*
X183603800Y-106831742D01*
X183603800Y-106831742D02*
X183651419Y-106974599D01*
X183651419Y-106974599D02*
X183651419Y-107212694D01*
X182651419Y-106307932D02*
X182651419Y-105688885D01*
X182651419Y-105688885D02*
X183032371Y-106022218D01*
X183032371Y-106022218D02*
X183032371Y-105879361D01*
X183032371Y-105879361D02*
X183079990Y-105784123D01*
X183079990Y-105784123D02*
X183127609Y-105736504D01*
X183127609Y-105736504D02*
X183222847Y-105688885D01*
X183222847Y-105688885D02*
X183460942Y-105688885D01*
X183460942Y-105688885D02*
X183556180Y-105736504D01*
X183556180Y-105736504D02*
X183603800Y-105784123D01*
X183603800Y-105784123D02*
X183651419Y-105879361D01*
X183651419Y-105879361D02*
X183651419Y-106165075D01*
X183651419Y-106165075D02*
X183603800Y-106260313D01*
X183603800Y-106260313D02*
X183556180Y-106307932D01*
X170521333Y-88592819D02*
X170188000Y-88116628D01*
X169949905Y-88592819D02*
X169949905Y-87592819D01*
X169949905Y-87592819D02*
X170330857Y-87592819D01*
X170330857Y-87592819D02*
X170426095Y-87640438D01*
X170426095Y-87640438D02*
X170473714Y-87688057D01*
X170473714Y-87688057D02*
X170521333Y-87783295D01*
X170521333Y-87783295D02*
X170521333Y-87926152D01*
X170521333Y-87926152D02*
X170473714Y-88021390D01*
X170473714Y-88021390D02*
X170426095Y-88069009D01*
X170426095Y-88069009D02*
X170330857Y-88116628D01*
X170330857Y-88116628D02*
X169949905Y-88116628D01*
X171473714Y-88592819D02*
X170902286Y-88592819D01*
X171188000Y-88592819D02*
X171188000Y-87592819D01*
X171188000Y-87592819D02*
X171092762Y-87735676D01*
X171092762Y-87735676D02*
X170997524Y-87830914D01*
X170997524Y-87830914D02*
X170902286Y-87878533D01*
D11*
X156744936Y-123467800D02*
X157199064Y-123467800D01*
X156744936Y-121997800D02*
X157199064Y-121997800D01*
X165454000Y-110466136D02*
X165454000Y-110920264D01*
X163984000Y-110466136D02*
X163984000Y-110920264D01*
X162972936Y-104365000D02*
X163427064Y-104365000D01*
X162972936Y-102895000D02*
X163427064Y-102895000D01*
X156818000Y-111482136D02*
X156818000Y-111936264D01*
X155348000Y-111482136D02*
X155348000Y-111936264D01*
X162942936Y-99545000D02*
X163397064Y-99545000D01*
X162942936Y-101015000D02*
X163397064Y-101015000D01*
X162982936Y-106165000D02*
X163437064Y-106165000D01*
X162982936Y-107635000D02*
X163437064Y-107635000D01*
X126210000Y-119360000D02*
X126210000Y-123360000D01*
X126500000Y-118330000D02*
X126500000Y-124350000D01*
X126500000Y-124350000D02*
X131800000Y-124350000D01*
X127080000Y-118330000D02*
X127080000Y-118930000D01*
X127080000Y-118930000D02*
X128680000Y-118930000D01*
X127880000Y-123350000D02*
X128130000Y-122820000D01*
X127880000Y-123350000D02*
X130420000Y-123350000D01*
X127880000Y-124350000D02*
X127880000Y-123350000D01*
X128130000Y-122820000D02*
X130170000Y-122820000D01*
X128130000Y-124350000D02*
X128130000Y-123350000D01*
X128680000Y-118930000D02*
X128680000Y-118330000D01*
X129620000Y-118330000D02*
X129620000Y-118930000D01*
X129620000Y-118930000D02*
X131220000Y-118930000D01*
X130170000Y-122820000D02*
X130420000Y-123350000D01*
X130170000Y-124350000D02*
X130170000Y-123350000D01*
X130420000Y-123350000D02*
X130420000Y-124350000D01*
X131220000Y-118930000D02*
X131220000Y-118330000D01*
X131800000Y-118330000D02*
X126500000Y-118330000D01*
X131800000Y-124350000D02*
X131800000Y-118330000D01*
X118900000Y-119400000D02*
X118900000Y-123400000D01*
X119190000Y-118370000D02*
X119190000Y-124390000D01*
X119190000Y-124390000D02*
X124490000Y-124390000D01*
X119770000Y-118370000D02*
X119770000Y-118970000D01*
X119770000Y-118970000D02*
X121370000Y-118970000D01*
X120570000Y-123390000D02*
X120820000Y-122860000D01*
X120570000Y-123390000D02*
X123110000Y-123390000D01*
X120570000Y-124390000D02*
X120570000Y-123390000D01*
X120820000Y-122860000D02*
X122860000Y-122860000D01*
X120820000Y-124390000D02*
X120820000Y-123390000D01*
X121370000Y-118970000D02*
X121370000Y-118370000D01*
X122310000Y-118370000D02*
X122310000Y-118970000D01*
X122310000Y-118970000D02*
X123910000Y-118970000D01*
X122860000Y-122860000D02*
X123110000Y-123390000D01*
X122860000Y-124390000D02*
X122860000Y-123390000D01*
X123110000Y-123390000D02*
X123110000Y-124390000D01*
X123910000Y-118970000D02*
X123910000Y-118370000D01*
X124490000Y-118370000D02*
X119190000Y-118370000D01*
X124490000Y-124390000D02*
X124490000Y-118370000D01*
X130127064Y-111915000D02*
X129672936Y-111915000D01*
X130127064Y-113385000D02*
X129672936Y-113385000D01*
X130167064Y-115925000D02*
X129712936Y-115925000D01*
X130167064Y-114455000D02*
X129712936Y-114455000D01*
X164322000Y-119052000D02*
X162322000Y-119052000D01*
X164322000Y-119052000D02*
X164322000Y-123062000D01*
X162322000Y-119052000D02*
X162322000Y-123062000D01*
X164319200Y-113871200D02*
X162319200Y-113871200D01*
X164319200Y-113871200D02*
X164319200Y-117881200D01*
X162319200Y-113871200D02*
X162319200Y-117881200D01*
X167319200Y-113921200D02*
X165319200Y-113921200D01*
X167319200Y-113921200D02*
X167319200Y-117931200D01*
X165319200Y-113921200D02*
X165319200Y-117931200D01*
X167302000Y-118992000D02*
X165302000Y-118992000D01*
X167302000Y-118992000D02*
X167302000Y-123002000D01*
X165302000Y-118992000D02*
X165302000Y-123002000D01*
X123098748Y-114505000D02*
X123621252Y-114505000D01*
X123098748Y-115975000D02*
X123621252Y-115975000D01*
X123088748Y-112145000D02*
X123611252Y-112145000D01*
X123088748Y-113615000D02*
X123611252Y-113615000D01*
X190440000Y-118688748D02*
X190440000Y-119211252D01*
X191910000Y-118688748D02*
X191910000Y-119211252D01*
X162461252Y-81715000D02*
X161938748Y-81715000D01*
X162461252Y-83185000D02*
X161938748Y-83185000D01*
X176465000Y-88027064D02*
X176465000Y-87572936D01*
X177935000Y-88027064D02*
X177935000Y-87572936D01*
X159987500Y-112470000D02*
X159987500Y-117970000D01*
X158037500Y-112470000D02*
X159987500Y-112470000D01*
X160537500Y-116320000D02*
X160237500Y-116620000D01*
X160237500Y-116620000D02*
X160537500Y-116920000D01*
X160537500Y-116920000D02*
X160537500Y-116320000D01*
X159987500Y-117970000D02*
X158037500Y-117970000D01*
X158037500Y-117970000D02*
X158037500Y-112470000D01*
X120550000Y-80350000D02*
X126850000Y-80350000D01*
X120550000Y-80600000D02*
X120550000Y-80350000D01*
X120550000Y-85100000D02*
X120550000Y-82500000D01*
X120550000Y-87250000D02*
X120550000Y-87000000D01*
X126850000Y-80350000D02*
X126850000Y-80600000D01*
X126850000Y-82500000D02*
X126850000Y-85100000D01*
X126850000Y-87000000D02*
X126850000Y-87250000D01*
X126850000Y-87250000D02*
X120550000Y-87250000D01*
X181043948Y-87098200D02*
X181566452Y-87098200D01*
X181043948Y-88568200D02*
X181566452Y-88568200D01*
X153465000Y-111927064D02*
X153465000Y-111472936D01*
X151995000Y-111927064D02*
X151995000Y-111472936D01*
X180891548Y-93956200D02*
X181414052Y-93956200D01*
X180891548Y-95426200D02*
X181414052Y-95426200D01*
X174678999Y-121736065D02*
X174678999Y-121281937D01*
X173208999Y-121736065D02*
X173208999Y-121281937D01*
X111170000Y-92775000D02*
X111170000Y-93775000D01*
X111170000Y-93775000D02*
X112170000Y-93275000D01*
X112170000Y-93275000D02*
X111170000Y-92775000D01*
X112560000Y-88065000D02*
X121680000Y-88065000D01*
X112560000Y-96305000D02*
X113870000Y-96305000D01*
X112560000Y-108645000D02*
X112560000Y-88065000D01*
X113870000Y-89365000D02*
X120370000Y-89365000D01*
X113870000Y-96305000D02*
X113870000Y-89365000D01*
X113870000Y-100405000D02*
X112560000Y-100405000D01*
X113870000Y-100405000D02*
X113870000Y-100405000D01*
X113870000Y-107345000D02*
X113870000Y-100405000D01*
X120370000Y-89365000D02*
X120370000Y-107345000D01*
X120370000Y-107345000D02*
X113870000Y-107345000D01*
X121680000Y-88065000D02*
X121680000Y-108645000D01*
X121680000Y-108645000D02*
X112560000Y-108645000D01*
X166829500Y-93436000D02*
X166179500Y-93436000D01*
X166829500Y-93436000D02*
X167479500Y-93436000D01*
X166829500Y-96556000D02*
X166179500Y-96556000D01*
X166829500Y-96556000D02*
X167479500Y-96556000D01*
X168232000Y-96836000D02*
X167752000Y-96836000D01*
X167992000Y-96506000D01*
X168232000Y-96836000D01*
G36*
X168232000Y-96836000D02*
G01*
X167752000Y-96836000D01*
X167992000Y-96506000D01*
X168232000Y-96836000D01*
G37*
X131437748Y-96801000D02*
X131960252Y-96801000D01*
X131437748Y-98271000D02*
X131960252Y-98271000D01*
X162022936Y-85315000D02*
X162477064Y-85315000D01*
X162022936Y-86785000D02*
X162477064Y-86785000D01*
X159152936Y-110245000D02*
X159607064Y-110245000D01*
X159152936Y-111715000D02*
X159607064Y-111715000D01*
X184290000Y-109590000D02*
X184290000Y-110850000D01*
X184290000Y-116410000D02*
X184290000Y-115150000D01*
X188050000Y-109590000D02*
X184290000Y-109590000D01*
X188050000Y-116410000D02*
X184290000Y-116410000D01*
X189570000Y-116640000D02*
X189090000Y-116640000D01*
X189330000Y-116310000D01*
X189570000Y-116640000D01*
G36*
X189570000Y-116640000D02*
G01*
X189090000Y-116640000D01*
X189330000Y-116310000D01*
X189570000Y-116640000D01*
G37*
D10*
X187297000Y-122529600D02*
G75*
G02*
X183797000Y-122529600I-1750000J0D01*
G01*
X183797000Y-122529600D02*
G75*
G02*
X187297000Y-122529600I1750000J0D01*
G01*
D11*
X166608999Y-108246253D02*
X166608999Y-107723749D01*
X168078999Y-108246253D02*
X168078999Y-107723749D01*
X156770336Y-121334200D02*
X157224464Y-121334200D01*
X156770336Y-119864200D02*
X157224464Y-119864200D01*
X144143464Y-110745600D02*
X143689336Y-110745600D01*
X144143464Y-112215600D02*
X143689336Y-112215600D01*
X192590000Y-104750000D02*
X192590000Y-108050000D01*
X192590000Y-104750000D02*
X198100000Y-104750000D01*
X192590000Y-108050000D02*
X198100000Y-108050000D01*
X180993148Y-90603400D02*
X181515652Y-90603400D01*
X180993148Y-92073400D02*
X181515652Y-92073400D01*
X149745000Y-117221252D02*
X149745000Y-116698748D01*
X148275000Y-117221252D02*
X148275000Y-116698748D01*
X176420000Y-83680000D02*
X176420000Y-82350000D01*
X177750000Y-83680000D02*
X176420000Y-83680000D01*
X179020000Y-81020000D02*
X189240000Y-81020000D01*
X179020000Y-83680000D02*
X179020000Y-81020000D01*
X179020000Y-83680000D02*
X189240000Y-83680000D01*
X189240000Y-83680000D02*
X189240000Y-81020000D01*
X149275000Y-82060000D02*
X151960000Y-82060000D01*
X151960000Y-80140000D02*
X149275000Y-80140000D01*
X151960000Y-82060000D02*
X151960000Y-80140000D01*
D12*
X151390002Y-124570000D02*
X151390002Y-119470000D01*
X149139999Y-119470000D02*
X151390002Y-119470000D01*
X147990001Y-124570000D02*
X151390002Y-124570000D01*
X147990001Y-124570000D02*
X147990001Y-120619998D01*
X147990001Y-120619998D02*
X149139999Y-119470000D01*
D11*
X136735000Y-110728000D02*
X131235000Y-110728000D01*
X136735000Y-108778000D02*
X136735000Y-110728000D01*
X135685000Y-108228000D02*
X135085000Y-108228000D01*
X135385000Y-108528000D02*
X135685000Y-108228000D01*
X135085000Y-108228000D02*
X135385000Y-108528000D01*
X131235000Y-110728000D02*
X131235000Y-108778000D01*
X131235000Y-108778000D02*
X136735000Y-108778000D01*
X128327064Y-106290000D02*
X127872936Y-106290000D01*
X128327064Y-107760000D02*
X127872936Y-107760000D01*
X136402064Y-93715000D02*
X135947936Y-93715000D01*
X136402064Y-95185000D02*
X135947936Y-95185000D01*
X138609400Y-105335336D02*
X138609400Y-105789464D01*
X140079400Y-105335336D02*
X140079400Y-105789464D01*
X162515000Y-95657936D02*
X162515000Y-96112064D01*
X163985000Y-95657936D02*
X163985000Y-96112064D01*
D10*
X185239600Y-118719600D02*
G75*
G02*
X181739600Y-118719600I-1750000J0D01*
G01*
X181739600Y-118719600D02*
G75*
G02*
X185239600Y-118719600I1750000J0D01*
G01*
D12*
X168444999Y-115220001D02*
X168444999Y-113470001D01*
X169694999Y-116470001D02*
X168444999Y-115220001D01*
X178244999Y-113470001D02*
X168444999Y-113470001D01*
X178244999Y-116470001D02*
X169694999Y-116470001D01*
X178244999Y-116470001D02*
X178244999Y-113470001D01*
D11*
X130215000Y-89889564D02*
X130215000Y-89435436D01*
X131685000Y-89889564D02*
X131685000Y-89435436D01*
X122843000Y-106289600D02*
X125643000Y-106289600D01*
X122843000Y-108289600D02*
X122843000Y-106289600D01*
X125643000Y-106289600D02*
X125643000Y-108289600D01*
X125643000Y-108289600D02*
X122843000Y-108289600D01*
X132075000Y-80400000D02*
X138375000Y-80400000D01*
X132075000Y-80650000D02*
X132075000Y-80400000D01*
X132075000Y-85150000D02*
X132075000Y-82550000D01*
X132075000Y-87300000D02*
X132075000Y-87050000D01*
X138375000Y-80400000D02*
X138375000Y-80650000D01*
X138375000Y-82550000D02*
X138375000Y-85150000D01*
X138375000Y-87050000D02*
X138375000Y-87300000D01*
X138375000Y-87300000D02*
X132075000Y-87300000D01*
D13*
X141468700Y-83047200D02*
X141468700Y-89925860D01*
X141468700Y-107914140D02*
X141468700Y-108802800D01*
X141468700Y-108802800D02*
X142875860Y-108802800D01*
X158324140Y-108802800D02*
X159731300Y-108802800D01*
X159731300Y-83047200D02*
X141468700Y-83047200D01*
X159731300Y-89925860D02*
X159731300Y-83047200D01*
X159731300Y-108802800D02*
X159731300Y-107914140D01*
D11*
X136377064Y-96415000D02*
X135922936Y-96415000D01*
X136377064Y-97885000D02*
X135922936Y-97885000D01*
X131488748Y-103190000D02*
X132011252Y-103190000D01*
X131488748Y-104660000D02*
X132011252Y-104660000D01*
X138511252Y-88215000D02*
X137988748Y-88215000D01*
X138511252Y-89685000D02*
X137988748Y-89685000D01*
X142725000Y-82285000D02*
X145410000Y-82285000D01*
X145410000Y-80365000D02*
X142725000Y-80365000D01*
X145410000Y-82285000D02*
X145410000Y-80365000D01*
X170968936Y-99722000D02*
X171423064Y-99722000D01*
X170968936Y-101192000D02*
X171423064Y-101192000D01*
X166751000Y-88930000D02*
X166101000Y-88930000D01*
X166751000Y-88930000D02*
X167401000Y-88930000D01*
X166751000Y-92050000D02*
X166101000Y-92050000D01*
X166751000Y-92050000D02*
X167401000Y-92050000D01*
X168153500Y-92330000D02*
X167673500Y-92330000D01*
X167913500Y-92000000D01*
X168153500Y-92330000D01*
G36*
X168153500Y-92330000D02*
G01*
X167673500Y-92330000D01*
X167913500Y-92000000D01*
X168153500Y-92330000D01*
G37*
X138887564Y-110390000D02*
X138433436Y-110390000D01*
X138887564Y-111860000D02*
X138433436Y-111860000D01*
X180378999Y-122747749D02*
X180378999Y-123270253D01*
X178908999Y-122747749D02*
X178908999Y-123270253D01*
D10*
X192631000Y-86563200D02*
G75*
G02*
X189131000Y-86563200I-1750000J0D01*
G01*
X189131000Y-86563200D02*
G75*
G02*
X192631000Y-86563200I1750000J0D01*
G01*
D11*
X152485000Y-117261252D02*
X152485000Y-116738748D01*
X151015000Y-117261252D02*
X151015000Y-116738748D01*
X177578999Y-121670253D02*
X177578999Y-121147749D01*
X176108999Y-121670253D02*
X176108999Y-121147749D01*
X192590000Y-109350000D02*
X192590000Y-112650000D01*
X192590000Y-109350000D02*
X198100000Y-109350000D01*
X192590000Y-112650000D02*
X198100000Y-112650000D01*
X170778999Y-108246253D02*
X170778999Y-107723749D01*
X169308999Y-108246253D02*
X169308999Y-107723749D01*
X138486252Y-91265000D02*
X137963748Y-91265000D01*
X138486252Y-92735000D02*
X137963748Y-92735000D01*
X155145000Y-117301252D02*
X155145000Y-116778748D01*
X153675000Y-117301252D02*
X153675000Y-116778748D01*
D10*
X115120000Y-115370000D02*
G75*
G02*
X111620000Y-115370000I-1750000J0D01*
G01*
X111620000Y-115370000D02*
G75*
G02*
X115120000Y-115370000I1750000J0D01*
G01*
D11*
X180938748Y-97265000D02*
X181461252Y-97265000D01*
X180938748Y-98735000D02*
X181461252Y-98735000D01*
X170080000Y-94768936D02*
X170080000Y-95223064D01*
X171550000Y-94768936D02*
X171550000Y-95223064D01*
X166500000Y-80250000D02*
X172800000Y-80250000D01*
X166500000Y-80500000D02*
X166500000Y-80250000D01*
X166500000Y-85000000D02*
X166500000Y-82400000D01*
X166500000Y-87150000D02*
X166500000Y-86900000D01*
X172800000Y-80250000D02*
X172800000Y-80500000D01*
X172800000Y-82400000D02*
X172800000Y-85000000D01*
X172800000Y-86900000D02*
X172800000Y-87150000D01*
X172800000Y-87150000D02*
X166500000Y-87150000D01*
X173378999Y-108246253D02*
X173378999Y-107723749D01*
X171908999Y-108246253D02*
X171908999Y-107723749D01*
X174452500Y-94860000D02*
X174122500Y-95100000D01*
X174122500Y-94620000D01*
X174452500Y-94860000D01*
G36*
X174452500Y-94860000D02*
G01*
X174122500Y-95100000D01*
X174122500Y-94620000D01*
X174452500Y-94860000D01*
G37*
X178672500Y-94860000D02*
X178197500Y-94860000D01*
X178672500Y-94385000D02*
X178672500Y-94860000D01*
X178672500Y-91115000D02*
X178672500Y-90640000D01*
X178672500Y-90640000D02*
X178197500Y-90640000D01*
X174927500Y-94860000D02*
X174692500Y-94860000D01*
X174452500Y-94385000D02*
X174452500Y-94560000D01*
X174452500Y-91115000D02*
X174452500Y-90640000D01*
X174452500Y-90640000D02*
X174927500Y-90640000D01*
X170939251Y-122044001D02*
X170416747Y-122044001D01*
X170939251Y-120574001D02*
X170416747Y-120574001D01*
X133465000Y-89388748D02*
X133465000Y-89911252D01*
X134935000Y-89388748D02*
X134935000Y-89911252D01*
X192590000Y-113950000D02*
X192590000Y-117250000D01*
X192590000Y-113950000D02*
X198100000Y-113950000D01*
X192590000Y-117250000D02*
X198100000Y-117250000D01*
X187340000Y-118713748D02*
X187340000Y-119236252D01*
X188810000Y-118713748D02*
X188810000Y-119236252D01*
X175978999Y-108246253D02*
X175978999Y-107723749D01*
X174508999Y-108246253D02*
X174508999Y-107723749D01*
X123615000Y-89338748D02*
X123615000Y-89861252D01*
X125085000Y-89338748D02*
X125085000Y-89861252D01*
X131488748Y-94165000D02*
X132011252Y-94165000D01*
X131488748Y-95635000D02*
X132011252Y-95635000D01*
X126865000Y-89827064D02*
X126865000Y-89372936D01*
X128335000Y-89827064D02*
X128335000Y-89372936D01*
D10*
X115040000Y-111170000D02*
G75*
G02*
X111540000Y-111170000I-1750000J0D01*
G01*
X111540000Y-111170000D02*
G75*
G02*
X115040000Y-111170000I1750000J0D01*
G01*
D11*
X178578999Y-108246253D02*
X178578999Y-107723749D01*
X177108999Y-108246253D02*
X177108999Y-107723749D01*
X155850000Y-82185000D02*
X158535000Y-82185000D01*
X158535000Y-80265000D02*
X155850000Y-80265000D01*
X158535000Y-82185000D02*
X158535000Y-80265000D01*
X162515000Y-89762064D02*
X162515000Y-89307936D01*
X163985000Y-89762064D02*
X163985000Y-89307936D01*
X134968348Y-102135000D02*
X135490852Y-102135000D01*
X134968348Y-103605000D02*
X135490852Y-103605000D01*
X131900664Y-100611000D02*
X131446536Y-100611000D01*
X131900664Y-102081000D02*
X131446536Y-102081000D01*
D14*
X183205800Y-91314400D02*
X187575800Y-91314400D01*
X183205800Y-103514400D02*
X183205800Y-91314400D01*
X187575800Y-103514400D02*
X183205800Y-103514400D01*
X191445800Y-103514400D02*
X199705800Y-103514400D01*
X199705800Y-91314400D02*
X191445800Y-91314400D01*
X199705800Y-103514400D02*
X199705800Y-91314400D01*
X185164737Y-90664400D02*
G75*
G02*
X184506863Y-90664400I-328937J0D01*
G01*
X184506863Y-90664400D02*
G75*
G02*
X185164737Y-90664400I328937J0D01*
G01*
D11*
X170577935Y-124595001D02*
X171032063Y-124595001D01*
X170577935Y-123125001D02*
X171032063Y-123125001D01*
X184000000Y-108860000D02*
X184000000Y-104850000D01*
X184000000Y-108860000D02*
X186000000Y-108860000D01*
X186000000Y-108860000D02*
X186000000Y-104850000D01*
X169953000Y-90778064D02*
X169953000Y-90323936D01*
X171423000Y-90778064D02*
X171423000Y-90323936D01*
%LPC*%
D15*
X157884500Y-122732800D03*
X156059500Y-122732800D03*
D16*
X164719000Y-109780700D03*
X164719000Y-111605700D03*
D15*
X164112500Y-103630000D03*
X162287500Y-103630000D03*
D16*
X156083000Y-110796700D03*
X156083000Y-112621700D03*
D15*
X162257500Y-100280000D03*
X164082500Y-100280000D03*
X162297500Y-106900000D03*
X164122500Y-106900000D03*
D17*
X127880000Y-121360000D03*
D18*
X130420000Y-121360000D03*
D17*
X120570000Y-121400000D03*
D18*
X123110000Y-121400000D03*
D19*
X128987500Y-112650000D03*
X130812500Y-112650000D03*
X130852500Y-115190000D03*
X129027500Y-115190000D03*
D20*
X163322000Y-119762000D03*
X163322000Y-123062000D03*
X163319200Y-114581200D03*
X163319200Y-117881200D03*
X166319200Y-114631200D03*
X166319200Y-117931200D03*
X166302000Y-119702000D03*
X166302000Y-123002000D03*
D21*
X122410000Y-115240000D03*
X124310000Y-115240000D03*
X122400000Y-112880000D03*
X124300000Y-112880000D03*
D22*
X191175000Y-118000000D03*
X191175000Y-119900000D03*
D23*
X163150000Y-82450000D03*
X161250000Y-82450000D03*
D24*
X177200000Y-88712500D03*
X177200000Y-86887500D03*
D25*
X159037500Y-113220000D03*
D26*
X159037500Y-117220000D03*
D27*
X159037500Y-114020000D03*
X159037500Y-116420000D03*
D28*
X119725000Y-81550000D03*
X127675000Y-81550000D03*
X119725000Y-86050000D03*
X127675000Y-86050000D03*
D21*
X180355200Y-87833200D03*
X182255200Y-87833200D03*
D24*
X152730000Y-112612500D03*
X152730000Y-110787500D03*
D21*
X180202800Y-94691200D03*
X182102800Y-94691200D03*
D24*
X173943999Y-120596501D03*
X173943999Y-122421501D03*
D29*
X115850000Y-93275000D03*
D30*
X118390000Y-93275000D03*
X115850000Y-95815000D03*
X118390000Y-95815000D03*
X115850000Y-98355000D03*
X118390000Y-98355000D03*
X115850000Y-100895000D03*
X118390000Y-100895000D03*
X115850000Y-103435000D03*
X118390000Y-103435000D03*
D31*
X167767000Y-95946000D03*
X167767000Y-94046000D03*
X165892000Y-94996000D03*
D21*
X130749000Y-97536000D03*
X132649000Y-97536000D03*
D15*
X161337500Y-86050000D03*
X163162500Y-86050000D03*
X158467500Y-110980000D03*
X160292500Y-110980000D03*
D32*
X189350000Y-115300000D03*
X189350000Y-113000000D03*
D33*
X183050000Y-113000000D03*
D32*
X189350000Y-110700000D03*
D34*
X185547000Y-122529600D03*
D35*
X167343999Y-108935001D03*
X167343999Y-107035001D03*
D15*
X156084900Y-120599200D03*
X157909900Y-120599200D03*
D19*
X144828900Y-111480600D03*
X143003900Y-111480600D03*
D36*
X194100000Y-106400000D03*
X198100000Y-106400000D03*
D21*
X180304400Y-91338400D03*
X182204400Y-91338400D03*
D35*
X149010000Y-116010000D03*
X149010000Y-117910000D03*
D37*
X177750000Y-82350000D03*
D38*
X180290000Y-82350000D03*
X182830000Y-82350000D03*
X185370000Y-82350000D03*
X187910000Y-82350000D03*
D39*
X151212500Y-81100000D03*
X149337500Y-81100000D03*
D40*
X152539999Y-120069999D03*
X152539999Y-120720000D03*
X152539999Y-121369999D03*
X152539999Y-122020000D03*
X152539999Y-122669999D03*
X152539999Y-123320000D03*
X152539999Y-123969999D03*
X146840001Y-123969999D03*
X146840001Y-123320000D03*
X146840001Y-122669999D03*
X146840001Y-122020000D03*
X146840001Y-121369999D03*
X146840001Y-120720000D03*
X146840001Y-120069999D03*
D41*
X131985000Y-109728000D03*
D42*
X135985000Y-109728000D03*
D27*
X132785000Y-109728000D03*
X135185000Y-109728000D03*
D19*
X129012500Y-107025000D03*
X127187500Y-107025000D03*
X137087500Y-94450000D03*
X135262500Y-94450000D03*
D16*
X139344400Y-104649900D03*
X139344400Y-106474900D03*
X163250000Y-94972500D03*
X163250000Y-96797500D03*
D34*
X183489600Y-118719600D03*
D43*
X169119999Y-117820000D03*
X169770000Y-117820000D03*
X170419999Y-117820000D03*
X171070000Y-117820000D03*
X171719998Y-117820000D03*
X172370000Y-117820000D03*
X173019998Y-117820000D03*
X173670000Y-117820000D03*
X174319998Y-117820000D03*
X174970000Y-117820000D03*
X175619998Y-117820000D03*
X176269999Y-117820000D03*
X176919998Y-117820000D03*
X177569999Y-117820000D03*
X177569999Y-112120002D03*
X176919998Y-112120002D03*
X176269999Y-112120002D03*
X175619998Y-112120002D03*
X174970000Y-112120002D03*
X174319998Y-112120002D03*
X173670000Y-112120002D03*
X173019998Y-112120002D03*
X172370000Y-112120002D03*
X171719998Y-112120002D03*
X171070000Y-112120002D03*
X170419999Y-112120002D03*
X169770000Y-112120002D03*
X169119999Y-112120002D03*
D24*
X130950000Y-90575000D03*
X130950000Y-88750000D03*
D42*
X124968000Y-107289600D03*
D44*
X123518000Y-107289600D03*
D28*
X131250000Y-81600000D03*
X139200000Y-81600000D03*
X131250000Y-86100000D03*
X139200000Y-86100000D03*
D45*
X141850000Y-90665000D03*
X141850000Y-91935000D03*
X141850000Y-93205000D03*
X141850000Y-94475000D03*
X141850000Y-95745000D03*
X141850000Y-97015000D03*
X141850000Y-98285000D03*
X141850000Y-99555000D03*
X141850000Y-100825000D03*
X141850000Y-102095000D03*
X141850000Y-103365000D03*
X141850000Y-104635000D03*
X141850000Y-105905000D03*
X141850000Y-107175000D03*
D46*
X143615000Y-108425000D03*
X144885000Y-108425000D03*
X146155000Y-108425000D03*
X147425000Y-108425000D03*
X148695000Y-108425000D03*
X149965000Y-108425000D03*
X151235000Y-108425000D03*
X152505000Y-108425000D03*
X153775000Y-108425000D03*
X155045000Y-108425000D03*
X156315000Y-108425000D03*
X157585000Y-108425000D03*
D45*
X159350000Y-107175000D03*
X159350000Y-105905000D03*
X159350000Y-104635000D03*
X159350000Y-103365000D03*
X159350000Y-102095000D03*
X159350000Y-100825000D03*
X159350000Y-99555000D03*
X159350000Y-98285000D03*
X159350000Y-97015000D03*
X159350000Y-95745000D03*
X159350000Y-94475000D03*
X159350000Y-93205000D03*
X159350000Y-91935000D03*
X159350000Y-90665000D03*
D47*
X149100000Y-98385000D03*
X147700000Y-96985000D03*
X147700000Y-98385000D03*
X147700000Y-99785000D03*
X149100000Y-99785000D03*
X150500000Y-99785000D03*
X150500000Y-98385000D03*
X150500000Y-96985000D03*
X149100000Y-96985000D03*
D19*
X137062500Y-97150000D03*
X135237500Y-97150000D03*
D21*
X130800000Y-103925000D03*
X132700000Y-103925000D03*
D23*
X139200000Y-88950000D03*
X137300000Y-88950000D03*
D39*
X144662500Y-81325000D03*
X142787500Y-81325000D03*
D48*
X128125000Y-94075000D03*
X128125000Y-94725000D03*
X128125000Y-95375000D03*
X128125000Y-96025000D03*
X128125000Y-96675000D03*
X128125000Y-97325000D03*
X128125000Y-97975000D03*
X128125000Y-98625000D03*
X128125000Y-99275000D03*
X128125000Y-99925000D03*
X128125000Y-100575000D03*
X128125000Y-101225000D03*
X128125000Y-101875000D03*
X128125000Y-102525000D03*
X128125000Y-103175000D03*
D15*
X170283500Y-100457000D03*
X172108500Y-100457000D03*
D31*
X167688500Y-91440000D03*
X167688500Y-89540000D03*
X165813500Y-90490000D03*
D19*
X139573000Y-111125000D03*
X137748000Y-111125000D03*
D22*
X179643999Y-123959001D03*
X179643999Y-122059001D03*
D34*
X190881000Y-86563200D03*
D35*
X151750000Y-116050000D03*
X151750000Y-117950000D03*
X176843999Y-120459001D03*
X176843999Y-122359001D03*
D36*
X194100000Y-111000000D03*
X198100000Y-111000000D03*
D35*
X170043999Y-107035001D03*
X170043999Y-108935001D03*
D23*
X139175000Y-92000000D03*
X137275000Y-92000000D03*
D35*
X154410000Y-116090000D03*
X154410000Y-117990000D03*
D34*
X113370000Y-115370000D03*
D49*
X196000000Y-121000000D03*
D21*
X180250000Y-98000000D03*
X182150000Y-98000000D03*
D16*
X170815000Y-94083500D03*
X170815000Y-95908500D03*
D49*
X115000000Y-121000000D03*
D28*
X165675000Y-81450000D03*
X173625000Y-81450000D03*
X165675000Y-85950000D03*
X173625000Y-85950000D03*
D35*
X172643999Y-107035001D03*
X172643999Y-108935001D03*
D50*
X176562500Y-92750000D03*
D51*
X174625000Y-94000000D03*
X174625000Y-93500000D03*
X174625000Y-93000000D03*
X174625000Y-92500000D03*
X174625000Y-92000000D03*
X174625000Y-91500000D03*
D52*
X175312500Y-90812500D03*
X175812500Y-90812500D03*
X176312500Y-90812500D03*
X176812500Y-90812500D03*
X177312500Y-90812500D03*
X177812500Y-90812500D03*
D51*
X178500000Y-91500000D03*
X178500000Y-92000000D03*
X178500000Y-92500000D03*
X178500000Y-93000000D03*
X178500000Y-93500000D03*
X178500000Y-94000000D03*
D52*
X177812500Y-94687500D03*
X177312500Y-94687500D03*
X176812500Y-94687500D03*
X176312500Y-94687500D03*
X175812500Y-94687500D03*
X175312500Y-94687500D03*
D23*
X169727999Y-121309001D03*
X171627999Y-121309001D03*
D49*
X196000000Y-84000000D03*
D22*
X134200000Y-88700000D03*
X134200000Y-90600000D03*
D36*
X194100000Y-115600000D03*
X198100000Y-115600000D03*
D22*
X188075000Y-118025000D03*
X188075000Y-119925000D03*
D35*
X175243999Y-107035001D03*
X175243999Y-108935001D03*
D22*
X124350000Y-88650000D03*
X124350000Y-90550000D03*
D21*
X130800000Y-94900000D03*
X132700000Y-94900000D03*
D24*
X127600000Y-90512500D03*
X127600000Y-88687500D03*
D34*
X113290000Y-111170000D03*
D35*
X177843999Y-107035001D03*
X177843999Y-108935001D03*
D39*
X157787500Y-81225000D03*
X155912500Y-81225000D03*
D24*
X163250000Y-90447500D03*
X163250000Y-88622500D03*
D21*
X134279600Y-102870000D03*
X136179600Y-102870000D03*
D19*
X132586100Y-101346000D03*
X130761100Y-101346000D03*
D53*
X184835800Y-96164400D03*
D54*
X184835800Y-98664400D03*
X186835800Y-98664400D03*
X186835800Y-96164400D03*
D55*
X189545800Y-103434400D03*
X189545800Y-91394400D03*
D49*
X115000000Y-84000000D03*
D15*
X171717499Y-123860001D03*
X169892499Y-123860001D03*
D56*
X185000000Y-108150000D03*
X185000000Y-104850000D03*
D24*
X170688000Y-91463500D03*
X170688000Y-89638500D03*
%LPD*%
M02*
